<svg xmlns="http://www.w3.org/2000/svg" xml:space="preserve" overflow="hidden" viewBox="0 0 1650 662"><g fill="#7f7f7f" font-family="'Times New Roman', 'Times New Roman_MSFontService', sans-serif" font-size="41" font-style="italic" font-weight="400"><text style="text-decoration-line:none" transform="translate(21.312 413.9999)">= Using digital </text><text style="text-decoration-line:none" transform="translate(21.312 472.9999)">measurement </text><text style="text-decoration-line:none" transform="translate(21.312 531.9999)">technology to </text><text style="text-decoration-line:none" transform="translate(21.312 591.9999)">record and compare </text><text style="text-decoration-line:none" transform="translate(21.312 650.9999)">performances</text></g><g fill="#012f96"><path d="m290.6263 360.5581 131.67-263.86-10.253-5.116-131.67 263.86zm139.37-253.62-.029-38.433-30.728 23.084z"/><path d="M285.5 351.7699h115.82v11.459l-115.82-.001zm110.09-11.458 34.375 17.187-34.375 17.188zM872.46241 74.1187l171.12-29.159-1.924-11.296-171.12 29.159zm167.39-16.901 31-22.718-36.774-11.169zM872.5558 363.5109l171.2-32.101-2.111-11.262-171.2 32.101zm167.68-19.783 30.619-23.228-36.954-10.558z"/><path d="m872.46 62.8519 171.12 29.159-1.93 11.296-171.11-29.159zm167.4 16.901 30.99 22.718-36.77 11.169z"/></g><g font-family="'Times New Roman', 'Times New Roman_MSFontService', sans-serif" font-size="50" font-weight="400"><text style="text-decoration-line:none" transform="translate(1103.6 54.9999)">High Fidelity (MR, 3D...)</text><text style="text-decoration-line:none" transform="translate(1103.6 121.9999)">Low Fidelity (text...)</text><text style="text-decoration-line:none" transform="translate(1103.6 340.9999)">Co</text><text style="text-decoration-line:none" transform="translate(1162.6 340.9999)">-</text><text style="text-decoration-line:none" transform="translate(1179.2 340.9999)">located (local)</text><text style="text-decoration-line:none" transform="translate(1103.6 411.9999)">Distributed (remote)</text><text style="text-decoration-line:none" transform="translate(1103.6 579.9999)">Decoupled (asynchronous)</text><text style="text-decoration-line:none" transform="translate(1103.6 646.9999)">Real</text><text style="text-decoration-line:none" transform="translate(1195.8 646.9999)">-</text><text style="text-decoration-line:none" transform="translate(1212.4 646.9999)">time (synchronous)</text></g><g fill="#012f96"><path d="m872.46 351.8499 171.12 29.175-1.93 11.295-171.11-29.174zm167.4 16.917 30.99 22.72-36.77 11.166zM872.45388 598.8091l171.11-28.892-1.908-11.298-171.11 28.892zm167.37-16.64 31.034-22.671-36.757-11.224z"/><path d="m872.45 586.8499 171.11 28.891-1.91 11.298-171.1-28.891zm167.37 16.639 31.03 22.67-36.75 11.225z"/></g><g font-family="'Times New Roman', 'Times New Roman_MSFontService', sans-serif" font-size="50" font-weight="700"><text style="text-decoration-line:none" transform="translate(467.3 55.9999)">Representational</text><text style="text-decoration-line:none" transform="translate(568.13 115.9999)">Fidelity</text><text style="text-decoration-line:none" transform="translate(523.16 375.9999)">Remoteness</text><text style="text-decoration-line:none" transform="translate(503.39 610.9999)">(A)synchrony</text></g><g fill="#c69700"><path d="m699.2287 301.46257 1.4238-112.25-11.457-.145-1.4238 112.25zm12.809-106.38-16.75-34.59-17.622 34.154zM608.23 160.4299l1.424 112.25-11.458.145-1.424-112.25zm12.808 106.38-16.75 34.59-17.622-34.154zM697.2287 556.46257l1.4238-112.25-11.457-.145-1.4238 112.25zm12.809-106.38-16.75-34.59-17.622 34.154zM607.23 415.4299l1.424 112.25-11.458.145-1.424-112.25zm12.808 106.38-16.75 34.59-17.622-34.154z"/></g><path fill="#012f96" d="m290.38 354.4999 129.47 210.79-9.764 5.997-129.47-210.79zm136.24 199.91 3.346 38.286-32.637-20.295z"/><text font-family="'Times New Roman', 'Times New Roman_MSFontService', sans-serif" font-size="50" font-weight="700" style="text-decoration-line:none" transform="translate(10.686 283.9999)">Virtuality</text><text font-family="'Times New Roman', 'Times New Roman_MSFontService', sans-serif" font-size="50" font-weight="700" style="text-decoration-line:none" transform="translate(33.603 356.9999)">in sport</text></svg>