<?xml version="1.0" encoding="UTF-8"?>
<svg aria-hidden="true" focusable="false" role="img"
    version="1.0" viewBox="0 0 211 750"
    xmlns="http://www.w3.org/2000/svg">
    <path transform="matrix(1.11 0 0 1.11 -450 -101)"
        d="m595 156-49.4-65-49.4 65h31.7v546h-31.7l49.4 65 49.4-65h-31.7v-546z" />
    <path transform="matrix(1.07 0 0 1.07 -430 -84)"
        d="m492 639c-30 0-54.4-22.2-54.4-49.4v-109c0-20.7-12.9-39.2-33.6-48.4-1.49-0.664-2.45-2.14-2.45-3.77 0-1.64 0.961-3.12 2.45-3.78 20.7-9.18 33.6-27.7 33.6-48.4v-109c0-27.3 24.4-49.4 54.4-49.4 2.28 0 4.13 1.85 4.13 4.13s-1.85 4.12-4.13 4.12c-25.4 0-46.1 18.5-46.1 41.2v109c0 21.1-12 40.8-31.2 52.2 19.2 11.4 31.2 31.1 31.2 52.2v109c0 22.7 20.7 41.2 46.1 41.2 2.28 0 4.13 1.84 4.13 4.13 0 2.28-1.85 4.13-4.13 4.13" />
</svg>