<?xml version="1.0" encoding="UTF-8"?>
<svg version="1.1" viewBox="0 0 142 113" xmlns="http://www.w3.org/2000/svg">
    <path
        d="m42.5 21.6-14.2 5.02v1.77l14.2-5.02 14.2 5.02v-1.77l-14.2-5.02zm-12.5 7.71 1.66 1.66h21.6l1.66-1.66h-24.9zm1.66 3.33v10.8h1.66v-10.8h-1.66zm3.33 0v10.8h1.66v-10.8h-1.66zm3.33 0v10.8h1.66v-10.8h-1.66zm3.32 0v10.8h1.66v-10.8h-1.66zm3.33 0v10.8h1.66v-10.8h-1.66zm3.33 0v10.8h1.66v-10.8h-1.66zm3.32 0v10.8h1.66v-10.8h-1.66zm-21.7 12.5v1.66h25v-1.66h-25zm-1.66 3.32v1.66h28.3v-1.66h-28.3zm3.93 8.1c-3.06 0-4.29 1.47-4.29 6.1 0 4.43 0.778 6.1 3.96 6.1 1.21 0 2.59-0.38 2.93-0.598v-6.35h-3.4v1.41h1.74v3.92c-0.325 0.0917-0.758 0.164-1.28 0.164-1.7 0-2.22-0.797-2.22-4.65 0-3.89 0.742-4.61 2.7-4.61 0.796 0 1.63 0.273 2.06 0.525v-1.54c-0.397-0.235-1.32-0.471-2.19-0.471zm4.59 0.217v11.8h1.66v-5.34h3.58v5.34h1.66v-11.8h-1.66v5.01h-3.58v-5.01h-1.66zm9.27 0v11.8h5.5v-1.41h-3.83v-3.95h3.09v-1.39h-3.09v-3.6h3.83v-1.41h-5.5zm7.42 0v11.8h1.59v-6.24c0-1.07-0.127-2.21-0.271-3.17l3.74 9.41h1.92v-11.8h-1.59v6.24c0 1.05 0.108 2.17 0.234 3.13l-3.71-9.37h-1.92zm8.51 0v1.41h2.53v10.3h1.66v-10.3h2.55v-1.41h-6.75zm16.3 16.4c-2.21 0-3.42 1.26-3.42 3.08 0 1.52 0.644 2.25 1.68 3.14l0.945 0.816c0.781 0.654 1.27 1.16 1.27 2.14 0 1.14-0.755 1.6-1.89 1.6-0.859 0-1.57-0.238-1.98-0.521v1.52c0.362 0.208 1.12 0.424 2.13 0.422 2.2-0.0052 3.42-1.26 3.42-3.08 0.0015-1.52-0.644-2.25-1.68-3.14l-0.945-0.82c-0.784-0.67-1.27-1.15-1.27-2.13 0.0031-1.15 0.752-1.6 1.89-1.6 0.734-0.0021 1.43 0.238 1.74 0.488v-1.5c-0.318-0.195-1.1-0.412-1.89-0.412zm-50.1 0.217v8.21c0 2.71 1.09 3.76 3.47 3.76 2.35 1e-6 3.47-1.09 3.47-3.76v-8.21h-1.66v8.28c0 1.74-0.597 2.24-1.81 2.24-1.21 0-1.81-0.507-1.81-2.24v-8.28h-1.66zm9.1 0v11.8h1.59v-6.24c0-1.07-0.127-2.21-0.271-3.17l3.74 9.41h1.92v-11.8h-1.59v6.24c0 1.05 0.108 2.17 0.234 3.13l-3.71-9.37h-1.92zm9.34 0v11.8h1.66v-11.8h-1.66zm3.21 0 2.98 11.8h1.74l2.98-11.8h-1.68l-1.46 6.11c-0.253 0.923-0.524 2.48-0.688 3.71-0.163-1.23-0.433-2.79-0.65-3.71l-1.48-6.11h-1.74zm9.25 0v11.8h5.5v-1.41h-3.84v-3.94h3.09v-1.39h-3.09v-3.6h3.84v-1.41h-5.5zm7.42 0v11.8h1.66v-4.79h1.12l2.21 4.79h1.9l-2.5-5.1c1.14-0.417 2.04-1.32 2.04-3.18 0-2.66-1.55-3.47-3.72-3.47h-2.71zm15.9 0v11.8h1.66v-11.8h-1.66zm3.24 0v1.41h2.53v10.3h1.66v-10.3h2.55v-1.41h-6.75zm7.4 0 3.22 6.88v4.88h1.66v-4.88l3.2-6.88h-1.77l-1.39 3.17c-0.325 0.759-0.652 1.57-0.869 2.3-0.199-0.724-0.506-1.54-0.832-2.3l-1.39-3.17h-1.83zm-24.8 1.41h0.887c1.3 0 2.17 0.271 2.17 2.06 0 1.81-0.868 2.08-2.17 2.08h-0.887v-4.14z"
        fill="fill-current" />
</svg>