<?xml version="1.0" encoding="UTF-8"?>
<svg width="664.12" height="250" preserveAspectRatio="xMidYMin" version="1.0" viewBox="0 0 498.09 187.5" xmlns="http://www.w3.org/2000/svg" xmlns:xlink="http://www.w3.org/1999/xlink" zoomAndPan="magnify"><defs><clipPath id="f"><path d="m0 510h304.95v300h-304.95z"/></clipPath><clipPath id="e"><path d="m1124.2 510h315.75v300h-315.75z"/></clipPath><radialGradient id="a" cx="1216.3" cy="614.98" r="86.832" gradientTransform="matrix(1 0 0 .78469 0 132.41)" gradientUnits="userSpaceOnUse"><stop stop-color="#fdf7c4" offset="0"/><stop stop-color="#f7cb2d" offset="1"/></radialGradient><clipPath id="d"><rect width="1440" height="540.75" fill="#2097ff" fill-opacity=".15439" stroke-linecap="square" stroke-miterlimit="0" stroke-width="1.6277"/></clipPath><clipPath id="c"><rect y="1079.2" width="1440" height="540.75" fill="#726df9" fill-opacity=".15439" stroke-linecap="square" stroke-miterlimit="0" stroke-width="1.6277"/></clipPath><clipPath id="b"><g clip-path="url(#b)"><path transform="translate(0,-538.5)" d="m1105.6 810v2.2109h-771.26v-2.2109h-2.6997v232.48c0 115.34-41.524 226.08-120.07 320.24l-211.6 253.66 2.2031 1.3279v2.299h1435.6v-2.299l2.2031-1.3279-211.6-253.66c-78.547-94.156-120.07-204.89-120.07-320.24v-232.48zm-768.55 2.2887h42.797v49.268h-42.797zm48.195 0h42.797v49.268h-42.797zm48.207 0h42.797v49.268h-42.797zm48.208 0h42.792v49.268h-42.792zm48.207 0h42.792v49.268h-42.792zm48.195 0h42.794v49.268h-42.794zm48.204 0h42.797v49.268h-42.797zm48.207 0h42.797v49.268h-42.797zm48.196 0h42.797v49.268h-42.797zm48.207 0h42.797v49.268h-42.797zm48.207 0h42.794v49.268h-42.794zm48.196 0h42.804v49.268h-42.804zm48.207 0h42.792v49.268h-42.792zm48.204 0h42.797v49.268h-42.797zm48.195 0h42.809v49.268h-42.809zm48.206 0h42.797v49.268h-42.797zm-723.04 53.845h42.797v49.26h-42.797zm48.195 0h42.797v49.26h-42.797zm48.207 0h42.797v49.26h-42.797zm48.208 0h42.792v49.26h-42.792zm48.207 0h42.792v49.26h-42.792zm48.195 0h42.794v49.26h-42.794zm48.204 0h42.797v49.26h-42.797zm48.207 0h42.797v49.26h-42.797zm48.196 0h42.797v49.26h-42.797zm48.207 0h42.797v49.26h-42.797zm48.207 0h42.794v49.26h-42.794zm48.196 0h42.804v49.26h-42.804zm48.207 0h42.792v49.26h-42.792zm48.204 0h42.797v49.26h-42.797zm48.195 0h42.809v49.26h-42.809zm48.206 0h42.797v49.26h-42.797zm-723.04 53.848h42.797v49.268h-42.797zm48.195 0h42.797v49.268h-42.797zm48.207 0h42.797v49.268h-42.797zm48.208 0h42.792v49.268h-42.792zm48.207 0h42.792v49.268h-42.792zm48.195 0h42.794v49.268h-42.794zm48.204 0h42.797v49.268h-42.797zm48.207 0h42.797v49.268h-42.797zm48.196 0h42.797v49.268h-42.797zm48.207 0h42.797v49.268h-42.797zm48.207 0h42.794v49.268h-42.794zm48.196 0h42.804v49.268h-42.804zm48.207 0h42.792v49.268h-42.792zm48.204 0h42.797v49.268h-42.797zm48.195 0h42.809v49.268h-42.809zm48.206 0h42.797v49.268h-42.797zm-723.04 53.848h42.797v49.257h-42.797zm48.195 0h42.797v49.257h-42.797zm48.207 0h42.797v49.257h-42.797zm48.208 0h42.792v49.257h-42.792zm48.207 0h42.792v49.257h-42.792zm48.195 0h42.794v49.257h-42.794zm48.204 0h42.797v49.257h-42.797zm48.207 0h42.797v49.257h-42.797zm48.196 0h42.797v49.257h-42.797zm48.207 0h42.797v49.257h-42.797zm48.207 0h42.794v49.257h-42.794zm48.196 0h42.804v49.257h-42.804zm48.207 0h42.792v49.257h-42.792zm48.204 0h42.797v49.257h-42.797zm48.195 0h42.809v49.257h-42.809zm48.206 0h42.797v49.257h-42.797zm-723.04 53.845h42.797v14.805c0 11.543-0.38276 23.026-1.1016 34.463h-42.965c0.832-11.457 1.27-22.95 1.27-34.463zm48.195 0h42.797v14.805c0 11.543-0.32761 23.026-0.93311 34.463h-42.965c0.7304-11.457 1.1016-22.95 1.1016-34.463zm48.207 0h42.797v14.805c0 11.543-0.26855 23.026-0.78808 34.463h-42.942c0.6211-11.437 0.93311-22.92 0.93311-34.463zm48.208 0h42.792v14.805c1e-5 11.543-0.22216 23.026-0.62841 34.463h-42.954c0.51954-11.437 0.78955-22.92 0.78955-34.463zm48.207 0h42.792v14.805c0 11.543-0.20313 23.026-0.51563 34.463h-42.91c0.40625-11.437 0.63282-22.92 0.63282-34.463zm48.195 0h42.794v14.805c0 11.543-0.13379 23.026-0.33692 34.463h-42.964c0.3164-11.437 0.50683-22.92 0.50683-34.463zm48.204 0h42.797v14.805c0 11.543-0.0669 23.026-0.16846 34.463h-42.964c0.20312-11.437 0.33544-22.92 0.33544-34.463zm48.207 0h42.797v49.268h-42.964c0.10157-11.437 0.16699-22.92 0.16699-34.463zm48.196 0h42.797v14.805c0 11.543 0.0654 23.026 0.16699 34.463h-42.964zm48.207 0h42.797v14.805c0 11.543 0.13233 23.026 0.33545 34.463h-42.964c-0.10157-11.437-0.16846-22.92-0.16846-34.463zm48.207 0h42.794v14.805c0 11.543 0.19043 23.026 0.50683 34.463h-42.964c-0.20313-11.437-0.33692-22.92-0.33692-34.463zm48.196 0h42.804v14.805c0 11.543 0.21485 23.026 0.62109 34.463h-42.91c-0.3125-11.437-0.51563-22.92-0.51563-34.463zm48.207 0h42.792v14.805c0 11.543 0.27002 23.026 0.78955 34.463h-42.954c-0.40625-11.437-0.62842-22.92-0.62842-34.463zm48.204 0h42.797v14.805c0 11.543 0.3237 23.026 0.9331 34.463h-42.942c-0.51953-11.437-0.78808-22.92-0.78808-34.463zm48.195 0h42.809v14.805c0 11.513 0.3711 23.006 1.1015 34.463h-42.965c-0.6055-11.437-0.9448-22.92-0.9448-34.463zm48.206 0h42.797v14.805c0 11.513 0.438 23.006 1.27 34.463h-42.965c-0.7188-11.437-1.1016-22.92-1.1016-34.463zm-724.67 53.858h42.996c-1.1797 16.547-3.1177 32.984-5.8052 49.247h-43.852c3.082-16.312 5.2973-32.746 6.6606-49.247zm48.398 0h43.008c-1.0117 16.547-2.6801 32.984-4.9731 49.247h-43.852c2.6875-16.312 4.6333-32.746 5.8169-49.247zm48.429 0h42.984c-0.84374 16.547-2.2266 32.984-4.1367 49.247h-43.797c2.293-16.262 3.9379-32.7 4.9497-49.247zm48.398 0h42.996c-0.67578 16.547-1.7891 32.984-3.3164 49.247h-43.797c1.8984-16.262 3.2739-32.7 4.1177-49.247zm48.406 0h42.977c-0.50781 16.547-1.3286 32.984-2.477 49.247h-43.793c1.5156-16.262 2.6211-32.7 3.293-49.247zm48.387 0h43c-0.33985 16.547-0.89112 32.984-1.6567 49.247h-43.816c1.1445-16.262 1.9688-32.7 2.4727-49.247zm48.41 0h43.008c-0.17969 16.547-0.44921 32.984-0.83203 49.247h-43.819c0.76563-16.262 1.3076-32.7 1.6436-49.247zm48.41 0h43.008v49.247h-43.831c0.38281-16.262 0.65136-32.7 0.82324-49.247zm48.407 0h43.008c0.17188 16.547 0.44043 32.984 0.82324 49.247h-43.831zm48.41 0h43.008c0.33594 16.547 0.87792 32.984 1.6436 49.247h-43.819c-0.38282-16.262-0.65235-32.7-0.83203-49.247zm48.417 0h43c0.50391 16.547 1.3281 32.984 2.4727 49.247h-43.816c-0.77734-16.262-1.3169-32.7-1.6567-49.247zm48.41 0h42.977c0.67188 16.547 1.7774 32.984 3.293 49.247h-43.793c-1.1484-16.262-1.9692-32.7-2.477-49.247zm48.387 0h42.996c0.84375 16.547 2.2192 32.984 4.1177 49.247h-43.797c-1.5273-16.262-2.6406-32.7-3.3164-49.247zm48.41 0h42.984c1.0117 16.547 2.6568 32.984 4.9498 49.247h-43.797c-1.9101-16.262-3.293-32.7-4.1367-49.247zm48.406 0h43.008c1.1954 16.501 3.1294 32.935 5.8169 49.247h-43.852c-2.293-16.262-3.9615-32.7-4.9732-49.247zm48.41 0h42.996c1.3633 16.501 3.5786 32.935 6.6606 49.247h-43.852c-2.6875-16.262-4.6255-32.7-5.8052-49.247zm-733.65 53.835h43.964c-2.8906 16.607-6.5581 33.044-10.976 49.27h-45.497c5.0391-16.276 9.2154-32.71 12.508-49.27zm49.343 0h43.978c-2.4766 16.607-5.6259 33.044-9.4189 49.27h-45.516c4.4218-16.276 8.0781-32.71 10.957-49.27zm49.422 0h43.898c-2.0586 16.607-4.6802 33.044-7.8325 49.27h-45.413c3.7656-16.226 6.894-32.664 9.3472-49.27zm49.332 0h43.919c-1.6523 16.607-3.7471 33.044-6.2666 49.27h-45.437c3.1367-16.226 5.7373-32.664 7.7842-49.27zm49.34 0h43.887c-1.2383 16.607-2.7896 33.044-4.6919 49.27h-45.425c2.5078-16.226 4.5894-32.664 6.23-49.27zm49.308 0h43.934c-0.82031 16.607-1.8555 33.044-3.1289 49.27h-45.483c1.8906-16.226 3.4522-32.664 4.6787-49.27zm49.356 0h43.941c-0.41406 16.607-0.93408 33.044-1.563 49.27h-45.507c1.2617-16.226 2.3086-32.664 3.1289-49.27zm49.355 0h43.941v49.27h-45.507c0.62891-16.226 1.148-32.664 1.5659-49.27zm49.34 0h43.941c0.41796 16.607 0.93702 33.044 1.5659 49.27h-45.507zm49.355 0h43.941c0.82031 16.607 1.8672 33.044 3.1289 49.27h-45.507c-0.62891-16.226-1.1489-32.664-1.563-49.27zm49.364 0h43.934c1.2266 16.607 2.7881 33.044 4.6787 49.27h-45.483c-1.2734-16.226-2.3086-32.664-3.1289-49.27zm49.355 0h43.887c1.6406 16.607 3.7222 33.044 6.23 49.27h-45.425c-1.9023-16.226-3.4536-32.664-4.6919-49.27zm49.308 0h43.919c2.0469 16.607 4.6475 33.044 7.7842 49.27h-45.437c-2.5195-16.226-4.6142-32.664-6.2666-49.27zm49.352 0h43.898c2.4532 16.607 5.5816 33.044 9.3472 49.27h-45.413c-3.1523-16.226-5.7739-32.664-7.8325-49.27zm49.343 0h43.978c2.8789 16.56 6.5352 32.995 10.957 49.27h-45.516c-3.793-16.226-6.9423-32.664-9.4189-49.27zm49.356 0h43.964c3.2929 16.56 7.4692 32.995 12.508 49.27h-45.497c-4.418-16.226-8.0855-32.664-10.976-49.27zm-754.18 53.858h45.677c-4.7148 16.663-10.227 33.091-16.54 49.257h-47.878c3.8711-8.7838 7.5147-17.638 10.878-26.594 2.8125-7.5185 5.4219-15.072 7.8633-22.664zm51.086 0h45.687c-4.0274 16.663-8.7534 33.091-14.164 49.257h-47.925c3.3985-8.8036 6.5938-17.693 9.5391-26.668 2.4531-7.4987 4.7378-15.024 6.8628-22.589zm51.211 0h45.586c-3.3633 16.663-7.3008 33.091-11.801 49.257h-47.859c5.3672-16.166 10.07-32.604 14.074-49.257zm51.063 0h45.621c-2.6914 16.663-5.8408 33.091-9.4424 49.257h-47.902c4.4688-16.166 8.3833-32.604 11.723-49.257zm51.078 0h45.628c-2.0156 16.663-4.398 33.081-7.0972 49.257h-47.925c3.5859-16.166 6.7144-32.604 9.394-49.257zm51.063 0h45.664c-1.3398 16.663-2.938 33.081-4.7388 49.257h-47.991c2.6914-16.176 5.0625-32.594 7.0664-49.257zm51.085 0h45.665c-0.66407 16.663-1.4658 33.081-2.3642 49.257h-48.026c1.8008-16.176 3.3858-32.594 4.7256-49.257zm51.075 0h45.687v49.257h-48.038c0.89062-16.176 1.687-32.594 2.3511-49.257zm51.086 0h45.687c0.66406 16.663 1.4604 33.081 2.3511 49.257h-48.038zm51.097 0h45.665c1.3398 16.663 2.9248 33.081 4.7256 49.257h-48.026c-0.89843-16.176-1.7002-32.594-2.3642-49.257zm51.086 0h45.664c2.0039 16.663 4.375 33.081 7.0664 49.257h-47.991c-1.8008-16.176-3.3989-32.594-4.7388-49.257zm51.098 0h45.628c2.6797 16.653 5.8081 33.091 9.394 49.257h-47.925c-2.6992-16.176-5.0815-32.594-7.0972-49.257zm51.085 0h45.621c3.3398 16.653 7.2544 33.091 11.723 49.257h-47.902c-3.6016-16.166-6.751-32.594-9.4424-49.257zm51.098 0h45.586c4.0039 16.653 8.707 33.091 14.074 49.257h-47.859c-4.5-16.166-8.4375-32.594-11.801-49.257zm51.11 0h45.699c2.1132 7.5649 4.3979 15.09 6.851 22.589 2.9453 8.9758 6.1406 17.865 9.5391 26.668h-47.925c-5.4102-16.166-10.136-32.594-14.164-49.257zm51.097 0h45.677c2.4414 7.5914 5.0507 15.145 7.8632 22.664 3.3632 8.9559 7.0069 17.81 10.878 26.594h-47.878c-6.3125-16.166-11.825-32.594-16.54-49.257zm-787.18 53.838h48.082c-6.707 16.739-14.265 33.174-22.667 49.268h-51.021c9.461-16.044 18-32.492 25.605-49.268zm53.672 0h48.152c-5.75 16.739-12.23 33.174-19.43 49.268h-51.144c8.2812-16.044 15.761-32.492 22.421-49.268zm53.786 0h48.094c-4.7812 16.739-10.18 33.174-16.176 49.268h-51.188c7.1445-16.103 13.579-32.538 19.27-49.268zm53.663 0h48.161c-3.8359 16.739-8.1445 33.174-12.938 49.268h-51.297c5.9609-16.103 11.316-32.538 16.074-49.268zm53.676 0h48.16c-2.8711 16.729-6.0737 33.174-9.6753 49.268h-51.356c4.7695-16.103 9.0552-32.538 12.872-49.268zm53.625 0h48.253c-1.9023 16.729-4.0498 33.174-6.4365 49.268h-51.445c3.5781-16.094 6.773-32.538 9.6284-49.268zm53.688 0h48.284c-0.95703 16.729-2.0151 33.174-3.2183 49.268h-51.492c2.3984-16.094 4.5239-32.538 6.4263-49.268zm53.695 0h48.308v49.268h-51.516c1.1953-16.094 2.2627-32.538 3.208-49.268zm53.707 0h48.308c0.94532 16.729 2.0127 33.174 3.208 49.268h-51.516zm53.719 0h48.284c1.9023 16.729 4.0278 33.174 6.4263 49.268h-51.492c-1.2031-16.094-2.2612-32.538-3.2183-49.268zm53.719 0h48.253c2.8555 16.729 6.0503 33.174 9.6284 49.268h-51.445c-2.3867-16.094-4.5342-32.538-6.4365-49.268zm53.719 0h48.16c3.8164 16.729 8.1021 33.164 12.872 49.268h-51.356c-3.6016-16.094-6.8042-32.538-9.6753-49.268zm53.675 0h48.161c4.7578 16.729 10.113 33.164 16.074 49.268h-51.297c-4.793-16.094-9.1016-32.528-12.938-49.268zm53.73 0h48.094c5.6914 16.729 12.126 33.164 19.27 49.268h-51.188c-5.9961-16.094-11.395-32.528-16.176-49.268zm53.728 0h48.152c6.6602 16.776 14.14 33.224 22.421 49.268h-51.144c-7.1992-16.094-13.68-32.528-19.43-49.268zm53.742 0h48.082c7.6055 16.776 16.144 33.224 25.606 49.268h-51.021c-8.4022-16.094-15.96-32.528-22.667-49.268zm-833.91 53.855h51.354c-8.9883 16.816-18.886 33.263-29.698 49.257h-55.157c12.172-15.948 23.345-32.392 33.501-49.257zm57.207 0h51.48c-7.6953 16.816-16.179 33.263-25.437 49.257h-55.371c10.641-15.948 20.429-32.392 29.328-49.257zm57.274 0h51.535c-6.4101 16.816-13.476 33.263-21.195 49.257h-55.551c9.1797-16.004 17.583-32.442 25.211-49.257zm57.207 0h51.637c-5.1172 16.816-10.767 33.263-16.942 49.257h-55.723c7.6601-16.004 14.672-32.442 21.028-49.257zm57.218 0h51.68c-3.8359 16.809-8.0313 33.27-12.656 49.257h-55.854c6.1328-16.004 11.733-32.442 16.831-49.257zm57.192 0h51.797c-2.5547 16.809-5.3555 33.27-8.4258 49.257h-55.969c4.6016-15.994 8.7734-32.448 12.598-49.257zm57.253 0h51.841c-1.2812 16.809-2.6797 33.27-4.207 49.257h-56.039c3.0625-15.994 5.8506-32.448 8.4053-49.257zm57.262 0h51.863v49.257h-56.07c1.5312-15.994 2.9258-32.448 4.207-49.257zm57.262 0h51.863c1.2812 16.809 2.6758 33.263 4.207 49.257h-56.07zm57.284 0h51.841c2.5547 16.809 5.3428 33.263 8.4053 49.257h-56.039c-1.5274-15.988-2.9258-32.448-4.207-49.257zm57.297 0h51.797c3.8242 16.809 7.9961 33.263 12.598 49.257h-55.969c-3.0703-15.988-5.8711-32.448-8.4258-49.257zm57.309 0h51.68c5.0976 16.816 10.698 33.253 16.831 49.257h-55.854c-4.625-15.988-8.8203-32.448-12.656-49.257zm57.261 0h51.637c6.3554 16.816 13.368 33.253 21.028 49.257h-55.723c-6.1758-15.994-11.825-32.442-16.942-49.257zm57.309 0h51.535c7.6289 16.816 16.032 33.253 25.212 49.257h-55.551c-7.7188-15.994-14.785-32.442-21.195-49.257zm57.328 0h51.48c8.8983 16.865 18.687 33.31 29.328 49.257h-55.371c-9.2578-15.994-17.742-32.442-25.437-49.257zm57.332 0h51.354c10.156 16.865 21.329 33.31 33.501 49.257h-55.157c-10.812-15.994-20.71-32.442-29.698-49.257zm-896.06 53.848h55.566c-2.8008 4.0442-5.6362 8.0777-8.5503 12.075l-27.145 37.182h-60.527l28.915-34.654c4.0157-4.819 7.918-9.6915 11.742-14.603zm61.821 0h55.789c-2.4297 4.0905-4.8824 8.1649-7.4019 12.209l-23.188 37.048h-60.781l25.378-34.77c3.4883-4.7793 6.876-9.6152 10.204-14.487zm61.831 0h55.978c-2.0351 4.1401-4.1064 8.2709-6.2432 12.352l-19.238 36.906h-61.008l21.836-34.902c2.9687-4.7396 5.8505-9.5394 8.6748-14.355zm61.84 0h56.149c-1.6523 4.1965-3.3203 8.3729-5.0508 12.513l-15.324 36.744h-61.2l18.27-35.055c2.4531-4.6933 4.8277-9.4329 7.1558-14.202zm61.852 0h56.273c-1.2617 4.2428-2.5068 8.5088-3.8115 12.695l-11.442 36.562h-61.359l14.684-35.208c1.9336-4.6469 3.812-9.3399 5.6558-14.05zm61.852 0h56.411c-0.85546 4.3092-1.6992 8.6312-2.5781 12.877l-7.5938 36.38h-61.481l11.07-35.39c1.4414-4.5772 2.8008-9.2238 4.1719-13.867zm61.898 0h56.489c-0.44141 4.3786-0.86768 8.7633-1.3169 13.076l-3.769 36.182h-61.57l7.4224-35.578c0.94531-4.5144 1.8467-9.1021 2.7451-13.679zm61.91 0h56.531v49.257h-61.605l3.7236-35.781c0.46094-4.4449 0.90918-8.9656 1.3506-13.477zm61.931 0h56.531c0.44141 4.5112 0.88964 9.0319 1.3506 13.477l3.7236 35.781h-61.605zm61.953 0h56.489c0.89843 4.5773 1.7998 9.165 2.7451 13.679l7.4224 35.578h-61.57l-3.769-36.182c-0.44922-4.3124-0.87549-8.6971-1.3169-13.076zm61.976 0h56.411c1.3711 4.6436 2.7422 9.2902 4.1719 13.867l11.07 35.39h-61.481l-7.5938-36.38c-0.8789-4.2461-1.7226-8.5682-2.5781-12.877zm61.989 0h56.273c1.8438 4.7098 3.7222 9.4028 5.6558 14.05l14.684 35.208h-61.359l-11.442-36.562c-1.3047-4.1865-2.5498-8.4525-3.8115-12.695zm61.976 0h56.149c2.3281 4.7695 4.7026 9.5091 7.1557 14.202l18.27 35.055h-61.2l-15.324-36.744c-1.7305-4.1401-3.3984-8.3165-5.0508-12.513zm62.011 0h55.978c2.8243 4.8158 5.7061 9.6156 8.6748 14.355l21.836 34.902h-61.008l-19.238-36.906c-2.1368-4.0806-4.208-8.2114-6.2431-12.352zm62.02 0h55.789c3.3281 4.8721 6.7158 9.7081 10.204 14.487l25.378 34.77h-60.781l-23.188-37.048c-2.5195-4.0442-4.9722-8.1186-7.4019-12.209zm62.044 0h55.566c3.8242 4.9118 7.7265 9.7844 11.742 14.603l28.914 34.654h-60.527l-27.145-37.182c-2.9141-3.9976-5.7495-8.0312-8.5503-12.075zm-973.38 53.845h61.008l-35.953 49.26h-66.152zm67.362 0h61.27l-30.825 49.26h-66.387zm67.392 0h61.479l-25.671 49.26h-66.625zm67.397 0h61.673l-20.543 49.26h-66.813zm67.422 0h61.828l-15.403 49.26h-66.98zm67.43 0h61.953l-10.269 49.26h-67.094zm67.446 0h62.042l-5.1284 49.26h-67.188zm67.477 0h62.089v49.26h-67.23zm67.488 0h62.089l5.1416 49.26h-67.23zm67.523 0h62.042l10.274 49.26h-67.188zm67.535 0h61.953l15.41 49.26h-67.094zm67.554 0h61.828l20.555 49.26h-66.98zm67.578 0h61.673l25.683 49.26h-66.813zm67.591 0h61.479l30.817 49.26h-66.626zm67.601 0h61.27l35.953 49.26h-66.398zm67.624 0h61.008l41.098 49.26h-66.152zm-1057.3 53.848h66.621l-35.941 49.247h-71.766zm72.992 0h66.867l-30.812 49.247h-72.012zm73 0h67.094l-25.685 49.247h-72.234zm73.012 0h67.285l-20.543 49.247h-72.426zm73.022 0h67.458l-15.403 49.247h-72.598zm73.059 0h67.566l-10.269 49.247h-72.712zm73.059 0h67.655l-5.1284 49.247h-72.801zm73.09 0h67.702v49.247h-72.844zm73.102 0h67.702l5.1416 49.247h-72.844zm73.137 0h67.655l10.274 49.247h-72.801zm73.148 0h67.578l15.403 49.247h-72.712zm73.167 0h67.458l20.543 49.247h-72.586zm73.195 0h67.285l25.685 49.247h-72.426zm73.203 0h67.094l30.825 49.247h-72.234zm73.228 0h66.867l35.956 49.247h-72.012zm73.238 0h66.621l41.086 49.247h-71.766zm-1141.6 53.838h72.239l-35.958 49.268h-77.375zm78.595 0h72.495l-30.828 49.268h-77.625zm78.612 0h72.724l-25.685 49.268h-77.851zm78.637 0h72.902l-20.543 49.268h-78.051zm78.64 0h73.066l-15.41 49.268h-78.199zm78.661 0h73.191l-10.273 49.268h-78.333zm78.68 0h73.273l-5.1284 49.268h-78.415zm78.708 0h73.315v49.268h-78.457zm78.715 0h73.315l5.1416 49.268h-78.457zm78.75 0h73.273l10.27 49.268h-78.415zm78.762 0h73.191l15.415 49.268h-78.333zm78.785 0h73.066l20.543 49.268h-78.199zm78.804 0h72.902l25.692 49.268h-78.051zm78.816 0h72.724l30.812 49.268h-77.851zm78.841 0h72.495l35.958 49.268h-77.625zm78.851 0h72.239l41.105 49.268h-77.374zm-1225.8 53.855h77.851l-35.956 49.257h-82.989zm84.207 0h78.11l-30.813 49.257h-83.25zm84.242 0h78.321l-25.683 49.257h-83.465zm84.239 0h78.516l-20.543 49.257h-83.656zm84.262 0h78.671l-15.401 49.257h-83.824zm84.272 0h78.809l-10.285 49.257h-83.934zm84.297 0h78.886l-5.1401 49.257h-84.016zm84.321 0h78.929v49.257h-84.07zm84.328 0h78.929l5.1416 49.257h-84.07zm84.363 0h78.886l10.27 49.257h-84.016zm84.375 0h78.809l15.41 49.257h-83.934zm84.41 0h78.671l20.555 49.257h-83.824zm84.41 0h78.523l25.683 49.257h-83.656zm84.441 0h78.332l30.816 49.257h-83.465zm84.453 0h78.11l35.953 49.257h-83.25zm84.466 0h77.862l41.083 49.257h-82.989z" clip-path="url(#c)" fill="#0f0" stroke-width=".92058"/><path d="m2.2031 0v2.299l-2.2031 1.328 211.6 253.66c78.547 94.156 120.07 204.89 120.07 320.24v232.48h2.6997v-2.2109h771.26v2.2109h2.6997v-232.48c0-115.34 41.524-226.08 120.07-320.24l211.6-253.66-2.2031-1.328v-2.299zm5.2339 4.5906h82.989l35.956 49.257h-77.862zm89.348 0h83.25l30.813 49.257h-78.11zm89.367 0h83.465l25.683 49.257h-78.333zm89.383 0h83.656l20.55 49.257h-78.523zm89.391 0h83.824l15.401 49.257h-78.671zm89.417 0h83.934l10.285 49.257h-78.809zm89.438 0h84.016l5.1401 49.257h-78.886zm89.449 0h84.07v49.257h-78.929zm89.47 0h84.07l-5.1416 49.257h-78.929zm89.503 0h84.016l-10.27 49.257h-78.886zm89.52 0h83.934l-15.41 49.257h-78.809zm89.527 0h83.824l-20.555 49.257h-78.671zm89.559 0h83.656l-25.683 49.257h-78.516zm89.574 0h83.465l-30.828 49.257h-78.321zm89.582 0h83.25l-35.953 49.257h-78.11zm89.609 0h82.989l-41.095 49.257h-77.851zm-1297.2 53.845h77.375l35.969 49.268h-72.239zm83.742 0h77.625l30.828 49.268h-72.495zm83.758 0h77.851l25.685 49.268h-72.724zm83.757 0h78.051l20.543 49.268h-72.902zm83.789 0h78.199l15.41 49.268h-73.066zm83.789 0h78.333l10.273 49.268h-73.191zm83.824 0h78.415l5.1284 49.268h-73.273zm83.836 0h78.457v49.268h-73.315zm83.856 0h78.457l-5.1416 49.268h-73.315zm83.878 0h78.415l-10.27 49.268h-73.273zm83.906 0h78.333l-15.415 49.268h-73.191zm83.922 0h78.199l-20.543 49.268h-73.066zm83.937 0h78.051l-25.692 49.268h-72.902zm83.958 0h77.851l-30.812 49.268h-72.724zm83.984 0h77.625l-35.958 49.268h-72.495zm83.981 0h77.374l-41.093 49.268h-72.239zm-1213 53.858h71.766l35.941 49.247h-66.621zm78.122 0h72.012l30.812 49.247h-66.867zm78.132 0h72.234l25.685 49.247h-67.094zm78.152 0h72.426l20.543 49.247h-67.285zm78.164 0h72.586l15.415 49.247h-67.458zm78.188 0h72.712l10.269 49.247h-67.578zm78.199 0h72.801l5.1284 49.247h-67.655zm78.223 0h72.844v49.247h-67.702zm78.243 0h72.844l-5.1416 49.247h-67.702zm78.265 0h72.801l-10.274 49.247h-67.655zm78.289 0h72.712l-15.415 49.247h-67.566zm78.302 0h72.598l-20.543 49.247h-67.458zm78.335 0h72.426l-25.685 49.247h-67.285zm78.344 0h72.234l-30.825 49.247h-67.094zm78.354 0h72.012l-35.956 49.247h-66.867zm78.368 0h71.766l-41.086 49.247h-66.621zm-1128.8 53.835h66.152l35.953 49.26h-61.008zm72.507 0h66.398l30.825 49.26h-61.27zm72.527 0h66.625l25.671 49.26h-61.479zm72.532 0h66.813l20.543 49.26h-61.673zm72.551 0h66.98l15.403 49.26h-61.828zm72.574 0h67.094l10.269 49.26h-61.953zm72.582 0h67.188l5.1284 49.26h-62.042zm72.609 0h67.23v49.26h-62.089zm72.63 0h67.23l-5.1416 49.26h-62.089zm72.652 0h67.188l-10.274 49.26h-62.042zm72.675 0h67.094l-15.41 49.26h-61.953zm72.688 0h66.98l-20.555 49.26h-61.828zm72.718 0h66.813l-25.683 49.26h-61.673zm72.719 0h66.626l-30.817 49.26h-61.479zm72.754 0h66.387l-35.941 49.26h-61.27zm72.753 0h66.152l-41.098 49.26h-61.008zm-1044.6 53.848h60.527l27.145 37.182c2.9141 3.9977 5.7495 8.0312 8.5503 12.075h-55.566c-3.8242-4.9118-7.7266-9.7843-11.742-14.603zm66.895 0h60.781l23.188 37.048c2.5195 4.0441 4.9722 8.1185 7.4019 12.209h-55.789c-3.3281-4.8721-6.7158-9.708-10.204-14.487zm66.902 0h61.008l19.238 36.907c2.1367 4.0805 4.208 8.2098 6.2432 12.35h-55.978c-2.8242-4.8158-5.7061-9.6155-8.6748-14.355zm66.926 0h61.2l15.324 36.744c1.7305 4.1401 3.3984 8.3166 5.0508 12.513h-56.149c-2.3281-4.7694-4.7026-9.5091-7.1558-14.202zm66.938 0h61.359l11.442 36.562c1.3047 4.1865 2.5498 8.4524 3.8115 12.695h-56.273c-1.8438-4.7098-3.7222-9.4027-5.6558-14.05zm66.949 0h61.481l7.5938 36.38c0.8789 4.2461 1.7226 8.5683 2.5781 12.877h-56.411c-1.3711-4.6435-2.7422-9.2901-4.1719-13.867zm66.973 0h61.57l3.769 36.182c0.44922 4.3123 0.87549 8.697 1.3169 13.076h-56.489c-0.89843-4.5773-1.7998-9.165-2.7451-13.679zm67.003 0h61.605v49.257h-56.531c-0.44141-4.5111-0.88964-9.0318-1.3506-13.477zm67.005 0h61.605l-3.7236 35.781c-0.46094 4.4448-0.90918 8.9656-1.3506 13.477h-56.531zm67.039 0h61.57l-7.4224 35.578c-0.94531 4.5144-1.8467 9.1021-2.7451 13.679h-56.489c0.44141-4.3786 0.86768-8.7633 1.3169-13.076zm67.062 0h61.481l-11.07 35.39c-1.4414 4.5773-2.8008 9.2239-4.1719 13.867h-56.411c0.85546-4.309 1.6992-8.6312 2.5781-12.877zm67.071 0h61.359l-14.684 35.208c-1.9336 4.6469-3.812 9.3398-5.6558 14.05h-56.273c1.2617-4.2428 2.5068-8.5087 3.8115-12.695zm67.097 0h61.2l-18.27 35.055c-2.4531 4.6932-4.8276 9.4329-7.1557 14.202h-56.149c1.6523-4.1964 3.3203-8.3729 5.0508-12.513zm67.118 0h61.008l-21.836 34.902c-2.9687 4.7396-5.8505 9.5394-8.6748 14.355h-55.978c2.0351-4.1401 4.1063-8.2694 6.2431-12.35zm67.129 0h60.781l-25.378 34.77c-3.4883 4.7794-6.876 9.6153-10.204 14.487h-55.789c2.4297-4.0904 4.8824-8.1648 7.4019-12.209zm67.148 0h60.527l-28.914 34.654c-4.0157 4.8191-7.918 9.6916-11.742 14.603h-55.566c2.8008-4.0441 5.6362-8.0775 8.5503-12.075zm-961.04 53.848h55.157c10.812 15.994 20.71 32.442 29.698 49.257h-51.354c-10.156-16.865-21.329-33.31-33.501-49.257zm61.38 0h55.371c9.2578 15.994 17.742 32.442 25.437 49.257h-51.48c-8.8984-16.865-18.687-33.31-29.328-49.257zm61.39 0h55.551c7.7187 15.994 14.785 32.442 21.195 49.257h-51.535c-7.6289-16.816-16.032-33.253-25.211-49.257zm61.39 0h55.723c6.1758 15.994 11.825 32.442 16.942 49.257h-51.637c-6.3555-16.816-13.368-33.253-21.028-49.257zm61.415 0h55.854c4.625 15.987 8.8203 32.448 12.656 49.257h-51.68c-5.0976-16.816-10.698-33.253-16.831-49.257zm61.425 0h55.969c3.0703 15.987 5.8711 32.448 8.4258 49.257h-51.797c-3.8242-16.809-7.9961-33.263-12.598-49.257zm61.446 0h56.039c1.5274 15.987 2.9258 32.448 4.207 49.257h-51.841c-2.5547-16.809-5.3428-33.263-8.4053-49.257zm61.46 0h56.07v49.257h-51.863c-1.2812-16.809-2.6758-33.263-4.207-49.257zm61.469 0h56.07c-1.5312 15.994-2.9258 32.448-4.207 49.257h-51.863zm61.491 0h56.039c-3.0625 15.994-5.8506 32.448-8.4053 49.257h-51.841c1.2812-16.809 2.6797-33.27 4.207-49.257zm61.516 0h55.969c-4.6016 15.994-8.7734 32.448-12.598 49.257h-51.797c2.5547-16.809 5.3555-33.27 8.4258-49.257zm61.54 0h55.854c-6.1328 16.004-11.733 32.442-16.831 49.257h-51.68c3.8359-16.809 8.0313-33.27 12.656-49.257zm61.547 0h55.723c-7.6601 16.004-14.672 32.442-21.028 49.257h-51.637c5.1172-16.816 10.767-33.263 16.942-49.257zm61.562 0h55.551c-9.1797 16.004-17.583 32.442-25.212 49.257h-51.535c6.41-16.816 13.476-33.263 21.195-49.257zm61.57 0h55.371c-10.641 15.948-20.429 32.392-29.328 49.257h-51.48c7.6953-16.816 16.179-33.263 25.437-49.257zm61.594 0h55.157c-12.172 15.948-23.345 32.392-33.501 49.257h-51.354c8.9883-16.816 18.886-33.263 29.698-49.257zm-885.94 53.845h51.021c8.4023 16.093 15.96 32.528 22.667 49.268h-48.082c-7.6055-16.776-16.145-33.224-25.605-49.268zm56.856 0h51.144c7.1992 16.093 13.68 32.528 19.43 49.268h-48.152c-6.6602-16.776-14.14-33.224-22.421-49.268zm56.937 0h51.188c5.9961 16.093 11.395 32.528 16.176 49.268h-48.094c-5.6914-16.729-12.126-33.164-19.27-49.268zm56.859 0h51.297c4.793 16.093 9.1016 32.528 12.938 49.268h-48.161c-4.7578-16.729-10.113-33.164-16.074-49.268zm56.878 0h51.356c3.6016 16.093 6.8042 32.538 9.6753 49.268h-48.16c-3.8164-16.729-8.102-33.164-12.872-49.268zm56.868 0h51.445c2.3867 16.093 4.5342 32.538 6.4365 49.268h-48.253c-2.8554-16.729-6.0503-33.174-9.6284-49.268zm56.89 0h51.492c1.2031 16.093 2.2612 32.538 3.2183 49.268h-48.284c-1.9023-16.729-4.0278-33.174-6.4263-49.268zm56.914 0h51.516v49.268h-48.308c-0.94532-16.729-2.0127-33.174-3.208-49.268zm56.915 0h51.516c-1.1953 16.093-2.2627 32.538-3.208 49.268h-48.308zm56.937 0h51.492c-2.3984 16.093-4.5239 32.538-6.4263 49.268h-48.284c0.95703-16.729 2.0151-33.174 3.2183-49.268zm56.937 0h51.445c-3.5781 16.093-6.773 32.538-9.6284 49.268h-48.253c1.9023-16.729 4.0498-33.174 6.4365-49.268zm56.958 0h51.356c-4.7695 16.103-9.0552 32.538-12.872 49.268h-48.16c2.8711-16.729 6.0737-33.174 9.6753-49.268zm56.937 0h51.297c-5.9609 16.103-11.316 32.538-16.074 49.268h-48.161c3.8359-16.739 8.1445-33.174 12.938-49.268zm56.969 0h51.188c-7.1445 16.103-13.579 32.538-19.27 49.268h-48.094c4.7812-16.739 10.18-33.174 16.176-49.268zm56.981 0h51.144c-8.2812 16.044-15.761 32.492-22.421 49.268h-48.152c5.75-16.739 12.23-33.174 19.43-49.268zm56.979 0h51.021c-9.461 16.044-18 32.492-25.606 49.268h-48.082c6.707-16.739 14.265-33.174 22.667-49.268zm-826.19 53.848h47.878c6.3125 16.166 11.825 32.594 16.54 49.257h-45.677c-2.4414-7.5913-5.0508-15.145-7.8633-22.664-3.3633-8.9559-7.0068-17.81-10.878-26.593zm53.426 0h47.925c5.4102 16.166 10.136 32.594 14.164 49.257h-45.699c-2.1133-7.5648-4.3979-15.09-6.8511-22.589-2.9453-8.9758-6.1406-17.865-9.5391-26.668zm53.539 0h47.859c4.5 16.166 8.4375 32.594 11.801 49.257h-45.586c-4.0039-16.653-8.707-33.091-14.074-49.257zm53.414 0h47.902c3.6016 16.166 6.751 32.594 9.4424 49.257h-45.621c-3.3398-16.653-7.2544-33.091-11.723-49.257zm53.407 0h47.925c2.6992 16.176 5.0816 32.594 7.0972 49.257h-45.628c-2.6797-16.653-5.8081-33.091-9.394-49.257zm53.391 0h47.991c1.8008 16.176 3.3989 32.594 4.7388 49.257h-45.664c-2.0039-16.663-4.375-33.081-7.0664-49.257zm53.426 0h48.026c0.89843 16.176 1.7002 32.594 2.3642 49.257h-45.665c-1.3398-16.663-2.9248-33.081-4.7256-49.257zm53.449 0h48.038v49.257h-45.687c-0.66406-16.663-1.4604-33.081-2.3511-49.257zm53.438 0h48.038c-0.89062 16.176-1.687 32.594-2.3511 49.257h-45.687zm53.461 0h48.026c-1.8008 16.176-3.3858 32.594-4.7256 49.257h-45.665c0.66407-16.663 1.4658-33.081 2.3642-49.257zm53.461 0h47.991c-2.6914 16.176-5.0625 32.594-7.0664 49.257h-45.664c1.3398-16.663 2.938-33.081 4.7388-49.257zm53.457 0h47.925c-3.5859 16.166-6.7144 32.604-9.394 49.257h-45.628c2.0156-16.663 4.398-33.081 7.0972-49.257zm53.43 0h47.902c-4.4688 16.166-8.3833 32.604-11.723 49.257h-45.621c2.6914-16.663 5.8408-33.091 9.4424-49.257zm53.457 0h47.859c-5.3672 16.166-10.07 32.604-14.074 49.257h-45.586c3.3633-16.663 7.3008-33.091 11.801-49.257zm53.473 0h47.925c-3.3985 8.8036-6.5938 17.693-9.5391 26.668-2.4531 7.4986-4.7378 15.024-6.8628 22.589h-45.687c4.0274-16.663 8.7534-33.091 14.164-49.257zm53.473 0h47.878c-3.8711 8.7837-7.5148 17.638-10.878 26.593-2.8125 7.5185-5.4218 15.073-7.8632 22.664h-45.677c4.7148-16.663 10.227-33.091 16.54-49.257zm-781.52 53.845h45.497c4.418 16.226 8.0854 32.664 10.976 49.27h-43.964c-3.293-16.56-7.4692-32.995-12.508-49.27zm50.895 0h45.516c3.793 16.226 6.9424 32.664 9.4189 49.27h-43.978c-2.8789-16.56-6.5352-32.995-10.957-49.27zm51.032 0h45.413c3.1523 16.226 5.7739 32.664 7.8325 49.27h-43.898c-2.4531-16.607-5.5815-33.045-9.3472-49.27zm50.895 0h45.437c2.5195 16.226 4.6142 32.664 6.2666 49.27h-43.919c-2.0469-16.607-4.6475-33.045-7.7842-49.27zm50.895 0h45.425c1.9023 16.226 3.4536 32.664 4.6919 49.27h-43.887c-1.6406-16.607-3.7222-33.045-6.23-49.27zm50.859 0h45.483c1.2734 16.226 2.3086 32.664 3.1289 49.27h-43.934c-1.2266-16.607-2.7881-33.045-4.6787-49.27zm50.906 0h45.507c0.62891 16.226 1.1489 32.664 1.563 49.27h-43.941c-0.82031-16.607-1.8672-33.045-3.1289-49.27zm50.918 0h45.507v49.27h-43.941c-0.41795-16.607-0.93701-33.045-1.5659-49.27zm50.906 0h45.507c-0.62891 16.226-1.148 32.664-1.5659 49.27h-43.941zm50.918 0h45.507c-1.2617 16.226-2.3086 32.664-3.1289 49.27h-43.941c0.41406-16.607 0.93408-33.045 1.563-49.27zm50.93 0h45.483c-1.8906 16.226-3.4522 32.664-4.6787 49.27h-43.934c0.82031-16.607 1.8555-33.045 3.1289-49.27zm50.918 0h45.425c-2.5078 16.226-4.5894 32.664-6.23 49.27h-43.887c1.2383-16.607 2.7896-33.045 4.6919-49.27zm50.883 0h45.437c-3.1367 16.226-5.7373 32.664-7.7842 49.27h-43.919c1.6523-16.607 3.7471-33.045 6.2666-49.27zm50.918 0h45.413c-3.7656 16.226-6.894 32.664-9.3472 49.27h-43.898c2.0586-16.607 4.6802-33.045 7.8325-49.27zm50.93 0h45.516c-4.4218 16.276-8.0781 32.71-10.957 49.27h-43.978c2.4766-16.607 5.6259-33.045 9.4189-49.27zm50.914 0h45.497c-5.0391 16.276-9.2154 32.71-12.508 49.27h-43.964c2.8906-16.607 6.5581-33.045 10.976-49.27zm-750.32 53.858h43.852c2.6875 16.262 4.6255 32.7 5.8052 49.247h-42.996c-1.3633-16.501-3.5786-32.935-6.6606-49.247zm49.242 0h43.852c2.293 16.262 3.9614 32.7 4.9731 49.247h-43.008c-1.1953-16.501-3.1294-32.935-5.8169-49.247zm49.296 0h43.797c1.9101 16.262 3.293 32.7 4.1367 49.247h-42.984c-1.0117-16.547-2.6567-32.985-4.9497-49.247zm49.23 0h43.797c1.5274 16.262 2.6406 32.7 3.3164 49.247h-42.996c-0.84375-16.547-2.2192-32.985-4.1177-49.247zm49.23 0h43.793c1.1484 16.262 1.9692 32.7 2.477 49.247h-42.977c-0.67188-16.547-1.7774-32.985-3.293-49.247zm49.207 0h43.816c0.77734 16.262 1.3169 32.7 1.6567 49.247h-43c-0.50391-16.547-1.3281-32.985-2.4727-49.247zm49.239 0h43.819c0.38282 16.262 0.65235 32.7 0.83203 49.247h-43.008c-0.33594-16.547-0.87792-32.985-1.6436-49.247zm49.23 0h43.831v49.247h-43.008c-0.17188-16.547-0.44043-32.985-0.82324-49.247zm49.23 0h43.831c-0.38281 16.262-0.65136 32.7-0.82324 49.247h-43.008zm49.242 0h43.819c-0.76563 16.262-1.3076 32.7-1.6436 49.247h-43.008c0.17969-16.547 0.44921-32.985 0.83203-49.247zm49.242 0h43.816c-1.1445 16.262-1.9688 32.7-2.4727 49.247h-43c0.33985-16.547 0.89112-32.985 1.6567-49.247zm49.23 0h43.793c-1.5156 16.262-2.6211 32.7-3.293 49.247h-42.977c0.50781-16.547 1.3286-32.985 2.477-49.247zm49.226 0h43.797c-1.8984 16.262-3.2739 32.7-4.1177 49.247h-42.996c0.67578-16.547 1.7891-32.985 3.3164-49.247zm49.23 0h43.797c-2.293 16.262-3.938 32.7-4.9498 49.247h-42.984c0.84375-16.547 2.2266-32.985 4.1367-49.247zm49.242 0h43.852c-2.6875 16.312-4.6333 32.746-5.8169 49.247h-43.008c1.0117-16.547 2.6802-32.985 4.9732-49.247zm49.242 0h43.852c-3.082 16.312-5.2973 32.746-6.6606 49.247h-42.996c1.1797-16.547 3.1177-32.985 5.8052-49.247zm-731.54 53.838h42.965c0.71875 11.437 1.1016 22.92 1.1016 34.463v14.805h-42.797v-14.805c0-11.513-0.43799-23.006-1.27-34.463zm48.363 0h42.965c0.60547 11.437 0.94483 22.92 0.94483 34.463v14.805h-42.809v-14.805c0-11.513-0.37109-23.006-1.1016-34.463zm48.375 0h42.942c0.51953 11.437 0.78808 22.92 0.78808 34.463v14.805h-42.797v-14.805c0-11.543-0.32373-23.026-0.93311-34.463zm48.352 0h42.954c0.40625 11.437 0.62841 22.92 0.62841 34.463v14.805h-42.792v-14.805c0-11.543-0.27002-23.026-0.78955-34.463zm48.363 0h42.91c0.3125 11.437 0.51563 22.92 0.51563 34.463v14.805h-42.804v-14.805c0-11.543-0.21485-23.026-0.6211-34.463zm48.321 0h42.964c0.20313 11.437 0.33692 22.92 0.33692 34.463v14.805h-42.794v-14.805c0-11.543-0.19043-23.026-0.50683-34.463zm48.375 0h42.964c0.10157 11.437 0.16846 22.92 0.16846 34.463v14.805h-42.797v-14.805c0-11.543-0.13232-23.026-0.33544-34.463zm48.375 0h42.964v49.268h-42.797v-14.805c0-11.543-0.0654-23.026-0.16699-34.463zm48.363 0h42.964c-0.10157 11.437-0.16699 22.92-0.16699 34.463v14.805h-42.797zm48.375 0h42.964c-0.20312 11.437-0.33545 22.92-0.33545 34.463v14.805h-42.797v-14.805c0-11.543 0.0669-23.026 0.16846-34.463zm48.375 0h42.964c-0.3164 11.437-0.50683 22.92-0.50683 34.463v14.805h-42.794v-14.805c0-11.543 0.13379-23.026 0.33692-34.463zm48.375 0h42.91c-0.40624 11.437-0.63281 22.92-0.63281 34.463v14.805h-42.792v-14.805c0-11.543 0.20313-23.026 0.51563-34.463zm48.319 0h42.954c-0.51954 11.437-0.78955 22.92-0.78955 34.463v14.805h-42.792v-14.805c0-11.543 0.22217-23.026 0.62842-34.463zm48.363 0h42.942c-0.6211 11.437-0.9331 22.92-0.9331 34.463v14.805h-42.797v-14.805c0-11.543 0.26855-23.026 0.78808-34.463zm48.352 0h42.965c-0.7304 11.457-1.1015 22.95-1.1015 34.463v14.805h-42.797v-14.805c0-11.543 0.3276-23.026 0.9331-34.463zm48.363 0h42.965c-0.832 11.457-1.27 22.95-1.27 34.463v14.805h-42.797v-14.805c0-11.543 0.3828-23.026 1.1016-34.463zm-724.14 53.855h42.797v49.257h-42.797zm48.195 0h42.809v49.257h-42.809zm48.207 0h42.797v49.257h-42.797zm48.208 0h42.792v49.257h-42.792zm48.195 0h42.804v49.257h-42.804zm48.207 0h42.794v49.257h-42.794zm48.204 0h42.797v49.257h-42.797zm48.207 0h42.797v49.257h-42.797zm48.196 0h42.797v49.257h-42.797zm48.207 0h42.797v49.257h-42.797zm48.207 0h42.794v49.257h-42.794zm48.196 0h42.792v49.257h-42.792zm48.207 0h42.792v49.257h-42.792zm48.204 0h42.797v49.257h-42.797zm48.207 0h42.797v49.257h-42.797zm48.195 0h42.797v49.257h-42.797zm-723.04 53.838h42.797v49.268h-42.797zm48.195 0h42.809v49.268h-42.809zm48.207 0h42.797v49.268h-42.797zm48.208 0h42.792v49.268h-42.792zm48.195 0h42.804v49.268h-42.804zm48.207 0h42.794v49.268h-42.794zm48.204 0h42.797v49.268h-42.797zm48.207 0h42.797v49.268h-42.797zm48.196 0h42.797v49.268h-42.797zm48.207 0h42.797v49.268h-42.797zm48.207 0h42.794v49.268h-42.794zm48.196 0h42.792v49.268h-42.792zm48.207 0h42.792v49.268h-42.792zm48.204 0h42.797v49.268h-42.797zm48.207 0h42.797v49.268h-42.797zm48.195 0h42.797v49.268h-42.797zm-723.04 53.855h42.797v49.26h-42.797zm48.195 0h42.809v49.26h-42.809zm48.207 0h42.797v49.26h-42.797zm48.208 0h42.792v49.26h-42.792zm48.195 0h42.804v49.26h-42.804zm48.207 0h42.794v49.26h-42.794zm48.204 0h42.797v49.26h-42.797zm48.207 0h42.797v49.26h-42.797zm48.196 0h42.797v49.26h-42.797zm48.207 0h42.797v49.26h-42.797zm48.207 0h42.794v49.26h-42.794zm48.196 0h42.792v49.26h-42.792zm48.207 0h42.792v49.26h-42.792zm48.204 0h42.797v49.26h-42.797zm48.207 0h42.797v49.26h-42.797zm48.195 0h42.797v49.26h-42.797zm-723.04 53.838h42.797v49.268h-42.797zm48.195 0h42.809v49.268h-42.809zm48.207 0h42.797v49.268h-42.797zm48.208 0h42.792v49.268h-42.792zm48.195 0h42.804v49.268h-42.804zm48.207 0h42.794v49.268h-42.794zm48.204 0h42.797v49.268h-42.797zm48.207 0h42.797v49.268h-42.797zm48.196 0h42.797v49.268h-42.797zm48.207 0h42.797v49.268h-42.797zm48.207 0h42.794v49.268h-42.794zm48.196 0h42.792v49.268h-42.792zm48.207 0h42.792v49.268h-42.792zm48.204 0h42.797v49.268h-42.797zm48.207 0h42.797v49.268h-42.797zm48.195 0h42.797v49.268h-42.797z" clip-path="url(#d)" fill="#0f0" stroke-width=".92058"/></g></clipPath></defs><g transform="matrix(.62511 0 0 .62511 0 -318.83)"><g><path d="m124.98 682.5h-59.988c-12.977 0-25.609 4.3008-35.992 12.246-15.109 11.566-23.996 29.715-23.996 48.992v40.828c0 11.273 8.9531 20.41 19.996 20.41h159.97v-61.238c0-19.277-8.8906-37.426-23.996-48.992-10.383-7.9453-23.016-12.246-35.996-12.246z" fill="#003c85"/><path d="m94.984 515.03c35.891 0 64.988 29.094 64.988 64.988v19.996h-129.98v-19.996c0-35.895 29.094-64.988 64.988-64.988z" fill="#f7cb2d"/><path d="m94.984 530.02c27.609 0 49.988 22.379 49.988 49.992v14.996h-99.98v-14.996c0-27.613 22.379-49.992 49.992-49.992z" fill="#052e5c"/><path d="m29.996 630h24.992v-39.992h-24.992c-5.5273 0-10 4.4766-10 10v19.996c0 5.5234 4.4727 9.9961 10 9.9961z" fill="#f7cb2d"/><path d="m159.97 630h-24.996v-39.992h24.996c5.5234 0 9.9961 4.4766 9.9961 10v19.996c0 5.5234-4.4727 9.9961-9.9961 9.9961z" fill="#f7cb2d"/><path d="m34.992 759.98v19.996h34.996v24.996h-44.992c-11.043 0-19.996-8.9531-19.996-19.996v-24.996z" fill="#003c85"/><path d="m61.32 684.45c3.082-1.2422 5.6836-3.4844 7.2109-6.5391 0.95703-1.9141 1.457-4.0274 1.457-6.1719v-16.738h49.988v16.738c0 2.1445 0.5 4.2578 1.4609 6.1797 1.5273 3.0469 4.1289 5.293 7.2148 6.5391-16.738 22.629-50.602 22.629-67.332-8e-3z" fill="#fff"/><path d="m89.984 774.98c3.1992-3.1992 7.543-5 12.066-5h7.9297c8.2852 0 14.996 6.7148 14.996 14.996v19.996h-54.988v-24.996h7.9297c4.5234 0 8.8672-1.7969 12.066-4.9961z" fill="#fff"/><path d="m93.465 784.89c6.8789-5.9141 16.77-6.7578 24.543-2.0898l6.9688 4.1797v17.996h-54.988v-14.996h9.7539c5.0312 0 9.9023-1.8047 13.723-5.0898z" fill="#fdf7c4"/><path d="m89.984 804.97h39.992c0-11.043-8.9531-19.996-19.996-19.996s-19.996 8.9531-19.996 19.996z" fill="#fff"/><path d="m99.98 799.98c8.5547 0 15.797-5.4023 18.66-12.953 6.6875 3.2344 11.336 10.023 11.336 17.949h-39.992c0-1.7344 0.28906-3.3945 0.70312-4.9961z" fill="#fdf7c4"/><path d="m119.98 671.74c0 2.1445 0.5 4.2578 1.4609 6.1797 1.5273 3.0469 4.1289 5.293 7.2148 6.5391-3.8008 5.1367-8.5078 9.0469-13.668 11.852v-17.496c-2.2734 0.52734-4.5977 0.92969-7.0039 1.0898-15.363 0.99219-29.164-5.7617-37.988-16.699v-8.2031h49.984z" fill="#fdf7c4"/><path d="m64.988 575.02c18.883 9.4414 41.109 9.4414 59.988 0 0 8.2812 6.7148 14.996 15 14.996v33.453c0 23.969-18.082 44.887-42 46.438-26.203 1.6953-47.984-19.055-47.984-44.895v-34.996c8.2812 0 14.996-6.7148 14.996-14.996z" fill="#fff"/><path d="m64.988 575.02c18.883 9.4414 41.109 9.4414 59.988 0 0 8.2812 6.7148 14.996 15 14.996v33.453c0 23.969-18.082 44.887-42 46.438-17.52 1.1367-33.027-7.793-41.406-21.547 7.6094 4.6758 16.688 7.1797 26.41 6.5508 23.914-1.5508 41.996-22.477 41.996-46.438v-18.457c-18.879 9.4453-41.105 9.4453-59.988 0 0 8.2852-6.7148 15-14.996 15v-15c8.2812 0 14.996-6.7148 14.996-14.996z" fill="#fdf7c4"/><path d="m184.97 784.98h79.984c11.043 0 19.996 8.9531 19.996 19.996h-119.98c0-11.043 8.9531-19.996 20-19.996z" fill="#fff"/><path d="m189.96 794.98c5.5234 0 10-4.4766 10-10h64.988c11.043 0 19.996 8.9531 19.996 19.996h-119.98c0-3.6562 1.0547-7.0469 2.7773-9.9961z" fill="#fdf7c4"/><path d="m164.97 764.98h119.98c8.2812 0 14.996-6.7148 14.996-14.996v-69.988c0-8.2852-6.7148-14.996-14.996-14.996h-119.98c-8.2812 0-14.996 6.7109-14.996 14.996v69.988c0 8.2812 6.7148 14.996 14.996 14.996z" fill="#fff"/><path d="m204.96 744.98v-9.9961c0-11.043 8.9531-20 19.996-20h9.9961c9.3828 0 17.203 6.4922 19.355 15.215 12.625-11 20.637-27.152 20.637-45.207v-19.996h10c8.2812 0 14.996 6.7109 14.996 14.996v69.988c0 8.2812-6.7148 14.996-14.996 14.996h-119.98c-8.2812 0-14.996-6.7148-14.996-14.996v-5z" fill="#fdf7c4"/><path d="m204.96 804.97h39.992v-69.984c0-11.043-8.9531-20-19.996-20s-19.996 8.957-19.996 20z" fill="#fff"/><path d="m229.96 759.98v-24.992c0-8.3906-5.1719-15.543-12.496-18.512 2.3203-0.9414 4.8438-1.4883 7.5-1.4883 11.043 0 19.996 8.957 19.996 20v69.984h-39.992v-19.996c13.801 0 24.992-11.191 24.992-24.996z" fill="#fdf7c4"/></g><g clip-path="url(#f)"><path d="m25.949 690.77c10.723-8.207 23.398-12.758 36.766-13.227 0.55469-0.57812 1.0039-1.2109 1.3438-1.875 0.60938-1.2109 0.92969-2.5742 0.92969-3.9336v-6.7578c-1.4453-1.0898-2.8477-2.2344-4.1875-3.4961-2.1211-1.9883-4.0078-4.1836-5.7305-6.4844h-5.0781c-11.027 0-19.996-8.9688-19.996-19.996-8.2695 0-15-6.7266-15-14.996v-19.996c0-6.5117 4.1953-12.008 10-14.078v-5.918c0-38.594 31.395-69.988 69.988-69.988 38.59 0 69.984 31.395 69.984 69.988v5.918c5.8047 2.0703 10 7.5664 10 14.078v19.996c0 8.2695-6.7305 14.996-14.996 14.996h-16.312c-2.6797 12.012-9.3984 22.477-18.684 29.684v7.0508c0 1.3594 0.32032 2.7227 0.9375 3.9375 0.32813 0.67188 0.77735 1.2969 1.3398 1.875 6.043 0.21484 11.973 1.3359 17.727 3.25v-0.80469c0-11.027 8.9688-19.996 19.996-19.996h119.97c11.027 0 19.996 8.9688 19.996 19.996v69.988c0 11.027-8.9688 19.996-19.996 19.996h-34.992v9.9961h14.996c13.781 0 24.996 11.215 24.996 24.996 0 2.7617-2.2344 5-5 5h-119.98c-2.7617 0-4.9961-2.2383-4.9961-5 0-12.066 8.6016-22.164 19.996-24.488v-10.504h-15c-1.7344 0-3.3867-0.28906-4.9961-0.71094v35.703c0 2.7617-2.2344 5-5 5-2.7656 0-5-2.2383-5-5v-41.902c-3.0742-3.5117-5-8.0586-5-13.086v-58.512c-4.168-1.6719-8.4453-2.8438-12.82-3.4336-8.9375 11.68-22.418 18.387-37.168 18.387-14.758 0-28.246-6.7148-37.18-18.402-9.332 1.2422-18.141 4.8438-25.766 10.691-13.809 10.562-22.039 27.395-22.039 45.02v40.828c0 8.5 6.7266 15.414 14.996 15.414h39.992v-15h-29.996c-2.7617 0-4.9961-2.2383-4.9961-5v-29.992c0-2.7617 2.2344-5 4.9961-5 2.7656 0 5 2.2383 5 5v24.996h37.926c3.2227 0 6.25-1.2578 8.5312-3.5391 4.168-4.1641 9.707-6.4609 15.602-6.4609h7.9297c11.027 0 19.996 8.9688 19.996 19.996v5.1562c3.0977 4.1641 5 9.2656 5 14.84 0 2.7617-2.2344 5-5 5h-104.98c-13.781 0-24.996-11.398-24.996-25.41v-40.828c0-20.719 9.6992-40.512 25.949-52.961zm239 99.203h-14.996v10h29.137c-2.0625-5.8203-7.6211-10-14.141-10zm-24.996 10v-64.988c0-8.2695-6.7305-15-14.996-15-8.2695 0-15 6.7305-15 15v64.988zm-69.133 0h29.141v-10h-14.996c-6.5195 0-12.078 4.1797-14.145 10zm19.141-20h10v-9.9961h-10zm10-19.996v-24.992c0-13.785 11.211-24.996 24.996-24.996 13.781 0 24.996 11.211 24.996 24.996v24.992h34.992c5.5156 0 9.9961-4.4844 9.9961-9.9961v-69.988c0-5.5156-4.4805-9.9961-9.9961-9.9961h-119.98c-5.5117 0-9.9961 4.4805-9.9961 9.9961v69.988c0 5.5117 4.4844 9.9961 9.9961 9.9961zm-149.97-174.97c5.5117 0 9.9961-4.4844 9.9961-9.9961 0-1.7344 0.90234-3.3398 2.375-4.2539 1.4805-0.91406 3.3164-0.99219 4.8633-0.21875 17.383 8.6875 38.141 8.6875 55.516 0 1.5508-0.77344 3.3906-0.69531 4.8633 0.21875 1.4726 0.91406 2.3711 2.5195 2.3711 4.2539 0 5.5117 4.4844 9.9961 10 9.9961v-4.9961c0-24.809-20.184-44.992-44.992-44.992-24.812 0-44.992 20.184-44.992 44.992zm-0.83984 59.906c-1.3828-3.1797-2.4297-6.5039-3.1289-9.9141h-6.0312c0 5.2266 4.043 9.4805 9.1602 9.9141zm-24.156-24.91c0 2.7539 2.2383 5 5 5h14.996v-29.996h-14.996c-2.7617 0-5 2.2461-5 5zm129.98-39.992c0-33.082-26.91-59.992-59.988-59.992-33.082 0-59.992 26.91-59.992 59.992v4.9961h5v-4.9961c0-10.105 2.7402-19.582 7.5165-27.728 9.5555-16.297 27.26-27.264 47.476-27.264 30.316 0 54.988 24.672 54.988 54.992v4.9961h5zm5 44.992c2.7578 0 4.9961-2.2461 4.9961-5v-19.996c0-2.7539-2.2383-5-4.9961-5h-15v28.453c0 0.52344-0.0586 1.0274-0.0742 1.543zm-24.996-1.543v-29.082c-6.3008-1.6289-11.402-6.2539-13.691-12.258-16.844 6.5781-35.754 6.5781-52.598 0-2.2891 6.0039-7.3945 10.629-13.691 12.258v30.625c0 7.1719 1.8672 13.996 5.3516 19.996h9.6406c2.7656 0 5 2.2383 5 4.9961 0 2.7617-2.2344 5-5 5h-1.3906c8.0195 7.0742 18.258 10.629 29.059 9.9102 20.926-1.3555 37.32-19.559 37.32-41.445zm-13.777 61.98c-1.75-1.5547-3.2305-3.2891-4.2305-5.2891-1.3008-2.5977-1.9883-5.5078-1.9883-8.418v-1.0547c-5.1641 2.3281-10.77 3.8281-16.684 4.207-1.125 0.0703-2.2422 0.10547-3.3633 0.10547-6.9805 0-13.723-1.4648-19.945-4.1875v0.92969c0 2.9102-0.69141 5.8242-1.9883 8.418-1.0039 2.0039-2.4844 3.7383-4.2305 5.2891 6.8828 7.0156 16.176 10.984 26.215 10.984 10.035 0 19.332-3.9688 26.215-10.984zm-11.219 89.535h-7.9297c-3.2227 0-6.2539 1.2539-8.5312 3.5391-4.1719 4.1641-9.7109 6.457-15.602 6.457h-2.9297v15h10.5c2.3242-11.395 12.418-20 24.492-20 3.3438 0 6.5352 0.6875 9.4531 1.8867-1.3203-3.9844-5.0352-6.8828-9.4531-6.8828zm14.141 24.996c-2.0625-5.8203-7.6211-10-14.141-10s-12.078 4.1797-14.145 10z" fill="#04142a"/></g><g fill="#071330"><path d="m81.449 603.55c-3.5625-3.5664-9.3633-3.5664-12.926 0-0.97656 0.97266-2.2539 1.4648-3.5352 1.4648s-2.5586-0.49219-3.5352-1.4648c-1.9531-1.957-1.9531-5.1172 0-7.0703 7.4609-7.4648 19.605-7.4648 27.066 0 1.9531 1.9531 1.9531 5.1133 0 7.0703-1.9531 1.9531-5.1133 1.9531-7.0703 0z"/><path d="m69.988 610.01c0 0.32813 0.03125 0.65625 0.09375 0.97656 0.06641 0.32032 0.16016 0.63282 0.28516 0.9375 0.125 0.30469 0.28125 0.58985 0.46094 0.86329 0.18359 0.27343 0.39062 0.52734 0.625 0.75781 0.23047 0.23437 0.48438 0.4414 0.75781 0.62109 0.26953 0.1836 0.55859 0.33594 0.86328 0.46485 0.30078 0.125 0.61328 0.21875 0.9375 0.28125 0.32031 0.0664 0.64844 0.0976 0.97656 0.0976s0.65234-0.0312 0.97266-0.0976c0.32422-0.0625 0.63672-0.15625 0.9375-0.28125 0.30469-0.12891 0.59375-0.28125 0.86719-0.46485 0.26953-0.17969 0.52344-0.38672 0.75391-0.62109 0.23438-0.23047 0.44141-0.48438 0.625-0.75781 0.17969-0.27344 0.33594-0.5586 0.46094-0.86329 0.125-0.30468 0.21875-0.61718 0.28516-0.9375 0.0625-0.32031 0.09375-0.64843 0.09375-0.97656 0-0.32812-0.03125-0.65234-0.09375-0.97265-0.06641-0.32422-0.16016-0.63672-0.28516-0.9375-0.125-0.30469-0.28125-0.59375-0.46094-0.86719-0.18359-0.27344-0.39062-0.52344-0.625-0.75781-0.23047-0.23047-0.48438-0.4375-0.75391-0.6211-0.27344-0.17969-0.5625-0.33594-0.86719-0.46094-0.30078-0.125-0.61328-0.21875-0.9375-0.28515-0.32031-0.0625-0.64453-0.0937-0.97266-0.0937s-0.65625 0.0312-0.97656 0.0937c-0.32422 0.0664-0.63672 0.16015-0.9375 0.28515-0.30469 0.125-0.59375 0.28125-0.86328 0.46094-0.27344 0.1836-0.52734 0.39063-0.75781 0.6211-0.23438 0.23437-0.44141 0.48437-0.625 0.75781-0.17969 0.27344-0.33594 0.5625-0.46094 0.86719-0.125 0.30078-0.21875 0.61328-0.28516 0.9375-0.0625 0.32031-0.09375 0.64453-0.09375 0.97265z"/><path d="m108.52 603.55c-0.97657 0.97266-2.2539 1.4648-3.5352 1.4648-1.2773 0-2.5586-0.49219-3.5352-1.4648-1.9531-1.957-1.9531-5.1172 0-7.0703 7.4609-7.4648 19.609-7.4648 27.066 0 1.9531 1.9531 1.9531 5.1133 0 7.0703-1.9531 1.9531-5.1133 1.9531-7.0703 0-3.5625-3.5664-9.3633-3.5664-12.926 0z"/><path d="m109.98 610.01c0 0.32813 0.0312 0.65625 0.0977 0.97656 0.0625 0.32032 0.15625 0.63282 0.28125 0.9375 0.1289 0.30469 0.28125 0.58985 0.46484 0.86329 0.17969 0.27343 0.38672 0.52734 0.62109 0.75781 0.23047 0.23437 0.48438 0.4414 0.75782 0.62109 0.27343 0.1836 0.55859 0.33594 0.86328 0.46485 0.30468 0.125 0.61718 0.21875 0.9375 0.28125 0.32031 0.0664 0.64843 0.0976 0.97656 0.0976 0.32812 0 0.65234-0.0312 0.97266-0.0976 0.32421-0.0625 0.63671-0.15625 0.9375-0.28125 0.30468-0.12891 0.59375-0.28125 0.86718-0.46485 0.27344-0.17969 0.52344-0.38672 0.75782-0.62109 0.23046-0.23047 0.4375-0.48438 0.62109-0.75781 0.18359-0.27344 0.33594-0.5586 0.46094-0.86329 0.125-0.30468 0.22265-0.61718 0.28515-0.9375 0.0625-0.32031 0.0937-0.64843 0.0937-0.97656 0-0.32812-0.0312-0.65234-0.0937-0.97265-0.0625-0.32422-0.16015-0.63672-0.28515-0.9375-0.125-0.30469-0.27735-0.59375-0.46094-0.86719s-0.39063-0.52344-0.62109-0.75781c-0.23438-0.23047-0.48438-0.4375-0.75782-0.6211-0.27343-0.17969-0.5625-0.33594-0.86718-0.46094-0.30079-0.125-0.61329-0.21875-0.9375-0.28515-0.32032-0.0625-0.64454-0.0937-0.97266-0.0937-0.32813 0-0.65625 0.0312-0.97656 0.0937-0.32032 0.0664-0.63282 0.16015-0.9375 0.28515-0.30469 0.125-0.58985 0.28125-0.86328 0.46094-0.27344 0.1836-0.52735 0.39063-0.75782 0.6211-0.23437 0.23437-0.4414 0.48437-0.62109 0.75781-0.18359 0.27344-0.33594 0.5625-0.46484 0.86719-0.125 0.30078-0.21875 0.61328-0.28125 0.9375-0.0664 0.32031-0.0977 0.64453-0.0977 0.97265z"/><path d="m82.762 640.84c7.4258 4.9492 17.016 4.9492 24.449 0 2.3086-1.5352 5.4102-0.91406 6.9336 1.3828 1.5352 2.2969 0.91406 5.4062-1.3828 6.9336-5.4023 3.6016-11.586 5.4023-17.773 5.4023-6.1875 0-12.375-1.8008-17.773-5.4023-2.2969-1.5274-2.918-4.6328-1.3828-6.9336 1.5234-2.2969 4.6289-2.918 6.9297-1.3828z"/><path d="m103.52 628.54-5 5c-0.97266 0.97656-2.2539 1.4648-3.5312 1.4648-1.2812 0-2.5625-0.48829-3.5352-1.4648-1.957-1.9531-1.957-5.1133 0-7.0664l2.375-2.375-3.6094-6.7305c-1.3125-2.4297-0.39453-5.4648 2.0391-6.7695 2.4336-1.3047 5.4688-0.39063 6.7695 2.0469l5.3633 9.9961c1.043 1.9453 0.6875 4.3398-0.87109 5.8984z"/><path d="m204.96 690h39.992c2.7617 0 5 2.2383 5 4.9961 0 2.7617-2.2383 5-5 5h-39.992c-2.7656 0-5-2.2383-5-5 0-2.7578 2.2344-4.9961 5-4.9961z"/></g></g><g transform="matrix(.62502 0 0 .62502 -401.91 -317.7)"><g><path d="m1303.1 662.63c-53.168 26.586-115.59 27.328-169.38 2.0156l-4.2851-2.0156v-115.79l4.2851 2.0156c53.785 25.316 116.21 24.574 169.38-2.0156z" fill="url(#a)"/><path d="m1234.7 594.21h-42.102c-11.621 0-21.047 9.4258-21.047 21.055v36.84h15.785l5.2617-15.789c7.7734 0 14.484-4.2578 18.133-10.527h5.8399c3.6484 6.2695 10.355 10.527 18.129 10.527l5.2617 15.789h15.789v-36.84c0-11.629-9.4257-21.055-21.051-21.055z" fill="#f7cb2d"/><path d="m1270.1 721.81-3.8515 25.031-42.098-15.789-5.2656 26.316 38.781 17.898c15.234 7.0312 33.074-1.7969 36.711-18.184l3.4453-15.504v-10.527z" fill="#fff"/><path d="m1270.1 721.81-1.9726 12.816 1.1992 0.60156c7.5078 3.75 11.57 12.062 9.9219 20.289-1.4375 7.1953-7.7578 12.379-15.098 12.379-2.0859 0-4.1523-0.42578-6.0703-1.25l-12.297-5.2734c-10.578-4.5312-15.668-16.234-12.402-26.863l-9.2305-3.457-5.2656 26.316 38.781 17.898c15.234 7.0312 33.074-1.7969 36.711-18.184l3.4453-15.504v-10.527z" fill="#fdf7c4"/><path d="m1392.6 678.42h-84.172c-18.184 0-33.644 13.266-36.414 31.242l-1.8672 12.145 27.727 9.2422v73.684h105.25v-62.031l26.312 14.664 1.4336-5.7383c2.5469-10.172 3.832-20.621 3.832-31.102 0-23.254-18.852-42.105-42.102-42.105z" fill="#003c85"/><path d="m1401.1 741.58-3.2383 21.051-31.574-10.523-15.789 21.051 38.781 17.898c15.234 7.0312 33.074-1.7969 36.711-18.184l3.4453-15.504z" fill="#fff"/><path d="m1401.1 741.58-0.9844 6.3906 6.0898 3.0391c7.5039 3.7539 11.566 12.066 9.918 20.289-1.4375 7.2031-7.7578 12.387-15.098 12.387-2.0859 0-4.1523-0.42578-6.0664-1.25l-12.301-5.2734c-9.6133-4.1211-14.645-14.172-13.051-23.957l-3.3203-1.0976-15.789 21.051 38.781 17.898c15.234 7.0312 33.074-1.7969 36.711-18.184l3.4453-15.504z" fill="#fdf7c4"/><path d="m1371.5 683.68-21.051 15.789-21.047-15.789v-26.316h42.098z" fill="#fff"/><path d="m1192.4 701.36c-3.3828 4.5273-1.1289 11.035 4.3282 12.5l14.023 3.7578-8.5352 52.199 15.25 4.082 13.75-51.328 1.7735-6.6133c2.0312-7.5898-1.8203-15.52-9.0469-18.605l-6.4141-2.7383c-8.9336-3.8164-19.312-1.0274-25.129 6.7461z" fill="#0059b9"/><path d="m1216.5 757.29-10.168-2.7266c-5.6172-1.5039-8.9454-7.2774-7.4414-12.887l2.7265-10.172c1.5039-5.6133 7.2774-8.9453 12.887-7.4414l10.168 2.7266c5.6133 1.5078 8.9453 7.2812 7.4414 12.891l-2.7266 10.168c-1.5 5.6172-7.2734 8.9453-12.887 7.4414z" fill="#fff"/><path d="m1329.2 722.41c-3.3828 4.5274-1.1289 11.039 4.3282 12.5l14.023 3.7578-8.5351 52.199 15.25 4.0859 13.75-51.332 1.7734-6.6094c2.0312-7.5898-1.8203-15.523-9.043-18.605l-6.4179-2.7422c-8.9336-3.8164-19.312-1.0274-25.129 6.7461z" fill="#0059b9"/><path d="m1340 678.42c12.625 0 23.867-5.6328 31.574-14.438v-6.6172h-42.098v26.316l10.524 7.8945z" fill="#fdf7c4"/><path d="m1412.9 569.41c0.4336-1.3086 0.7304-2.6836 0.7304-4.1406 0-4.4062-2.1836-8.2852-5.5156-10.676 0.1328-0.8164 0.2539-1.6289 0.2539-2.4844 0-6.8984-4.4531-12.703-10.621-14.852 0.02-0.31641 0.094-0.61719 0.094-0.9375 0-8.7188-7.0664-15.789-15.785-15.789-2.8281 0-5.4414 0.80469-7.7383 2.1055-2.7968-4.4141-7.6992-7.3672-13.312-7.3672-6.3632 0-11.809 3.7852-14.309 9.2031-2.3828-2.4297-5.6992-3.9414-9.375-3.9414-6.0507 0-11.09 4.1133-12.629 9.6758-2.3476-1.3867-5.0468-2.2344-7.9648-2.2344-3.7656 0-7.1797 1.375-9.8906 3.5742-1.1992-0.29297-2.4297-0.48828-3.7188-0.48828-8.7226 0-15.789 7.0664-15.789 15.789 0 2.8281 0.8046 5.4414 2.1054 7.7383-4.414 2.7969-7.3672 7.6992-7.3672 13.312 0 3.6641 1.3008 6.9961 3.3946 9.6758-2.0899 2.332-3.3946 5.3711-3.3946 8.7461 0 7.2695 5.8868 13.156 13.156 13.156 4.2891 0 8.0625-2.082 10.465-5.2617h90.356c2.8906 3.6484 7.3086 6.0312 12.324 6.0312 8.7188 0 15.785-7.0664 15.785-15.789 0-7.1328-4.7617-13.09-11.254-15.047z" fill="#052e5c"/><path d="m1408.4 620.53h-15.789v-31.578h15.789c5.8125 0 10.524 4.7109 10.524 10.523v10.527c0 5.8164-4.711 10.527-10.524 10.527z" fill="#0059b9"/><path d="m1308.4 620.53h-15.789c-5.8125 0-10.524-4.7109-10.524-10.527v-10.527c0-5.8125 4.711-10.523 10.524-10.523h15.789z" fill="#0059b9"/><path d="m1390 573.16c-7.2656 0-13.156-5.8906-13.156-13.16 0-0.89844 0.098-1.7773 0.2656-2.6289h-0.5273c-1.2188 6.0039-6.5235 10.523-12.895 10.523-4.3242 0-8.125-2.1133-10.523-5.3359-2.3984 3.2227-6.1992 5.3359-10.523 5.3359-6.3633 0-11.672-4.5195-12.895-10.523h-0.5273c0.1758 0.85157 0.2656 1.7305 0.2656 2.6289 0 7.2695-5.8906 13.16-13.156 13.16-2.9727 0-5.6914-1.0274-7.8946-2.6914v55.32c0 23.254 18.852 42.105 42.098 42.105 23.25 0 42.102-18.852 42.102-42.105v-52.895c-0.8516 0.16797-1.7305 0.26563-2.6329 0.26563z" fill="#fff"/><path d="m1390 583.68c0.9024 0 1.7813-0.0937 2.6329-0.26172v-10.527c-0.8516 0.16797-1.7305 0.26563-2.6329 0.26563-7.2656 0-13.156-5.8906-13.156-13.16 0-0.89844 0.098-1.7773 0.2656-2.6289h-0.5273c-1.2188 6.0039-6.5235 10.523-12.895 10.523-4.3242 0-8.125-2.1133-10.523-5.3359-2.3984 3.2227-6.1992 5.3359-10.523 5.3359-6.3633 0-11.672-4.5195-12.895-10.523h-0.5273c0.1758 0.85157 0.2656 1.7305 0.2656 2.6289 0 7.2695-5.8906 13.16-13.156 13.16-2.9727 0-5.6914-1.0274-7.8946-2.6914v55.32c0 23.254 18.852 42.105 42.098 42.105 15.707 0 29.379-8.6172 36.613-21.367-6.1406 3.5274-13.23 5.5781-20.824 5.5781-13.707 0-25.856-6.5859-33.539-16.73 1.9414-0.89063 3.6055-2.3438 4.5937-4.3203 1.6133-3.2266 4.9102-5.2656 8.5157-5.2656h9.2851c3.6055 0 6.9024 2.0391 8.5117 5.2656 1.6133 3.2266 4.9102 5.2617 8.5157 5.2617h15.168c1.4883 0 2.8516-0.40625 4.1289-0.97266 0.7188-3.0742 1.1329-6.2656 1.1329-9.5547v-30.121c-1.5508-0.89844-3.336-1.457-5.2618-1.457h-63.152v-13.215c3.1797-2.3984 5.2656-6.1758 5.2656-10.469 0-0.89843-0.098-1.7773-0.2656-2.6328h0.5312c1.2227 6.0078 6.5274 10.527 12.895 10.527 4.3242 0 8.125-2.1172 10.523-5.3359 2.4024 3.2188 6.1992 5.3359 10.527 5.3359 6.3632 0 11.672-4.5195 12.891-10.527h0.5351c-0.1796 0.85547-0.2773 1.7344-0.2773 2.6328 0 7.2695 5.8906 13.156 13.156 13.156z" fill="#fdf7c4"/><path d="m1387.3 583.68h-73.676c-5.8164 0-10.524 4.7109-10.524 10.527v21.055c0 5.8125 4.7071 10.523 10.524 10.523h15.168c3.6055 0 6.9024-2.0352 8.5117-5.2617 1.6133-3.2266 4.9102-5.2617 8.5157-5.2617h9.2851c3.6055 0 6.9024 2.0352 8.5117 5.2617 1.6133 3.2266 4.9102 5.2617 8.5157 5.2617h15.168c5.8164 0 10.524-4.7109 10.524-10.523v-21.055c0-5.8164-4.7071-10.527-10.524-10.527z" fill="#003c85"/><path d="m1396.4 620.46-36.77-36.773h-44.652l31.574 31.582h8.5507c3.6055 0 6.9063 2.0352 8.5157 5.2617 1.6093 3.2266 4.9101 5.2617 8.5156 5.2617h15.16c3.9141 0 7.2891-2.1641 9.1055-5.332z" fill="#0059b9"/><path d="m1353.3 778.35-10.168-2.7266c-5.6133-1.5078-8.9453-7.2812-7.4414-12.891l2.7265-10.168c1.5039-5.6172 7.2774-8.9492 12.887-7.4414l10.168 2.7266c5.6133 1.5039 8.9453 7.2773 7.4414 12.887l-2.7265 10.168c-1.5 5.6172-7.2735 8.9492-12.887 7.4453z" fill="#fff"/><path d="m1216.8 749.3c-5.6172-1.5078-8.9492-7.2812-7.4414-12.891l2.7227-10.168c0.2343-0.86328 0.5976-1.6523 1.0117-2.3984-5.1602-0.6836-10.152 2.5-11.535 7.6602l-2.7265 10.172c-1.5039 5.6133 1.8281 11.387 7.4414 12.887l10.168 2.7266c4.75 1.2734 9.5821-0.9375 11.879-5.043-0.4531-0.0547-0.9023-0.0977-1.3554-0.21875z" fill="#fdf7c4"/><path d="m1353.6 770.36c-5.6172-1.5039-8.9453-7.2774-7.4414-12.887l2.7266-10.172c0.2305-0.85937 0.5937-1.6523 1.0078-2.3984-5.1602-0.6836-10.148 2.5-11.535 7.6641l-2.7265 10.168c-1.5039 5.6172 1.8281 11.391 7.4414 12.891l10.168 2.7266c4.7539 1.2734 9.582-0.9375 11.879-5.043-0.4532-0.0586-0.9024-0.10157-1.3516-0.22266z" fill="#fdf7c4"/><path d="m1358.7 636.87c-5.1211 2.5586-11.227 2.5586-16.34 0-2.5976-1.2969-5.7578-0.2461-7.0625 2.3555-1.3007 2.5976-0.25 5.7617 2.3516 7.0625 4.0352 2.0156 8.4492 3.0273 12.875 3.0273s8.8477-1.0117 12.879-3.0273c2.6016-1.3008 3.6523-4.4648 2.3516-7.0625-1.3047-2.5977-4.4493-3.6484-7.0547-2.3555z" fill="#04142a"/><g fill="#c78607"><path d="m1230.8 641.28 4.1602 12.492c0.7109 2.1523 2.7227 3.5977 4.9883 3.5977h15.789c2.9102 0 5.2618-2.3555 5.2618-5.2617v-36.84c0-14.512-11.805-26.316-26.312-26.316h-42.102c-14.508 0-26.312 11.805-26.312 26.316v36.84c0 2.9062 2.3555 5.2617 5.2656 5.2617h15.785c2.2695 0 4.2734-1.4453 4.9883-3.5977l4.164-12.492c6.7422-1.0312 12.895-4.7148 17.051-10.223h0.2148c4.1641 5.5078 10.309 9.1914 17.059 10.223zm-20.082-20.75c-1.8711 0-3.6055 0.9961-4.5469 2.6172-2.8867 4.9492-7.9648 7.9102-13.586 7.9102-2.2656 0-4.2773 1.4453-4.9883 3.5976l-4.0664 12.191h-6.7305v-31.578c0-8.707 7.0821-15.793 15.785-15.793h42.102c8.7031 0 15.789 7.0859 15.789 15.793v31.578h-6.7304l-4.0625-12.191c-0.7227-2.1523-2.7266-3.5976-4.9961-3.5976-5.6211 0-10.699-2.9609-13.582-7.9102-0.9492-1.6211-2.6797-2.6172-4.5468-2.6172z"/><path d="m1197.9 610c0-2.9062-2.3554-5.2617-5.2656-5.2617s-5.2617 2.3555-5.2617 5.2617c-2.9102 0-5.2617 2.3594-5.2617 5.2656 0 2.9024 2.3515 5.2617 5.2617 5.2617 0 2.9062 2.3515 5.2617 5.2617 5.2617s5.2656-2.3555 5.2656-5.2617c2.9102 0 5.2617-2.3594 5.2617-5.2617 0-2.9062-2.3515-5.2656-5.2617-5.2656z"/><path d="m1234.7 610c0 0.34766-0.035 0.6875-0.1016 1.0273-0.066 0.33985-0.168 0.66797-0.2969 0.98828-0.1328 0.32032-0.2969 0.6211-0.4883 0.91016-0.1914 0.28516-0.4101 0.55078-0.6562 0.79688-0.2422 0.24218-0.5078 0.46093-0.7969 0.65234-0.2851 0.19531-0.5898 0.35547-0.9101 0.48828-0.3164 0.13281-0.6485 0.23047-0.9844 0.30078-0.3399 0.0664-0.6836 0.10156-1.0274 0.10156-0.3476 0-0.6875-0.0352-1.0273-0.10156-0.3398-0.0703-0.668-0.16797-0.9883-0.30078-0.3164-0.13281-0.6211-0.29297-0.9101-0.48828-0.2852-0.19141-0.5508-0.41016-0.7969-0.65234-0.2422-0.2461-0.461-0.51172-0.6524-0.79688-0.1914-0.28906-0.3554-0.58984-0.4882-0.91016-0.1329-0.32031-0.2305-0.64843-0.2969-0.98828-0.07-0.33984-0.1016-0.67968-0.1016-1.0273 0-0.34375 0.031-0.6875 0.1016-1.0273 0.066-0.33594 0.164-0.66797 0.2969-0.98438 0.1328-0.32031 0.2968-0.625 0.4882-0.91016 0.1914-0.28906 0.4102-0.55468 0.6524-0.80078 0.2461-0.24218 0.5117-0.46093 0.7969-0.65234 0.289-0.19141 0.5937-0.35547 0.9101-0.48828 0.3203-0.12891 0.6485-0.23047 0.9883-0.29688 0.3398-0.0703 0.6797-0.10156 1.0273-0.10156 0.3438 0 0.6875 0.0312 1.0274 0.10156 0.3359 0.0664 0.668 0.16797 0.9844 0.29688 0.3203 0.13281 0.625 0.29687 0.9101 0.48828 0.2891 0.19141 0.5547 0.41016 0.7969 0.65234 0.2461 0.2461 0.4648 0.51172 0.6562 0.80078 0.1914 0.28516 0.3555 0.58985 0.4883 0.91016 0.1289 0.31641 0.2305 0.64844 0.2969 0.98438 0.066 0.33984 0.1016 0.68359 0.1016 1.0273z"/><path d="m1245.2 620.53c0 0.34375-0.031 0.6875-0.098 1.0274-0.07 0.33593-0.1679 0.66797-0.3007 0.98437-0.1329 0.32031-0.293 0.625-0.4883 0.91016-0.1914 0.28906-0.4102 0.55469-0.6524 0.80078-0.2461 0.24219-0.5117 0.46094-0.7968 0.65234-0.2891 0.19141-0.5899 0.35547-0.9102 0.48828-0.3203 0.13282-0.6484 0.23047-0.9883 0.29688-0.3398 0.0703-0.6797 0.10156-1.0273 0.10156-0.3438 0-0.6875-0.0312-1.0274-0.10156-0.3359-0.0664-0.6679-0.16406-0.9843-0.29688-0.3204-0.13281-0.625-0.29687-0.9102-0.48828-0.2891-0.1914-0.5547-0.41015-0.7969-0.65234-0.2461-0.24609-0.4648-0.51172-0.6562-0.80078-0.1914-0.28516-0.3555-0.58985-0.4844-0.91016-0.1328-0.3164-0.2344-0.64844-0.3008-0.98437-0.066-0.33985-0.1015-0.6836-0.1015-1.0274 0-0.34765 0.035-0.6875 0.1015-1.0273 0.066-0.33984 0.168-0.66797 0.3008-0.98828 0.1289-0.31641 0.293-0.6211 0.4844-0.91016 0.1914-0.28515 0.4101-0.55078 0.6562-0.79687 0.2422-0.24219 0.5078-0.46094 0.7969-0.65235 0.2852-0.19531 0.5898-0.35547 0.9102-0.48828 0.3164-0.13281 0.6484-0.23047 0.9843-0.30078 0.3399-0.0664 0.6836-0.0977 1.0274-0.0977 0.3476 0 0.6875 0.0312 1.0273 0.0977 0.3399 0.0703 0.668 0.16797 0.9883 0.30078s0.6211 0.29297 0.9102 0.48828c0.2851 0.19141 0.5507 0.41016 0.7968 0.65235 0.2422 0.24609 0.461 0.51172 0.6524 0.79687 0.1953 0.28906 0.3554 0.59375 0.4883 0.91016 0.1328 0.32031 0.2304 0.64844 0.3007 0.98828 0.066 0.33984 0.098 0.67969 0.098 1.0273z"/></g></g><g clip-path="url(#e)"><path d="m1436 751.21c2.6445-10.574 3.9882-21.473 3.9882-32.383 0-26.117-21.246-47.371-47.363-47.371h-15.789v-8.0078c12.367-8.2969 20.59-22.27 20.988-38.152 0.4258-0.38672 0.832-0.78125 1.2148-1.207h9.375c8.7031 0 15.785-7.082 15.785-15.789v-10.527c0-0.41407-0.09-0.80469-0.1211-1.2148 3.3945-3.832 5.3828-8.6719 5.3828-13.805 0-7.6719-4.0938-14.504-10.555-18.188 0.02-0.33203 0.031-0.66796 0.031-1 0-4.8281-1.9258-9.4375-5.2657-12.855v-0.30469c0-7.6211-4.164-14.555-10.668-18.242-1.2188-10.457-10.129-18.598-20.906-18.598-2.0976 0-4.1523 0.32032-6.1523 0.95313-3.9063-3.9531-9.2188-6.2148-14.898-6.2148-6.0625 0-11.758 2.6562-15.691 7.0781-2.4609-1.1914-5.1757-1.8164-7.9922-1.8164-6.2148 0-11.887 3.1797-15.238 8.1641-5.6133-1.5312-11.594-0.57422-16.488 2.5234-0.8399-0.10546-1.668-0.16015-2.4766-0.16015-11.609 0-21.051 9.4414-21.051 21.051 0 1.1094 0.098 2.207 0.2774 3.2891-47.477 17.82-99.809 15.875-146.36-6.0352l-4.2852-2.0156c-1.6328-0.76562-3.5351-0.65234-5.0625 0.32031-1.5195 0.96094-2.4414 2.6406-2.4414 4.4414v115.79c0 2.0352 1.1797 3.8945 3.0196 4.7617l4.2851 2.0156c23.391 11.012 48.16 17.227 73.106 18.723-6.3945 1.1406-12.328 4.5625-16.457 10.078-2.6368 3.5234-3.3438 8.1133-1.9024 12.273 1.4375 4.1562 4.8399 7.3203 9.0938 8.457l7.8203 2.0938c-3.1641 2.0547-5.6367 5.1836-6.6914 9.1055l-2.7266 10.168c-1.0937 4.0742-0.5351 8.332 1.5742 11.98 0.9688 1.6797 2.2383 3.1055 3.6953 4.293l-2.0195 12.379c-0.4336 2.668 1.2188 5.2305 3.836 5.9336l15.246 4.0898c0.4454 0.1211 0.9024 0.17579 1.3633 0.17579 0.9141 0 1.8242-0.23438 2.6289-0.70313 1.2071-0.69922 2.0899-1.8477 2.4532-3.1953l2.4961-9.293 30.484 14.078c8.7149 4.0195 18.648 3.8789 27.242-0.375 3.8203-1.8906 7.1485-4.4844 9.8594-7.6055v32.668c0 2.9062 2.3516 5.2617 5.2617 5.2617 2.9102 0 5.2617-2.3555 5.2617-5.2617v-84.207c0-2.9062-2.3515-5.2656-5.2617-5.2656-2.9101 0-5.2617 2.3594-5.2617 5.2656v3.2227l-16.59-5.5234 1.1954-7.7656c2.3828-15.516 15.508-26.777 31.207-26.777h15.754c0 1.6562 0.7812 3.2148 2.1055 4.2109l21.051 15.789c0.9375 0.69922 2.0469 1.0508 3.1563 1.0508 1.1133 0 2.2227-0.35156 3.1602-1.0508l21.051-15.789c1.3243-0.98828 2.1016-2.5547 2.1016-4.2109h15.789c20.309 0 36.836 16.527 36.836 36.844 0 9.7305-1.1758 19.441-3.4609 28.887l-19.199-10.695 0.6289-4.8789c0.793-6.2266-1.3789-12.598-5.8164-17.035-2.0586-2.0586-5.3828-2.0586-7.4414 0-2.0586 2.0586-2.0586 5.3828 0 7.4414 2.1485 2.1524 3.1993 5.2383 2.8164 8.2539l-3.3515 23.16-21.441-7.1445 2.7148-10.145c2.7031-10.051-2.4922-20.719-12.066-24.809l-6.4141-2.7422c-11.211-4.7891-24.113-1.3164-31.406 8.4375-2.6367 3.5274-3.3477 8.1133-1.9063 12.273 1.4375 4.1562 4.8438 7.3203 9.0938 8.457l7.8164 2.0938c-3.1602 2.0547-5.6328 5.1914-6.6836 9.1055l-2.7266 10.168c-1.0937 4.0742-0.5351 8.332 1.5743 11.98 0.9687 1.6797 2.2343 3.1055 3.6953 4.293l-2.0235 12.379c-0.4296 2.668 1.2227 5.2344 3.836 5.9336l15.246 4.0898c0.4492 0.12109 0.9062 0.17578 1.3633 0.17578 0.9179 0 1.8281-0.23437 2.6328-0.70312 1.2031-0.69922 2.0898-1.8477 2.4531-3.1953l3.168-11.816 24.547 11.336c3.4571 1.5977 7.1094 2.5 10.789 2.793v6.1133c0 2.9062 2.3516 5.2617 5.2617 5.2617 2.9102 0 5.2617-2.3555 5.2617-5.2617v-7.0781c2.0235-0.53516 4.0157-1.2422 5.9336-2.1953 8.6016-4.2617 14.727-12.078 16.812-21.453zm-48.637-132.38h-15.168c-1.625 0-3.0821-0.90234-3.8086-2.3516-2.5196-5.043-7.5899-8.1758-13.219-8.1758h-6.3672l-21.051-21.051h29.766l31.285 31.289c-0.4648 0.13672-0.9257 0.28906-1.4375 0.28906zm-50.348-7.4258c-1.7617 1.3398-3.3164 2.9922-4.3516 5.0742-0.7265 1.4492-2.1875 2.3516-3.8086 2.3516h-15.168c-2.9063 0-5.2618-2.3633-5.2618-5.2617v-21.055c0-2.6562 2.0118-4.7734 4.5782-5.125zm-23.328-34.68v-0.1875c7.3046 1.0664 14.578-2.5859 18.266-8.5 6.0117 4.2734 15.031 4.457 21.203 0.10547 6.1719 4.3516 15.199 4.1719 21.203-0.10547 2.8086 4.5039 7.5235 7.7148 13.004 8.5039v0.18359zm78.938 30.754-20.23-20.227h14.969c2.9063 0 5.2618 2.3633 5.2618 5.2617zm21.051 0.82422c0 2.9023-2.3593 5.2656-5.2617 5.2656h-5.2656v-21.055h5.2656c2.9024 0 5.2617 2.3633 5.2617 5.2617zm-110.51-73.684c0.7344 0 1.5235 0.11328 2.4844 0.33984 1.5781 0.37891 3.2734 4e-3 4.5508-1.0273 1.3476-1.0938 3.582-2.4024 6.5742-2.4024 1.8242 0 3.6094 0.50781 5.293 1.5 1.4101 0.82813 3.1211 0.96485 4.6445 0.34766 1.5156-0.61328 2.6641-1.8984 3.1016-3.4766 0.9414-3.418 4.0507-5.8047 7.5546-5.8047 2.129 0 4.1211 0.83984 5.6172 2.3633 1.2149 1.2305 2.9688 1.7969 4.6563 1.5 1.707-0.30078 3.1601-1.4141 3.8789-2.9844 1.7266-3.7344 5.4609-6.1445 9.5312-6.1445 3.5977 0 6.9102 1.8438 8.8672 4.9219 1.4961 2.3633 4.5899 3.1406 7.0352 1.7617 1.668-0.94141 3.3984-1.418 5.1484-1.418 5.8047 0 10.524 4.7188 10.524 10.324-0.02 0.15234-0.078 0.72656-0.09 0.8789-0.1094 2.332 1.3203 4.457 3.5274 5.2266 4.2421 1.4805 7.0859 5.4531 7.0859 9.8828 0 0.57031-0.1016 1.1172-0.1836 1.6641-0.3164 1.9688 0.5156 3.9375 2.1289 5.1016 2.1133 1.5078 3.3203 3.8398 3.3203 6.3945 0 0.74219-0.1484 1.5469-0.4609 2.4766-0.4492 1.3476-0.3281 2.8281 0.3242 4.0859 0.6523 1.2617 1.793 2.2031 3.1523 2.6211 4.4922 1.3516 7.5079 5.3711 7.5079 10.004 0 1.0039-0.1993 1.9844-0.4883 2.9336-2.7383-2.2734-6.2071-3.7031-10.035-3.7031h-9.3672c-0.3711-0.40234-0.75-0.78906-1.1601-1.1562v-9.6328c0-1.5781-0.711-3.0703-1.9258-4.0703-1.2188-0.9961-2.8164-1.4062-4.3789-1.0898-0.5156 0.10547-1.0391 0.16016-1.5899 0.16016-4.3515 0-7.8906-3.5391-7.8906-7.8945 0-0.52344 0.051-1.0547 0.1563-1.5742 0.3203-1.5469-0.078-3.1562-1.0742-4.3828-1-1.2266-2.4922-1.9375-4.0782-1.9375h-0.5351c-2.5078 0-4.6641 1.7656-5.1563 4.2188-0.7422 3.6562-3.9961 6.3086-7.7344 6.3086-2.4804 0-4.7773-1.1719-6.3007-3.2148-1.9844-2.668-6.4571-2.668-8.4414 0-1.5274 2.043-3.8204 3.2148-6.3047 3.2148-3.7383 0-6.9883-2.6523-7.7305-6.3086-0.4961-2.4531-2.6602-4.2188-5.1602-4.2188h-0.5351c-1.5859 0-3.0781 0.71094-4.0781 1.9375-0.9961 1.2266-1.3946 2.8359-1.0743 4.3828 0.1055 0.51953 0.1563 1.0508 0.1563 1.5742 0 4.3555-3.5391 7.8945-7.8906 7.8945-2.1211 0-3.7422-0.88281-4.7227-1.625-0.9297-0.70312-2.0469-1.0195-3.1719-1.0195v-18.406c0-1.8281-0.9492-3.5156-2.5-4.4805-1.5507-0.96094-3.4882-1.0391-5.1211-0.23047-2.6679 1.332-5.3671 2.5586-8.0703 3.7578 0.4883-5.3516 4.9493-9.5742 10.43-9.5742zm-10.863 22.711c0.8985-0.5664 1.4844-1.4062 1.8946-2.3086 1.2304-0.52734 2.4804-1 3.7031-1.5508v28.516h-5.2617c-1.7813 0-3.4688 0.36328-5.0664 0.91407 0.3593-1.5586 1.1562-2.7344 1.8515-3.5117 1.6993-1.9024 1.7969-4.7422 0.2266-6.7539-1.0352-1.332-2.2734-3.5273-2.2734-6.4375 0-3.5977 1.8437-6.9141 4.9257-8.8672zm-4.9257 40.445c0-2.8984 2.3593-5.2617 5.2617-5.2617h5.2617v21.055h-5.2617c-2.9024 0-5.2617-2.3633-5.2617-5.2656zm-151.35 60.418-1.2656-0.60156v-104.19c45.527 20.469 96.027 23.062 142.72 7.9219-0.3789 1.582-0.6289 3.1992-0.6289 4.8711 0 3.3438 0.793 6.582 2.3242 9.5273-1.5156 2.7148-2.3242 5.7734-2.3242 8.8945 0 2.332 0.4883 4.625 1.3633 6.7969-0.8633 1.9492-1.3633 4.0938-1.3633 6.3594v10.527c0 8.707 7.0821 15.789 15.785 15.789h5.2617v33.559c-51.387 24.625-110.18 24.863-161.87 0.54296zm77.73 107.57-5.5664-1.4883 0.8515-5.2227 6.0742 1.625zm13.258-29.141-2.7305 10.172c-0.3633 1.3594-1.2344 2.4883-2.4531 3.1875-1.2109 0.70703-2.6484 0.88672-3.9961 0.52734l-10.168-2.7266c-1.3554-0.36328-2.4922-1.2344-3.1914-2.4531-0.707-1.2148-0.8906-2.6289-0.5273-3.9922l2.7265-10.164c0.7579-2.8008 3.6368-4.4609 6.4454-3.7266l10.168 2.7266c2.8047 0.75781 4.4766 3.6523 3.7266 6.4492zm0.9023-23.719-1.9023 7.1133-10.137-2.7227 0.086-0.51953c0.4297-2.668-1.2227-5.2344-3.8398-5.9336l-14.016-3.7578c-1.2109-0.32422-1.6953-1.2305-1.8711-1.7422-0.1718-0.50782-0.3554-1.5156 0.3907-2.5195 4.3828-5.8476 12.129-7.9258 18.844-5.0625l6.418 2.7422c4.7812 2.0391 7.375 7.3711 6.0273 12.402zm64.719 20.25v6.1445l-3.3203 14.949c-1.3868 6.25-5.4727 11.461-11.207 14.301-5.7304 2.8476-12.352 2.9297-18.164 0.25l-28.684-13.242c1.4687-1.7422 2.582-3.7656 3.1875-6.0312l2.3281-8.6719 27.879 9.293 10.527 3.5117c0.5507 0.1836 1.1132 0.27344 1.6601 0.27344 2.207 0 4.2578-1.3945 4.9883-3.6055 0.9219-2.7578-0.5664-5.7383-3.3242-6.6562l-6.3164-2.1055 2.2265-14.473zm31.574-61.691h-15.754c-20.93 0-38.434 15.016-41.609 35.707l-4.7734 31.016-25.41-8.4727c-0.3984-1.0664-0.9297-2.0586-1.5469-3.0117l2.9688-11.074c2.6992-10.051-2.4922-20.723-12.066-24.809l-6.4141-2.7422c-1.2734-0.55078-2.5742-0.95312-3.8789-1.2852 0.2305 0 0.4688 0.0195 0.6992 0.0195 30.453 0 60.887-7.0664 89.094-21.168 1.7812-0.88672 2.9062-2.7109 2.9062-4.7031v-15.242c3.6954 7.168 9.1289 13.289 15.785 17.758zm42.102 7.8945-15.789 11.844-15.785-11.844v-10.656c4.9454 1.7578 10.246 2.7617 15.785 2.7617 5.543 0 10.844-1.0039 15.789-2.7617zm-15.789-18.418c-18.516 0-33.848-13.754-36.414-31.578h14.746c5.6289 0 10.699-3.1328 13.223-8.1758 0.7226-1.4531 2.1836-2.3516 3.8047-2.3516h9.2851c1.625 0 3.0821 0.89844 3.8086 2.3516 2.5196 5.043 7.5899 8.1758 13.219 8.1758h14.746c-2.5664 17.824-17.898 31.578-36.418 31.578zm0.059 125.88-5.5664-1.4883 0.8515-5.2227 6.0743 1.6289zm13.258-29.141-2.7305 10.172c-0.3632 1.3594-1.2343 2.4922-2.4531 3.1914-1.2109 0.69922-2.6406 0.88281-3.9961 0.52734l-10.164-2.7266c-1.3594-0.36328-2.4961-1.2383-3.1954-2.4531-0.707-1.2148-0.8906-2.6328-0.5273-3.9961l2.7266-10.164c0.7578-2.8047 3.6406-4.4648 6.4453-3.7227l10.168 2.7227c2.8047 0.75781 4.4805 3.6562 3.7266 6.4492zm0.9063-23.715-1.9063 7.1094-10.137-2.7188 0.086-0.52344c0.4297-2.668-1.2226-5.2305-3.8359-5.9297l-14.02-3.7578c-1.211-0.32812-1.6954-1.2344-1.8711-1.7422-0.1719-0.51172-0.3555-1.5156 0.3906-2.5234 4.3828-5.8477 12.129-7.9258 18.844-5.0625l6.418 2.7422c4.7813 2.043 7.375 7.375 6.0313 12.406zm56.133 36.078c-1.3868 6.2539-5.4727 11.461-11.207 14.301-5.7304 2.8477-12.352 2.9297-18.164 0.25l-21.926-10.125c0.7109-1.2148 1.3242-2.4961 1.6992-3.8906l2.7305-10.172c0.1562-0.59375 0.1992-1.1836 0.289-1.7812l21.93 7.3125c1.4727 0.48437 3.0782 0.30469 4.4102-0.5 1.3203-0.8125 2.2187-2.1562 2.457-3.6953l2.082-13.566 18.305 10.191z" fill="#04142a"/></g></g><g transform="translate(-279.13 -767.44)" fill="#003c85" stroke-width=".83856"><path d="m513.21 883.73-32.291 26.25 32.291 26.25v-20.188h20.209v-12.123h-20.209z"/><path d="m553.63 883.73v20.188h-20.209v12.123h20.209v20.188l32.291-26.25z"/></g></svg>
