<?xml version="1.0" encoding="UTF-8"?>
<svg width="500" height="343.87" preserveAspectRatio="xMidYMin" version="1.0" viewBox="0 0 374.95 257.9" xmlns="http://www.w3.org/2000/svg" xmlns:xlink="http://www.w3.org/1999/xlink" zoomAndPan="magnify"><defs><clipPath id="b"><path d="m0 0.027344h374.95v299.96h-374.95z"/></clipPath><clipPath id="d"><path d="m428.52 0.027344h230.22v299.96h-230.22z"/></clipPath><clipPath id="c"><path d="m608 234h11v65.984h-11z"/></clipPath><radialGradient id="a" cx="187.47" cy="109.39" r="181.22" gradientTransform="matrix(1 0 0 .56897 0 47.149)" gradientUnits="userSpaceOnUse"><stop stop-color="#fced8c" offset="0"/><stop stop-color="#f7cb2d" offset="1"/></radialGradient></defs><g transform="translate(-.060059 -.027832)"><g><path d="m187.47 6.2773c-100.09 0-181.22 16.785-181.22 37.492v168.73c0-20.711 81.137-37.496 181.22-37.496 100.09 0 181.22 16.785 181.22 37.496v-168.73c0-20.707-81.137-37.492-181.22-37.492z" fill="url(#a)"/><path d="m299.96 73.16v168.73c41.855-6.8672 68.738-17.473 68.738-29.391v-168.73c0 11.914-26.883 22.516-68.738 29.391z" fill="#004aad"/><path d="m74.988 73.16c-41.855-6.875-68.738-17.477-68.738-29.391v168.73c0 11.91 26.883 22.516 68.738 29.391z" fill="#004aad"/></g><g fill="#d9d9d9"><path d="m281.21 50.02c0 0.82031-0.082 1.6328-0.24219 2.4375-0.16016 0.80469-0.39844 1.5859-0.71094 2.3477-0.3125 0.75781-0.69922 1.4766-1.1562 2.1602-0.45312 0.67969-0.97265 1.3125-1.5547 1.8945-0.57812 0.57812-1.2109 1.0977-1.8906 1.5508-0.68359 0.45703-1.4062 0.84375-2.1641 1.1562-0.75782 0.3125-1.5391 0.55078-2.3438 0.71094-0.80469 0.16016-1.6172 0.24219-2.4375 0.24219-0.82032 0-1.6328-0.08203-2.4375-0.24219-0.80469-0.16016-1.5859-0.39844-2.3438-0.71094-0.76172-0.3125-1.4805-0.69922-2.1641-1.1562-0.67968-0.45312-1.3125-0.97266-1.8906-1.5508-0.58203-0.58203-1.1016-1.2148-1.5547-1.8945-0.45703-0.68359-0.84375-1.4023-1.1562-2.1602-0.3125-0.76172-0.55078-1.543-0.71094-2.3477-0.16015-0.80469-0.24218-1.6172-0.24218-2.4375 0-0.82031 0.082-1.6328 0.24218-2.4375 0.16016-0.80469 0.39844-1.5859 0.71094-2.3438 0.3125-0.75781 0.69922-1.4805 1.1562-2.1602 0.45313-0.68359 0.97266-1.3164 1.5547-1.8945 0.57812-0.58203 1.2109-1.0977 1.8906-1.5547 0.6836-0.45703 1.4024-0.83984 2.1641-1.1562 0.75781-0.3125 1.5391-0.55078 2.3438-0.71094 0.80468-0.16016 1.6172-0.23828 2.4375-0.23828 0.82031 0 1.6328 0.07812 2.4375 0.23828 0.80468 0.16016 1.5859 0.39844 2.3438 0.71094 0.75781 0.31641 1.4805 0.69922 2.1641 1.1562 0.67969 0.45703 1.3125 0.97266 1.8906 1.5547 0.58204 0.57812 1.1016 1.2109 1.5547 1.8945 0.45703 0.67969 0.84375 1.4023 1.1562 2.1602 0.3125 0.75781 0.55078 1.5391 0.71094 2.3438 0.16016 0.80469 0.24219 1.6172 0.24219 2.4375z"/><path d="m199.97 18.773c0 0.82031-0.082 1.6328-0.24219 2.4375-0.16016 0.80859-0.39844 1.5898-0.71094 2.3477-0.3125 0.75781-0.69922 1.4766-1.1562 2.1602-0.45312 0.68359-0.97266 1.3125-1.5547 1.8945-0.57812 0.57812-1.2109 1.0977-1.8906 1.5547-0.6836 0.45312-1.4024 0.83984-2.1641 1.1523-0.75782 0.31641-1.5391 0.55078-2.3438 0.71094-0.80469 0.16016-1.6172 0.24219-2.4375 0.24219-0.82032 0-1.6328-0.08203-2.4375-0.24219-0.80469-0.16016-1.5859-0.39453-2.3438-0.71094-0.75782-0.3125-1.4805-0.69922-2.1641-1.1523-0.67968-0.45703-1.3125-0.97656-1.8906-1.5547-0.58203-0.58203-1.1016-1.2109-1.5547-1.8945-0.45703-0.68359-0.84375-1.4023-1.1562-2.1602-0.3125-0.75781-0.55078-1.5391-0.71094-2.3477-0.16015-0.80469-0.24218-1.6172-0.24218-2.4375 0-0.82031 0.082-1.6328 0.24218-2.4375 0.16016-0.80469 0.39844-1.5859 0.71094-2.3438 0.3125-0.75781 0.69922-1.4805 1.1562-2.1602 0.45313-0.68359 0.97266-1.3164 1.5547-1.8945 0.57812-0.58203 1.2109-1.0977 1.8906-1.5547 0.6836-0.45703 1.4062-0.83984 2.1641-1.1562 0.75781-0.3125 1.5391-0.55078 2.3438-0.71094 0.80468-0.16016 1.6172-0.23828 2.4375-0.23828 0.82031 0 1.6328 0.078125 2.4375 0.23828 0.80468 0.16016 1.5859 0.39844 2.3438 0.71094 0.76171 0.31641 1.4805 0.69922 2.1641 1.1562 0.67969 0.45703 1.3125 0.97266 1.8906 1.5547 0.58203 0.57812 1.1016 1.2109 1.5547 1.8945 0.45703 0.67969 0.84375 1.4023 1.1562 2.1602 0.3125 0.75781 0.55078 1.5391 0.71094 2.3438 0.16015 0.80469 0.24219 1.6172 0.24219 2.4375z"/><path d="m106.23 50.02c0 0.82031-0.0781 1.6328-0.23829 2.4375-0.16015 0.80469-0.39843 1.5859-0.71484 2.3477-0.3125 0.75781-0.69531 1.4766-1.1523 2.1602-0.45703 0.67969-0.97657 1.3125-1.5547 1.8945-0.58203 0.57812-1.2109 1.0977-1.8945 1.5508-0.6836 0.45703-1.4023 0.84375-2.1602 1.1562-0.75781 0.3125-1.5391 0.55078-2.3438 0.71094-0.80469 0.16016-1.6172 0.24219-2.4375 0.24219-0.82422 0-1.6367-0.08203-2.4414-0.24219-0.80469-0.16016-1.5859-0.39844-2.3438-0.71094s-1.4766-0.69922-2.1602-1.1562c-0.68359-0.45312-1.3125-0.97266-1.8945-1.5508-0.57813-0.58203-1.0977-1.2148-1.5547-1.8945-0.45703-0.68359-0.83984-1.4023-1.1523-2.1602-0.31641-0.76172-0.55469-1.543-0.71484-2.3477-0.16016-0.80469-0.23828-1.6172-0.23828-2.4375 0-0.82031 0.07813-1.6328 0.23828-2.4375 0.16016-0.80469 0.39844-1.5859 0.71484-2.3438 0.3125-0.75781 0.69531-1.4805 1.1523-2.1602 0.45703-0.68359 0.97656-1.3164 1.5547-1.8945 0.58203-0.58203 1.2109-1.0977 1.8945-1.5547 0.68359-0.45703 1.4023-0.83984 2.1602-1.1562 0.75781-0.3125 1.5391-0.55078 2.3438-0.71094 0.80469-0.16016 1.6172-0.23828 2.4414-0.23828 0.82031 0 1.6328 0.07812 2.4375 0.23828 0.80469 0.16016 1.5859 0.39844 2.3438 0.71094 0.75781 0.31641 1.4766 0.69922 2.1602 1.1562 0.68359 0.45703 1.3125 0.97266 1.8945 1.5547 0.57812 0.57812 1.0977 1.2109 1.5547 1.8945 0.45703 0.67969 0.83984 1.4023 1.1523 2.1602 0.31641 0.75781 0.55469 1.5391 0.71484 2.3438 0.16016 0.80469 0.23829 1.6172 0.23829 2.4375z"/></g><g fill="#f7cb2d"><path d="m331.2 150c0 0.82031-0.082 1.6367-0.24218 2.4414-0.16016 0.80469-0.39844 1.5859-0.71094 2.3438s-0.69922 1.4766-1.1562 2.1602c-0.45313 0.68359-0.97266 1.3125-1.5508 1.8945-0.58203 0.57812-1.2148 1.0977-1.8945 1.5547-0.6836 0.45312-1.4024 0.83984-2.1602 1.1523-0.76172 0.31641-1.543 0.55078-2.3477 0.71094-0.80468 0.16015-1.6172 0.24219-2.4375 0.24219-0.82031 0-1.6328-0.082-2.4375-0.24219-0.80468-0.16016-1.5859-0.39453-2.3438-0.71094-0.75781-0.3125-1.4805-0.69922-2.1602-1.1523-0.6836-0.45703-1.3164-0.97657-1.8945-1.5547-0.58203-0.58203-1.0977-1.2109-1.5547-1.8945-0.45703-0.6836-0.83984-1.4024-1.1562-2.1602-0.3125-0.75781-0.55078-1.5391-0.71094-2.3438-0.16015-0.80469-0.23828-1.6211-0.23828-2.4414 0-0.82032 0.0781-1.6328 0.23828-2.4375 0.16016-0.80469 0.39844-1.5859 0.71094-2.3438 0.31641-0.75782 0.69922-1.4805 1.1562-2.1602 0.45703-0.68359 0.97266-1.3125 1.5547-1.8945 0.57812-0.58203 1.2109-1.0977 1.8945-1.5547 0.67969-0.45703 1.4023-0.83984 2.1602-1.1562 0.75782-0.3125 1.5391-0.55078 2.3438-0.71094 0.80469-0.16015 1.6172-0.23828 2.4375-0.23828 0.82032 0 1.6328 0.0781 2.4375 0.23828 0.80469 0.16016 1.5859 0.39844 2.3477 0.71094 0.75781 0.31641 1.4766 0.69922 2.1602 1.1562 0.67968 0.45703 1.3125 0.97266 1.8945 1.5547 0.57812 0.58203 1.0976 1.2109 1.5508 1.8945 0.45703 0.67969 0.84375 1.4023 1.1562 2.1602 0.3125 0.75781 0.55078 1.5391 0.71094 2.3438 0.16015 0.80468 0.24218 1.6172 0.24218 2.4375z"/><path d="m74.988 150c0 0.82031-0.07813 1.6367-0.23828 2.4414-0.16016 0.80469-0.39844 1.5859-0.71094 2.3438-0.31641 0.75781-0.69922 1.4766-1.1562 2.1602-0.45703 0.68359-0.97266 1.3125-1.5547 1.8945-0.57812 0.57812-1.2109 1.0977-1.8945 1.5547-0.67969 0.45312-1.4023 0.83984-2.1602 1.1523-0.75781 0.31641-1.5391 0.55078-2.3438 0.71094-0.80469 0.16015-1.6172 0.24219-2.4375 0.24219-0.82031 0-1.6328-0.082-2.4414-0.24219-0.80469-0.16016-1.5859-0.39453-2.3438-0.71094-0.75781-0.3125-1.4766-0.69922-2.1602-1.1523-0.68359-0.45703-1.3125-0.97657-1.8945-1.5547-0.57812-0.58203-1.0977-1.2109-1.5547-1.8945-0.45312-0.6836-0.83984-1.4024-1.1523-2.1602-0.31641-0.75781-0.55078-1.5391-0.71094-2.3438s-0.24219-1.6211-0.24219-2.4414c0-0.82032 0.08203-1.6328 0.24219-2.4375 0.16016-0.80469 0.39453-1.5859 0.71094-2.3438 0.3125-0.75782 0.69922-1.4805 1.1523-2.1602 0.45703-0.68359 0.97656-1.3125 1.5547-1.8945 0.58203-0.58203 1.2109-1.0977 1.8945-1.5547s1.4023-0.83984 2.1602-1.1562c0.75781-0.3125 1.5391-0.55078 2.3438-0.71094 0.80859-0.16015 1.6211-0.23828 2.4414-0.23828 0.82031 0 1.6328 0.0781 2.4375 0.23828 0.80469 0.16016 1.5859 0.39844 2.3438 0.71094 0.75781 0.31641 1.4805 0.69922 2.1602 1.1562 0.68359 0.45703 1.3164 0.97266 1.8945 1.5547 0.58203 0.58203 1.0977 1.2109 1.5547 1.8945 0.45703 0.67969 0.83984 1.4023 1.1562 2.1602 0.3125 0.75781 0.55078 1.5391 0.71094 2.3438 0.16016 0.80468 0.23828 1.6172 0.23828 2.4375z"/><path d="m56.242 106.26c0 0.82031-0.08203 1.6328-0.24219 2.4375-0.16016 0.80469-0.39453 1.5859-0.71094 2.3438-0.3125 0.76172-0.69922 1.4805-1.1523 2.1641-0.45703 0.67969-0.97656 1.3125-1.5547 1.8906-0.58203 0.58203-1.2109 1.1016-1.8945 1.5547-0.68359 0.45704-1.4023 0.84375-2.1602 1.1562-0.75781 0.3125-1.5391 0.55079-2.3438 0.71094-0.80469 0.16016-1.6211 0.24219-2.4414 0.24219-0.82031 0-1.6328-0.082-2.4375-0.24219-0.80469-0.16015-1.5859-0.39844-2.3438-0.71094-0.75781-0.3125-1.4805-0.69921-2.1602-1.1562-0.68359-0.45312-1.3125-0.97265-1.8945-1.5547-0.58203-0.57813-1.0977-1.2109-1.5547-1.8906-0.45703-0.68359-0.83984-1.4023-1.1562-2.1641-0.3125-0.75781-0.55078-1.5391-0.71094-2.3438s-0.23828-1.6172-0.23828-2.4375 0.07813-1.6328 0.23828-2.4375c0.16016-0.80469 0.39844-1.5859 0.71094-2.3438 0.31641-0.75781 0.69922-1.4805 1.1562-2.1641 0.45703-0.67969 0.97266-1.3125 1.5547-1.8906 0.58203-0.58203 1.2109-1.1016 1.8945-1.5547 0.67969-0.45703 1.4023-0.84375 2.1602-1.1562 0.75781-0.3125 1.5391-0.55078 2.3438-0.71094 0.80469-0.16016 1.6172-0.24219 2.4375-0.24219 0.82031 0 1.6367 0.08203 2.4414 0.24219 0.80469 0.16016 1.5859 0.39844 2.3438 0.71094 0.75781 0.3125 1.4766 0.69922 2.1602 1.1562 0.68359 0.45312 1.3125 0.97266 1.8945 1.5547 0.57812 0.57812 1.0977 1.2109 1.5547 1.8906 0.45312 0.68359 0.83984 1.4063 1.1523 2.1641 0.31641 0.75781 0.55078 1.5391 0.71094 2.3438s0.24219 1.6172 0.24219 2.4375z"/><path d="m74.988 200c0 0.82031-0.07813 1.6328-0.23828 2.4375-0.16016 0.80469-0.39844 1.5859-0.71094 2.3438-0.31641 0.75781-0.69922 1.4766-1.1562 2.1602-0.45703 0.68359-0.97266 1.3125-1.5547 1.8945-0.57812 0.57812-1.2109 1.0976-1.8945 1.5547-0.67969 0.45704-1.4023 0.83985-2.1602 1.1562-0.75781 0.3125-1.5391 0.55079-2.3438 0.71094-0.80469 0.16016-1.6172 0.23828-2.4375 0.23828-0.82031 0-1.6328-0.0781-2.4414-0.23828-0.80469-0.16015-1.5859-0.39844-2.3438-0.71094-0.75781-0.3164-1.4766-0.69921-2.1602-1.1562-0.68359-0.45703-1.3125-0.97656-1.8945-1.5547-0.57812-0.58203-1.0977-1.2109-1.5547-1.8945-0.45312-0.6836-0.83984-1.4024-1.1523-2.1602-0.31641-0.75781-0.55078-1.5391-0.71094-2.3438s-0.24219-1.6172-0.24219-2.4375c0-0.82422 0.08203-1.6367 0.24219-2.4414 0.16016-0.80468 0.39453-1.5859 0.71094-2.3438 0.3125-0.75781 0.69922-1.4766 1.1523-2.1602 0.45703-0.6836 0.97656-1.3125 1.5547-1.8945 0.58203-0.57813 1.2109-1.0977 1.8945-1.5547s1.4023-0.83985 2.1602-1.1524c0.75781-0.3164 1.5391-0.55468 2.3438-0.71484 0.80859-0.16016 1.6211-0.23828 2.4414-0.23828 0.82031 0 1.6328 0.0781 2.4375 0.23828 0.80469 0.16016 1.5859 0.39844 2.3438 0.71484 0.75781 0.3125 1.4805 0.69532 2.1602 1.1524 0.68359 0.45703 1.3164 0.97656 1.8945 1.5547 0.58203 0.58203 1.0977 1.2109 1.5547 1.8945 0.45703 0.68359 0.83984 1.4023 1.1562 2.1602 0.3125 0.75782 0.55078 1.5391 0.71094 2.3438 0.16016 0.80469 0.23828 1.6172 0.23828 2.4414z"/><path d="m349.95 106.26c0 0.82031-0.082 1.6328-0.24219 2.4375-0.16016 0.80469-0.39453 1.5859-0.71094 2.3438-0.3125 0.76172-0.69922 1.4805-1.1523 2.1641-0.45703 0.67969-0.97656 1.3125-1.5547 1.8906-0.58203 0.58203-1.2109 1.1016-1.8945 1.5547-0.68359 0.45704-1.4023 0.84375-2.1602 1.1562-0.75781 0.3125-1.5391 0.55079-2.3438 0.71094-0.80468 0.16016-1.6172 0.24219-2.4414 0.24219-0.82031 0-1.6328-0.082-2.4375-0.24219-0.80469-0.16015-1.5859-0.39844-2.3438-0.71094s-1.4766-0.69921-2.1602-1.1562c-0.68359-0.45312-1.3125-0.97265-1.8945-1.5547-0.58203-0.57813-1.0977-1.2109-1.5547-1.8906-0.45703-0.68359-0.83984-1.4023-1.1562-2.1641-0.3125-0.75781-0.55078-1.5391-0.71093-2.3438-0.16016-0.80469-0.23829-1.6172-0.23829-2.4375s0.0781-1.6328 0.23829-2.4375c0.16015-0.80469 0.39843-1.5859 0.71093-2.3438 0.31641-0.75781 0.69922-1.4805 1.1562-2.1641 0.45703-0.67969 0.97266-1.3125 1.5547-1.8906 0.58203-0.58203 1.2109-1.1016 1.8945-1.5547 0.6836-0.45703 1.4024-0.84375 2.1602-1.1562s1.5391-0.55078 2.3438-0.71094 1.6172-0.24219 2.4375-0.24219c0.82422 0 1.6367 0.08203 2.4414 0.24219 0.80469 0.16016 1.5859 0.39844 2.3438 0.71094 0.75782 0.3125 1.4766 0.69922 2.1602 1.1562 0.68359 0.45312 1.3125 0.97266 1.8945 1.5547 0.57813 0.57812 1.0977 1.2109 1.5547 1.8906 0.45312 0.68359 0.83984 1.4063 1.1523 2.1641 0.31641 0.75781 0.55078 1.5391 0.71094 2.3438s0.24219 1.6172 0.24219 2.4375z"/><path d="m349.95 193.75c0 0.82031-0.082 1.6328-0.24219 2.4375-0.16016 0.80469-0.39453 1.5859-0.71094 2.3438-0.3125 0.75781-0.69922 1.4805-1.1523 2.1602-0.45703 0.68359-0.97656 1.3164-1.5547 1.8945-0.58203 0.58203-1.2109 1.0976-1.8945 1.5547-0.68359 0.45704-1.4023 0.83985-2.1602 1.1562-0.75781 0.3125-1.5391 0.55079-2.3438 0.71094-0.80468 0.16016-1.6172 0.23828-2.4414 0.23828-0.82031 0-1.6328-0.0781-2.4375-0.23828-0.80469-0.16015-1.5859-0.39844-2.3438-0.71094-0.75781-0.3164-1.4766-0.69921-2.1602-1.1562-0.68359-0.45703-1.3125-0.97265-1.8945-1.5547-0.58203-0.57813-1.0977-1.2109-1.5547-1.8945-0.45703-0.67969-0.83984-1.4024-1.1562-2.1602-0.3125-0.75781-0.55078-1.5391-0.71093-2.3438-0.16016-0.80469-0.23829-1.6172-0.23829-2.4375s0.0781-1.6328 0.23829-2.4375c0.16015-0.80469 0.39843-1.5898 0.71093-2.3477 0.31641-0.75781 0.69922-1.4766 1.1562-2.1602 0.45703-0.67969 0.97266-1.3125 1.5547-1.8945 0.58203-0.57813 1.2109-1.0977 1.8945-1.5547 0.6836-0.45313 1.4024-0.83985 2.1602-1.1524 0.75781-0.3164 1.5391-0.55078 2.3438-0.71093 0.80469-0.16016 1.6172-0.24219 2.4375-0.24219 0.82422 0 1.6367 0.082 2.4414 0.24219 0.80469 0.16015 1.5859 0.39453 2.3438 0.71093 0.75782 0.3125 1.4766 0.69922 2.1602 1.1524 0.68359 0.45703 1.3125 0.97656 1.8945 1.5547 0.57813 0.58203 1.0977 1.2148 1.5547 1.8945 0.45312 0.68359 0.83984 1.4023 1.1523 2.1602 0.31641 0.75782 0.55078 1.543 0.71094 2.3477s0.24219 1.6172 0.24219 2.4375z"/></g><g clip-path="url(#b)"><path d="m187.47 0.027832c-64.84 0-187.47 9.1403-187.47 43.742v168.73c0 15.535 24.883 27.496 73.976 35.55 0.33594 0.0586 0.67627 0.082 1.0122 0.082 1.4687 0 2.9063-0.51953 4.043-1.4883 1.4023-1.1797 2.2075-2.9253 2.2075-4.7534v-53.363c6.6454-1.0133 13.633-1.8903 20.789-2.6953v-0.15381c6.9456-0.76997 14.249-1.414 21.699-1.9936 1.7408-0.13626 3.5029-0.26378 5.2676-0.38965 7.1384-0.50353 14.436-0.93604 21.942-1.2554 11.876-0.51869 24.16-0.80567 36.79-0.80567 12.003 0 23.696 0.25881 35.023 0.7295-6.4e-4 8.7e-4 -8.3e-4 2e-3 -1e-3 3e-3 8.7298 0.35706 17.213 0.8544 25.446 1.459 0.68745 0.0506 1.3802 0.0987 2.064 0.15088 8.0169 0.61152 15.788 1.328 23.224 2.1592v0.15967c6.956 0.78926 13.756 1.6456 20.227 2.6323v53.363c0 1.832 0.80518 3.5747 2.2075 4.7622 1.1445 0.96875 2.5742 1.4883 4.043 1.4883 0.33594 0 0.6748-0.0273 1.0107-0.082 49.094-8.0624 73.978-20.024 73.978-35.559v-168.73c0-34.601-122.63-43.742-187.47-43.742zm0 12.5c3.4492 0 6.2505 2.8047 6.2505 6.2461 0 3.4453-2.8013 6.2505-6.2505 6.2505-3.4492 0-6.249-2.8052-6.249-6.2505 0-3.4414 2.7998-6.2461 6.249-6.2461zm17.653 0.18018c13.711 0.26953 26.586 0.84327 38.59 1.6597v16.906c0 1.6562 0.65674 3.25 1.8325 4.418l6.2959 6.2974c-1.1757 2.4453-1.8779 5.145-1.8779 8.0317 0 10.336 8.4097 18.746 18.746 18.746 10.336 0 18.746-8.4097 18.746-18.746 0-10.336-8.4097-18.747-18.746-18.747-2.8867 0-5.5864 0.70752-8.0317 1.8794l-4.4678-4.4648v-13.343c69.214 6.0039 106.23 20.222 106.23 28.425 0 3.3203-11.664 14.71-63.5 23.222-3.0273 0.49218-5.2383 3.106-5.2383 6.1685v102.73c-4.082-0.60937-8.231-1.1885-12.497-1.7197v-30.413c0-3.4492-2.796-6.2505-6.249-6.2505-3.457 0-6.2505 2.8013-6.2505 6.2505v28.957c-5.5124-0.56673-11.235-1.0366-17.032-1.4707v-0.12451c-19.913-1.5567-41.407-2.4463-63.954-2.4463-22.736 0-44.406 0.90272-64.458 2.4844v0.0908c-5.796 0.43311-11.518 0.90438-17.033 1.4736v-28.964c0-3.4492-2.7935-6.2505-6.2505-6.2505-3.4531 0-6.2461 2.8013-6.2461 6.2505v30.413c-4.2695 0.53125-8.4175 1.1055-12.5 1.7109v-102.72c0-3.0625-2.211-5.6763-5.2383-6.1685-51.836-8.5117-63.501-19.902-63.501-23.222 0-7.6992 32.575-20.675 93.735-27.218v6.3867l-6.9492 9.2651c-1.7617-0.55078-3.606-0.93018-5.5474-0.93018-10.34 0-18.75 8.4112-18.75 18.747 0 10.336 8.4102 18.746 18.75 18.746 10.336 0 18.746-8.4097 18.746-18.746 0-3.8359-1.167-7.4072-3.1553-10.38l8.1562-10.866c0.8125-1.082 1.2495-2.3984 1.2495-3.75v-9.6797c15.441-1.3437 32.489-2.27 51.086-2.6294-0.65625 1.9023-1.0942 3.9219-1.0942 6.0586 0 10.336 8.4097 18.75 18.746 18.75 10.336 0 18.747-8.4141 18.747-18.75 0-2.1367-0.43799-4.1558-1.0942-6.0659zm-111.39 31.062c3.4492 0 6.2461 2.8091 6.2461 6.2505 0 3.4453-2.7969 6.249-6.2461 6.249-3.4531 0-6.2505-2.8037-6.2505-6.249 0-3.4414 2.7974-6.2505 6.2505-6.2505zm174.97 0c3.4492 0 6.2505 2.8091 6.2505 6.2505 0 3.4453-2.8013 6.249-6.2505 6.249s-6.2505-2.8037-6.2505-6.249c0-3.4414 2.8013-6.2505 6.2505-6.2505zm-256.21 17.281c6.0898 3.7656 14.484 7.1924 24.996 10.286v17.328c-7.2578 2.5859-12.5 9.4605-12.5 17.597 0 10.336 8.4097 18.747 18.746 18.747 10.336 0 18.75-8.4112 18.75-18.747 0-8.1367-5.2456-15.011-12.5-17.597v-14.035c5.7617 1.3437 12 2.6167 18.746 3.8042v53.972c-1.9609-0.69922-4.0469-1.1484-6.2461-1.1484-8.1367 0-15.011 5.2432-17.597 12.501h-9.145l-4.8237-14.473c-0.85546-2.5586-3.2344-4.2773-5.9297-4.2773h-12.497zm349.95 0v38.962h-7.3975c-2.5859-7.2538-9.462-12.497-17.599-12.497-10.336 0-18.746 8.4097-18.746 18.746 0 10.336 8.4097 18.747 18.746 18.747 8.1367 0 15.013-5.2427 17.599-12.497h7.3975v10.418l-15.621 20.829h-10.523c-2.5859-7.2578-9.4605-12.501-17.597-12.501-4.8164 0-9.1724 1.8828-12.497 4.875v-57.699c26.215-4.6172 45.004-10.43 56.238-17.383zm-318.7 38.962c3.4492 0 6.2505 2.8076 6.2505 6.249 0 3.4414-2.8013 6.2505-6.2505 6.2505-3.4492 0-6.2461-2.8091-6.2461-6.2505 0-3.4414 2.7969-6.249 6.2461-6.249zm293.71 0c3.4492 0 6.2505 2.8076 6.2505 6.249 0 3.4414-2.8013 6.2505-6.2505 6.2505s-6.2461-2.8091-6.2461-6.2505c0-3.4414 2.7969-6.249 6.2461-6.249zm-324.95 37.496h7.9922l4.8252 14.473c0.84766 2.5546 3.2344 4.2729 5.9297 4.2729h13.648c2.5859 7.2539 9.4605 12.501 17.597 12.501 2.1992 0 4.2852-0.4497 6.2461-1.1528v14.805c-1.9609-0.70703-4.0469-1.1572-6.2461-1.1572-8.1367 0-15.011 5.2432-17.597 12.501h-2.8945l-4.8237-14.473c-0.85546-2.5586-3.2383-4.2774-5.9297-4.2774h-18.747zm49.992 6.2505c3.4492 0 6.2461 2.8047 6.2461 6.2461 0 3.4453-2.7969 6.249-6.2461 6.249-3.4492 0-6.249-2.8037-6.249-6.249 0-3.4414 2.7998-6.2461 6.249-6.2461zm256.21 0c3.4492 0 6.2505 2.8047 6.2505 6.2461 0 3.4453-2.8013 6.249-6.2505 6.249-3.4492 0-6.2505-2.8037-6.2505-6.249 0-3.4414 2.8013-6.2461 6.2505-6.2461zm43.742 0v43.742h-7.3975c-2.5859-7.2539-9.462-12.5-17.599-12.5-10.336 0-18.746 8.4141-18.746 18.75s8.4097 18.746 18.746 18.746c8.1367 0 15.013-5.2427 17.599-12.497h7.3975v12.497c0 3.1641-10.559 13.629-56.238 21.965v-70.582c3.3242 3 7.6802 4.875 12.497 4.875 8.1367 0 15.011-5.2471 17.597-12.501h13.649c1.9609 0 3.8159-0.92481 4.9995-2.499zm-349.95 43.742h14.238l4.8252 14.473c0.85156 2.5547 3.2373 4.273 5.9326 4.273h7.3989c2.5859 7.2578 9.4605 12.501 17.597 12.501 2.1992 0 4.2852-0.44972 6.2461-1.1528v16.868c-45.679-8.3359-56.238-18.801-56.238-21.965zm324.95 0c3.4492 0 6.2505 2.8052 6.2505 6.2505 0 3.4414-2.8013 6.249-6.2505 6.249s-6.2461-2.8076-6.2461-6.249c0-3.4453 2.7969-6.2505 6.2461-6.2505zm-274.96 6.2505c3.4492 0 6.2461 2.8037 6.2461 6.249 0 3.4414-2.7969 6.2461-6.2461 6.2461-3.4492 0-6.249-2.8047-6.249-6.2461 0-3.4453 2.7998-6.249 6.249-6.249z"/></g><path d="m99.984 81.266c-3.4531 0-6.2461 2.8008-6.2461 6.25v24.996c0 3.4492 2.793 6.25 6.2461 6.25 3.457 0 6.25-2.8008 6.25-6.25v-24.996c0-3.4492-2.793-6.25-6.25-6.25z" fill="#071330"/><path d="m274.96 81.266c-3.457 0-6.25 2.8008-6.25 6.25v12.496c0 3.4492 2.793 6.25 6.25 6.25 3.4531 0 6.25-2.8008 6.25-6.25v-12.496c0-3.4492-2.7969-6.25-6.25-6.25z" fill="#071330"/></g><g transform="matrix(.73381 0 0 .69625 -211.37 49.093)"><g><path d="m653.37 294.91h-194.87c-13.797 0-24.984-11.188-24.984-24.984v-63.871c0-10.5 2.9531-20.793 8.5195-29.703 10.246-16.391 28.203-26.344 47.527-26.344h107.76c19.324 0 37.285 9.9531 47.527 26.344 5.5664 8.9102 8.5195 19.203 8.5195 29.703z" fill="#fff"/><path d="m650.87 269.92c-15.18 0-27.48-12.301-27.48-27.48v-2.1328c0-4.5781-2.918-8.8359-7.3398-10.004-3.5625-0.94532-6.8438 0.0898-9.2031 2.1523 8-22.207 19.375-43.117 33.762-62-10.562-12.852-26.402-20.453-43.285-20.453h-107.76c-19.32 0-37.281 9.9531-47.527 26.344-5.5664 8.9102-8.5195 19.203-8.5195 29.703v63.871c0 13.797 11.188 24.984 24.984 24.984h194.87v-24.984zm-47.469 0h-6.5938c1.6602-9.2266 3.8516-18.32 6.5938-27.23z" fill="#d9d9d9"/><path d="m635.09 164.71c-10.195-9.3086-23.598-14.703-37.762-14.703h-106.37c-11.734 0-23.414 3.0976-33.062 9.7812-15.68 10.848-24.371 28.242-24.371 46.266v63.871c0 13.797 11.188 24.984 24.984 24.984h124.91l1.3125-11.172c5.1484-43.742 22.68-84.992 50.355-119.03z" fill="#fff"/><path d="m508.47 184.98v-34.977h-17.516c-11.734 0-23.414 3.0976-33.062 9.7812-15.68 10.848-24.371 28.242-24.371 46.266v63.871c0 13.797 11.188 24.984 24.984 24.984h124.91l1.3125-11.172c0.5625-4.7461 1.2891-9.4609 2.1406-14.141-43.844-3.3516-78.402-39.91-78.402-84.613z" fill="#d9d9d9"/><path d="m605.4 171.21c4.3984-3.4219 5.1524-9.7773 1.668-14.129-1.7266-2.1641-3.2383-4.4688-4.6094-6.8359-1.6992-0.16016-3.4141-0.24609-5.1367-0.24609h-106.37c-6.0703 0-12.121 0.85156-17.891 2.5742-1.0039 1.543-2.0703 3.0547-3.2305 4.5078-3.4844 4.3516-2.7305 10.707 1.668 14.129l13.305 10.355c15.336 11.926 34.211 18.402 53.645 18.402 19.43 0 38.309-6.4766 53.645-18.41z" fill="#d9d9d9"/><path d="m610.4 166.22-13.305 10.352c-15.34 11.93-34.215 18.402-53.648 18.402-19.43 0-38.309-6.4727-53.645-18.406l-13.309-10.348c-4.3984-3.4219-5.1524-9.7773-1.668-14.129 8.7773-10.977 13.102-24.859 12.102-38.879l-3.4375-48.148h119.91l-3.4375 48.148c-0.99609 14.02 3.3203 27.902 12.102 38.879 3.4805 4.3516 2.7305 10.707-1.668 14.129z" fill="#f7cb2d"/><path d="m543.45 135.02c-33.77 0-59.957-37.605-59.957-69.953 0-33.062 26.895-59.957 59.957-59.957s59.957 26.895 59.957 59.957c0 32.348-26.184 69.953-59.957 69.953z" fill="#fff"/><path d="m578.42 100.04c-33.773 0-59.961-37.602-59.961-69.949 0-7.4258 1.4219-14.516 3.9023-21.082-22.676 8.5586-38.875 30.426-38.875 56.055 0 32.348 26.188 69.953 59.957 69.953 22.859 0 42.215-17.246 52.355-38.418-5.4766 2.1875-11.297 3.4414-17.379 3.4414z" fill="#d9d9d9"/><path d="m588.41 75.059c0 27.594-20.129 59.957-44.969 59.957-24.836 0-44.969-32.363-44.969-59.957 0-27.598 20.133-49.969 44.969-49.969 24.84 0 44.969 22.371 44.969 49.969z" fill="#004aad"/><path d="m553.44 249.94h-16.867c-5.0664 0-9.7969 2.5312-12.609 6.75-3.3398 5.0078-9.3203 7.5625-15.246 6.5195l-35.223-6.2148v-47.027l-17.484-24.984-9.9141-14.16c-8.125 10.039-12.574 22.457-12.574 35.23v63.871c0 13.797 11.188 24.984 24.984 24.984h94.934c8.2812 0 14.992-6.7109 14.992-14.992v-14.988c0-8.2773-6.7109-14.988-14.992-14.988z" fill="#fff"/><path d="m553.44 249.94h-16.867c-5.0664 0-9.7969 2.5312-12.609 6.75-3.3398 5.0078-9.3203 7.5625-15.246 6.5195l-15.234-2.6875v34.387h59.957c8.2812 0 14.992-6.7109 14.992-14.992v-14.988c0-8.2773-6.7109-14.988-14.992-14.988z" fill="#f7cb2d"/><path d="m553.44 234.95h-19.984l4.9961-229.84h9.9922z" fill="#fff"/><path d="m543.45 194.97v-189.87h-4.9961l-4.9961 229.84h19.984l-0.65234-30.043c-5.207-0.34375-9.3398-4.6328-9.3398-9.9297z" fill="#d9d9d9"/><path d="m573.43 249.94h-59.961c0-16.559 13.422-29.98 29.98-29.98 16.559 0 29.98 13.422 29.98 29.98z" fill="#004aad"/><path d="m478.49 279.91c-11.043 0-19.988-8.9414-19.988-19.984v-29.98c0-9.293 6.3476-17.137 14.988-19.336v-0.64844l-17.484-24.984-9.8945-14.141c-8.1445 10.043-12.594 22.438-12.594 35.227v63.855c0 13.793 11.195 24.984 24.984 24.984h34.977v-14.992z" fill="#d9d9d9"/></g><g clip-path="url(#d)"><path d="m649.09 173.7c-7.8164-12.512-19.879-21.68-34.02-25.977-7.3789-9.8125-10.996-21.867-10.117-34.156l2.8438-39.902c4e-3 -0.05469 8e-3 -0.09766 0.0117-0.14453 0.16015-1.3086 0.30468-2.6094 0.39453-3.9102 0.125-1.6016 0.20312-3.1211 0.20312-4.5469 0-35.812-29.141-64.953-64.957-64.953-35.816 0-64.953 29.141-64.953 64.953 0 1.4414 0.0781 2.9609 0.19922 4.5352 0.0898 1.293 0.23046 2.5898 0.38671 3.9023l2.8633 40.066c0.875 12.301-2.7422 24.363-10.133 34.176-14.133 4.2969-26.176 13.426-34.004 25.957-6.0664 9.7148-9.2812 20.902-9.2812 32.352v63.871c0 16.535 13.445 29.98 29.98 29.98h94.934c11.023 0 19.988-8.9648 19.988-19.988v-14.988c0-3.6562-1.0586-7.0391-2.7773-9.9922h2.7773c2.7617 0 4.9961-2.2383 4.9961-4.9961 0-14.062-8.3594-26.18-20.348-31.73l-0.42188-19.441c15.523-2.4062 30.145-8.6445 42.508-18.258l13.301-10.348c3.1953-2.4766 5.2109-6.0547 5.6875-10.066 4e-3 -0.0391 0-0.0859 0-0.125 3.2031 1.5078 6.2344 3.3164 9.0391 5.4414-26.621 34.152-43.367 74.777-48.418 117.74l-1.3125 11.172c-0.32031 2.7383 1.6367 5.2227 4.3828 5.5469 0.19532 0.0234 0.38672 0.0351 0.58203 0.0351 2.5 0 4.6641-1.875 4.957-4.4141l1.3164-11.172c4.8047-40.844 20.699-79.453 45.875-112.02 1.8438 2.082 3.5508 4.3047 5.043 6.6953 5.0781 8.125 7.7617 17.477 7.7617 27.055v88.855c0 2.7578 2.2305 4.9961 4.9961 4.9961 2.7617 0 4.9961-2.2383 4.9961-4.9961v-88.855c0-11.449-3.2148-22.637-9.2812-32.352zm-50.68-108.64c0 1.3008-0.082 2.625-0.17969 3.9492-0.0742 0.91406-0.17187 1.9141-0.29687 2.9961-1.0625 8.7422-4.0352 17.809-8.5703 26.133 2.6094-7.7148 4.0508-15.668 4.0508-23.082 0-26.129-16.754-48.438-39.617-53.73l-0.22266-10.25c25.48 4.7695 44.836 27.141 44.836 53.984zm-42.324 61.438-2.0625-94.738c17.102 5.2578 29.398 22.809 29.398 43.297 0 21.055-12.203 43.16-27.336 51.441zm-47.613 123.44c0 2.7578 2.2344 4.9961 4.9961 4.9961h5.4141c-2.3242 2.6172-5.8086 3.9609-9.3047 3.3477l-31.082-5.4805v-42.836c0-1.0234-0.31641-2.0234-0.90625-2.8633l-25.203-36.004c4.3711-4.6484 9.5703-8.4219 15.359-11.145 4e-3 0.0469-4e-3 0.0937 4e-3 0.14063 0.47657 4.0117 2.4961 7.5898 5.6836 10.066l13.305 10.355c12.367 9.6133 26.988 15.848 42.512 18.258l-0.42578 19.441c-11.992 5.543-20.352 17.66-20.352 31.723zm22.34-123.44c-15.133-8.2812-27.336-30.387-27.336-51.441 0-20.488 12.297-38.035 29.395-43.297zm2.5078-115.42-0.22266 10.25c-22.859 5.293-39.613 27.602-39.613 53.73 0 7.4141 1.4453 15.367 4.0586 23.086-4.4844-8.2188-7.4375-17.156-8.5312-25.797-0.15625-1.2578-0.26562-2.3867-0.34765-3.4648-0.0899-1.2852-0.17579-2.5664-0.17579-3.8203 0-26.84 19.355-49.215 44.832-53.984zm-54.59 144.13c9.5977-11.984 14.273-27.031 13.184-42.355l-0.35938-5.0508c9.1328 14.469 22.613 26.137 39.008 30.391l-1.0976 50.523c-13.363-2.2891-25.918-7.7891-36.59-16.09l-13.312-10.352c-1.0586-0.82812-1.7344-2.0195-1.8945-3.3516-0.15234-1.3438 0.22266-2.6641 1.0625-3.7148zm-40.207 114.71v-63.871c0-9.4023 2.6172-18.574 7.5117-26.594l22.465 32.082v45.449c0 2.4219 1.7461 4.4961 4.1289 4.9219l15.859 2.8008v25.199h-29.98c-11.023 0-19.984-8.9648-19.984-19.988zm124.91-4.9961v14.988c0 5.5117-4.4844 9.9961-9.9961 9.9961h-54.961v-23.441l9.3633 1.6562c7.8516 1.3828 15.836-2.0078 20.277-8.6719 1.8867-2.832 5.0391-4.5195 8.4492-4.5195h16.871c5.5117 0 9.9961 4.4805 9.9961 9.9922zm4.4883-19.984h-48.961c2.3242-11.387 12.414-19.988 24.48-19.988 12.066 0 22.164 8.6016 24.48 19.988zm-24.477-29.98c-1.5469 0-3.0664 0.13281-4.5664 0.33593l4.457-205.19c0.0391 0 0.0742-0.0039 0.10937-0.0039 0.0352 0 0.0703 0.0039 0.10547 0.0039l4.4609 205.19c-1.5-0.20312-3.0156-0.33593-4.5664-0.33593zm63.883-52.684-13.309 10.348c-10.672 8.3008-23.227 13.801-36.59 16.09l-1.0977-50.527c16.395-4.25 29.875-15.918 39.008-30.383l-0.35937 5.0508c-1.0938 15.32 3.5859 30.363 13.18 42.355 0.84375 1.0547 1.2188 2.375 1.0664 3.7148-0.16015 1.3281-0.83594 2.5234-1.8984 3.3516z" fill="#071330"/></g><g clip-path="url(#c)"><path d="m613.4 234.95c-2.7656 0-4.9961 2.2383-4.9961 5v54.961c0 2.7578 2.2305 4.9961 4.9961 4.9961 2.7617 0 4.9961-2.2383 4.9961-4.9961v-54.961c0-2.7617-2.2344-5-4.9961-5z" fill="#071330"/></g></g></svg>
