<svg xmlns="http://www.w3.org/2000/svg" xmlns:xlink="http://www.w3.org/1999/xlink" viewBox="0 0 125 131.5"><desc>Logo of Bournemouth University</desc><defs><clipPath id="a"><path d="M110.8 1.5V56c0 10.4-6.8 17.2-17.3 17.2S76.2 66.4 76.2 56V13.3h1.4V56c0 9.6 6.2 15.7 15.9 15.7s15.9-6.1 15.9-15.7V13.3h-6V56c0 6-3.2 9.8-10 9.8-6.6 0-9.9-3.7-9.9-9.8V7.4H70.3v47c0 15 8.7 24 23.2 24s23.2-9 23.2-24v-47h1.4v47c0 15.9-9.2 25.4-24.6 25.4s-24.7-9.5-24.7-25.4v-53H63v53c0 18.9 11.6 31.3 30.6 31.3S124 73.3 124 54.4v-53z"/></clipPath></defs><path d="M7 94.4q1.8-.1 3.2.8 1.2 1.2 1.2 2.8 0 2.8-2.8 3.2c2 0 3 1.8 3 3.6q0 2.2-1.8 3.2c-1 .5-2.5.5-3.6.5H0v-1.8h1.6V96.2H0v-1.8zm-2.7 1.8v4.2H6c.6 0 1.6 0 2-.4q.8-.7.8-1.7 0-1.4-1-2-1-.2-2.3-.1zm1.8 10.5q1.2.1 2.1-.5t.8-1.8q0-1.1-1-1.9-.8-.4-1.9-.3H4.3v4.5zM13.7 107a6 6 0 0 1-1.2-3.8q0-2.2 1.4-4a5 5 0 0 1 3.7-1.4c3.3 0 5.2 2.3 5.2 5.5 0 3-2 5.4-5.2 5.4-1.4 0-3-.6-3.9-1.7m1.6-3.7q-.1 1.2.5 2.4t1.9 1.3q1.5-.2 2-1.5.3-1 .3-2.3a5 5 0 0 0-.5-2.4q-.5-1.2-1.9-1.3c-1.8 0-2.3 2.3-2.3 3.8M30.4 106.8q-1 2-3.2 2c-1.6 0-2.6-1-3-2l-.1-1.9v-5.2h-1.4V98h4v6.3q0 1 .2 1.8.5.7 1.4.7 1.2-.1 1.6-1.3t.3-2.3v-3.5h-1.4V98h4v8.8h1.4v1.7h-3.8zM38.8 100.3q.6-2.8 3.5-2.4v2.5l-1-.1q-1.6.1-2.1 1.4t-.3 2.4v2.7h1.7v1.7H35v-1.7h1.4v-7H35V98h3.9zM47 99.8q.9-2 3-2c1.7 0 3 1 3.1 2q.3.8.2 1.4v5.6h1.3v1.7h-5.2v-1.7h1.3v-4.7q0-.7-.2-1.4-.3-1-1.4-1.1c-1.9 0-2 1.8-2 3.2v4h1.3v1.7H43v-1.7h1.4v-7H43V98h3.8zM57.5 103.8c0 1.5.6 3.2 2.4 3.2q1.5-.1 2-1.7h2.4c-.2 2.3-2.4 3.4-4.6 3.4l-2.1-.4q-1-.5-1.6-1.4-1.3-1.6-1.2-3.7c0-2.9 1.6-5.4 4.8-5.4q2.1 0 3.7 1.4c.8.9 1.1 2.4 1.2 3.5v1.1zm4.3-1.5c0-1.2-.5-2.9-2-2.9-1.6 0-2.1 1.5-2.3 2.9zM69 99.8q1-2 3.3-2 2.1-.1 3 2 .8-2 3-2t3 2q.3.8.2 1.6v5.4h1.3v1.7h-5.1v-1.7h1.2v-4.6c0-1-.1-2.5-1.5-2.5q-1.2 0-1.7 1-.4 1.1-.3 2.1v4h1.2v1.7h-5v-1.7h1.1V102q0-.8-.2-1.6-.4-.7-1.2-.7-1.5.1-2 1.7l-.1 1.5v4h1.3v1.6h-5.3v-1.7h1.4v-7h-1.4V98H69zM84.2 107a6 6 0 0 1-1.2-3.8q0-2.2 1.4-4a5 5 0 0 1 3.7-1.4c3.4 0 5.2 2.3 5.2 5.5 0 3-1.9 5.4-5.1 5.4q-2.4 0-4-1.7m1.6-3.7q-.1 1.2.5 2.4t2 1.3q1.3-.2 1.9-1.5.4-1 .3-2.3a5 5 0 0 0-.4-2.4q-.6-1.2-2-1.3c-1.8 0-2.3 2.3-2.3 3.8M101 106.8q-1 2-3.2 2c-1.5 0-2.6-1-3-2l-.1-1.9v-5.2h-1.3V98h4v6.3q-.1 1 .2 1.8.4.7 1.3.7 1.2-.1 1.7-1.3.3-1.1.2-2.3v-3.5h-1.4V98h4v8.8h1.4v1.7H101zM112.1 105.8q.1 2-1.7 2.8l-1 .1-1.3-.1q-1.3-.5-1.6-1.8v-7.1h-1.6V98h1.6v-1.8l2.6-.8V98h2.6v1.7h-2.6v6.6q0 .4.3.6c1.2.5 1.1-1.1 1.1-1.9h1.6zM112.6 108.5v-1.7h1.3v-11h-1.3v-1.6h4v5.2q.8-1.7 2.9-1.6 1.5-.1 2.5 1 .8 1 .7 2.4v5.6h1.4v1.7h-5.3v-1.7h1.3V101q-.3-1.2-1.5-1.3-1.4 0-1.8 1.3-.4 1.1-.3 2.2v3.7h1.3v1.7zM0 113.5h5.9v1.7H4v6.7q-.1 1.5.5 2.8.8 1.3 2.4 1.2.7 0 1.3-.3 1-.5 1.3-1.8.2-1 .1-2v-6.6H8v-1.7h5.6v1.7h-1.4v6.3q.1 1.7-.4 3.3a5 5 0 0 1-2 2.3 7 7 0 0 1-6 0 5 5 0 0 1-1.8-2q-.7-1.5-.6-3.2v-6.7H0zM17.4 118.8q.9-2 3.1-2c1.6 0 2.9 1 3 2q.3.8.2 1.4v5.7H25v1.7H20v-1.7H21v-4.7l-.1-1.4q-.3-1-1.4-1.1c-2 0-2 1.7-2 3.2v4h1.2v1.7h-5.2v-1.7h1.3v-7.1h-1.3V117h3.8zM25.7 127.6v-1.7H27v-7.1h-1.4V117h4v8.8h1.2v1.7zm4-12.1h-2.5v-2.4h2.6zM30.9 117h4.9v1.8h-1.3l2 6.6 2.2-6.6h-1.4V117H42v1.7h-.8l-3 8.8h-3.3l-3.1-8.8h-.8zM44.8 122.9c0 1.5.6 3.2 2.4 3.2q1.5-.1 1.9-1.7h2.5c-.2 2.3-2.5 3.4-4.6 3.4a6 6 0 0 1-2.2-.5q-1-.4-1.6-1.3-1.1-1.6-1.1-3.8c0-2.8 1.6-5.4 4.8-5.4q2.1 0 3.7 1.4 1 1.7 1.1 3.6v1.1zm4.3-1.6c0-1.1-.5-2.8-2-2.8-1.6 0-2.2 1.5-2.3 2.8zM56.3 119.3q.6-2.7 3.5-2.4v2.6l-1-.2q-1.6 0-2.1 1.5-.4 1.2-.3 2.4v2.7h1.7v1.7h-5.7v-1.7h1.4v-7.1h-1.4V117h3.9zM66.5 120.5q0-1.9-1.8-2-1.4-.1-1.6 1.3 0 .4.3.8l.6.3c1.1.3 3.2.4 4 1.4q.8 1 .8 2.1a4 4 0 0 1-.7 2.1q-.8 1.2-3 1.3-1.6 0-2.7-1.3v1h-1.9V124h2.1q0 2 2 2.2 1.4 0 1.5-1.3 0-.7-.5-1c-1.2-.6-2.6-.5-3.7-1.2q-1.5-1-1.4-2.7.1-1.4.7-2c.4-.5 1.7-1 3-1 .8 0 1.9.3 2.4 1v-.8h1.9v3.4zM69.7 127.6v-1.7h1.4v-7.1h-1.4V117h4v8.8H75v1.7zm4-12.1h-2.6v-2.4h2.7zM82.3 124.8c0 1.2-.4 2.4-1.7 2.8l-1 .2q-.7 0-1.3-.2-1.3-.5-1.6-1.8v-7H75V117h1.5v-1.8l2.7-.9v2.7h2.6v1.7h-2.6v6.5q0 .4.3.7c1.2.5 1.1-1.2 1-1.9h1.7zM82.5 117h5v1.8H86l2 5.5.1.3 2-5.8H89V117h4.6v1.7h-.8l-3.8 9.4c-.6 1.7-1.2 2.8-3.2 2.8h-1.6V129h1.1c1 0 1.2-.3 1.5-1l.1-.4-3.6-9h-.8z"/><g clip-path="url(#a)"><path fill="#f47834" d="M58.8 0h29.4v2H58.8z"/><path fill="#f47835" d="M58.8 1h29.4v1.9H58.8z"/><path fill="#f47835" d="M58.8 1.9h29.4v2H58.8z"/><path fill="#f47736" d="M58.8 2.8h29.4v2H58.8z"/><path fill="#f47737" d="M58.8 3.7h29.4v2H58.8z"/><path fill="#f47737" d="M58.8 4.7h29.4v2H58.8z"/><path fill="#f47638" d="M58.8 5.6h29.4v2H58.8z"/><path fill="#f47639" d="M58.8 6.5h29.4v2H58.8z"/><path fill="#f47639" d="M58.8 7.5h29.4v2H58.8z"/><path fill="#f4753a" d="M58.8 8.4h29.4v2H58.8z"/><path fill="#f4753b" d="M58.8 9.3h29.4v2H58.8z"/><path fill="#f4753b" d="M58.8 10.3h29.4v2H58.8z"/><path fill="#f4743c" d="M58.8 11.2h29.4v2H58.8z"/><path fill="#f4743d" d="M58.8 12.2h29.4V14H58.8z"/><path fill="#f3743d" d="M58.8 13h29.4v2H58.8z"/><path fill="#f3733e" d="M58.8 14h29.4v2H58.8z"/><path fill="#f3733e" d="M58.8 15h29.4v1.9H58.8z"/><path fill="#f3733f" d="M58.8 15.9h29.4v2H58.8z"/><path fill="#f37240" d="M58.8 16.8h29.4v2H58.8z"/><path fill="#f37241" d="M58.8 17.8h29.4v1.9H58.8z"/><path fill="#f37241" d="M58.8 18.7h29.4v2H58.8z"/><path fill="#f37142" d="M58.8 19.6h29.4v2H58.8z"/><path fill="#f37142" d="M58.8 20.6h29.4v2H58.8z"/><path fill="#f37143" d="M58.8 21.5h29.4v2H58.8z"/><path fill="#f37044" d="M58.8 22.4h29.4v2H58.8z"/><path fill="#f37044" d="M58.8 23.4h29.4v2H58.8z"/><path fill="#f36f45" d="M58.8 24.3h29.4v2H58.8z"/><path fill="#f36f45" d="M58.8 25.2h29.4v2H58.8z"/><path fill="#f36f46" d="M58.8 26.2h29.4v2H58.8z"/><path fill="#f36e47" d="M58.8 27.1h29.4v2H58.8z"/><path fill="#f36e47" d="M58.8 28h29.4v2H58.8z"/><path fill="#f36e48" d="M58.8 29h29.4v2H58.8z"/><path fill="#f36d48" d="M58.8 30h29.4v1.9H58.8z"/><path fill="#f36d49" d="M58.8 30.8h29.4v2H58.8z"/><path fill="#f36d49" d="M58.8 31.8h29.4v2H58.8z"/><path fill="#f36c4a" d="M58.8 32.7h29.4v2H58.8z"/><path fill="#f36c4a" d="M58.8 33.7h29.4v1.9H58.8z"/><path fill="#f36c4b" d="M58.8 34.6h29.4v2H58.8z"/><path fill="#f26b4b" d="M58.8 35.5h29.4v2H58.8z"/><path fill="#f26b4c" d="M58.8 36.5h29.4v1.9H58.8z"/><path fill="#f26b4d" d="M58.8 37.4h29.4v2H58.8z"/><path fill="#f26a4d" d="M58.8 38.3h29.4v2H58.8z"/><path fill="#f26a4e" d="M58.8 39.3h29.4v1.9H58.8z"/><path fill="#f2694e" d="M58.8 40.2h29.4v2H58.8z"/><path fill="#f2694f" d="M58.8 41.1h29.4v2H58.8z"/><path fill="#f2694f" d="M58.8 42h29.4v2H58.8z"/><path fill="#f26850" d="M58.8 43h29.4v2H58.8z"/><path fill="#f26850" d="M58.8 44h29.4v1.9H58.8z"/><path fill="#f26751" d="M58.8 44.9h29.4v2H58.8z"/><path fill="#f26751" d="M58.8 45.8h29.4v2H58.8z"/><path fill="#f26752" d="M58.8 46.7h29.4v2H58.8z"/><path fill="#f26652" d="M58.8 47.7h29.4v2H58.8z"/><path fill="#f26653" d="M58.8 48.6h29.4v2H58.8z"/><path fill="#f26553" d="M58.8 49.5h29.4v2H58.8z"/><path fill="#f26553" d="M58.8 50.5h29.4v2H58.8z"/><path fill="#f16454" d="M58.8 51.4h29.4v2H58.8z"/><path fill="#f16454" d="M58.8 52.3h29.4v2H58.8z"/><path fill="#f16455" d="M58.8 53.3h29.4v2H58.8z"/><path fill="#f16355" d="M58.8 56.3v-2h29.4V56z"/><path fill="#f16356" d="M59 57.8c-.2-1-.2-2.2-.2-2.6h29.4l.1 1.1z"/><path fill="#f16356" d="m59 59.3-.2-3 29.4-.4.1.8z"/><path fill="#f16256" d="m59.2 60.8-.3-3 29.4-1.5v.8z"/><path fill="#f16257" d="m59.3 62.3-.3-3 29.3-2.6v.7z"/><path fill="#f16157" d="M59.7 63.9q-.5-1.6-.5-3.2L88.4 57v.7z"/><path fill="#f16158" d="M60 65.4q-.4-1.6-.7-3.2l29-4.8.2.6z"/><path fill="#f16158" d="m60.5 67-.9-3.3 28.8-6 .2.6z"/><path fill="#f16058" d="m61 68.5-1-3.2L88.5 58l.2.5z"/><path fill="#f16059" d="M61.5 70q-.7-1.5-1-3.2l28.1-8.6.1.6z"/><path fill="#f15f59" d="M62.2 71.5q-.8-1.5-1.3-3.2l27.8-9.8q0 .3.2.4z"/><path fill="#f15f5a" d="m63 73-1.5-3.2 27.2-11 .3.3z"/><path fill="#f15f5a" d="m63.8 74.4-1.6-3 26.7-12.5.1.4z"/><path fill="#f15e5b" d="m64.7 75.9-1.8-3L89 59l.2.4z"/><path fill="#f15e5b" d="M65.7 77.2q-1.2-1.4-2-2.9l25.3-15q0 .2.2.3z"/><path fill="#f15d5b" d="m66.8 78.6-2.2-2.8L89 59.5l.2.2z"/><path fill="#f15d5c" d="M67.9 79.9 65.6 77l23.6-17.5.2.2z"/><path fill="#f15d5c" d="m69 81.1-2.3-2.6 22.6-18.8.2.3z"/><path fill="#f15c5c" d="m70.3 82.2-2.5-2.4 21.6-20q0 .3.3.2z"/><path fill="#f15c5d" d="M71.7 83.3 68.9 81l20.6-21 .3.1z"/><path fill="#f15b5d" d="m73 84.3-2.8-2.2 19.4-22 .3.1z"/><path fill="#f15b5d" d="m74.4 85.3-2.8-2L89.8 60l.2.3z"/><path fill="#f15b5e" d="M75.9 86.1q-1.5-.7-3-1.8l17-24 .3.1z"/><path fill="#f15a5e" d="m77.3 86.9-3-1.7L90 60.4l.4.1z"/><path fill="#f15a5e" d="m78.8 87.6-3-1.6 14.4-25.6.4.2z"/><path fill="#f1595f" d="m80.3 88.3-3-1.5 13.1-26.3.4.2z"/><path fill="#f0595f" d="M81.8 88.7q-1.5-.3-3-1.2l11.8-26.9q0 .2.5.2z"/><path fill="#f05860" d="m83.4 89.2-3.2-1 10.5-27.5.7.1z"/><path fill="#f05860" d="m84.9 89.6-3.2-1L91 60.9l.6.1z"/><path fill="#f05760" d="m86.4 90-3.2-.9 8.1-28.3.6.2z"/><path fill="#f05761" d="M88 90.2q-1.6-.1-3.2-.7L91.6 61l.7.2z"/><path fill="#f05661" d="M89.4 90.3q-1.5 0-3.1-.4L91.9 61h.7z"/><path fill="#f05661" d="m90.9 90.5-3.1-.3L92.2 61h.8z"/><path fill="#f05661" d="m92.4 90.6-3.1-.3 3.3-29.2h.8z"/><path fill="#f05562" d="m93.8 90.6-3-.2L93 61.1l.8.1z"/><path fill="#f05562" d="M95.3 90.6h-3l1-29.4h.9z"/><path fill="#f05462" d="m96.8 90.4-3 .2V61.2h.8z"/><path fill="#f05463" d="m98.3 90.3-3.1.3-1-29.4.7-.1z"/><path fill="#f05363" d="m99.8 90.2-3.1.3L94.5 61h.8z"/><path fill="#f05363" d="m101.2 90-3 .3-3.3-29.2h.8z"/><path fill="#f05264" d="M102.8 89.5q-1.6.5-3.2.7L95.3 61l.6-.2z"/><path fill="#f05264" d="m104.3 89.1-3.2.9-5.5-29 .6-.2z"/><path fill="#f05164" d="m105.8 88.7-3.1.9-6.8-28.7.6-.1z"/><path fill="#f05165" d="m107.3 88.2-3.1 1-8-28.4h.6z"/><path fill="#f05065" d="M108.8 87.5q-1.5.9-3.1 1.2l-9.2-28 .5-.1z"/><path fill="#f05065" d="m110.3 86.8-3 1.5-10.5-27.6.3-.2z"/><path fill="#f04f66" d="m111.8 86-3 1.6-11.9-27 .4-.2z"/><path fill="#f04f66" d="m113.3 85.2-3.1 1.7-13-26.4.3-.1z"/><path fill="#f04e66" d="M114.6 84.3q-1.4 1-3 1.8L97.4 60.4q.3 0 .4-.2z"/><path fill="#f04e67" d="M116 83.2q-1.5 1.1-2.9 2.1l-15.6-25 .3-.2z"/><path fill="#f04e67" d="m117.3 82.1-2.8 2.2-16.9-24 .3-.3z"/><path fill="#ef4d67" d="m118.6 81-2.7 2.3L97.8 60l.3-.1z"/><path fill="#ef4c68" d="M119.8 79.8q-1.2 1.4-2.6 2.4L97.9 60q.2 0 .2-.2z"/><path fill="#ef4c68" d="M120.9 78.5q-1.1 1.4-2.4 2.6L98 60l.2-.3z"/><path fill="#ef4b68" d="m122 77.1-2.3 2.8-21.6-20 .2-.3z"/><path fill="#ef4b69" d="m123 75.8-2.2 2.8-22.6-19 .3-.1z"/><path fill="#ef4a69" d="M123.8 74.3q-.8 1.5-2 3L98.3 59.5q.2 0 .2-.3z"/><path fill="#ef4a69" d="M124.6 72.8q-.8 1.6-1.7 3L98.5 59.6V59z"/><path fill="#ef4969" d="m125.4 71.3-1.6 3.1-25.3-15.1.2-.4z"/><path fill="#ef496a" d="m126 69.8-1.5 3.2-26-13.9.3-.3z"/><path fill="#ef486a" d="M126.6 68.3q-.4 1.5-1.3 3.2L98.7 58.9q.1 0 .2-.4z"/><path fill="#ef486a" d="M127 66.8q-.4 1.5-1 3.2L98.8 58.8l.1-.6z"/><path fill="#ef476b" d="m127.5 65.3-1 3.2-27.6-10 .1-.5z"/><path fill="#ef466b" d="m128 63.7-1 3.2-28-8.6.1-.6z"/><path fill="#ef466b" d="M128.2 62.2q-.3 1.5-.7 3.2L99 58l.2-.6z"/><path fill="#ef456b" d="M128.4 60.7q-.1 1.5-.5 3.1l-28.8-6q0-.3 0-.8z"/><path fill="#ef456c" d="m128.5 59.2-.3 3.1-29-4.9v-.7z"/><path fill="#ef446c" d="m128.6 57.7-.2 3.1-29.2-3.7v-.8z"/><path fill="#ef446c" d="m128.7 56.2-.2 3.1-29.3-2.6.1-.8z"/><path fill="#ef436d" d="M128.7 55.1v2.7l-29.5-1.5.1-1.2z"/><path fill="#ef436d" d="M128.7 54.2v2.1L99.3 56v-1.8z"/><path fill="#ef426d" d="M128.7 55.2H99.3v-2h29.4z"/><path fill="#ef426d" d="M128.7 54.3H99.3v-2h29.4z"/><path fill="#ef416e" d="M128.7 53.4H99.3v-2h29.4z"/><path fill="#ef406e" d="M128.7 52.4H99.3v-2h29.4z"/><path fill="#ef406e" d="M128.7 51.5H99.3v-2h29.4z"/><path fill="#ef3f6f" d="M128.7 50.6H99.3v-2h29.4z"/><path fill="#ef3e6f" d="M128.7 49.6H99.3v-2h29.4z"/><path fill="#ef3e6f" d="M128.7 48.7H99.3v-2h29.4z"/><path fill="#ee3d6f" d="M128.7 47.7H99.3v-1.9h29.4z"/><path fill="#ee3d70" d="M128.7 46.8H99.3v-2h29.4z"/><path fill="#ee3c70" d="M128.7 45.9H99.3v-2h29.4z"/><path fill="#ee3b70" d="M128.7 45H99.3v-2h29.4z"/><path fill="#ee3b71" d="M128.7 44H99.3v-2h29.4z"/><path fill="#ee3a71" d="M128.7 43H99.3v-1.9h29.4z"/><path fill="#ee3a71" d="M128.7 42.1H99.3v-2h29.4z"/><path fill="#ee3971" d="M128.7 41.2H99.3v-2h29.4z"/><path fill="#ee3872" d="M128.7 40.3H99.3v-2h29.4z"/><path fill="#ee3772" d="M128.7 39.3H99.3v-2h29.4z"/><path fill="#ee3772" d="M128.7 38.4H99.3v-2h29.4z"/><path fill="#ee3672" d="M128.7 37.5H99.3v-2h29.4z"/><path fill="#ee3573" d="M128.7 36.5H99.3v-2h29.4z"/><path fill="#ee3573" d="M128.7 35.6H99.3v-2h29.4z"/><path fill="#ee3473" d="M128.7 34.7H99.3v-2h29.4z"/><path fill="#ee3374" d="M128.7 33.7H99.3v-2h29.4z"/><path fill="#ee3274" d="M128.7 32.8H99.3v-2h29.4z"/><path fill="#ee3174" d="M128.7 31.9H99.3v-2h29.4z"/><path fill="#ee3174" d="M128.7 31H99.3v-2h29.4z"/><path fill="#ee3074" d="M128.7 30H99.3v-2h29.4z"/><path fill="#ee2f75" d="M128.7 29H99.3v-1.9h29.4z"/><path fill="#ee2e75" d="M128.7 28.1H99.3v-2h29.4z"/><path fill="#ee2d75" d="M128.7 27.2H99.3v-2h29.4z"/><path fill="#ee2c75" d="M128.7 26.2H99.3v-1.9h29.4z"/><path fill="#ee2c76" d="M128.7 25.3H99.3v-2h29.4z"/><path fill="#ee2b76" d="M128.7 24.4H99.3v-2h29.4z"/><path fill="#ee2a76" d="M128.7 23.4H99.3v-1.9h29.4z"/><path fill="#ee2976" d="M128.7 22.5H99.3v-2h29.4z"/><path fill="#ed2877" d="M128.7 21.6H99.3v-2h29.4z"/><path fill="#ed2777" d="M128.7 20.6H99.3v-1.9h29.4z"/><path fill="#ed2677" d="M128.7 19.7H99.3v-2h29.4z"/><path fill="#ed2577" d="M128.7 18.8H99.3v-2h29.4z"/><path fill="#ed2477" d="M128.7 17.8H99.3v-2h29.4z"/><path fill="#ed2378" d="M128.7 16.9H99.3v-2h29.4z"/><path fill="#ed2278" d="M128.7 16H99.3v-2h29.4z"/><path fill="#ed2078" d="M128.7 15H99.3v-2h29.4z"/><path fill="#ed1f78" d="M128.7 14.1H99.3v-2h29.4z"/><path fill="#ed1e79" d="M128.7 13.2H99.3v-2h29.4z"/><path fill="#ed1d79" d="M128.7 12.2H99.3v-2h29.4z"/><path fill="#ed1c79" d="M128.7 11.3H99.3v-2h29.4z"/><path fill="#ed1a79" d="M128.7 10.4H99.3v-2h29.4z"/><path fill="#ed1979" d="M128.7 9.4H99.3v-2h29.4z"/><path fill="#ed177a" d="M128.7 8.5H99.3v-2h29.4z"/><path fill="#ed167a" d="M128.7 7.6H99.3v-2h29.4z"/><path fill="#ed147a" d="M128.7 6.6H99.3v-2h29.4z"/><path fill="#ed137a" d="M128.7 5.7H99.3v-2h29.4z"/><path fill="#ed117a" d="M128.7 4.7H99.3V2.8h29.4z"/><path fill="#ed0f7b" d="M128.7 3.8H99.3v-2h29.4z"/><path fill="#ed0d7b" d="M128.7 2.9H99.3v-2h29.4z"/><path fill="#ed0b7b" d="M128.7 2H99.3V0h29.4z"/></g><path d="M0 1.5h25.5c14 0 20.4 1.3 26.4 8a19 19 0 0 1 5 13.7c0 6.3-3 12.8-9.7 16.6A19 19 0 0 1 61 59c0 6.6-2.6 13.9-7.6 18-7.6 6.4-13 7.1-27 7.1H0zm20.2 31.4h7.5c2.9 0 9 0 9-6.6 0-6.3-5.8-6.3-9-6.3h-7.5zm0 32.7h10c2.6 0 10.5 0 10.5-8 0-7-7.2-7-10.5-7h-10z"/></svg>