<svg xmlns="http://www.w3.org/2000/svg" xml:space="preserve" viewBox="0 0 392.5 127.2"><path d="M120.5 96.6c-6.1 0-7.4-3.5-7.4-7.3V76h3.1V89c0 2.7.9 4.8 4.5 4.8 3.2 0 4.6-1.4 4.6-5.2V75.9h3v12.5q0 8.2-7.8 8.2M142.4 96.3v-9q.1-2.6-2-2.7c-2.2 0-3.7 2.2-3.7 5v6.7h-3v-14h2.8l-.1 2.8a5 5 0 0 1 4.8-3c3.2 0 4.2 2 4.2 4.4v9.8zM152 80.3q-1.7-.1-1.8-1.9c-.1-1.8.8-1.9 1.9-1.9q1.7.2 1.9 2-.2 1.6-2 1.8m-1.4 16v-14h3v14zM165 96.3h-3l-5.2-14h3.3l2.6 7.4.9 2.9.8-2.8 2.7-7.4h3.2zM184.3 89.5h-8.9q0 4.8 4.2 4.7 2.2 0 4-1l.3 2.5q-2.2.9-4.8.9-6.6 0-6.7-7.2c0-4.2 2.3-7.3 6.3-7.3s5.7 2.7 5.7 6zm-5.7-5.2q-2.7.1-3.1 3.1h5.9q0-3-2.8-3.1M195.7 85q-4-.6-4 5.6v5.7h-3v-14h2.8l-.3 3.1c.7-1.8 2-3.6 4.7-3.3zM201.7 96.6l-3-.3.1-2.6q1.5.5 3 .5 2.7 0 2.8-1.9c0-2.8-6-1-6-5.9 0-2.4 1.9-4.3 5.7-4.3l2.6.2-.1 2.5q-1.4-.4-2.7-.4-2.5.1-2.5 1.7c0 2.7 6.2 1.3 6.2 6 0 2.6-2.4 4.5-6.1 4.5M213.5 80.3c-1 0-1.9-.8-1.9-1.9s.9-1.9 2-1.9q1.7.2 1.9 2c0 1-1 1.8-2 1.8m-1.5 16v-14h3v14zM225.3 96.5c-3 0-4-1-4-4.1v-7.5h-2.6v-2.3h2.7v-4.3l3-.8v5.1h3.6V85h-3.6v6.6c0 2 .4 2.5 1.8 2.5q1 0 1.8-.2v2.4q-1.3.3-2.7.3M239.5 96.3l.1-2.6a5 5 0 0 1-4.6 2.9q-3.8-.2-3.9-3.6c0-3.2 3.2-5 8.2-5v-1c0-1.7-.7-2.6-2.9-2.6-1.3 0-3 .4-4.1 1.2L232 83q2-.9 4.9-1c4.2 0 5.4 2 5.4 4.8v9.5zm-5.1-16.6q-1.6-.1-1.7-1.7.1-1.5 1.7-1.7a1.7 1.7 0 1 1 0 3.4m5 10.3c-4.5 0-5.4 1.3-5.4 2.5q0 1.6 1.9 1.7c2 0 3.4-2 3.4-4zm.5-10.3a1.7 1.7 0 1 1 0-3.4 1.7 1.7 0 0 1 0 3.4M252 96.5c-3 0-3.8-1-3.8-4.1v-7.5h-2.7v-2.3h2.7v-4.3l3-.8v5.1h3.6V85h-3.6v6.6c0 2 .4 2.5 1.8 2.5q1 0 1.8-.2v2.4q-1.3.3-2.8.3M283 96.3V87h-9.2v9.2h-3.2V75.9h3.2v8.4h9.2V76h3v20.4zM300 96.3l.1-2.6a5 5 0 0 1-4.6 2.9c-2.4 0-4-1.4-4-3.6 0-3.2 3.3-5 8.3-5v-1c0-1.7-.7-2.6-3-2.6-1.2 0-2.9.4-4 1.2l-.4-2.6q2.2-.9 5-1c4.2 0 5.4 2 5.4 4.8v9.5zm-.2-6.3c-4.4 0-5.3 1.3-5.3 2.5q0 1.6 1.9 1.7c2 0 3.4-2 3.4-4zM325.4 96.3v-8.9c0-1.7-.4-2.8-2-2.8-1.8 0-3.6 2-3.6 5v6.7h-3v-9c0-1.5-.2-2.7-2-2.7s-3.5 2.1-3.5 5v6.7h-3v-14h2.9q0 1.4-.2 2.8a5 5 0 0 1 4.7-3c2.8 0 3.7 1.8 4 3a5 5 0 0 1 4.6-3q4-.1 4.1 4.6v9.6zM338.6 96.5q-2.9 0-5-.6V76h3v6.4q0 1.4-.3 2.6h.1a5 5 0 0 1 4.4-2.8q5 .1 5.2 6.5c0 4.9-2.8 8-7.4 8m1.4-12c-2.2 0-3.4 2.7-3.4 5v4.3q.9.3 2.2.3c2.4 0 4-1.4 4-5.2q0-4.2-2.8-4.3M359.4 96.3l.2-2.7a5 5 0 0 1-4.8 3c-3.2 0-4.2-2-4.2-4.5v-9.7h3v9q-.1 2.6 2 2.7c2.2 0 3.7-2.2 3.7-5v-6.7h3v13.9zM375.5 85q-4.2-.6-4.2 5.6v5.7h-3v-14h3q0 1.4-.4 3.1c.7-1.8 2.1-3.6 4.7-3.3zM384.8 103.5c-3.7 0-6-1.4-6-4.1a4 4 0 0 1 2.3-3.5q-1.3-.7-1.4-2.1 0-1.7 1.6-2.4-2-1.2-2-4c0-2.8 2.2-5.3 6.2-5.3q1.2 0 2.3.3h4.7v2.3h-2.2a3 3 0 0 1 1 2.3c0 3-2.1 5.2-6 5.2l-1.6-.1q-.9.3-.8 1-.1 1 2.3 1h2.3q4.6 0 4.8 4c0 3-3 5.4-7.5 5.4m2-7h-3.4q-1.5.9-1.6 2.3c0 1.5 1.4 2.3 3.4 2.3q4-.1 4.1-2.6 0-1.9-2.6-2m-1.5-12.2q-3 .2-3.1 3 0 2.7 3.1 2.8 3 0 3.1-2.9 0-2.8-3-2.9"/><path fill="#e2001a" d="M.4 0h96v96H.4z"/><path fill="#fff" d="M62.1 56.9h1.4l-.7-1.2.7-1.2h-1.4l-.7-1.2-.7 1.2h-1.3l.7 1.2-.7 1.2h1.3l.7 1.2zM83.6 56.9h1.3l-.6-1.2.6-1.2h-1.3l-.7-1.2-.7 1.2h-1.4l.7 1.2-.7 1.2h1.4l.7 1.2z"/><path fill="#fff" d="M68.4 57.4v.3h-1.5v1.7h1.7v11h-4V59.7h-6.4v10.7H56v1.8h32.2v-1.8H86V59.7h-6.5v10.7h-3.9v-11h1.7v-1.7H76c0-1.9-1-3.5-3-4V52h1.4v-1.4H73V49h-1.5v1.6H70V52h1.4v1.9q-2.8.8-3 3.6M72.2 79.7c-2.4 0-4.3 2-4.3 4.3l-.1 7.2H54.3A63 63 0 0 0 58 74.1h28.2A63 63 0 0 0 90 91.2H76.5V84c0-2.3-2-4.3-4.3-4.3M42.2 31.3h-3.8V20.5H27V23c0 5.4-3.2 8.7-9.5 8.7q-9.5-.1-9.4-8.6V7.3H12v15c0 4 1.3 6.2 5.6 6.2s5.6-2.3 5.6-6.1V7.3H27v10h11.3v-10h3.8v10h11.3v-10h3.9v24h-3.9V20.5H42.2z"/><path d="m3.4 125.8-3.4-.1v-12.2l4-.1c3.7 0 6.1 1.7 6.1 6s-2.7 6.4-6.7 6.4m.4-10.4H2.4v8.3h1.2c2.3 0 4-1.3 4-4.1s-1-4.2-3.8-4.2M12.3 125.7v-12.2h6.6v2h-4.3v3h4v1.9h-4v3.3H19v2zM27.2 125.7l-3.4-5v5h-2.4v-12.2l3.5-.1q4.2-.1 4.4 3.4-.2 2.9-3.1 3.4l1 1.4 3 4zm-2.6-10.4h-.9v3.6h.9q2.1 0 2.2-1.8 0-1.8-2.2-1.8M41 115.5v3.1h3.9v2h-4v5h-2.3v-12h6.5v2zM52 125.9c-3.6 0-5.4-2.4-5.4-6.1 0-4 2.6-6.5 5.9-6.5 3.2 0 5.5 2 5.5 6.1s-2.6 6.5-6 6.5m.3-10.5c-1.7 0-3.2 1.4-3.2 4.1s1 4.3 3.1 4.3c1.6 0 3.3-1.3 3.3-4.2q0-4.1-3.2-4.2M66 125.7l-3.4-5h-.1v5H60v-12.2h3.5c2.7 0 4.5.9 4.5 3.4q-.2 2.8-3.1 3.4l1 1.3 2.9 4zm-2.6-10.3h-1v3.5h1q2 0 2.2-1.8 0-1.7-2.2-1.7M72.8 125.9q-1.3 0-2.4-.3l.1-2.2q1.2.5 2.5.5 2 0 2.1-1.7c0-2.3-5-1.2-5-5.2 0-2.2 1.7-3.7 4.6-3.7l2.2.3-.2 2-2.1-.3q-2 0-2 1.5c0 2.1 5 1.3 5 5.1 0 2.3-1.8 4-4.8 4M85 125.8c-4.3 0-5.7-2.8-5.7-5.8 0-3.9 2-6.6 6.1-6.6q1.4 0 2.6.4l-.3 2-2.4-.3c-2.3 0-3.4 1.7-3.4 4.1q0 4 3.6 4.1 1.2 0 2.3-.5l.3 2.1q-1.5.5-3.1.5M98 125.7v-5.3h-5.2v5.3h-2.3v-12.2h2.3v4.9H98v-4.9h2.3v12.2zM108.1 125.9c-3.8 0-4.7-2.1-4.7-4.4v-8h2.4v7.8c0 1.6.5 2.6 2.5 2.6q2.7.2 2.6-2.8v-7.6h2.3v7.5q-.2 5-5 4.9M123.3 125.7l-3.6-6.2q-.9-1.4-1.3-2.6v8.8h-2.2v-12.2h3l3.4 5.8 1.5 2.9v-8.7h2.2v12.2zM138.3 116a9 9 0 0 0-3.2-.6c-2.4 0-4.1 1.6-4.1 4.3q0 3.9 3.9 4 .8 0 1.5-.2v-4.2h2.4v5.8q-2 .8-4.2.8c-3.9 0-6.1-2.3-6.1-6s2.5-6.5 6.8-6.5q1.8 0 3.4.5zM152 127.2V113h1.7v14zM170.3 125.8l-3.4-.1v-12.1l3.9-.1c3.8 0 6.2 1.6 6.2 5.9 0 4.2-2.8 6.4-6.7 6.4m.3-10.4h-1.4v8.3h1.3c2.3 0 4-1.2 4-4.1 0-2.6-1-4.2-3.9-4.2M179 125.7v-12.2h6.7v2h-4.3v3h4v1.9h-4v3.3h4.3v2zM194 125.7l-3.5-5v5H188v-12.2h3.5q4.2-.2 4.4 3.4-.1 2.8-3 3.4l1 1.3 2.8 4zm-2.6-10.3h-1v3.5h.9q2.2 0 2.3-1.8 0-1.7-2.2-1.7M205.3 125.7v-12.2h2.3v10.1h4v2zM213.3 125.7v-12.2h6.6v2h-4.3v3h4v1.9h-4v3.3h4.3v2zM230 125.7v-5.3h-5.2v5.3h-2.4v-12.2h2.4v4.9h5.1v-4.9h2.4v12.2zM241.2 125.7l-3.4-5v5h-2.4v-12.2h3.5q4.2-.2 4.4 3.4-.1 2.8-3 3.4l1 1.3 2.8 4zm-2.5-10.3h-1v3.5h1q2 0 2.2-1.8 0-1.7-2.2-1.7M246 125.7v-12.2h6.6v2h-4.2v3h4v1.9h-4v3.3h4.2v2zM265.8 127.2V113h1.6v14zM283.6 125.8l-3.4-.1v-12.1l4-.1c3.7 0 6.1 1.6 6.1 5.9 0 4.2-2.7 6.4-6.7 6.4m.4-10.4h-1.4v8.3h1.2c2.3 0 4-1.2 4-4.1q.2-4-3.8-4.2M292.4 125.7v-12.2h6.6v2h-4.3v3h4v1.9h-4v3.3h4.3v2zM307.3 125.7l-3.4-5h-.1v5h-2.3v-12.2h3.4c2.7 0 4.5.9 4.5 3.4 0 1.8-1.3 3-3.1 3.4l1 1.3 2.9 4zm-2.6-10.3h-1v3.5h1q2 0 2.2-1.8 0-1.7-2.2-1.7M322.2 125.7h-3.6v-12.1l4.1-.1q4 0 4.1 3a3 3 0 0 1-1.9 2.7c1.4.3 2.2 1.5 2.2 2.7 0 1.8-1.2 3.8-5 3.8m.2-10.3H321v3.2h1q2.3 0 2.4-1.8 0-1.4-2-1.4m-.4 5h-1v3.3l1.3.1q2.3 0 2.3-1.8-.1-1.7-2.6-1.7M329.5 125.7v-12.2h2.3v12.2zM335 125.7v-12.2h2.3v10.1h4v2zM346.3 125.8l-3.3-.1v-12.1l3.9-.1c3.7 0 6.1 1.6 6.1 5.9 0 4.2-2.7 6.4-6.7 6.4m.4-10.4h-1.4v8.3h1.3c2.3 0 4-1.2 4-4.1q.1-4-3.9-4.2M360 125.9c-3.9 0-4.8-2.1-4.8-4.4v-8h2.4v7.8c0 1.6.5 2.6 2.5 2.6q2.7.2 2.6-2.8v-7.6h2.3v7.5q-.2 5-5 4.9M375 125.7l-3.5-6.2-1.3-2.6v8.8H368v-12.2h3l3.4 5.8 1.5 2.9v-8.7h2.2v12.2zM390.1 116a9 9 0 0 0-3.2-.6c-2.4 0-4.1 1.6-4.1 4.3q0 3.9 3.9 4 .8 0 1.5-.2v-4.2h2.4v5.8q-2 .8-4.2.8c-3.9 0-6.1-2.3-6.1-6s2.5-6.5 6.8-6.5q1.9 0 3.4.5z"/></svg>