<svg xmlns="http://www.w3.org/2000/svg" xmlns:xlink="http://www.w3.org/1999/xlink" viewBox="0 0 200 133"><defs><path id="a" d="M0 132.3h199.6V.3H0z"/></defs><g fill="none" fill-rule="evenodd"><path fill="#D91E57" d="M41 111.1h12.5v-1.9H40.9zm-32-3.6v-7.9H3.9v7.9h-3V89.8h3V97H9v-7.2h3v17.7zm26.9 0-5-12.5h-.1v12.5h-2.7V89.8h3.4l5 12.5h.1V89.8h2.6v17.7zm-17.4-6.8 1.8-7.1h.1l1.5 6-3.4 1zm3.7-11h-3.7l-3 12-2.5.8.8 2.3 1-.3-.7 3h2.7l1-4 4.7-1.6 1.4 5.6h2.7l-4.4-17.7z"/><g transform="translate(0 .4)"><path fill="#222" d="M66.5 103.4c-.2.9-.6 1.6-1 2.2a4.7 4.7 0 0 1-1.7 1.4c-.8.4-1.6.5-2.6.5s-2-.1-2.6-.5a4.6 4.6 0 0 1-1.7-1.4 5 5 0 0 1-1-2.2 11.4 11.4 0 0 1-.3-2.6V89.4h3v11.1l.1 1.6.4 1.4c.2.4.5.7.8.9.4.2.8.3 1.3.3s1-.1 1.3-.3c.3-.2.6-.5.8-1 .2-.3.3-.8.4-1.3V89.5h3v11.3c0 1 0 1.8-.2 2.6m11 3.7-5-12.5v12.5h-2.7V89.4h3.5l5 12.6V89.4h2.6v17.7z"/><mask id="b" fill="#fff"><use xlink:href="#a"/></mask><path fill="#222" d="M84 107h3V89.5h-3zm13 0h-3.8l-4.4-17.6h3.4l3 14.2 3-14.2h3.2zm6.1 0V89.5h8v2.7h-5v4.6h4.6v2.5H106v5.2h5.3v2.7zm17.7-12.4c0-.5 0-1-.2-1.3a2.2 2.2 0 0 0-.6-.8l-.8-.5h-2.6v5.3h1.7c.7 0 1.3-.2 1.8-.6.5-.5.7-1.2.7-2.1zm.2 12.5-2.8-7.6h-1.6v7.6h-3V89.4h5.1c.7 0 1.4.1 2 .3a4 4 0 0 1 1.6 1c.5.3.8.8 1 1.5.3.6.4 1.4.4 2.3 0 .6 0 1.2-.2 1.8a4 4 0 0 1-.7 1.3 3.7 3.7 0 0 1-.9.9 3 3 0 0 1-1 .4l3.2 8.2H121zm12.6-14.3a3 3 0 0 0-3.3-1 2 2 0 0 0-.8.4 2 2 0 0 0-.5.8 3 3 0 0 0-.2 1.1c0 .8.3 1.4.7 1.8.5.4 1 .8 1.8 1.1l1.3.8 1.3 1 .9 1.4c.2.6.3 1.2.3 2a6 6 0 0 1-.4 2.3 5.1 5.1 0 0 1-1.1 1.7c-.5.4-1 .8-1.6 1a5.5 5.5 0 0 1-2 .3 6.5 6.5 0 0 1-2.7-.5c-.8-.4-1.5-.9-2-1.5l1.6-2.2a4.1 4.1 0 0 0 3 1.5c.7 0 1.2-.2 1.7-.6.4-.5.6-1 .6-1.9 0-.7-.3-1.3-.8-1.8l-1.9-1.2-1.3-.8a5.2 5.2 0 0 1-1.2-1 4.6 4.6 0 0 1-.7-1.4 5 5 0 0 1-.3-1.9c0-.9.1-1.7.4-2.3a4.8 4.8 0 0 1 1.2-1.7 4.7 4.7 0 0 1 1.6-1 5.6 5.6 0 0 1 1.8-.2 6 6 0 0 1 2.4.4c.7.3 1.3.7 1.8 1.3l-1.6 2.1zm3.8 14.3h3V89.4h-3zm11-15.1v15h-3V92h-3.3v-2.6h9.6V92zm11.5 8.3v6.8h-3v-6.8l-4.3-10.9h3.2l2.7 7.9 2.7-7.9h3.2zM9.7 123l-.2-2.5a8 8 0 0 0-.7-2c-.3-.7-.6-1.1-1-1.4-.4-.4-.9-.5-1.4-.5-.6 0-1 .1-1.5.5-.4.3-.7.7-1 1.3-.3.6-.5 1.3-.6 2a15.2 15.2 0 0 0 .6 7.2c.3.6.6 1 1 1.4.5.3 1 .5 1.5.5s1-.2 1.4-.5c.4-.4.8-.8 1-1.4l.7-2 .2-2.6m3 0c0 1.4 0 2.7-.4 3.8a9.3 9.3 0 0 1-1.2 3 6 6 0 0 1-2 1.8 5 5 0 0 1-2.7.7c-1 0-2-.2-2.7-.7a6 6 0 0 1-2-1.9A11 11 0 0 1 0 123c0-1.4.1-2.7.4-3.8.3-1.1.7-2.1 1.3-3a5.8 5.8 0 0 1 4.7-2.5 5.4 5.4 0 0 1 4.7 2.6 14.6 14.6 0 0 1 1.7 6.7m5.5-6.1v4.8h4.6v2.6h-4.6v7.6h-3v-17.7h8v2.7zm17.4.1h-.1l-2 8.8h4l-2-8.8zm3.1 14.9L38 128h-4.6l-1 3.8h-3l4.5-17.7h3.8l4.3 17.7h-3zm12-12.5c0-.9-.3-1.6-.7-2-.5-.5-1-.7-1.8-.7h-1.7v5.6h1.7c.7 0 1.3-.2 1.8-.7.4-.5.6-1.2.6-2.2m2.9 0c0 .9-.2 1.7-.4 2.4a5 5 0 0 1-1.1 1.6 4 4 0 0 1-1.6 1 5.1 5.1 0 0 1-1.8.4h-2v7h-3v-17.6h4.9c.5 0 1.1 0 1.7.2.6.2 1.2.5 1.6.9.5.4.9 1 1.2 1.6.3.7.5 1.5.5 2.5m9 0c0-.9-.2-1.6-.6-2-.5-.5-1-.7-1.7-.7h-1.7v5.6h1.7c.7 0 1.2-.2 1.7-.7.4-.5.7-1.2.7-2.2m2.8 0a6 6 0 0 1-.4 2.4 5 5 0 0 1-1.1 1.6c-.4.5-1 .8-1.5 1a5.1 5.1 0 0 1-1.8.4h-2.1v7h-3v-17.6h4.9c.6 0 1.2 0 1.7.2.6.2 1.2.5 1.7.9.4.4.8 1 1.1 1.6.3.7.5 1.5.5 2.5m2 12.5v-17.7h3V129h5v2.8zm9.7 0h3v-17.7h-3zm6.2 0v-17.7h8v2.6h-5v4.7H91v2.5h-4.7v5.2h5.3v2.7zm19-8.9c0-1-.2-2-.4-2.7a6 6 0 0 0-.8-2c-.3-.5-.7-.8-1.2-1.1a3.3 3.3 0 0 0-1.6-.4H97v12.4h1.4a3.3 3.3 0 0 0 2.8-1.5 6 6 0 0 0 .8-2c.2-.7.3-1.6.3-2.7m3 0c0 2.8-.6 5-1.7 6.6s-3 2.3-5.2 2.3h-4.5v-17.7h4.5c2.3 0 4 .8 5.2 2.3 1.1 1.6 1.7 3.8 1.7 6.5m15.2-5.4a3 3 0 0 0-3.2-1 2 2 0 0 0-.8.4 2 2 0 0 0-.5.8 3 3 0 0 0-.2 1.1c0 .8.2 1.3.7 1.7.5.4 1 .8 1.8 1.2l1.3.8c.5.2.9.6 1.2 1 .4.4.7.8 1 1.4.2.5.3 1.2.3 2a6 6 0 0 1-.4 2.2 5.1 5.1 0 0 1-1.1 1.7 4 4 0 0 1-1.6 1 5.5 5.5 0 0 1-2 .4 6.5 6.5 0 0 1-2.7-.6c-.9-.3-1.5-.8-2-1.4l1.6-2.2a4.2 4.2 0 0 0 1.4 1c.5.4 1 .5 1.7.5.6 0 1.1-.2 1.5-.7.4-.4.7-1 .7-1.8 0-.7-.3-1.4-.8-1.8a7 7 0 0 0-1.9-1.3 11.3 11.3 0 0 1-1.4-.7 5.2 5.2 0 0 1-1-1 4.6 4.6 0 0 1-.9-1.4c-.2-.5-.3-1.2-.3-1.9 0-1 .2-1.7.5-2.4a4.8 4.8 0 0 1 1.1-1.6 4.6 4.6 0 0 1 1.6-1l1.9-.3c.9 0 1.7.2 2.4.5s1.3.7 1.8 1.3l-1.7 2.1zm12.5 14c-.7.5-1.6.7-2.7.7-1 0-2-.2-2.7-.7a6.2 6.2 0 0 1-2-2c-.6-.7-1-1.7-1.4-2.9-.3-1-.4-2.3-.4-3.7 0-1.3.1-2.6.4-3.7.3-1.1.8-2.1 1.3-3 .6-.8 1.3-1.4 2-1.9.9-.4 1.8-.7 2.8-.7 1 0 1.9.2 2.7.6a4.8 4.8 0 0 1 1.8 1.6l-1.7 2.1c-.7-1-1.6-1.5-2.6-1.5-.6 0-1.2.2-1.6.5a4 4 0 0 0-1.1 1.4c-.3.6-.6 1.3-.7 2a13.6 13.6 0 0 0 0 5.1c.1.8.4 1.5.7 2 .3.7.6 1.1 1.1 1.5.5.3 1 .5 1.6.5.6 0 1.1-.2 1.5-.5a4 4 0 0 0 1-1l1.8 2a5.5 5.5 0 0 1-1.8 1.7m3.7.2h3v-17.7h-3zm6.2 0v-17.7h8v2.6h-5.1v4.7h4.7v2.5h-4.7v5.2h5.3v2.7zm18.3 0-5-12.5h-.1v12.5h-2.7v-17.7h3.4l5 12.5h.1v-12.5h2.6v17.7zm15-.2c-.7.4-1.6.6-2.7.6a5 5 0 0 1-2.7-.7 6.2 6.2 0 0 1-2-2c-.6-.7-1-1.7-1.4-2.9a14.2 14.2 0 0 1 0-7.4c.4-1.1.8-2.1 1.4-3a6 6 0 0 1 2-1.9 6 6 0 0 1 5.4-.1 4.8 4.8 0 0 1 1.9 1.6l-1.8 2.1c-.6-1-1.5-1.5-2.6-1.5a3 3 0 0 0-1.6.5 4 4 0 0 0-1.1 1.4l-.7 2a13.6 13.6 0 0 0 0 5.1c.2.8.4 1.5.7 2 .3.7.7 1.1 1.1 1.5.5.3 1 .5 1.6.5a3 3 0 0 0 1.6-.5 4 4 0 0 0 1-1l1.7 2a5.5 5.5 0 0 1-1.7 1.7m3.6.2v-17.7h8v2.6h-5v4.7h4.6v2.5h-4.7v5.2h5.3v2.7zm18-14.3a3 3 0 0 0-3.2-1 2 2 0 0 0-.7.4 2 2 0 0 0-.6.8 3 3 0 0 0-.1 1.1c0 .8.2 1.3.6 1.7.5.4 1 .8 1.8 1.2l1.3.8a5 5 0 0 1 2.1 2.4c.3.5.4 1.2.4 2a6 6 0 0 1-.4 2.2 5.1 5.1 0 0 1-1.1 1.7 4 4 0 0 1-1.6 1 5.5 5.5 0 0 1-2 .4 6.5 6.5 0 0 1-2.7-.6c-.8-.3-1.5-.8-2-1.4l1.6-2.2c.4.5.9.8 1.4 1a3.7 3.7 0 0 0 1.7.5c.6 0 1.1-.2 1.6-.7.4-.4.6-1 .6-1.8 0-.7-.3-1.4-.8-1.8a7 7 0 0 0-1.9-1.3 11.3 11.3 0 0 1-1.3-.7 5.2 5.2 0 0 1-1.2-1 4.6 4.6 0 0 1-.7-1.4c-.2-.5-.3-1.2-.3-1.9 0-1 .1-1.7.4-2.4.3-.6.7-1.2 1.2-1.6a4.6 4.6 0 0 1 1.6-1 5.6 5.6 0 0 1 1.8-.3 5.7 5.7 0 0 1 4.2 1.8l-1.6 2.1z" mask="url(#b)"/><path fill="#D91E57" d="M191.7 27.5 55.3 71.7l-8.8-27.2L182.9.3z" mask="url(#b)"/></g></g></svg>