<svg xmlns="http://www.w3.org/2000/svg" viewBox="0 0 182.3 48"><path fill="#f8aa00" d="M9.27 21.23 0 26.59V15.88l9.27 5.35z"/><path fill="#ffd000" d="m0 26.59 9.27-5.36v10.71L0 26.59z"/><path fill="#f07f3c" d="M9.27 31.94 0 37.29v-10.7l9.27 5.35z"/><path fill="#e62d31" d="m0 37.29 9.27-5.35v10.71L0 37.29z"/><path fill="#c6c1b4" d="M9.27 10.53 0 15.88V5.17l9.27 5.36z"/><path fill="#8c8b82" d="m0 15.88 9.27-5.35v10.7L0 15.88z"/><path fill="#b9cd76" d="m18.55 15.88-9.28-5.35v10.7l9.28-5.35z"/><path fill="#7db928" d="m9.27 21.23 9.27 5.36V15.88l-9.27 5.35z"/><path fill="#289c38" d="m18.55 26.59-9.28-5.36v10.71l9.28-5.35z"/><path fill="#00843b" d="m9.27 31.94 9.27 5.35v-10.7l-9.27 5.35z"/><path fill="#005da9" d="M9.27 42.65 18.54 48V37.29l-9.27 5.36z"/><path fill="#1fbadb" d="m18.55 37.29-9.28-5.35v10.71l9.28-5.36z"/><path fill="#a8589e" d="m18.55 37.29 9.27 5.36V31.94l-9.27 5.35z"/><path fill="#5b257d" d="m27.82 42.65-9.28-5.36V48l9.28-5.35z"/><path fill="#00707e" d="m37.09 15.88-9.27 5.35v-10.7l9.27 5.35z"/><path fill="#5fa4b0" d="m27.82 10.53 9.27-5.36v10.71l-9.27-5.35z"/><path fill="#5c57a2" d="m37.09 37.29-9.27 5.36V31.94l9.27 5.35z"/><path fill="#8da6d6" d="m27.82 31.94 9.27-5.35v10.7l-9.27-5.35z"/><path fill="#00707e" d="M43.8 31.74h1.09l1 2.74.36 1.05.35-1.05 1-2.74h1.08v5.55h-.92v-3.88c0-.15 0-.29.05-.42l-.45 1.27-1 2.52H46l-.95-2.52-.44-1.26v4.3h-.81Zm6.06 4.43a1.15 1.15 0 0 1 .58-1 4.54 4.54 0 0 1 1.87-.51 1.06 1.06 0 0 0 0-.31.71.71 0 0 0-.13-.26.58.58 0 0 0-.23-.18.73.73 0 0 0-.35-.07 1.58 1.58 0 0 0-.61.12 3.71 3.71 0 0 0-.56.29l-.43-.68a3.53 3.53 0 0 1 .78-.38 2.51 2.51 0 0 1 .92-.17 1.45 1.45 0 0 1 1.18.47 2.07 2.07 0 0 1 .38 1.33v2.47h-.8l-.08-.45a3.24 3.24 0 0 1-.6.39 1.47 1.47 0 0 1-.69.17 1.25 1.25 0 0 1-.9-.34 1.18 1.18 0 0 1-.33-.89Zm1-.07a.45.45 0 0 0 .17.4.64.64 0 0 0 .42.13.94.94 0 0 0 .47-.12 2.09 2.09 0 0 0 .44-.34v-.93a3.71 3.71 0 0 0-.71.14 1.68 1.68 0 0 0-.46.19.64.64 0 0 0-.25.24.57.57 0 0 0-.13.29Zm3.62-2.97h.8l.07.56a3.42 3.42 0 0 1 .61-.47 1.46 1.46 0 0 1 .76-.2 1.14 1.14 0 0 1 1 .43 2.15 2.15 0 0 1 .3 1.23v2.61h-1v-2.48a1.21 1.21 0 0 0-.16-.73.58.58 0 0 0-.5-.22.87.87 0 0 0-.48.14 2.69 2.69 0 0 0-.47.38v2.91h-1Zm4.57 3.04a1.15 1.15 0 0 1 .59-1 4.44 4.44 0 0 1 1.86-.51 1.06 1.06 0 0 0 0-.31.71.71 0 0 0-.13-.26.58.58 0 0 0-.23-.18.73.73 0 0 0-.35-.07 1.62 1.62 0 0 0-.61.12 4.25 4.25 0 0 0-.56.29l-.36-.65a3.53 3.53 0 0 1 .78-.38 2.52 2.52 0 0 1 .93-.17 1.44 1.44 0 0 1 1.17.47 2.07 2.07 0 0 1 .38 1.33v2.47h-.8l-.07-.45a3.24 3.24 0 0 1-.6.39 1.47 1.47 0 0 1-.69.17 1.25 1.25 0 0 1-.9-.34 1.21 1.21 0 0 1-.41-.92Zm1-.07a.47.47 0 0 0 .17.4.65.65 0 0 0 .43.13.9.9 0 0 0 .46-.12 2.09 2.09 0 0 0 .44-.34v-.93a3.71 3.71 0 0 0-.71.14 1.68 1.68 0 0 0-.46.19.64.64 0 0 0-.25.24.57.57 0 0 0-.13.29Zm3.34 1.95a.86.86 0 0 1 .15-.49 1.44 1.44 0 0 1 .44-.4.75.75 0 0 1-.37-.69.73.73 0 0 1 .14-.45 1.22 1.22 0 0 1 .32-.32 1.51 1.51 0 0 1-.38-.44 1.3 1.3 0 0 1-.17-.66 1.47 1.47 0 0 1 .14-.64 1.4 1.4 0 0 1 .36-.47 1.55 1.55 0 0 1 .52-.29 2.19 2.19 0 0 1 .63-.1h.33l.28.08h1.49v.72h-.76a.87.87 0 0 1 .17.3 1.05 1.05 0 0 1 .07.4 1.44 1.44 0 0 1-.12.61 1.27 1.27 0 0 1-.34.44 1.62 1.62 0 0 1-.5.28 2.06 2.06 0 0 1-.62.09h-.28a1 1 0 0 1-.29-.08 1.14 1.14 0 0 0-.15.17.49.49 0 0 0 0 .23.32.32 0 0 0 .15.28.94.94 0 0 0 .53.1h.73a2.21 2.21 0 0 1 1.15.24.87.87 0 0 1 .38.79 1.16 1.16 0 0 1-.15.57 1.44 1.44 0 0 1-.45.47A2.51 2.51 0 0 1 66 39a3.26 3.26 0 0 1-.92.12 3.66 3.66 0 0 1-.69-.07 2 2 0 0 1-.55-.21 1.07 1.07 0 0 1-.36-.34.81.81 0 0 1-.09-.45Zm.81-.15a.48.48 0 0 0 .29.44 1.56 1.56 0 0 0 .78.16 1.53 1.53 0 0 0 .82-.2.55.55 0 0 0 .31-.47.31.31 0 0 0-.19-.33 1.34 1.34 0 0 0-.55-.09h-.57a2.37 2.37 0 0 1-.57-.06.72.72 0 0 0-.32.55Zm1-2.54a.67.67 0 0 0 .51-.22 1 1 0 0 0 0-1.23.7.7 0 0 0-.51-.22.73.73 0 0 0-.52.22.82.82 0 0 0-.21.61.85.85 0 0 0 .21.62.69.69 0 0 0 .49.22Zm2.61-.15a2.38 2.38 0 0 1 .19-.91 2.18 2.18 0 0 1 .43-.69 1.89 1.89 0 0 1 1.3-.61 1.72 1.72 0 0 1 .74.15 1.39 1.39 0 0 1 .54.41 1.61 1.61 0 0 1 .33.62 2.92 2.92 0 0 1 .11.8 1.91 1.91 0 0 1 0 .46h-2.69a1.41 1.41 0 0 0 .39.87 1.16 1.16 0 0 0 .84.31 1.7 1.7 0 0 0 .51-.08 2 2 0 0 0 .46-.23l.33.62a3.36 3.36 0 0 1-.66.32 2.49 2.49 0 0 1-.77.13 2.06 2.06 0 0 1-1.46-.58 2 2 0 0 1-.43-.69 2.36 2.36 0 0 1-.16-.9Zm2.79-.37a1.29 1.29 0 0 0-.21-.78.74.74 0 0 0-.64-.28.91.91 0 0 0-.65.27 1.29 1.29 0 0 0-.35.79Zm1.78-1.71h.81l.07.56a3.56 3.56 0 0 1 .57-.47 1.3 1.3 0 0 1 .7-.2 1.13 1.13 0 0 1 1.16.75 3.36 3.36 0 0 1 .62-.53 1.28 1.28 0 0 1 .72-.22 1.16 1.16 0 0 1 1 .43 2.07 2.07 0 0 1 .31 1.23v2.61h-1v-2.48a1.29 1.29 0 0 0-.16-.73.58.58 0 0 0-.48-.22 1.33 1.33 0 0 0-.87.52v2.91h-1v-2.48a1.21 1.21 0 0 0-.16-.73.57.57 0 0 0-.49-.22 1.33 1.33 0 0 0-.87.52v2.91h-1Zm6.89 2.08a2.38 2.38 0 0 1 .16-.91 2.18 2.18 0 0 1 .43-.69 1.74 1.74 0 0 1 .61-.43 1.79 1.79 0 0 1 .71-.16 1.73 1.73 0 0 1 .75.15 1.39 1.39 0 0 1 .54.41 1.93 1.93 0 0 1 .33.62 2.92 2.92 0 0 1 .11.8 2.61 2.61 0 0 1 0 .46h-2.69a1.31 1.31 0 0 0 .39.87 1.16 1.16 0 0 0 .84.31 1.59 1.59 0 0 0 .5-.08 2 2 0 0 0 .47-.23l.33.62a3.2 3.2 0 0 1-.67.32 2.38 2.38 0 0 1-.76.13 2 2 0 0 1-1.46-.58 2 2 0 0 1-.44-.69 2.57 2.57 0 0 1-.15-.92Zm2.79-.37a1.29 1.29 0 0 0-.21-.78.74.74 0 0 0-.64-.28.89.89 0 0 0-.65.27 1.24 1.24 0 0 0-.35.79Zm1.78-1.71h.81l.07.56a3.42 3.42 0 0 1 .61-.47 1.43 1.43 0 0 1 .76-.2 1.12 1.12 0 0 1 1 .43 2.07 2.07 0 0 1 .31 1.23v2.61h-1v-2.48a1.3 1.3 0 0 0-.15-.73.58.58 0 0 0-.5-.22.87.87 0 0 0-.48.14 2.37 2.37 0 0 0-.47.38v2.91h-1Zm4.9.77h-.6v-.73h.65l.12-1.17h.81v1.14h1.06v.77h-1.06v2c0 .49.2.73.59.73a.82.82 0 0 0 .22 0l.21-.07.17.72a2.66 2.66 0 0 1-.39.11 2.16 2.16 0 0 1-.46 0 1.55 1.55 0 0 1-.61-.11A1.09 1.09 0 0 1 89 37a1.34 1.34 0 0 1-.23-.48 2.35 2.35 0 0 1-.07-.62Zm4.94 2.01a2.24 2.24 0 0 0 .68.45 1.76 1.76 0 0 0 .76.18 1.12 1.12 0 0 0 .72-.2.61.61 0 0 0 .25-.51.52.52 0 0 0-.07-.29.68.68 0 0 0-.17-.21 1.48 1.48 0 0 0-.28-.17l-.34-.16-.76-.33a4 4 0 0 1-.41-.21 2.11 2.11 0 0 1-.36-.31 1.91 1.91 0 0 1-.26-.41 1.55 1.55 0 0 1-.09-.55 1.27 1.27 0 0 1 .14-.61 1.55 1.55 0 0 1 .38-.5 1.88 1.88 0 0 1 .59-.33 2.27 2.27 0 0 1 .75-.12 2.32 2.32 0 0 1 .94.19 2.43 2.43 0 0 1 .77.52l-.5.62a2.54 2.54 0 0 0-.56-.34 1.51 1.51 0 0 0-.65-.13 1.09 1.09 0 0 0-.63.17.57.57 0 0 0-.24.48.51.51 0 0 0 .07.28.76.76 0 0 0 .2.2 1.47 1.47 0 0 0 .28.16l.33.14.76.32a2.38 2.38 0 0 1 .45.23 1.78 1.78 0 0 1 .35.32 1.18 1.18 0 0 1 .23.41 1.59 1.59 0 0 1-.01 1.19 1.62 1.62 0 0 1-.39.52 1.84 1.84 0 0 1-.63.35 2.47 2.47 0 0 1-.84.14 2.89 2.89 0 0 1-1.14-.22 2.82 2.82 0 0 1-.92-.6Zm4.07-.7a2.43 2.43 0 0 1 .17-.92 2.09 2.09 0 0 1 .46-.69 1.88 1.88 0 0 1 .67-.43 2.09 2.09 0 0 1 .79-.15 1.73 1.73 0 0 1 .71.14 1.92 1.92 0 0 1 .51.35l-.47.62a1.65 1.65 0 0 0-.33-.23 1 1 0 0 0-.37-.08 1 1 0 0 0-.82.38 1.53 1.53 0 0 0-.32 1 1.58 1.58 0 0 0 .31 1 1 1 0 0 0 .8.38 1.13 1.13 0 0 0 .48-.11 1.67 1.67 0 0 0 .38-.25l.41.62a2.12 2.12 0 0 1-.65.4 2 2 0 0 1-.72.14 2.09 2.09 0 0 1-.79-.15 1.87 1.87 0 0 1-.64-.42 2.18 2.18 0 0 1-.43-.69 2.67 2.67 0 0 1-.15-.91Zm4.19-3.91h1v2.35a3.12 3.12 0 0 1 .58-.43 1.4 1.4 0 0 1 .75-.2 1.11 1.11 0 0 1 1 .43 2.07 2.07 0 0 1 .31 1.23v2.61h-1v-2.48a1.3 1.3 0 0 0-.15-.73.58.58 0 0 0-.5-.22.87.87 0 0 0-.48.14 2.69 2.69 0 0 0-.47.38v2.91h-1Zm4.47 3.91a2.43 2.43 0 0 1 .16-.92 2 2 0 0 1 .44-.69 1.81 1.81 0 0 1 .63-.43 2 2 0 0 1 1.5 0 1.81 1.81 0 0 1 .63.43 2.21 2.21 0 0 1 .44.69 2.75 2.75 0 0 1 0 1.85 2.21 2.21 0 0 1-.44.69 2 2 0 0 1-2.76 0 2 2 0 0 1-.44-.69 2.45 2.45 0 0 1-.16-.93Zm1 0a1.78 1.78 0 0 0 .26 1 .82.82 0 0 0 .72.38.85.85 0 0 0 .72-.38 2.09 2.09 0 0 0 0-2 .85.85 0 0 0-.72-.38.82.82 0 0 0-.72.38 1.78 1.78 0 0 0-.26 1Zm3.66 0a2.43 2.43 0 0 1 .16-.92 2 2 0 0 1 .44-.69 1.81 1.81 0 0 1 .63-.43 1.9 1.9 0 0 1 .75-.15 1.93 1.93 0 0 1 .75.15 1.81 1.81 0 0 1 .63.43 2.21 2.21 0 0 1 .44.69 2.75 2.75 0 0 1 0 1.85 2.21 2.21 0 0 1-.44.69 2 2 0 0 1-1.38.57 1.9 1.9 0 0 1-.75-.15 1.93 1.93 0 0 1-.63-.42 2 2 0 0 1-.44-.69 2.45 2.45 0 0 1-.16-.93Zm1 0a1.78 1.78 0 0 0 .26 1 .82.82 0 0 0 .72.38.85.85 0 0 0 .72-.38 2.09 2.09 0 0 0 0-2 .85.85 0 0 0-.72-.38.82.82 0 0 0-.72.38 1.78 1.78 0 0 0-.26 1ZM116 31.3h1v5a.43.43 0 0 0 .07.26.26.26 0 0 0 .15.07h.15l.13.73a1.28 1.28 0 0 1-.52.09.83.83 0 0 1-.74-.32 1.52 1.52 0 0 1-.21-.86Zm3.78 3.5h2v.71h-2Zm4.82-3.06h1v4.72h2.31v.83h-3.31Zm4.66.66a.59.59 0 0 1-.43-.16.51.51 0 0 1-.17-.4.54.54 0 0 1 .17-.4.63.63 0 0 1 .43-.16.66.66 0 0 1 .44.16.54.54 0 0 1 .17.4.51.51 0 0 1-.17.4.61.61 0 0 1-.44.16Zm-.49.73h1v4.16h-1Zm1.95 2.08a2.59 2.59 0 0 1 .16-.91 2.38 2.38 0 0 1 .43-.69 1.87 1.87 0 0 1 .62-.43 1.79 1.79 0 0 1 1.46 0 1.55 1.55 0 0 1 .54.41 1.74 1.74 0 0 1 .32.62 2.58 2.58 0 0 1 .11.8 1.91 1.91 0 0 1 0 .46h-2.65a1.37 1.37 0 0 0 .4.87 1.16 1.16 0 0 0 .83.31 1.65 1.65 0 0 0 .51-.08 1.8 1.8 0 0 0 .46-.23l.33.62a3.36 3.36 0 0 1-.66.32 2.43 2.43 0 0 1-.76.13 2.16 2.16 0 0 1-.81-.15 1.94 1.94 0 0 1-.65-.43 2 2 0 0 1-.44-.69 2.56 2.56 0 0 1-.2-.93Zm.82-4h1l.76 1.24h-.73Zm2 3.65a1.29 1.29 0 0 0-.21-.78.74.74 0 0 0-.64-.28.93.93 0 0 0-.66.27 1.29 1.29 0 0 0-.34.79Zm1.46 3.19a.86.86 0 0 1 .15-.49 1.44 1.44 0 0 1 .44-.4.75.75 0 0 1-.37-.69.8.8 0 0 1 .14-.45 1.22 1.22 0 0 1 .32-.32 1.51 1.51 0 0 1-.38-.44 1.3 1.3 0 0 1-.17-.66 1.47 1.47 0 0 1 .14-.64 1.4 1.4 0 0 1 .36-.47 1.55 1.55 0 0 1 .52-.29 2.19 2.19 0 0 1 .63-.1h.33l.28.08h1.5v.72h-.77a.87.87 0 0 1 .17.3 1.05 1.05 0 0 1 .07.4 1.44 1.44 0 0 1-.12.61 1.27 1.27 0 0 1-.34.44 1.62 1.62 0 0 1-.5.28 2.06 2.06 0 0 1-.62.09h-.28a1 1 0 0 1-.29-.08 1.14 1.14 0 0 0-.15.17.49.49 0 0 0-.05.23.32.32 0 0 0 .15.28 1 1 0 0 0 .53.1h.74a2.2 2.2 0 0 1 1.14.24.87.87 0 0 1 .38.79 1.16 1.16 0 0 1-.15.57 1.44 1.44 0 0 1-.45.47 2.51 2.51 0 0 1-.7.31 3.26 3.26 0 0 1-.92.12 3.66 3.66 0 0 1-.69-.07 2 2 0 0 1-.55-.21 1.07 1.07 0 0 1-.36-.34.81.81 0 0 1-.13-.55Zm.81-.15a.48.48 0 0 0 .29.44 1.56 1.56 0 0 0 .78.16 1.53 1.53 0 0 0 .82-.2.55.55 0 0 0 .31-.47.31.31 0 0 0-.19-.33 1.34 1.34 0 0 0-.55-.09h-.57a2.23 2.23 0 0 1-.56-.06.7.7 0 0 0-.31.55Zm1-2.54a.67.67 0 0 0 .51-.22 1 1 0 0 0 0-1.23.7.7 0 0 0-.51-.22.73.73 0 0 0-.52.22.82.82 0 0 0-.21.61.85.85 0 0 0 .21.62.69.69 0 0 0 .51.22Zm2.63-.15a2.38 2.38 0 0 1 .16-.91 2.18 2.18 0 0 1 .43-.69 1.89 1.89 0 0 1 1.33-.59 1.72 1.72 0 0 1 .74.15 1.39 1.39 0 0 1 .54.41 1.61 1.61 0 0 1 .33.62 2.92 2.92 0 0 1 .11.8 1.91 1.91 0 0 1 0 .46h-2.65a1.41 1.41 0 0 0 .39.87 1.16 1.16 0 0 0 .84.31 1.7 1.7 0 0 0 .51-.08 2 2 0 0 0 .46-.23l.33.62a3.36 3.36 0 0 1-.66.32 2.49 2.49 0 0 1-.77.13 2.06 2.06 0 0 1-1.46-.58 2 2 0 0 1-.43-.69 2.36 2.36 0 0 1-.2-.92Zm2.79-.37a1.29 1.29 0 0 0-.21-.78.72.72 0 0 0-.64-.28.91.91 0 0 0-.65.27 1.29 1.29 0 0 0-.35.79Zm3.58-3.1h1v3.19a2.77 2.77 0 0 0 .08.76 1.22 1.22 0 0 0 .23.5.92.92 0 0 0 .35.27 1.36 1.36 0 0 0 .92 0 .91.91 0 0 0 .37-.27 1.37 1.37 0 0 0 .24-.5 3.22 3.22 0 0 0 .08-.76v-3.19h.92v3.12a3.92 3.92 0 0 1-.14 1.16 2.12 2.12 0 0 1-.42.79 1.69 1.69 0 0 1-.66.45 2.77 2.77 0 0 1-1.74 0 1.69 1.69 0 0 1-.66-.45A2 2 0 0 1 146 36a3.89 3.89 0 0 1-.15-1.16Zm5.5 1.39h.81l.07.56a3.42 3.42 0 0 1 .61-.47 1.46 1.46 0 0 1 .76-.2 1.12 1.12 0 0 1 1 .43 2.07 2.07 0 0 1 .31 1.23v2.61h-1v-2.48a1.3 1.3 0 0 0-.15-.73.58.58 0 0 0-.5-.22.87.87 0 0 0-.48.14 2.37 2.37 0 0 0-.47.38v2.91h-1Zm5.25-.73a.61.61 0 0 1-.44-.16.51.51 0 0 1-.16-.4.54.54 0 0 1 .16-.4.66.66 0 0 1 .44-.16.63.63 0 0 1 .43.16.54.54 0 0 1 .17.4.51.51 0 0 1-.17.4.59.59 0 0 1-.43.16Zm-.49.73h1v4.16h-1Zm1.7 0h1l.67 2.16c0 .2.11.41.17.62l.17.64.18-.64c0-.21.11-.42.17-.62l.67-2.16h.94l-1.42 4.16h-1.13Zm4.45 2.08a2.38 2.38 0 0 1 .16-.91 2.18 2.18 0 0 1 .43-.69 1.89 1.89 0 0 1 1.33-.59 1.72 1.72 0 0 1 .74.15 1.39 1.39 0 0 1 .54.41 1.61 1.61 0 0 1 .33.62 2.92 2.92 0 0 1 .11.8 1.91 1.91 0 0 1 0 .46h-2.65a1.36 1.36 0 0 0 .39.87 1.16 1.16 0 0 0 .84.31 1.59 1.59 0 0 0 .5-.08 2 2 0 0 0 .47-.23l.33.62a3.36 3.36 0 0 1-.66.32 2.49 2.49 0 0 1-.77.13 2.06 2.06 0 0 1-1.46-.58 2 2 0 0 1-.43-.69 2.36 2.36 0 0 1-.2-.92Zm2.79-.37a1.29 1.29 0 0 0-.21-.78.74.74 0 0 0-.64-.28.91.91 0 0 0-.65.27 1.29 1.29 0 0 0-.35.79Zm1.78-1.71h.81l.07.73a1.84 1.84 0 0 1 .54-.62 1.15 1.15 0 0 1 .64-.22 1.08 1.08 0 0 1 .48.09l-.17.85-.21-.05h-.23a.87.87 0 0 0-.51.19 1.42 1.42 0 0 0-.47.67v2.54h-1Zm3.21 3.06a2.4 2.4 0 0 0 .56.34 1.32 1.32 0 0 0 .6.13.78.78 0 0 0 .5-.14.5.5 0 0 0 .16-.36.38.38 0 0 0-.08-.23.85.85 0 0 0-.2-.17 2 2 0 0 0-.29-.14l-.32-.13-.42-.18a1.67 1.67 0 0 1-.38-.25 1.22 1.22 0 0 1-.27-.33 1 1 0 0 1-.11-.46 1.13 1.13 0 0 1 .41-.9 1.66 1.66 0 0 1 1.11-.35 2 2 0 0 1 .79.16 2.87 2.87 0 0 1 .6.35l-.45.59a2.6 2.6 0 0 0-.45-.26 1.24 1.24 0 0 0-.47-.1.72.72 0 0 0-.46.13.43.43 0 0 0-.15.33.32.32 0 0 0 .07.22.58.58 0 0 0 .19.15 1.46 1.46 0 0 0 .28.13l.33.12.45.16a2 2 0 0 1 .39.25 1 1 0 0 1 .38.85 1.21 1.21 0 0 1-.1.5 1.24 1.24 0 0 1-.31.41 1.55 1.55 0 0 1-.51.27 2.19 2.19 0 0 1-.7.11 2.3 2.3 0 0 1-.85-.17 3 3 0 0 1-.73-.41Zm4.11-3.79a.57.57 0 0 1-.43-.16.48.48 0 0 1-.17-.4.51.51 0 0 1 .17-.4.61.61 0 0 1 .43-.16.63.63 0 0 1 .43.16.54.54 0 0 1 .17.4.51.51 0 0 1-.17.4.59.59 0 0 1-.43.16Zm-.49.73h1v4.16h-1Zm2.38.77h-.59v-.73h.65l.11-1.14h.83v1.14h1v.77h-1v2c0 .49.19.73.58.73a.9.9 0 0 0 .23 0l.21-.07.17.72a3.08 3.08 0 0 1-.39.11 2.24 2.24 0 0 1-.46 0 1.64 1.64 0 0 1-.62-.11 1.13 1.13 0 0 1-.4-.31 1.19 1.19 0 0 1-.23-.48 2.33 2.33 0 0 1-.08-.62Zm2.63 1.31a2.59 2.59 0 0 1 .16-.91 2.18 2.18 0 0 1 .43-.69 1.87 1.87 0 0 1 .62-.43 1.79 1.79 0 0 1 1.46 0 1.55 1.55 0 0 1 .54.41 1.74 1.74 0 0 1 .32.62 2.58 2.58 0 0 1 .11.8 1.91 1.91 0 0 1 0 .46h-2.65a1.37 1.37 0 0 0 .4.87 1.14 1.14 0 0 0 .83.31 1.7 1.7 0 0 0 .51-.08 2 2 0 0 0 .46-.23l.33.62a3.36 3.36 0 0 1-.66.32 2.43 2.43 0 0 1-.76.13 2.16 2.16 0 0 1-.81-.15 1.94 1.94 0 0 1-.65-.43 1.9 1.9 0 0 1-.44-.69 2.36 2.36 0 0 1-.2-.93Zm2.79-.37a1.29 1.29 0 0 0-.2-.78.75.75 0 0 0-.64-.28.93.93 0 0 0-.66.27 1.35 1.35 0 0 0-.35.79Zm-.77-2.41h-.73l.77-1.24h1Z"/><path fill="#7c7b7b" d="M98.17 25.8a1.39 1.39 0 0 1-.5-.1A1.3 1.3 0 0 1 97 25a1.48 1.48 0 0 1-.1-.57 1.54 1.54 0 0 1 .1-.58 1.35 1.35 0 0 1 .29-.44 1.37 1.37 0 0 1 .42-.29 1.39 1.39 0 0 1 .5-.1 1.45 1.45 0 0 1 .51.1 1.37 1.37 0 0 1 .42.29 1.51 1.51 0 0 1 .28.44 1.54 1.54 0 0 1 .1.58 1.48 1.48 0 0 1-.1.57 1.51 1.51 0 0 1-.28.44 1.34 1.34 0 0 1-.42.28 1.45 1.45 0 0 1-.55.08Zm0-.21a1.07 1.07 0 0 0 .43-.09.94.94 0 0 0 .34-.25 1.06 1.06 0 0 0 .23-.37 1.19 1.19 0 0 0 .09-.47 1.21 1.21 0 0 0-.09-.48 1.1 1.1 0 0 0-.23-.38 1 1 0 0 0-.34-.26 1.07 1.07 0 0 0-.43-.09 1 1 0 0 0-.43.09 1.06 1.06 0 0 0-.34.26 1.1 1.1 0 0 0-.23.38 1.21 1.21 0 0 0-.09.48 1.19 1.19 0 0 0 .09.47 1.06 1.06 0 0 0 .23.37 1 1 0 0 0 .77.34Zm-.49-1.95h.5a.65.65 0 0 1 .2 0 .48.48 0 0 1 .18.07.86.86 0 0 1 .13.14.53.53 0 0 1 0 .23.39.39 0 0 1-.08.25.35.35 0 0 1-.21.15l.36.62h-.27l-.28-.55h-.34v.55h-.23Zm.44.74a.54.54 0 0 0 .27-.06.24.24 0 0 0 .1-.21.28.28 0 0 0-.08-.2.38.38 0 0 0-.27-.07h-.23v.54ZM43.82 5.17h4.58V13h7V5.17H60v20.32h-4.59V17h-7v8.48h-4.59Zm20.69 0h12.72V9h-8.14v4.08H76V17h-6.91v4.68h8.45v3.86h-13Zm15.8 10.29a12.22 12.22 0 0 1 .78-4.46 10.16 10.16 0 0 1 2.1-3.35 8.78 8.78 0 0 1 3.09-2.08A9.7 9.7 0 0 1 90 4.8a7.38 7.38 0 0 1 3.44.79A9.61 9.61 0 0 1 96 7.45l-2.52 2.83a7.37 7.37 0 0 0-1.57-1.12 4 4 0 0 0-1.86-.4 4.49 4.49 0 0 0-2 .45 4.8 4.8 0 0 0-1.6 1.29 6.19 6.19 0 0 0-1.08 2.06A8.93 8.93 0 0 0 85 15.3a7.85 7.85 0 0 0 1.34 4.88 4.33 4.33 0 0 0 3.59 1.73 4.58 4.58 0 0 0 2.18-.5 6.58 6.58 0 0 0 1.69-1.31l2.53 2.77a8.26 8.26 0 0 1-6.45 3 10.18 10.18 0 0 1-3.71-.67 8.5 8.5 0 0 1-3.06-2 9.17 9.17 0 0 1-2-3.25 12.48 12.48 0 0 1-.8-4.49Zm26.84-10.19h4.56v16.38h8v3.85h-12.56Zm16.06 0h4.56V25.5h-4.56Zm9.34 0h12.65v3.85h-8.09v4.06H144V17h-6.88v4.65h8.4v3.85h-13ZM134.07 0h4.84l2.51 3.72h-3.63Zm14.51 15.51a12.05 12.05 0 0 1 .79-4.48 9.94 9.94 0 0 1 2.14-3.34 9.15 9.15 0 0 1 3.17-2.08 10.54 10.54 0 0 1 3.86-.71 8 8 0 0 1 3.71.81 9.38 9.38 0 0 1 2.55 1.83l-2.51 2.82a6.19 6.19 0 0 0-1.56-1.12 4.85 4.85 0 0 0-2.13-.4 5.08 5.08 0 0 0-2.15.45 4.74 4.74 0 0 0-1.69 1.29 5.8 5.8 0 0 0-1.11 2 9.24 9.24 0 0 0-.38 2.73 7.49 7.49 0 0 0 1.41 4.86 5.21 5.21 0 0 0 4.26 1.72 4.42 4.42 0 0 0 1.21-.16 2.46 2.46 0 0 0 1-.46v-3.44h-3.35v-3.72h7.39v9.31a9.07 9.07 0 0 1-2.86 1.73 10.27 10.27 0 0 1-3.91.72 11 11 0 0 1-3.83-.67 8.72 8.72 0 0 1-3.11-2 9.17 9.17 0 0 1-2.1-3.24 12.37 12.37 0 0 1-.8-4.45Zm20.75-10.24H182v3.85h-8.1v4.06h6.89V17h-6.89v4.65h8.41v3.85h-13Z"/></svg>