<svg xmlns="http://www.w3.org/2000/svg" xml:space="preserve" viewBox="0 0 287.156 127.211"><defs><clipPath id="a"><path d="M0 144.07h281.37V0H0Z"/></clipPath></defs><g clip-path="url(#a)" transform="matrix(1.333 0 0 -1.333 -44.67 160.592)"><path fill="#1d1d1b" d="M33.502 52.247c0 .481.282.78.73.78.45 0 .731-.299.731-.78v-4.685c0-1.512.665-2.309 2.044-2.309s2.044.797 2.044 2.31v4.684c0 .481.282.78.73.78.45 0 .732-.299.732-.78v-4.735c0-2.592-1.729-3.523-3.506-3.523s-3.505.931-3.505 3.523zM42.77 52.247c0 .481.283.78.73.78.45 0 .733-.299.733-.78v-.35l.033-.032c.648.831 1.562 1.162 2.443 1.162 1.362 0 3.073-.863 3.073-3.355V44.77c0-.48-.282-.78-.731-.78s-.731.3-.731.78v4.82c0 1.544-1.08 2.175-2.044 2.175-.963 0-2.043-.63-2.043-2.176V44.77c0-.48-.282-.78-.732-.78-.448 0-.73.3-.73.78zM53.501 44.77c0-.48-.282-.78-.73-.78-.45 0-.732.3-.732.78v7.477c0 .482.282.78.732.78.448 0 .73-.298.73-.78zm-.73 11.247a.892.892 0 0 0 .896-.896.893.893 0 0 0-.896-.898.894.894 0 0 0-.898.898c0 .498.4.896.898.896M55.03 51.748c-.1.267-.15.433-.15.6 0 .43.316.68.665.68.482 0 .648-.233.764-.565l2.01-6.113h.033l2.01 6.113c.117.332.283.564.765.564a.65.65 0 0 0 .665-.68c0-.166-.05-.332-.15-.599L59.1 44.621c-.15-.432-.3-.632-.763-.632-.466 0-.616.2-.765.632zM68.95 49.04c0 1.263-.73 2.725-2.341 2.725-1.811.067-2.46-1.378-2.51-2.725zM64.1 47.944c0-1.512.964-2.69 2.61-2.69 1.943 0 2.44 1.194 2.99 1.194.266 0 .532-.232.532-.647 0-.714-1.811-1.812-3.54-1.812-2.823 0-4.052 2.177-4.052 4.52 0 2.391 1.495 4.518 3.97 4.518 2.408 0 3.805-2.175 3.805-4.302 0-.516-.183-.78-.815-.78zM72.14 52.247c0 .481.281.78.73.78s.731-.299.731-.78V51.5h.033c.333.682 1.147 1.528 1.994 1.528.515 0 .814-.33.814-.747 0-.415-.299-.68-.913-.798-.865-.149-1.928-.797-1.928-2.507V44.77c0-.48-.282-.78-.73-.78s-.732.3-.732.78zM80.511 53.027c1.213 0 2.941-.647 2.941-1.56 0-.317-.216-.6-.665-.6-.63 0-.88.897-2.276.897-.83 0-1.545-.365-1.545-1.112 0-1.546 4.718-1.38 4.718-3.937 0-1.845-1.577-2.726-3.223-2.726-1.86 0-3.323.931-3.323 1.68 0 .397.283.664.6.664.647 0 1.178-1.08 2.773-1.08 1.063 0 1.712.597 1.712 1.195 0 1.728-4.719 1.628-4.719 4.087 0 1.63 1.528 2.492 3.007 2.492M86.873 44.77c0-.48-.283-.78-.73-.78-.45 0-.732.3-.732.78v7.477c0 .482.283.78.732.78.447 0 .73-.298.73-.78zm-.73 11.247a.892.892 0 0 0 .896-.896c0-.499-.397-.898-.896-.898s-.899.4-.899.898.4.896.899.896M89.597 54.839c0 .48.282.78.73.78.45 0 .732-.3.732-.78v-1.911h.598c.482 0 .731-.232.731-.631s-.249-.631-.73-.631h-.599V44.77c0-.482-.283-.782-.732-.782-.448 0-.73.3-.73.782v6.895h-.599c-.48 0-.73.232-.73.63s.25.632.73.632h.6zM93.301 51.599c-.166.498-.199.648-.199.814 0 .366.332.615.664.615a.752.752 0 0 0 .731-.548l2.027-6.065h.033l1.994 6.065c.1.315.332.548.698.548.331 0 .664-.25.664-.615 0-.166-.033-.316-.199-.814l-3.688-10.55c-.117-.315-.349-.548-.715-.548-.332 0-.664.249-.664.615 0 .166.033.315.216.814l.93 2.476zM109.481 45.253c1.794 0 2.426 1.76 2.426 3.256 0 1.495-.632 3.256-2.426 3.256-1.795 0-2.426-1.761-2.426-3.256 0-1.496.631-3.256 2.426-3.256m0 7.774c2.492 0 3.888-2.175 3.888-4.518s-1.396-4.52-3.888-4.52-3.888 2.177-3.888 4.52 1.396 4.518 3.888 4.518M117.171 44.77c0-.48-.282-.78-.731-.78s-.731.3-.731.78v6.896h-.599c-.481 0-.73.232-.73.63 0 .4.249.632.73.632h.599v2.077c0 1.28.881 1.91 1.943 1.91h.45c.381 0 .831-.232.831-.63 0-.4-.25-.632-.798-.632h-.366c-.449 0-.598-.216-.598-.581v-2.145h.914c.482 0 .731-.23.731-.63s-.249-.63-.731-.63h-.914zM127.87 45.253c1.794 0 2.426 1.76 2.426 3.256 0 1.495-.632 3.256-2.426 3.256-1.795 0-2.426-1.761-2.426-3.256 0-1.496.631-3.256 2.426-3.256m3.805-.55a.68.68 0 0 0-.682-.714c-.299 0-.681.2-.681.715v.615h-.033c-.632-.897-1.463-1.33-2.409-1.33-2.492 0-3.888 2.177-3.888 4.52s1.396 4.518 3.888 4.518c1.014 0 1.728-.431 2.409-1.178h.033v.464c0 .515.382.714.681.714a.678.678 0 0 0 .682-.714zM137.736 45.253c1.795 0 2.426 1.76 2.426 3.256 0 1.495-.631 3.256-2.426 3.256-1.794 0-2.426-1.761-2.426-3.256 0-1.496.632-3.256 2.426-3.256m-3.737 6.994c0 .482.282.78.73.78s.732-.298.732-.78v-.432h.033c.415.797 1.196 1.212 2.358 1.212 2.393 0 3.773-2.175 3.773-4.518s-1.38-4.52-3.773-4.52a2.887 2.887 0 0 0-2.358 1.197h-.033V41.28c0-.481-.284-.78-.732-.78s-.73.299-.73.78zM147.305 45.253c1.794 0 2.425 1.76 2.425 3.256 0 1.495-.631 3.256-2.425 3.256s-2.427-1.761-2.427-3.256c0-1.496.633-3.256 2.427-3.256m-3.738 6.994c0 .482.282.78.73.78s.731-.298.731-.78v-.432h.034c.415.797 1.196 1.212 2.358 1.212 2.394 0 3.773-2.175 3.773-4.518s-1.379-4.52-3.773-4.52a2.887 2.887 0 0 0-2.358 1.197h-.034V41.28c0-.481-.283-.78-.731-.78s-.73.299-.73.78zM154.531 44.77c0-.48-.283-.78-.731-.78-.45 0-.731.3-.731.78v11.364c0 .483.281.782.731.782.448 0 .731-.3.731-.781zM158.25 44.77c0-.48-.282-.78-.73-.78-.45 0-.731.3-.731.78v7.477c0 .482.281.78.731.78.448 0 .73-.298.73-.78zm-.73 11.247a.892.892 0 0 0 .897-.896c0-.499-.398-.898-.897-.898s-.898.4-.898.898.399.896.898.896M166.291 49.04c0 1.263-.73 2.725-2.342 2.725-1.811.067-2.459-1.378-2.51-2.725zm-4.852-1.096c0-1.512.964-2.69 2.609-2.69 1.944 0 2.442 1.194 2.991 1.194.266 0 .531-.232.531-.647 0-.714-1.81-1.812-3.539-1.812-2.824 0-4.053 2.177-4.053 4.52 0 2.391 1.496 4.518 3.971 4.518 2.408 0 3.804-2.175 3.804-4.302 0-.516-.183-.78-.815-.78zM172.985 51.765c-1.795 0-2.426-1.761-2.426-3.256 0-1.496.631-3.256 2.426-3.256s2.426 1.76 2.426 3.256c0 1.495-.631 3.256-2.426 3.256m2.276-6.562h-.033c-.415-.797-1.196-1.213-2.359-1.213-2.393 0-3.771 2.176-3.771 4.519s1.378 4.519 3.771 4.519a2.887 2.887 0 0 0 2.359-1.196h.033v4.303c0 .482.283.78.731.78.449 0 .731-.298.731-.78V44.77c0-.482-.282-.781-.731-.781-.448 0-.731.299-.731.78zM186.341 53.027c1.212 0 2.939-.647 2.939-1.56 0-.317-.215-.6-.665-.6-.629 0-.879.897-2.274.897-.831 0-1.546-.365-1.546-1.112 0-1.546 4.718-1.38 4.718-3.937 0-1.845-1.577-2.726-3.223-2.726-1.86 0-3.322.931-3.322 1.68 0 .397.282.664.598.664.648 0 1.179-1.08 2.775-1.08 1.062 0 1.71.597 1.71 1.195 0 1.728-4.718 1.628-4.718 4.087 0 1.63 1.529 2.492 3.008 2.492M194.845 53.027c1.495 0 2.376-.515 2.376-1.113 0-.299-.249-.615-.599-.615-.564 0-.78.465-1.777.465-1.811 0-2.525-1.76-2.525-3.256s.714-3.255 2.525-3.255c1.03 0 1.296.497 1.762.497.332 0 .564-.216.564-.615 0-.547-.813-1.146-2.326-1.146-2.691 0-3.986 2.177-3.986 4.52 0 2.342 1.295 4.518 3.986 4.518M200.41 44.77c0-.48-.283-.78-.73-.78-.45 0-.732.3-.732.78v7.477c0 .482.282.78.732.78.447 0 .73-.298.73-.78zm-.73 11.247a.892.892 0 0 0 .896-.896.893.893 0 0 0-.896-.898.894.894 0 0 0-.898.898c0 .498.399.896.898.896M208.45 49.04c0 1.263-.731 2.725-2.343 2.725-1.81.067-2.459-1.378-2.509-2.725zm-4.852-1.096c0-1.512.964-2.69 2.61-2.69 1.943 0 2.441 1.194 2.99 1.194.266 0 .532-.232.532-.647 0-.714-1.812-1.812-3.539-1.812-2.824 0-4.053 2.177-4.053 4.52 0 2.391 1.494 4.518 3.969 4.518 2.409 0 3.806-2.175 3.806-4.302 0-.516-.183-.78-.815-.78zM211.638 52.247c0 .481.282.78.731.78.448 0 .731-.299.731-.78v-.35l.033-.032c.649.831 1.562 1.162 2.443 1.162 1.362 0 3.073-.863 3.073-3.355V44.77c0-.48-.282-.78-.731-.78-.448 0-.731.3-.731.78v4.82c0 1.544-1.08 2.175-2.044 2.175-.963 0-2.043-.63-2.043-2.176V44.77c0-.48-.283-.78-.731-.78-.449 0-.731.3-.731.78zM224.512 53.027c1.495 0 2.376-.515 2.376-1.113 0-.299-.249-.615-.598-.615-.565 0-.781.465-1.778.465-1.812 0-2.525-1.76-2.525-3.256s.713-3.255 2.525-3.255c1.029 0 1.296.497 1.762.497.332 0 .564-.216.564-.615 0-.547-.814-1.146-2.326-1.146-2.691 0-3.987 2.177-3.987 4.52 0 2.342 1.296 4.518 3.987 4.518M234.396 49.04c0 1.263-.73 2.725-2.342 2.725-1.81.067-2.459-1.378-2.509-2.725zm-4.851-1.096c0-1.512.963-2.69 2.608-2.69 1.944 0 2.442 1.194 2.991 1.194.266 0 .531-.232.531-.647 0-.714-1.81-1.812-3.539-1.812-2.824 0-4.053 2.177-4.053 4.52 0 2.391 1.496 4.518 3.971 4.518 2.408 0 3.804-2.175 3.804-4.302 0-.516-.183-.78-.814-.78zM240.392 53.027c1.213 0 2.941-.647 2.941-1.56 0-.317-.215-.6-.665-.6-.63 0-.88.897-2.276.897-.83 0-1.544-.365-1.544-1.112 0-1.546 4.718-1.38 4.718-3.937 0-1.845-1.579-2.726-3.224-2.726-1.861 0-3.322.931-3.322 1.68 0 .397.282.664.599.664.646 0 1.178-1.08 2.773-1.08 1.063 0 1.712.597 1.712 1.195 0 1.728-4.719 1.628-4.719 4.087 0 1.63 1.528 2.492 3.007 2.492M33.502 105.675c0 3.185 1.99 5.308 4.776 5.308 2.786 0 4.778-2.123 4.778-5.308V92.671h.132c1.991 2.455 5.706 3.317 8.691 3.317 7.497 0 13.07-4.776 13.07-12.871V64.806c0-3.183-1.99-5.306-4.777-5.306s-4.776 2.123-4.776 5.306v16.653c0 4.445-2.787 6.568-6.237 6.568-3.915 0-6.103-2.852-6.103-6.568V64.806c0-3.183-1.992-5.306-4.778-5.306-2.787 0-4.776 2.123-4.776 5.306zM79.88 77.478c0-4.577 2.388-9.62 7.563-9.62s7.563 5.042 7.563 9.62-2.32 9.754-7.563 9.754-7.563-5.176-7.563-9.754m24.681 0c0-9.951-6.834-18.376-17.118-18.376s-17.117 8.425-17.117 18.377c0 9.686 7.033 18.51 17.117 18.51s17.118-8.824 17.118-18.51M107.611 87.231c-.663 1.925-.995 3.119-.995 4.512 0 2.122 1.99 3.847 4.777 3.847 2.322 0 3.981-1.526 4.511-3.78l5.507-18.247h.133l5.573 17.848c.729 2.587 2.056 4.18 4.843 4.18s4.113-1.593 4.843-4.18l5.573-17.848h.132l5.507 18.246c.531 2.255 2.19 3.781 4.512 3.781 2.786 0 4.777-1.725 4.777-4.644 0-1.062-.464-2.123-.929-3.583l-8.16-23.02c-.996-2.788-2.654-4.843-5.772-4.843-2.92 0-4.645 1.658-5.507 4.444l-4.91 15.391h-.133l-4.909-15.39c-.862-2.787-2.588-4.445-5.507-4.445-3.118 0-4.776 2.055-5.771 4.842zM184.509 80.73c-.53 4.18-3.185 7.297-7.63 7.297-4.246 0-7.098-3.25-7.562-7.297zm-14.994-6.37c.664-4.71 4.578-6.9 9.023-6.9 4.909 0 8.293 3.849 10.815 3.849 2.056 0 3.914-2.058 3.914-4.115 0-4.112-8.491-8.093-15.591-8.093-10.748 0-17.913 7.828-17.913 18.377 0 9.687 7.032 18.51 17.116 18.51 10.351 0 17.184-9.42 17.184-17.382 0-2.853-1.26-4.246-4.18-4.246zM218.879 84.843c-1.792 0-5.441 2.787-8.56 2.787-1.724 0-3.251-.797-3.251-2.654 0-4.445 16.587-3.782 16.587-14.663 0-6.368-5.374-11.211-13.6-11.211-5.374 0-13.336 3.052-13.336 7.364 0 1.459 1.46 4.246 4.113 4.246 3.716 0 5.374-3.251 9.886-3.251 2.92 0 3.782.929 3.782 2.72 0 4.378-16.587 3.715-16.587 14.662 0 6.635 5.374 11.146 12.938 11.146 4.71 0 11.942-2.19 11.942-6.9 0-2.19-1.659-4.246-3.914-4.246M232.017 86.833h-2.123c-2.587 0-4.18 1.592-4.18 4.18 0 2.388 1.791 4.179 4.18 4.179h2.123v5.706c0 3.185 1.99 5.308 4.777 5.308 2.786 0 4.777-2.123 4.777-5.308v-5.706h2.72c2.455 0 4.578-1.127 4.578-4.179 0-2.986-2.123-4.18-4.578-4.18h-2.72V64.807c0-3.184-1.991-5.307-4.777-5.307-2.787 0-4.777 2.123-4.777 5.307z"/><path fill="#56c4f2" d="m138.651 100.021 6.271 19.393a.785.785 0 0 1-.511.994.804.804 0 0 1-1.001-.524l-6.422-19.863zM117.992 41.265l-4.918-15.2a.785.785 0 0 1 .746-1.03.81.81 0 0 1 .766.559l5.069 15.67z"/></g></svg>