<?xml version="1.0" encoding="UTF-8"?>
<svg width="141.73" height="113.39" version="1.1" viewBox="0 0 141.73 113.39" xmlns="http://www.w3.org/2000/svg"><path d="m42.52 21.562-14.174 5.0195v1.7656l14.174-5.0195 14.174 5.0195v-1.7656l-14.174-5.0195zm-12.471 7.709 1.6621 1.6621h21.617l1.6621-1.6621h-24.941zm1.6621 3.3262v10.793h1.6641v-10.793h-1.6641zm3.3262 0v10.793h1.6621v-10.793h-1.6621zm3.3262 0v10.793h1.6621v-10.793h-1.6621zm3.3242 0v10.793h1.6641v-10.793h-1.6641zm3.3262 0v10.793h1.6621v-10.793h-1.6621zm3.3262 0v10.793h1.6621v-10.793h-1.6621zm3.3242 0v10.793h1.6641v-10.793h-1.6641zm-21.654 12.457v1.6641h25.02v-1.6641h-25.02zm-1.6641 3.3242v1.6641h28.348v-1.6641h-28.348zm3.9258 8.0977c-3.0568 0-4.2871 1.466-4.2871 6.0957 0 4.4312 0.77761 6.0957 3.9609 6.0957 1.212 0 2.586-0.38046 2.9297-0.59766v-6.3477h-3.4004v1.4102h1.7363v3.9238c-0.32547 0.091736-0.75814 0.16406-1.2832 0.16406-1.6995 0-2.2246-0.79697-2.2246-4.6484 0-3.8891 0.74225-4.6133 2.6953-4.6133 0.79587 0 1.6272 0.27339 2.0605 0.52539v-1.5371c-0.39733-0.23547-1.3192-0.4707-2.1875-0.4707zm4.5898 0.2168v11.758h1.6641v-5.3359h3.582v5.3359h1.6641v-11.758h-1.6641v5.0117h-3.582v-5.0117h-1.6641zm9.2656 0v11.758h5.498v-1.4102h-3.834v-3.9453h3.0918v-1.3906h-3.0918v-3.5996h3.834v-1.4121h-5.498zm7.4199 0v11.758h1.5918v-6.2402c0-1.0677-0.12668-2.2076-0.27148-3.166l3.7441 9.4062h1.918v-11.758h-1.5918v6.2402c0 1.0495 0.10838 2.1706 0.23438 3.1289l-3.707-9.3691h-1.918zm8.5059 0v1.4121h2.5312v10.346h1.6641v-10.346h2.5508v-1.4121h-6.7461zm16.346 16.373c-2.2068 0-3.4219 1.2559-3.4219 3.0762 0 1.5183 0.64422 2.2474 1.6797 3.1406l0.94531 0.81641c0.7812 0.6536 1.2656 1.1586 1.2656 2.1367 0 1.1432-0.75481 1.5957-1.8887 1.5957-0.85933 0-1.5729-0.23762-1.9844-0.52148v1.5234c0.362 0.2084 1.1156 0.42441 2.1328 0.42188 2.2016-0.0052 3.4173-1.2568 3.4199-3.0762 0.0015-1.5167-0.64436-2.2469-1.6797-3.1387l-0.94531-0.82031c-0.78387-0.6704-1.2683-1.1542-1.2656-2.1309 0.0031-1.1484 0.75227-1.5971 1.8887-1.5996 0.7344-0.0021 1.4264 0.23828 1.7441 0.48828v-1.5c-0.31773-0.1952-1.0989-0.41211-1.8906-0.41211zm-50.053 0.2168v8.2109c0 2.7135 1.0851 3.7637 3.4727 3.7637 2.3509 1e-6 3.4727-1.0866 3.4727-3.7637v-8.2109h-1.6641v8.2832c0 1.7371-0.59673 2.2441-1.8086 2.2441-1.212 0-1.8086-0.50708-1.8086-2.2441v-8.2832h-1.6641zm9.0977 0v11.758h1.5918v-6.2402c0-1.0676-0.12668-2.2076-0.27148-3.166l3.7441 9.4062h1.918v-11.758h-1.5918v6.2402c0 1.0496 0.10771 2.1706 0.23438 3.1289l-3.707-9.3691h-1.918zm9.3379 0v11.758h1.6641v-11.758h-1.6641zm3.2109 0 2.9844 11.758h1.7363l2.9844-11.758h-1.6836l-1.4648 6.1133c-0.25307 0.92346-0.52443 2.4782-0.6875 3.709-0.16307-1.2308-0.43266-2.7855-0.65039-3.709l-1.4824-6.1133h-1.7363zm9.25 0v11.758h5.5v-1.4121h-3.8359v-3.9434h3.0938v-1.3906h-3.0938v-3.5996h3.8359v-1.4121h-5.5zm7.4219 0v11.758h1.6641v-4.7949h1.1211l2.207 4.7949h1.8984l-2.4961-5.1016c1.1391-0.41666 2.043-1.3216 2.043-3.1836 0-2.6588-1.5543-3.4727-3.7246-3.4727h-2.7129zm15.857 0v11.758h1.6641v-11.758h-1.6641zm3.2441 0v1.4121h2.5312v10.346h1.6641v-10.346h2.5508v-1.4121h-6.7461zm7.4023 0 3.2188 6.875v4.8828h1.6641v-4.8828l3.2031-6.875h-1.7734l-1.3926 3.166c-0.32547 0.7588-0.65154 1.573-0.86914 2.2969-0.19853-0.72387-0.50643-1.5381-0.83203-2.2969l-1.3926-3.166h-1.8262zm-24.84 1.4102h0.88672c1.3021 0 2.1699 0.2709 2.1699 2.0625 0 1.8073-0.86779 2.082-2.1699 2.082h-0.88672v-4.1445z" fill="#1e64c8"/></svg>
