<?xml version="1.0" encoding="UTF-8"?>
<svg xmlns="http://www.w3.org/2000/svg" viewBox="0 0 213 70"><path fill="#003a65" d="M94.4 23.2c-5 0-8.3-3.6-8.3-8.8s3.5-8.9 8.5-8.9c4.7 0 7.7 3.4 7.7 9v.7H91.1c0 2.9 1.3 4.5 3.5 4.5 1.6 0 2.7-.9 3.2-2.5l4.5.4c-1.1 3.5-4 5.6-7.9 5.6m3.1-10.8c0-2.5-1.2-3.8-3.2-3.8-1.8 0-3 1.3-3.2 3.8z"/><path fill="#003a65" d="M205 23.2c-5 0-8.2-3.6-8.2-8.8s3.5-8.9 8.5-8.9c4.7 0 7.7 3.4 7.7 9v.7h-11.2c0 2.9 1.3 4.5 3.5 4.5 1.6 0 2.7-.9 3.2-2.5l4.5.4c-1.2 3.5-4.1 5.6-8 5.6m3.1-10.8c0-2.5-1.2-3.8-3.2-3.8-1.8 0-3 1.3-3.2 3.8z"/><path fill="#003a65" d="M103 5.9h5.3l2.4 9.9 2.3-9.9h4.4l2.4 10 2.9-10h4l-4.9 16.8h-4.4l-2.8-10.9-2.7 10.9h-4.1"/><path fill="#003a65" d="M135 8.8c-2.1 0-3.6 1.8-3.6 5.4-.1 3.6 1.4 5.5 3.5 5.5 1.6 0 3.1-1.2 3.4-3.4l4.2.5c-.5 3.9-3.6 6.4-7.9 6.4-5 0-8.4-3.6-8.3-8.8.1-5.4 3.7-8.9 9-8.9 4 0 6.8 2.4 7.3 6.4l-4.3.5c-.4-2.3-1.8-3.6-3.3-3.6"/><path fill="#003a65" d="M155 20c-1.1 2-2.9 3.1-5.3 3.1-3.5 0-5.6-2-5.6-5.1 0-4 3.6-6.1 10.8-6.1v-.7c0-1.7-.9-2.6-2.7-2.6-2 0-3.1.8-3.3 2.4l-4.3-.5c.7-3.3 3.4-5 7.9-5 5 0 7 2 7 6.6v7.5c0 1.4.1 2.5.5 3.2h-4.6c-.3-.9-.4-1.8-.4-2.8m-6-2.3c0 1.4.9 2.2 2.4 2.2 1.9 0 3.4-1.6 3.4-3.9v-1.5c-3.8 0-5.8 1.2-5.8 3.2z" /><path fill="#003a65" d="M165 17.4c.4 1.5 1.8 2.4 3.9 2.4 1.8 0 2.8-.8 2.8-1.8 0-1.5-1.4-1.4-3.9-1.9-4-.8-6-2.2-6-5.2 0-3.1 2.5-5.5 6.8-5.5 3.4 0 5.8 1.5 6.8 4.4l-3.8.7c-.6-1.3-1.6-1.9-3.2-1.9s-2.4.6-2.4 1.7c0 1.5 1.6 1.4 4.6 2.1 3.6.8 5.4 2.1 5.4 5 0 3.3-2.8 5.7-7.5 5.7-3.8 0-6.6-1.9-7.4-5.1" /><path fill="#003a65" d="M190 0h4.8v22.7H190z" /><path fill="#003a65" d="M91.4 36.4c.7-1.2 1.5-2 2.5-2.6.9-.6 2-.9 3.2-.9 1 0 1.9.2 2.6.6s1.2 1.1 1.7 1.9c.4.9.6 1.9.6 3V46c0 .6.1 1 .4 1.2s.7.4 1.3.4h1.1v1.2h-8.2v-1.2h.8c.7 0 1.2-.1 1.5-.4.3-.2.4-.6.4-1v-6.7c0-1.4-.2-2.5-.7-3.2-.6-1-1.5-1.5-2.8-1.5-1.2 0-2.3.5-3.1 1.5s-1.2 2.3-1.2 3.9V46c0 .6.1 1 .4 1.2s.7.4 1.3.4h1.1v1.2H86v-1.2h1.1c.5 0 .9-.1 1.2-.3s.4-.5.4-.8V36.3c0-.7-.2-1.2-.5-1.5-.4-.3-.9-.5-1.5-.5h-.8v-1.1l5.5-.3" /><path fill="#003a65" d="m105 33.3 6.3-.2v13.5c0 .4.1.6.3.8.3.2.6.3 1 .3h1.8v1.2h-8.9v-1.2h1.7c.5 0 .8-.1 1.1-.4.2-.2.3-.6.3-1v-9.8c0-.6-.2-1.1-.5-1.4-.4-.3-.9-.5-1.6-.5h-1.3m4.2-7.9c.5 0 .9.2 1.3.6s.6.8.6 1.3-.2.9-.5 1.3c-.4.4-.8.6-1.3.6s-1-.2-1.3-.6c-.4-.4-.6-.8-.6-1.3s.2-.9.6-1.3c.3-.4.7-.6 1.2-.6z" /><path fill="#003a65" d="M157 32.6c-2.7 0-5 3.2-6 6.8v-6.5l-5.7.3v1.2h1.4c.6 0 1.1.2 1.4.5.3.4.5.9.5 1.7v10c0 .3-.1.5-.4.7s-.7.3-1.2.3h-1.6v1.2h9.8v-1.2h-2c-.6 0-1.1-.1-1.4-.3s-.4-.5-.4-.9v-2.9c0-3 1.3-8.1 3.8-8.1.7 0 .6 1.1 1.9 1.1 1.1 0 1.9-.8 1.9-1.9.1-1.2-.9-2-2-2" /><path fill="#003a65" d="m174 33.3 6.3-.2v13.5c0 .4.1.6.3.8.3.2.6.3 1 .3h1.8v1.2h-8.9v-1.2h1.7c.5 0 .8-.1 1.1-.4.2-.2.3-.6.3-1v-9.8c0-.6-.2-1.1-.5-1.4-.4-.3-.9-.5-1.6-.5h-1.3m4.2-7.9c.5 0 .9.2 1.3.6s.6.8.6 1.3-.2.9-.6 1.3-.8.6-1.3.6-1-.2-1.3-.6c-.4-.4-.6-.8-.6-1.3s.2-.9.6-1.3c.3-.4.8-.6 1.3-.6z" /><path fill="#003a65" d="M113 33.2h7.7v1.2c-1 0-1.7.1-2 .3s-.4.4-.4.7l.1.7 4.1 9.3 3.8-9c.1-.2.1-.3.1-.5 0-.8-.8-1.3-2.4-1.5v-1.2h6.5v1.2c-.7.1-1.2.2-1.6.5s-.7.7-.9 1.2l-5.7 13.3h-.9l-6.1-13.7c-.2-.5-.5-.8-.8-1s-.8-.3-1.5-.3" /><path fill="#003a65" d="M144 41.1h-11.3c.1 2.4.5 4.1 1.4 5.1 1 1.1 2.2 1.7 3.7 1.7 2.2 0 4-1.2 5.3-3.7l1.1.5c-1.6 3.2-4 4.7-7.1 4.7-2.1 0-3.9-.8-5.3-2.3s-2.1-3.5-2.1-5.8c0-2.5.7-4.6 2.1-6.2s3.1-2.4 5.2-2.4c1.5 0 2.8.4 3.9 1.2s1.9 1.9 2.5 3.4c.3 1 .5 2.3.6 3.8M132.7 40h6.9c.4 0 .7-.1.9-.4s.3-.7.3-1.4c0-1.2-.4-2.3-1.2-3.1-.8-.9-1.7-1.3-2.7-1.3-1.2 0-2.2.5-3 1.6-.7.9-1.2 2.5-1.2 4.6z" /><path fill="#003a65" d="M161 43.1c.7 1.9 1.5 3.3 2.4 4s2 1.1 3.3 1.1c1.2 0 2.1-.3 2.8-.8.6-.5 1-1.2 1-2 0-.5-.1-.9-.4-1.2-.2-.4-.6-.6-1-.8s-1.5-.4-3.3-.8c-1.7-.3-2.9-.7-3.5-1.1-.7-.4-1.2-.9-1.6-1.5s-.6-1.4-.6-2.1c0-1.1.4-2.2 1.1-3.1 1-1.2 2.4-1.8 4.1-1.8 1.4 0 2.6.4 3.8 1.3l1.1-1.2h.7l.4 5.6h-1.1c-.5-1.6-1.2-2.8-2-3.5s-1.9-1.1-3.1-1.1c-1.1 0-1.9.3-2.5.8s-.9 1.2-.9 1.9.3 1.2.8 1.7 1.6.8 3.2 1.1c1.9.3 3.1.6 3.6.8.9.3 1.6.8 2.1 1.5s.7 1.5.7 2.5c0 1.4-.5 2.5-1.6 3.5s-2.5 1.4-4.1 1.4c-1.5 0-3-.5-4.3-1.5l-1.2 1.4h-.9l-.3-6.2" /><path fill="#003a65" d="M195 33.2h7.5v1.2h-.7c-.7 0-1.1.1-1.3.3s-.4.4-.4.7c0 .1 0 .3.1.4l4.4 9.4 3.3-7.8c.2-.6.4-1.1.4-1.6 0-.4-.2-.7-.5-1-.3-.2-1-.4-1.9-.4v-1.2h6.5v1.2c-1.2.1-2.1.7-2.5 1.7L204 49.6c-1 2.3-2 3.9-3 4.7-1 .9-2.1 1.3-3.2 1.3-.8 0-1.5-.2-2-.7s-.8-1-.8-1.7c0-.5.2-.9.5-1.2s.7-.5 1.2-.5c.4 0 .8.1 1.1.4s.4.6.4 1c0 .1 0 .3-.1.5 0 .2-.1.3-.1.4 0 .3.2.4.5.4.4 0 .8-.1 1.2-.4.5-.3.9-.7 1.3-1.3s1.1-1.9 2.1-3.9l-5.9-12.7c-.2-.4-.5-.8-.8-1s-.8-.4-1.4-.4" /><path fill="#003a65" d="M64.6 0h6.1l8.6 14V0h4.8v22.7H79L69.4 6.9v15.8h-4.8" /><path fill="#003a65" d="M61.7 26.1H72v1.2h-1.7c-.6 0-1 .1-1.3.3-.2.2-.4.5-.4.9V41c0 1.5.1 2.6.4 3.3.4 1.1 1.1 2 2.1 2.6 1 .7 2.3 1 3.9 1 2.2 0 3.9-.6 5.1-1.7 1.2-1.2 1.8-2.7 1.8-4.7v-9.8c0-1-.1-1.8-.2-2.3s-.3-.9-.6-1.2-.6-.5-1-.6-1.1-.2-2-.2v-1.2h9.4v1.2h-.7c-1 0-1.8.3-2.3.8-.5.6-.8 1.4-.8 2.5v10.6c0 2.7-.8 4.7-2.3 6.1-1.7 1.6-4 2.4-6.8 2.4-2.4 0-4.4-.3-5.8-1s-2.4-1.7-3.1-3c-.5-1-.7-2.2-.7-3.7V28.6c0-.4-.1-.7-.4-.9s-.7-.3-1.2-.3h-1.8" /><path fill="#003a65" d="M187 19.2c-.5.1-1 .2-1.5.2-1.7 0-2-.8-2-2.7V9.2h3.5V5.9h-3.5V1l-4.8.9v4h-2.2v3.3h2.2v8.1c0 4.1 1.6 5.9 5.5 5.9.9 0 1.8-.1 2.8-.3" /><path fill="#003a65" d="M194 42.9c-.1 1.6-.4 2.8-.9 3.5s-1.2 1.1-1.9 1.1c-.6 0-1.2-.2-1.6-.7s-.6-1.2-.6-2V34.6h4.9v-1.4H189v-6.5h-1.1c-.1 2.2-.6 3.9-1.6 5.1-.7.8-1.6 1.4-2.9 1.6v1.2h2.8v10.7c0 1.2.4 2.1 1.1 2.8s1.8 1.1 3.1 1.1c1.4 0 2.6-.5 3.5-1.5s1.4-2.6 1.4-4.7" /><path fill="#003a65" d="M0 0v22.7C0 56.1 29.8 70 29.8 70s29.8-13.9 29.8-47.3V0" /><path fill="#fff" d="M1 1h57.8v21.7H1z" /><path fill="#fff" d="M49 44.8c0-1.9-.3-3.8-.8-5.5-5.2 3.4-10.4 4.3-13.4 2.5.2-.2.3-.5.3-.8 0-.7-.6-1.3-1.3-1.3-.3 0-.6.1-.8.3-1.9-3.1-1-8.2 2.4-13.4-1.8-.5-3.7-.8-5.5-.8s-3.7.3-5.5.8c3.4 5.2 4.3 10.4 2.4 13.4-.2-.2-.5-.3-.8-.3-.7 0-1.3.6-1.3 1.3 0 .3.1.6.3.8-3.1 1.9-8.2 1-13.4-2.5-.5 1.8-.8 3.7-.8 5.5 0 1.9.3 3.8.8 5.5C16.8 46.9 22 46 25 47.8c-.2.2-.3.5-.3.8 0 .7.6 1.3 1.3 1.3.3 0 .6-.1.8-.3 1.9 3.1 1 8.2-2.4 13.4 1.8.5 3.7.8 5.5.8 1.9 0 3.7-.3 5.5-.8-3.4-5.1-4.3-10.3-2.4-13.3.2.2.5.3.8.3.7 0 1.3-.6 1.3-1.3 0-.3-.1-.6-.3-.8 3.1-1.9 8.2-1 13.4 2.5.5-1.9.8-3.7.8-5.6" /><path fill="#003a65" d="M33.3 44.8c0 1.9-1.5 3.5-3.5 3.5-1.9 0-3.5-1.6-3.5-3.5s1.5-3.5 3.5-3.5 3.5 1.6 3.5 3.5" /><path fill="#d91a35" d="M11.6 14.3c-1.5-1.1-3.3-1.1-3.7-1.1.4-.7.6-.8 1.3-1.2-2.3 0-2.6-.6-2.7-1.2.6.1 1.3-.1 1.6-.4-1.7-.1-2.2-1.2-2.4-1.6C7 8.8 7 8.1 6.8 7.7c-.1-.3-.6-.6-1-.4L4.6 8c-.3 0-.4-.4-.4-.6-.4 0-.8.2-1.1.5.1-1.5 1.7-2.1 2.7-1.9 0 0 0-.6-.3-.8-.3-.3-.7-.3-1-.5 0-.3 0-.6.3-.7-.3-.5-1.2-.5-1.2-.5 1.8-1.3 3 .4 3.4 1.7.5-.6.5-.9.5-1.3-.1-.4-.4-.6-.4-.8 0-.3.4-.2.4-.2 0-.5-.4-.9-.8-1 0 0 1.5-.1 2 1.4.5 1.4-.2 2.3-.2 2.3s.5.1.8-.2c.2-.3.1-.7.4-.9.3-.5.6 0 .6 0 .3-.3.1-.9 0-1.1 0 0 .8.5.7 1.4-.1.6-.7 1.1-.9 1.4s-1 1 .2 3.1c.7 1.3 1.4 1.8 1.8 1.9-.3.4-.7 1.7-.5 3.1" /><path fill="#d91a35" d="M5.8 17c-1.4.1-3.9.7-2.6 3.3 0-.6.2-1.1.5-1.3.1.4.4.5.6.3.2-.1.5-.6.7-.8s.6-.3 1-.1c-1.2 1.9.2 3.8 1.2 3.7-.6-.4-.6-1-.6-1.2 0 0 .4.1.5-.2.1-.2-.1-.7.1-1.2.1-.3.4-.4.6-.4.4.1.5.4.5.7 0 .4-.2.7-.2.7.6.5 2.3-.1 3.4-1 0 .3 0 .8-.3 1.2.9.2 2.5-.8 3-1.7.1.4 0 1.3-.5 1.8.7.2 2.6-.4 4.1-1.9.1.8 1.3 2 2.7 1.4 0 0-.6-.4-.6-.8 0-.8.9-1.4 2-1.9 1.3-.6 3.4-.8 5.5-1.8 3.9-1.9 4.6-3.6 7.8-3.6 1.4 0 2.8.3 3.5 1.5s.5 2.5 1.3 3.3 2.2.2 2.9 0c1.9-.6 4.6-1.7 6.3-1.8s2.1 1.1 2.1 1.2c.1.4 0 .6-.3.6-.6 0-1.6-.3-2.2 0-.8.5-.6 1.6-.6 1.6.2-.3.7-.9 1.3-.8 0 0 .1.7.6.4.3-.2.7-.6 1.4-.5-.6.6-1.9 2.8-.1 3.7-.3-.4-.3-1.1-.1-1.4 0 0 .5.3.8-.1.1-.2-.1-.7.1-1.2.1-.4.5-.6.5-.6.1.5 1 1.9 3.3 1.8-.5-.2-.8-.6-.9-.8.3-.2.4-.6.1-.7s-.8 0-1-.4c-.3-.4-.2-1-.2-1 .8.3 2.7 1.1 3.5-.6-.2.2-.9.4-1.3.3 0-.2-.3-.8-.7-.8-.5 0-.9.1-1.4.2-.4 0-.6-.1-.7-.3s0-.4.1-.5c.2-.3.6-.4.6-.4-.3-.6-1.3-.3-1.5-.3 0-.3.4-.9 1-1.2-.2-.4-1-.8-2.2-.6.1-.5.6-1 .9-1.2-.6-.4-2.2-.2-3.5.8.1-.3 0-1.2-.4-1.6 0 0-1.8 2.2-3.5 2-1.8-.3-1.5-2.4-1.5-2.4s3.5.5 5.1-.2c1.7-.8 1.7-2 3.1-2.7 1.1-.6 2.4-.1 2.4-.1-.2-1.2-2.4-2.1-4.1-.3 0 0 0-2.7-4.2-2.5-1.5.1-4.3.9-6.9 1.4-2.5.5-6.2.7-7.8.7s-3.1-.3-3.1-1.4 1.1-1.2 1.9-1.2c1.2 0 2.9.7 4.2 1.2 1 .3 1.9.3 2.4.3 1.4 0 3.2-.7 4.1-1.1 1-.3 1.7-.5 3.5-.4-.5-.7-2.5-1.5-4.8-.3-.2-.4.2-1.1 1.1-1.3-.4-.3-1.7-.6-3.3-.6-2.5.1-3.3 1.2-5.7 1.1s-4.6.3-4.6 2.1c0 1.4 1.8 2.6 4.6 2.7-.1.2-.5.5-.6.6 1 .2 2.4 0 4.3-1.2 0 .2-.1.7-.3.9.7 0 1.9-.3 3.4-1.3 0 .2 0 .6-.4.9 1.8-.1 2.7-1 3.9-1.4 1.6-.5 6.7-1.7 6.7 1.2 0 .7-.3 1.7-2.1 1.7l-5.4-.9s-1.2-.2-2.8 0c-1.4.2-12.3 1.8-14.1 2 0 .6 0 2.4 1 3.2-.8.4-1.6.6-3 0-.1.5 0 1.8.7 2.6-.6.2-1.7.5-2.8-.2-.4.8-1.6 2.9-4.8 2.3.2-.2.8-1.3.8-1.5-.6.5-2.3 1.4-5.4 1-.9-.1-1.9-.4-2.2-1s.1-1.6-.1-2.1c-.4-1.1-1.6-1-1.6-1 .1.1.6.4.6.8 0 0-.5 0-.5.5 0 .7.2 1.5.2 1.5-1.3-1.3-3.5-2.7-4.2-.4.3-.3.6-.5 1-.5 0 0-.3.4.3.8.2.2.8 0 1.1.1.5 0 .8.6.8.6" /><path fill="#d91a35" d="M34.7 16.4c.3.2.1.4 0 .5s-1.6 1.1-2.5.8c-.7-.2-.7-1.5-1.7-1.9-.8-.3-1.7.3-1.7.3.3 0 .8.2.9.2 0 0-.2.3.1.4.3.2.5.1.7.3.3.3 0 .9 0 .9-2.1-1.7-4.1-.5-4.2.5.2-.1.7-.4 1-.3 0 0 0 .3.3.4s.7-.2 1.1-.1c.5.1.9.5.9.5-.7.1-2.1 1.2-1 2.9 0-.3 0-.7.2-.8 0 0 .4.2.6 0s.3-.7.6-1.1l.7-.4c-.2.9.7 2.8 2.2 2.4-.3-.2-.6-.6-.6-.8 0 0 .4-.2.4-.4-.1-.4-.7-.3-.7-.8 0-.3.3-.5.7-.5.9 0 .8 1.2.8 1.2.6-.1 1.5-.8 1.7-1.5.3.2.5 1 .4 1.5.8-.3 1.4-.9 1.4-3 .6.9 2.2 1.4 3.4.6-1.5-.2-1.8-1.8-1.9-2.1s-.2-1.5-.9-2.2c-1-1-3.2-.9-4.5-.5-.3.1-.7.3-.7 1 0 .6.1 1.2 1 1.6.8.1 1.1.3 1.3.4" /><path fill="#d91a35" d="M25.4 5.6c0-.1.1-.4-.2-.5-.5-.1-1.5 0-1.5 0 .5-.5.3-1.9-.3-2.3-.1.6-.7 1-1.2.8-.7-.2-.4-1.2-.2-1.6-.5 0-1.5.1-2.2 1.2-.2-1.4-1.6-1.7-2-1.7.2.6-.2 1.5-.7 1.4-.1-1-1.1-1.4-1.1-.7-.1 1.1-1.1 2.4-2 2.5-.1.6.6.9 1 .9-1 1.5-2.5 1.2-3.3.9 0 .6.6 1.8 1.8 1.8-.6.9-1.9 1-2.3.8-.2.9 1.3 1.7 1.7 1.8-1.2 1.9-.8 4.2-.1 5.2 0 0 .3-.7.6-1s.5-.4.7-.2c.3.1.2.6 0 .9-.3.6-.9 1.2-.9 1.2 1.1.3 3.1-.9 3.3-1.4.2.6-.2 1.6-.5 2.1 2.1.2 3.2-1.6 3.6-2.7.7.8 1.6.9 2.1.8-.7-1.3-.4-2.6-.1-3.1.7.7 1.8.8 2.3.7-.7-.9-.7-3.3-.5-4.1.5.3 1.1.4 1.4.2 0 0-.4-.8-.3-2 .2-.9.6-1.5.9-1.9m-8.2.6c.1-.1.2-.2.3-.1.1.2.2.4.5.6.1.2.4.3.5.3.1.3-.4.7-1.1.1-.3-.3-.4-.7-.2-.9zm1.6 5.8c-.3.5-1.3 1.3-2 .9.3-.1 1-.6 1.4-1.3l-.4-.3c-.2.1-.6.5-1 1 0-.3.2-.9.4-1.3-.2 0-.5-.2-.6-.2-.3.7-.3 1.6-.2 1.9-.6-.3-.7-1.6-.4-2.1-.8-.6-.5-1.2-.3-1.4 0 .2.2.7.9 1 .7.4 1 .1 1 0 .1-.3-.2-.5-.4-.8s-.3-.7-.1-.9c.2-.3.6-.2.7-.1-.8.2.2 1 .4 1.2.3.1 1.6.4 1.2-.3.2.1.5.3.4.6-.1.2-.4.5-.8.4-.4 0-.8-.2-.9.1-.1.2-.1.5.6.9.7.3 1.2.2 1.4.1 0 .3-.4.9-1.3.6zm2.7-3.6c-.1.3-.4.4-.9.3-.9-.2-.9-.8-.6-.9.1.1.4.3.6.3.4.1.5 0 .8 0 .2 0 .2.2.1.3z" /></svg>