<svg xmlns="http://www.w3.org/2000/svg" viewBox="0 0 168 57"><g clip-path="url(#a)"><path fill="#000" d="M11.3 11.6 0 29.7l.3 3 43.3 5.2-32.3-26.3Z"/><path fill="#F15A29" d="M43.6 37.9 56.1 24c-.4-3-1.4-5.8-2.7-8.4l-6.6.6-3.2 21.7Z"/><path fill="url(#b)" d="m43.6 37.9 3.2-21.7-4.7-12.4c-2.7-1.6-5.7-2.7-8.9-3.2l-6.1 10.2 16.5 27.1Z"/><path fill="#EC008C" d="M10.1 6.6C3.9 11.8 0 19.6 0 28.3v1.4l11.3-18.1-1.2-5Z"/><path fill="#567483" d="M43.6 37.9 27.2 10.7l-10.8-8c-2.3 1-4.3 2.4-6.2 3.9l1.1 5 32.3 26.3Z"/><path fill="#B1DEF7" d="M33.3.5C31.7.2 30 0 28.2 0 24 0 20 .9 16.4 2.6l10.8 8L33.3.5Z"/><path fill="#006991" d="M.3 32.6c.6 3.9 2 7.5 4 10.7l39.3-5.4L.3 32.6Z"/><path fill="#00AEEF" d="M4.4 43.4c2.9 4.5 7 8.2 11.9 10.5l32.4-6.3c1.9-2 3.5-4.3 4.8-6.9l-9.9-2.8-39.2 5.5Z"/><path fill="#C2B59B" d="M53.5 40.7c.5-1 .9-1.9 1.3-3l-11.2.2 9.9 2.8Z"/><path fill="#39B54A" d="M54.8 37.7c.4-1.2.8-2.5 1-3.7l-12.2 4 11.2-.3Z"/><path fill="#594A42" d="M55.8 34c.4-1.8.6-3.7.6-5.7 0-1.4-.1-2.8-.3-4.2L43.6 37.9 55.8 34Z"/><path fill="#6DCFF6" d="M39.4 54.2c3.6-1.5 6.7-3.8 9.3-6.6l-32.3 6.3 23 .3Z"/><path fill="#2361AD" d="m16.4 53.9 1.5.6c3.2 1.3 6.7 2 10.3 2 3.6 0 7.1-.7 10.3-2 .3-.1.6-.2.9-.4l-23-.2Z"/><path fill="#000" d="M69.4 48.398h-1.7v-1h2.9v5.5c0 1.4.2 2.7 2 2.7 2.1 0 3.4-1.9 3.4-3.9v-3.3h-1.7v-1h2.9v7.8c0 .3.1.4.4.4h1.1v1h-1.4c-.8 0-1.1-.3-1.1-1v-1.2c-.2.7-1.4 2.4-3.7 2.4-2.2 0-3.1-1.2-3.1-3.6v-4.8ZM80.4 55.5H82v-6.7c0-.3-.1-.4-.4-.4h-1.3v-1h1.8c.8 0 1.1.3 1.1 1v.5c0 .4-.1.7-.1.7.3-.7 1.5-2.4 3.8-2.4s3.1 1.3 3.1 3.6v4.8h1.6v1h-2.8v-5.5c0-1.4-.2-2.7-2-2.7-2.1 0-3.5 1.8-3.5 3.8v3.4h1.6v1h-4.4v-1.1h-.1ZM92.9 55.5h1.6v-7.1h-1.7v-1h2.9v8.2h1.6v1h-4.4v-1.1Zm1.5-11.8h1.4v1.6h-1.4v-1.6ZM97.9 47.398h3.9v1h-1.3l2.3 6.1c.1.3.2.7.2.7h.1s.1-.4.2-.7l2.3-6.1h-1.3v-1h3.9v1H107l-3.2 8.2h-1.5l-3.2-8.2h-1.2v-1ZM113.5 47.2c2.6 0 3.9 2 3.9 4.2 0 .2-.1.6-.1.6h-7.2c.1 2.4 1.7 3.7 3.6 3.7 1.7 0 2.8-1.1 2.8-1.1l.6.9s-1.3 1.3-3.5 1.3c-2.8 0-4.9-2-4.9-4.8.2-3 2.3-4.8 4.8-4.8Zm2.6 3.9c-.1-1.9-1.3-2.9-2.6-2.9-1.6 0-2.9 1-3.2 2.9h5.8ZM119.3 55.499h1.4v-6.7c0-.3-.1-.4-.4-.4H119v-1h1.8c.8 0 1.1.3 1.1 1V49.699c.5-1.4 1.5-2.4 2.9-2.4.3 0 .5.1.5.1v1.2h-.5c-2.1 0-2.9 2.3-2.9 4.1v2.9h1.4v1h-4v-1.1ZM126.6 53.699h1.1v.7c0 .9 1.4 1.3 2.4 1.3 1.2 0 2.2-.5 2.2-1.4 0-1.1-1.2-1.4-2.5-1.9-1.4-.5-2.9-1.1-2.9-2.7 0-1.7 1.7-2.4 3.2-2.4 1.3 0 3.1.5 3.1 1.8v1.1H132v-.7c0-.7-.9-1.1-1.9-1.1-1 0-2 .4-2 1.3 0 1 1.1 1.4 2.4 1.9 1.4.5 3 1.1 3 2.8 0 1.6-1.4 2.6-3.5 2.6-1.7 0-3.5-.8-3.5-2.2v-1.1h.1ZM135.3 55.5h1.6v-7.1h-1.7v-1h2.9v8.2h1.6v1h-4.4v-1.1Zm1.5-11.8h1.4v1.6h-1.4v-1.6ZM142.2 48.398h-1.7v-1h1.7v-2.5h1.2v2.5h2.4v1h-2.4v4.7c0 2.2 1.4 2.4 2.1 2.4h.4v1.1h-.5c-1.1 0-3.3-.3-3.3-3.4v-4.8h.1ZM151.901 47.2c2.6 0 3.9 2 3.9 4.2 0 .2-.1.6-.1.6h-7.2c.1 2.4 1.7 3.7 3.6 3.7 1.7 0 2.8-1.1 2.8-1.1l.6.9s-1.3 1.3-3.5 1.3c-2.8 0-4.9-2-4.9-4.8.2-3 2.3-4.8 4.8-4.8Zm2.6 3.9c-.1-1.9-1.3-2.9-2.6-2.9-1.6 0-2.9 1-3.2 2.9h5.8ZM158.7 48.398H157v-1h1.7v-2.5h1.2v2.5h2.4v1h-2.4v4.7c0 2.2 1.4 2.4 2.1 2.4h.4v1.1h-.5c-1.1 0-3.3-.3-3.3-3.4v-4.8h.1Z"/><path fill="#757778" d="M77.8 30.001c-1.7-2.2-3.2-4.4-4.8-6.6h-.1c0 2.4.1 4.9.1 7.4v9.5h-5.4v-25.6h5.3l7.6 10.3c1.7 2.2 3.2 4.4 4.8 6.6h.1c0-2.4-.1-4.9-.1-7.4v-9.5h5.4v25.5h-5.3l-7.6-10.2ZM93.4 27.5c0-7.4 5.7-13.1 13.299-13.1 7.6 0 13.3 5.7 13.3 13.1 0 7.4-5.7 13.1-13.3 13.1-7.5 0-13.3-5.7-13.3-13.1Zm21.099 0c0-4.5-3.3-8.1-7.7-8.1s-7.7 3.6-7.7 8.1 3.3 8.1 7.7 8.1 7.7-3.6 7.7-8.1ZM122.8 14.701h8c3 0 5.9.4 7.9 1.7 1.9 1.2 3.1 3.1 3.1 6 0 3.3-1.8 6-5.2 7l7.2 10.8h-6.4l-6.4-10.1h-2.5v10.1h-5.6v-25.5h-.1Zm8.4 11.3c1.5 0 2.7-.2 3.5-.6 1-.5 1.4-1.3 1.4-2.6 0-1.2-.4-2-1.4-2.5-.9-.5-2.3-.7-4.2-.7h-2.1v6.3h2.8v.1ZM145 14.701h7.1c4.5 0 8.1.7 10.7 2.6 3.1 2.2 4.9 5.8 4.9 10.1 0 4-1.5 7.4-4.2 9.6-2.6 2.1-6.3 3.1-11.6 3.1H145v-25.4Zm7.2 20.6c3.6 0 6-.6 7.5-2 1.5-1.3 2.5-3.3 2.5-5.9 0-2.7-1.1-4.9-3-6.3-1.8-1.3-4.2-1.5-7.1-1.5h-1.5v15.7h1.6Z"/></g><defs><linearGradient id="b" x1="37.006" x2="37.006" y1="37.644" y2="1.668" gradientUnits="userSpaceOnUse"><stop stop-color="#fff"/><stop offset="1" stop-color="#D7DF23"/></linearGradient><clipPath id="a"><path fill="#fff" d="M0 0h168v57H0z"/></clipPath></defs></svg>