<svg xmlns="http://www.w3.org/2000/svg" width="310.27" height="322.3" viewBox="0 0 150 155.81"><clipPath id="a"><path d="M-356.87 203.25h841.89v-595.28h-841.89z"/></clipPath><clipPath id="b"><path d="M-381.45 199.1h841.89v-595.27h-841.89z"/></clipPath><clipPath id="c"><path d="M-344.66 211.08h841.89V-384.2h-841.89z"/></clipPath><clipPath id="d"><path d="M-356.87 203.25h841.89v-595.28h-841.89z"/></clipPath><clipPath id="e"><path d="M-365.61 228.94h841.89v-595.28h-841.89z"/></clipPath><clipPath id="f"><path d="M0 595.28h841.89V0H0z"/></clipPath><clipPath id="g"><path d="M-362.62 210.68h841.89V-384.6h-841.89z"/></clipPath><clipPath id="h"><path d="M-352.38 247.38h841.89V-347.9h-841.89z"/></clipPath><clipPath id="i"><path d="M0 595.28h841.89V0H0z"/></clipPath><clipPath id="j"><path d="M-330.66 242.69h841.89V-352.6h-841.89z"/></clipPath><clipPath id="k"><path d="M0 595.28h841.89V0H0z"/></clipPath><clipPath id="l"><path d="M-375.9 216.74h841.89v-595.28H-375.9z"/></clipPath><clipPath id="m"><path d="M-401.94 242.69h841.89V-352.6h-841.89z"/></clipPath><clipPath id="n"><path d="M-373.86 268.9h841.89v-595.27h-841.89z"/></clipPath><clipPath id="o"><path d="M0 595.28h841.89V0H0z"/></clipPath><clipPath id="p"><path d="M-362.62 278.93h841.89v-595.28h-841.89z"/></clipPath><clipPath id="q"><path d="M-340.18 256.3h841.89v-595.27h-841.89z"/></clipPath><clipPath id="r"><path d="M0 595.28h841.89V0H0z"/></clipPath><clipPath id="s"><path d="M-375.9 272.87h841.89v-595.28H-375.9z"/></clipPath><clipPath id="t"><path d="M-389.44 236.32h841.89v-595.28h-841.89z"/></clipPath><clipPath id="u"><path d="M-392.52 256.3h841.89v-595.27h-841.89z"/></clipPath><clipPath id="v"><path d="M-345.17 206.73h841.89v-595.28h-841.89z"/></clipPath><clipPath id="w"><path d="M-387.32 206.73h841.89v-595.28h-841.89z"/></clipPath><clipPath id="x"><path d="M-369.94 292.39h841.89V-302.9h-841.89z"/></clipPath><clipPath id="y"><path d="M-387.32 282.95h841.89v-595.28h-841.89z"/></clipPath><clipPath id="z"><path d="M-335.8 273.58h841.89V-321.7H-335.8z"/></clipPath><clipPath id="A"><path d="M-326.35 240.87h841.89v-595.28h-841.89z"/></clipPath><clipPath id="B"><path d="M-412.02 258.25h841.89v-595.28h-841.89z"/></clipPath><clipPath id="C"><path d="M-412.02 231.42h841.89v-595.28h-841.89z"/></clipPath><clipPath id="D"><path d="M-432.52 297.4h841.89v-595.27h-841.89z"/></clipPath><clipPath id="E"><path d="M-466.91 336.36h841.89v-595.28h-841.89z"/></clipPath><clipPath id="F"><path d="M-479.47 336.46h841.89v-595.28h-841.89z"/></clipPath><clipPath id="G"><path d="M-532.44 190.7h841.89v-595.28h-841.89z"/></clipPath><clipPath id="H"><path d="M-521.15 190.95h841.89v-595.28h-841.89z"/></clipPath><clipPath id="I"><path d="M-509.82 186.94h841.89v-595.28h-841.89z"/></clipPath><clipPath id="J"><path d="M-498.49 182.94H343.4v-595.28h-841.89z"/></clipPath><clipPath id="K"><path d="M-487.11 178.93h841.89v-595.28h-841.89z"/></clipPath><clipPath id="L"><path d="M-475.72 174.93h841.89v-595.28h-841.89z"/></clipPath><clipPath id="M"><path d="M-464.29 170.9H377.6v-595.28h-841.89z"/></clipPath><clipPath id="N"><path d="M-295.51 430.83h841.89v-595.28h-841.89z"/></clipPath><clipPath id="O"><path d="M-315.39 432.75H526.5v-595.28h-841.89z"/></clipPath><clipPath id="P"><path d="M-322.58 424.4h841.89v-595.27h-841.89z"/></clipPath><clipPath id="Q"><path d="M-351.24 432.75h841.89v-595.28h-841.89z"/></clipPath><clipPath id="R"><path d="M-371.24 426.64h841.89v-595.28h-841.89z"/></clipPath><clipPath id="S"><path d="M-403.19 432.09H438.7V-163.2h-841.89z"/></clipPath><clipPath id="T"><path d="M-425.11 434.67h841.89v-595.28h-841.89z"/></clipPath><clipPath id="U"><path d="M0 595.28h841.89V0H0z"/></clipPath><clipPath id="V"><path d="M-452.2 436.35h841.89v-595.28H-452.2z"/></clipPath><clipPath id="W"><path d="M-465.69 440.6H376.2v-595.28h-841.89z"/></clipPath><clipPath id="X"><path d="M-491.76 426.64h841.89v-595.28h-841.89z"/></clipPath><clipPath id="Y"><path d="M-507.51 428.68h841.89V-166.6h-841.89z"/></clipPath><clipPath id="Z"><path d="M0 595.28h841.89V0H0z"/></clipPath><clipPath id="aa"><path d="M-525.84 424.4h841.89v-595.27h-841.89z"/></clipPath><clipPath id="ab"><path d="M-557.51 421.06h841.89v-595.28h-841.89z"/></clipPath><clipPath id="ac"><path d="M-411.29 375.13H430.6v-595.28h-841.89z"/></clipPath><clipPath id="ad"><path d="M-419.94 375.13h841.89v-595.28h-841.89z"/></clipPath><clipPath id="ae"><path d="M-440.7 390.2h841.89v-595.27H-440.7z"/></clipPath><clipPath id="af"><path d="M-538.06 406.36h841.89v-595.28h-841.89z"/></clipPath><clipPath id="ag"><path d="M-561.4 403.37h841.89v-595.28H-561.4z"/></clipPath><clipPath id="ah"><path d="M-369.58 375.13h841.89v-595.28h-841.89z"/></clipPath><clipPath id="ai"><path d="M-360.59 375.13H481.3v-595.28h-841.89z"/></clipPath><clipPath id="aj"><path d="M-313.98 398.8h841.89v-595.27h-841.89z"/></clipPath><g fill="#8a1538"><path d="M53.83 25.24zm-19.61 6.38z"/><path d="m0 0-.02-.01L0 0" clip-path="url(#a)" transform="matrix(.53313 0 0 -.53313 40.72 27.44)"/><path d="M0 0z" clip-path="url(#b)" transform="matrix(.53313 0 0 -.53313 53.83 25.24)"/><path d="M0 0z" clip-path="url(#c)" transform="matrix(.53313 0 0 -.53313 34.22 31.62)"/><path d="m0 0-.02-.01L0 0" clip-path="url(#d)" transform="matrix(.53313 0 0 -.53313 40.72 27.44)"/><path d="m0 0 .95.95 7.3 7.29c1.6-1.59 5.36-5.35 8.22-8.24z" clip-path="url(#e)" transform="matrix(.53313 0 0 -.53313 45.38 41.14)"/><path d="M340.54 384.19h17.74v-17.88h-17.74z" clip-path="url(#f)" transform="matrix(.53313 0 0 -.53313 -149.54 236.46)"/><path d="m0 0 9.2 9.1V-6.06L0-15.23z" clip-path="url(#g)" transform="matrix(.53313 0 0 -.53313 43.8 31.4)"/><path d="m0 0-2.58 2.57L0 5.14l5.9 5.92V-5.91L0 0" clip-path="url(#h)" transform="matrix(.53313 0 0 -.53313 38.33 50.97)"/><path d="M362.65 361.98h22.64v-23h-22.64z" clip-path="url(#i)" transform="matrix(.53313 0 0 -.53313 -149.54 236.46)"/><path d="m0 0 9.52 9.4h15.02L15.12 0z" clip-path="url(#j)" transform="matrix(.53313 0 0 -.53313 26.75 48.48)"/><path d="M389.44 384.19h17.74v-17.88h-17.74z" clip-path="url(#k)" transform="matrix(.53313 0 0 -.53313 -149.54 236.46)"/><path d="M0 0v15.16l9.2-9.1V-9.17z" clip-path="url(#l)" transform="matrix(.53313 0 0 -.53313 50.87 34.64)"/><path d="m0 0-9.43 9.4H5.6L15.12 0z" clip-path="url(#m)" transform="matrix(.53313 0 0 -.53313 64.75 48.48)"/><path d="M0 0c-1.45 1.43-4.52 4.5-7.1 7.08l-1.15 1.16H8.22A2455.4 2455.4 0 0 0 0 0" clip-path="url(#n)" transform="matrix(.53313 0 0 -.53313 49.78 62.45)"/><path d="M340.54 334.63h17.74v-17.88h-17.74z" clip-path="url(#o)" transform="matrix(.53313 0 0 -.53313 -149.54 236.46)"/><path d="M0 0v15.23l9.2-9.17V-9.1z" clip-path="url(#p)" transform="matrix(.53313 0 0 -.53313 43.8 67.8)"/><path d="m0 0-9.52 9.4H5.6L15.03 0z" clip-path="url(#q)" transform="matrix(.53313 0 0 -.53313 31.83 55.73)"/><path d="M389.44 334.63h17.74v-17.88h-17.74z" clip-path="url(#r)" transform="matrix(.53313 0 0 -.53313 -149.54 236.46)"/><path d="m0 0 9.2 9.17V-6.06L0-15.16z" clip-path="url(#s)" transform="matrix(.53313 0 0 -.53313 50.87 64.56)"/><path d="m0 0 5.9-5.91 2.58-2.57-2.58-2.58-5.9-5.9z" clip-path="url(#t)" transform="matrix(.53313 0 0 -.53313 58.09 45.08)"/><path d="m0 0 9.43 9.4h15.11L15.03 0z" clip-path="url(#u)" transform="matrix(.53313 0 0 -.53313 59.73 55.73)"/><path d="M0 0a47.26 47.26 0 0 0 24.77 9.45L15.33 0z" clip-path="url(#v)" transform="matrix(.53313 0 0 -.53313 34.48 29.3)"/><path d="m0 0-9.44 9.44A47.27 47.27 0 0 0 15.33 0z" clip-path="url(#w)" transform="matrix(.53313 0 0 -.53313 56.96 29.3)"/><path d="M0 0a47.27 47.27 0 0 0-24.77 9.44h15.33z" clip-path="url(#x)" transform="matrix(.53313 0 0 -.53313 47.7 74.97)"/><path d="M0 0h15.33A47.27 47.27 0 0 0-9.44-9.44z" clip-path="url(#y)" transform="matrix(.53313 0 0 -.53313 56.96 69.94)"/><path d="M0 0a47.26 47.26 0 0 0-9.45 24.77L0 15.33z" clip-path="url(#z)" transform="matrix(.53313 0 0 -.53313 29.49 64.94)"/><path d="M0 0a47.26 47.26 0 0 0 9.45 24.77V9.45z" clip-path="url(#A)" transform="matrix(.53313 0 0 -.53313 24.45 47.5)"/><path d="m0 0 9.45 9.45A47.26 47.26 0 0 0 0-15.34z" clip-path="url(#B)" transform="matrix(.53313 0 0 -.53313 70.13 56.77)"/><path d="M0 0v15.33A47.26 47.26 0 0 0 9.45-9.44z" clip-path="url(#C)" transform="matrix(.53313 0 0 -.53313 70.13 42.47)"/><path d="m0 0 24.4 13.82v131.82l-73.06-30.04v-3.36H0z" clip-path="url(#D)" transform="matrix(.53313 0 0 -.53313 81.06 77.65)"/><path d="m0 0-34.4 32.11h-117.08v117.02l-8.34-31.06v-93.7L-185.92 0z" clip-path="url(#E)" transform="matrix(.53313 0 0 -.53313 99.39 98.42)"/><path d="m0 0-35.7 33.35 17.16 9.82L70.93 12l10.5-12z" clip-path="url(#F)" transform="matrix(.53313 0 0 -.53313 106.09 98.47)"/><path d="M0 0v-4.21l5.46-1.92v-114.74l3.98-1.38V-3.32z" clip-path="url(#G)" transform="matrix(.53313 0 0 -.53313 134.33 20.75)"/><path d="m0 0 5.32-1.87v-114.78l4.13-1.44V.9L0 4.2z" clip-path="url(#H)" transform="matrix(.53313 0 0 -.53313 128.3 20.89)"/><path d="m0 0 5.57-1.96v-114.83l3.89-1.35V.89L0 4.2z" clip-path="url(#I)" transform="matrix(.53313 0 0 -.53313 122.27 18.75)"/><path d="m0 0 5.43-1.92v-114.87l4.05-1.41V.88L0 4.2z" clip-path="url(#J)" transform="matrix(.53313 0 0 -.53313 116.23 16.62)"/><path d="m0 0 5.7-2v-114.93l3.8-1.32V.86L0 4.21z" clip-path="url(#K)" transform="matrix(.53313 0 0 -.53313 110.16 14.48)"/><path d="m0 0 5.4-1.89v-114.96l4.1-1.42V.88L0 4.2z" clip-path="url(#L)" transform="matrix(.53313 0 0 -.53313 104.1 12.35)"/><path d="m0 0 5.4-1.9v-115l4.1-1.43V.87L0 4.2z" clip-path="url(#M)" transform="matrix(.53313 0 0 -.53313 98 10.2)"/><path d="M0 0c0-3.26-1.47-6.74-5.58-6.74-4.15 0-5.63 3.63-5.63 6.74 0 2.17.7 4.1 1.92 5.31a5 5 0 0 0 3.66 1.43h.05c1.47.03 2.7-.46 3.66-1.41C-.7 4.12 0 2.18 0 0m3.82 0c0 6.04-3.78 10.1-9.4 10.1-5.65 0-9.44-4.06-9.44-10.1 0-6.12 3.7-10.07 9.44-10.07.52 0 .93.02 1.32.08l3.4-3.19h4.8L-.79-8.9C2.15-7.29 3.82-4.09 3.82 0" clip-path="url(#N)" transform="matrix(.53313 0 0 -.53313 8.01 148.78)"/><path d="M0 0h-5.9l2.95 7.34zm-4.59 11.7-8.33-19.55h3.89l1.87 4.68h8.4l1.92-4.68h3.98l-8.26 19.54z" clip-path="url(#O)" transform="matrix(.53313 0 0 -.53313 18.61 149.8)"/><path d="M0 0h5.77v-16.2h3.65V0h5.76v3.35H0z" clip-path="url(#P)" transform="matrix(.53313 0 0 -.53313 22.44 145.36)"/><path d="M0 0h-5.9l2.95 7.34zm-4.57 11.7L-12.9-7.86H-9l1.87 4.68h8.4l1.9-4.68h3.98l-8.26 19.54z" clip-path="url(#Q)" transform="matrix(.53313 0 0 -.53313 37.73 149.8)"/><path d="M0 0c0-1.5-1.3-2.39-3.5-2.39h-1.77v4.62h2.05C-2.02 2.23 0 1.94 0 0m.69-4.34A4.66 4.66 0 0 1 3.82.05c0 4.88-3.9 5.54-7.7 5.54h-5.05v-19.55h3.66v8.24h1.09c1.4 0 1.97 0 2.65-1.5l2.97-6.74H5.6L1.74-5.84A5.03 5.03 0 0 1 .7-4.34" clip-path="url(#R)" transform="matrix(.53313 0 0 -.53313 48.39 146.55)"/><path d="M0 0c0-3.8-1.25-5.49-4.04-5.49S-8.07-3.79-8.07 0v11.03h-3.66V-.34c0-5.39 2.8-8.48 7.7-8.48 4.89 0 7.7 3.1 7.7 8.48v11.37H0z" clip-path="url(#S)" transform="matrix(.53313 0 0 -.53313 65.42 149.45)"/><path d="m0 0-7.45 13.6h-4.41V-5.93h3.65v13.9l7.67-13.9h4.18V13.6H0z" clip-path="url(#T)" transform="matrix(.53313 0 0 -.53313 77.11 150.83)"/><path d="M435.14 154.68h3.65v19.55h-3.65z" clip-path="url(#U)" transform="matrix(.53313 0 0 -.53313 -149.54 236.46)"/><path d="m0 0-5.4 15.3h-4.03l7.35-19.55h4L9.4 15.29H5.52z" clip-path="url(#V)" transform="matrix(.53313 0 0 -.53313 91.55 151.72)"/><path d="M0 0h11.37v3.34h-7.7v5.11h7.05v3.33H3.67v4.42h7.7v3.35H0z" clip-path="url(#W)" transform="matrix(.53313 0 0 -.53313 98.75 154)"/><path d="M0 0c0-1.5-1.31-2.39-3.5-2.39h-1.76v4.62h2.04C-2.02 2.23 0 1.94 0 0m.7-4.34A4.65 4.65 0 0 1 3.81.05c0 4.88-3.9 5.54-7.7 5.54h-5.04v-19.55h3.66v8.24h1.09c1.4 0 1.97 0 2.66-1.5l2.96-6.74h4.14L1.75-5.85c-.36.7-.68 1.17-1.06 1.5" clip-path="url(#X)" transform="matrix(.53313 0 0 -.53313 112.64 146.55)"/><path d="M0 0c-1.8.87-2.9 1.46-2.9 2.63 0 1.7 1.72 1.96 2.75 1.96a7.9 7.9 0 0 0 3.28-.73l.57-.21.56 3.46-.4.14c-1.26.44-2.77.7-4.14.7-3.91 0-6.44-2.19-6.44-5.57 0-3.43 2.64-4.67 4.76-5.66 2-.93 3.22-1.58 3.22-3.09C1.26-8.22-.63-8.9-1.9-8.9c-1.17 0-2.65.45-3.65.87l-.62.26-.38-3.52.38-.13a12.4 12.4 0 0 1 3.96-.8c4.55 0 7.26 2.24 7.26 6.01C5.06-2.43 2.26-1.08 0 0" clip-path="url(#Y)" transform="matrix(.53313 0 0 -.53313 121.04 147.63)"/><path d="M517.86 154.68h3.65v19.55h-3.65z" clip-path="url(#Z)" transform="matrix(.53313 0 0 -.53313 -149.54 236.46)"/><path d="M0 0h5.76v-16.2h3.66V0h5.75v3.35H0z" clip-path="url(#aa)" transform="matrix(.53313 0 0 -.53313 130.8 145.36)"/><path d="m0 0-5.12-7.9-5.24 7.9h-4.3L-7-11.45v-8.1h3.65v8.1L4.32 0z" clip-path="url(#ab)" transform="matrix(.53313 0 0 -.53313 147.7 143.57)"/><path d="M0 0c.89 0 1.67.3 2.42.92a3.04 3.04 0 0 1-.03 4.6c-.73.6-1.51.9-2.39.9a3.5 3.5 0 0 1-2.43-.9 3 3 0 0 1 0-4.63A3.71 3.71 0 0 1 0 0" clip-path="url(#ac)" transform="matrix(.53313 0 0 -.53313 69.74 119.08)"/><path d="M0 0c.9 0 1.71.3 2.4.92.7.66 1.06 1.43 1.06 2.29 0 .88-.36 1.65-1.06 2.3-.7.6-1.5.9-2.4.9-.95 0-1.75-.28-2.43-.89A3 3 0 0 1-3.5 3.21c0-.9.36-1.68 1.06-2.32A3.69 3.69 0 0 1 0 0" clip-path="url(#ad)" transform="matrix(.53313 0 0 -.53313 74.35 119.08)"/><path d="M0 0c0 2.46.86 4.45 2.62 6.08a9.2 9.2 0 0 0 6.44 2.44c2.57 0 4.68-.8 6.43-2.46A7.98 7.98 0 0 0 18.09 0c0-2.4-.88-4.42-2.61-6a9.12 9.12 0 0 0-6.42-2.46c-2.52 0-4.69.82-6.44 2.45A7.83 7.83 0 0 0 0 0m41.25-.3a7.8 7.8 0 0 0 2.62 6.07 9.16 9.16 0 0 0 6.46 2.42c2.53 0 4.69-.81 6.4-2.43a7.98 7.98 0 0 0 2.6-6.06 7.8 7.8 0 0 0-2.63-6.04 9.14 9.14 0 0 0-6.37-2.43c-2.53 0-4.7.82-6.46 2.43A7.78 7.78 0 0 0 41.25-.3m-62.04-12.88v4.44h-.5c-4.76 0-8 .35-9.66 1.03-2.92 1.2-4.28 3.57-4.28 7.46 0 2.09.65 3.98 1.93 5.62a6.35 6.35 0 0 0 5.16 2.67h8.58v-21.19h66.37c1.23-.29 2.44-.44 3.64-.44.85 0 1.7.08 2.52.23 3.23.56 5.83 2.12 7.94 4.76A13.6 13.6 0 0 1 63.88 0c0 3.75-1.32 6.93-3.9 9.47a13.33 13.33 0 0 1-9.67 3.82 13.4 13.4 0 0 1-9.7-3.83 12.8 12.8 0 0 1-3.93-9.48c0-3.39.95-6.28 2.83-8.6H19.19A12.58 12.58 0 0 1 22.56.2c0 3.75-1.3 6.93-3.88 9.46a13.26 13.26 0 0 1-9.63 3.8c-3.84 0-7.09-1.27-9.67-3.79A12.72 12.72 0 0 1-4.5.22c0-3.4 1.12-6.35 3.34-8.78h-13.73V12.6h-13.4c-3.14 0-6-1.54-8.5-4.58-1.98-2.33-2.98-5.28-2.98-8.77 0-3.39.98-6.04 3.18-8.59a10.8 10.8 0 0 1 2.75-2.2 8.84 8.84 0 0 1 1.7-.77l.4-.14c1.01-.4 3.37-.73 4.37-.73z" clip-path="url(#ae)" transform="matrix(.53313 0 0 -.53313 85.42 127.13)"/><path d="M0 0a3.4 3.4 0 0 1-2.38-.9 2.95 2.95 0 0 1-1.07-2.34c0-.94.36-1.73 1.06-2.33.66-.6 1.47-.91 2.39-.91.93 0 1.74.3 2.4.9a3.05 3.05 0 0 1 1.04 2.34A3 3 0 0 1 2.4-.91C1.74-.31.93 0 0 0" clip-path="url(#af)" transform="matrix(.53313 0 0 -.53313 137.33 135.73)"/><path d="M0 0v4.22L-26.34 25.7l-3.26-3.16L-7.72 4.49h-31c-1.47 0-2.74.14-3.67.4-1.18.33-2.35 1-3.44 1.93a9.06 9.06 0 0 0-2.02 3.37c-.18.66-.4 1.81-.4 3.59V35.7h-4.56V12.5c.1-2.03.36-3.26.52-3.84A12.41 12.41 0 0 1-43.92.52C-43.52.4-42.32.1-40 0z" clip-path="url(#ag)" transform="matrix(.53313 0 0 -.53313 149.77 134.14)"/><path d="M0 0c.95 0 1.77.3 2.43.9.68.6 1.02 1.38 1.02 2.31 0 .91-.34 1.69-1.02 2.3-.67.6-1.49.9-2.43.9a3.5 3.5 0 0 1-2.41-.9 3.02 3.02 0 0 1 0-4.6A3.5 3.5 0 0 1 0 0" clip-path="url(#ah)" transform="matrix(.53313 0 0 -.53313 47.5 119.08)"/><path d="M0 0c.96 0 1.75.3 2.4.9a2.9 2.9 0 0 1 1.07 2.31c0 .91-.36 1.69-1.06 2.3a3.4 3.4 0 0 1-2.41.9 3.5 3.5 0 0 1-2.4-.89 2.93 2.93 0 0 1-1.06-2.31c0-.96.35-1.71 1.05-2.3A3.43 3.43 0 0 1 0 0" clip-path="url(#ai)" transform="matrix(.53313 0 0 -.53313 42.71 119.08)"/><path d="M0 0v9.17a31.84 31.84 0 0 0 6.2 4.44c5.43 3.07 11.2 3.47 15.43 1.07a6.77 6.77 0 0 0 3.31-5.54A8.37 8.37 0 0 0 22 2.06C19.3-.02 15.6-.02 12.33-.02H5.15L0 0m57.99 4.86L57.98 0H49.1c-2.15.22-3.57.44-5.16 1.69a8.67 8.67 0 0 0-3.35 6.84 8.8 8.8 0 0 0 2.04 5.54c1.55 1.78 4.08 2.8 6.95 2.8h.1c2.98-.03 5.7-1.16 7.26-3.03.97-1.14 1.07-2.53 1.04-3.88V6.57zM-25.93-9.78a12.36 12.36 0 0 1 4.36 5.22h84.11V8.9c0 3-.16 5.65-2.2 7.95a13.6 13.6 0 0 1-7.24 4.19c-5.92 1.16-12.43-1.38-15.15-5.92-2.69-4.5-2.51-10.16.44-14.08l.14-.2c.23-.32.44-.6.63-.83H26.38l.52.63.2.25c3.88 4.86 3.19 12.73-1.43 16.58l-.13.1c-2.43 1.93-5.32 2.88-9.36 3.1-4.57.23-8.97-1-13.1-3.66-.98-.62-1.98-1.3-3.05-2.04v16.18h-4.54V.01h-15.83v13.66h-4.56V.44A7.4 7.4 0 0 0-27.17-5a6.94 6.94 0 0 0-5.54-2.03l-.54.03v-4.92h.5c2.5 0 4.79.72 6.82 2.14" clip-path="url(#aj)" transform="matrix(.53313 0 0 -.53313 17.86 131.71)"/></g></svg>