<svg xmlns="http://www.w3.org/2000/svg" xml:space="preserve" viewBox="0 0 278.7 304"><g fill-rule="evenodd"><path fill="#b2b1b1" d="m69.8 227.5 3-.3 2.8-.3 2.3-4-8 4.6M78 223l-1.1 2a46 46 0 0 0-1.2 2l1.2 2.7 1.2 2.6v-9.4M78 212.8l-1.1 2.6-1.2 2.7 1.2 2 1.2 2V212.8M77.8 222.2a63.6 63.6 0 0 0-2.3-4l-5.6-.6a225.3 225.3 0 0 0 8 4.6M77.8 222.6H73l-3.2 4.5-.1.2 4-2.3 4-2.4M81 222.4h2.3l1.7-2.3 1.7-2.4-8 4.7H81M74.6 222.4h3.2l-8.1-4.7 1.7 2.4 1.7 2.3h1.5M78.3 223v9.3l1.2-2.7 1.1-2.6-1-2-1.3-2M78.5 222.1v.1a1069.7 1069.7 0 0 0 8-4.6l-5.7.6a49 49 0 0 0-2.3 4M78.5 222.8l1.2 2.1 1.1 2a857.2 857.2 0 0 0 5.8.6l-8-4.7M83.3 222.6H78.6a825.6 825.6 0 0 0 8 4.6l-3.3-4.5v-.1M79.5 220l1-2c-.1-.6-2.2-5.1-2.2-5.2a124.1 124.1 0 0 0 0 9.3l1.2-2M197.6 222.9l-1.1 2-1.2 2.1 2.3 5.2v-9.3M194.2 222.4h3.2l-8.2-4.7 1.7 2.4 1.7 2.3h1.6M189.4 227.5a221 221 0 0 1 5.7-.6l2.3-4-8 4.6M197.3 222.6H192.6L191 225l-1.6 2.4 4-2.4 4-2.3M204.5 224.9l-1.7-2.3h-4.6a1250.3 1250.3 0 0 0 8 4.6l-1.7-2.3M197.4 222l-1.2-2a15 15 0 0 0-1.2-1.9 289.1 289.1 0 0 1-5.6-.5 574.4 574.4 0 0 0 8 4.5M198.2 222.1a184.7 184.7 0 0 0 7.8-4.6l-5.6.7a300.6 300.6 0 0 0-2.2 4M197.8 227.6v4.7a279.4 279.4 0 0 0 2.4-5.4l-2.3-4v4.7M206 227.4l-8-4.6 2.4 4a317 317 0 0 0 5.7.6M198 222l1-2 1.2-1.9-2.3-5.2v9.1M198.3 222.3c-.1.1-.1.1 2.2.1h2.4a300.4 300.4 0 0 1 3.3-4.6h-.1l-4 2.3-3.8 2.2M195.3 218a254.2 254.2 0 0 0 2.3 4.1 286 286 0 0 0 0-9.3l-2.3 5.3M61.6 130.4a272.6 272.6 0 0 0 5.7.6l-8-4.7 2.3 4M56.1 130.4h.2l1.1-2 1.2-2-8 4.5-.1.1h.2l2.7-.3 2.7-.3M58.8 118.6v-2.3L58 118l-1.2 2.6-.4.9 1 1.7 1.2 2 .2.3v-7M58.8 126.4l-1.2 2-1.1 2 2.2 5.3.1-2.3v-7M56.2 121.6a167.2 167.2 0 0 1-5.6-.5l8 4.6a104.5 104.5 0 0 0-2.4-4M59 121v4.6a139.7 139.7 0 0 0 2.4-4l-2.4-5.3v4.7M59 135.7a252.4 252.4 0 0 0 2.4-5.2l-2.4-4a116.4 116.4 0 0 0 0 9.2M61.7 121.6c-.1 0-.2.1-1.2 2l-1.2 2v.1a908.4 908.4 0 0 0 8-4.6 126.2 126.2 0 0 0-5.6.5M67.4 121.3l-.3.1a3817.5 3817.5 0 0 0-7.7 4.5H64l1.7-2.3 1.7-2.3M50.4 130.8a615.5 615.5 0 0 0 8-4.7h-4.6l-1.7 2.3-1.7 2.4M67.3 130.7a421.3 421.3 0 0 0-3.3-4.5H59.3l4 2.3a1126 1126 0 0 0 4 2.2M52.1 123.6l1.7 2.3H58.5l-8.1-4.7 1.7 2.4M218.6 114a100.6 100.6 0 0 0 0 9.3 222.5 222.5 0 0 0 2.3-4.2l-2.3-5M211.6 121.2l1.7 2.4h4.8l-8.2-4.7 1.7 2.3M219.4 123l4-2.3 3.3-2-5.6.7-2.3 4 .6-.4M210.2 118.7a460.8 460.8 0 0 0 8 4.6l-1.2-2-1.2-2-5.6-.6M218.4 123.3a333.1 333.1 0 0 0 0-9.3l-1.3 2.7-1.1 2.5v.2l1.3 2 1 1.9M218.6 133.5l1.1-2.7 1.2-2.7-2.3-4v9.4M218.3 133.4a288.2 288.2 0 0 0 0-9.3l-2.3 4a394.9 394.9 0 0 0 2.3 5.3M227 119l-8.1 4.6a65.8 65.8 0 0 0 4.7 0 137.1 137.1 0 0 1 3.3-4.7M221.2 128a1064.8 1064.8 0 0 1 5.7.7l-8.2-4.7a77.8 77.8 0 0 0 2.5 4M226.9 128.4l-1.7-2.4-1.7-2.2H219a1784 1784 0 0 0 7.9 4.6M213 128.4l2.8-.3 2.3-4-8 4.5 2.9-.2M210 128.5l4-2.4 4-2.3H213.3a228 228 0 0 1-3.3 4.7M138.4 58.6v-7l-1.2 2.6A134 134 0 0 0 136 57l1.2 2 1.2 2v-2.3M133 56.7l-2.8-.3a1223.7 1223.7 0 0 0 8 4.5c-.2-.1-2.3-3.9-2.3-3.9l-3-.3M146.7 56.4a401 401 0 0 1-5.6.6 125.8 125.8 0 0 0-2.3 4 394.4 394.4 0 0 0 8-4.6M141.2 65.7a458.2 458.2 0 0 0 5.6.6 2769.5 2769.5 0 0 0-8-4.7 77.5 77.5 0 0 0 2.4 4.1M138.3 71v.1a270 270 0 0 0 0-9.3l-2.3 4 1.1 2.6 1.2 2.6M130 66.1l4-2.3 4-2.3h-4.6a252.9 252.9 0 0 1-3.4 4.6M131.6 58.9l1.7 2.3h4.8l-8.1-4.6 1.6 2.3M138.6 56.3V61a133.3 133.3 0 0 0 2.3-4l-2.3-5.2v4.6M141.2 61.3h2.4l1.7-2.4 1.7-2.3-8 4.6h2.2M133 66l2.8-.3 1.2-2a4504.6 4504.6 0 0 0 1.1-2 1236.2 1236.2 0 0 1-8 4.6l2.9-.3M146.9 66l-1.7-2.4-1.6-2.2H138.9a971.2 971.2 0 0 0 8 4.6M138.6 71l1.1-2.5L141 66v-.2l-1.1-2-1.2-2a225.3 225.3 0 0 0 0 9.2M60.7 181.1c.7.8 1.4 1.4 2 1.6H64l-.2-.2-1.2-1.2a12 12 0 0 1-1.7-4.5 23.1 23.1 0 0 1-.3-2.3l.1.6.8 3.3c.6 2 1.4 3.3 2.4 4l.3.2.4-.4c.4-.4.5-.9.6-1.6a7 7 0 0 0-.5-2.6 5.1 5.1 0 0 0-1.5-2.5l-1-1a30.9 30.9 0 0 1-2.6-2.3v.5c-.7 3-.6 5.4 0 6.7.1.4.8 1.3 1.1 1.7M54.5 163a14.7 14.7 0 0 1 1.6 4.2v-1.3a17.7 17.7 0 0 0-1.3-5.1c0-.1 0-.1 0 0a15.8 15.8 0 0 1 1.5 7.7v1.3l-.5.8v.1l.1.3.3.6v.3h.3c1.1-.6 2-2.1 2.3-4.3v-1.7c0-1.3 0-1.6-.2-2.1-.2-.7-.7-1.6-1.3-2.3a19.3 19.3 0 0 0-3.2-3v.3l-.6 2.2-.2.7.5.5.7.9"/><path fill="#b2b1b1" d="M48.5 163.8c0 1.4 0 1.8.2 2.6 0 .6.4 1.5.5 1.5h1l2.7.5c.1 0 .1 0 0-.2v-.3a23.2 23.2 0 0 0-2.9-5.7c-.3-.5-.3-.6-.2-.6l.3.3a28.4 28.4 0 0 1 3.2 6.6l.9.4 1 1 .2.2.2-.3c.3-.9.1-2.2-.5-4-.3-1-.8-2-1.2-2.6-.7-1-2.4-2-4.5-3.2l-1-.3v.5c.1.5.2 1.6.1 3.6"/><path fill="#b2b1b1" d="M55.2 173.8c-1.3-.4-3-1.4-4.8-2.9a13 13 0 0 1-1.4-1.4l.5.3c2 1.9 4.1 3.3 5.7 3.8.4 0 .4 0 .5-.3v-1c-.1-.8-.6-1.6-1.3-2.3-.8-.9-1.6-1.2-3.7-1.4a44 44 0 0 1-2.9-.3l.4 1.5a7.5 7.5 0 0 0 2.6 4l1.5.7c.6.2 1.3.3 1.8.2.4 0 .8-.3 1.1-.6.2 0 .3-.2.3-.2l-.3-.1M52.8 183.9l.3-.3a6.4 6.4 0 0 1 2.8-1l-.5-.4a11.5 11.5 0 0 0-4.2-1.7v-.2l1.6.4c1.1.4 2.2 1 3 1.6l.4.2h1.3c.8 0 .9 0 .8-.1l-.3-.5a7.3 7.3 0 0 0-3.9-2.6 10.7 10.7 0 0 0-4.8.5l.4.5.7 1.1a7.3 7.3 0 0 0 2.4 2.5M73.3 176.4"/><path fill="#b2b1b1" d="M58.4 184.6c-1.8.2-3.8 1-5.4 2.1-.3.3-.4.3-.4.2 0-.2 1-.8 1.9-1.3a9.6 9.6 0 0 1 7-1l-.3-.3c-.5-.5-1.4-1-2.5-1.2h-3a8 8 0 0 0-1.6.6 5.8 5.8 0 0 0-2.8 4.6v1l.3-.2c2-1.3 3.4-1.7 7.3-2.1 1.2-.2 1.6-.3 2-.6.4-.2.6-.6.7-1.2v-.3h-.3c-.9-.3-2-.4-3-.3M212.7 176a83 83 0 0 0-15.2 11.9l1-.7a71.2 71.2 0 0 1 17.9-10.5l.5-.2.2-.3c.8-1 1.8-2 2.8-2.8a36.2 36.2 0 0 1 5.7-3.4l-1.9.6a67.3 67.3 0 0 0-11 5.4M175.6 213.5l-.9 1.1a15.8 15.8 0 0 0 1.2 1l.4-.4.4-.4-.4-.5a27.2 27.2 0 0 1-.7-.8"/><path fill="#b2b1b1" d="M217.2 177a66 66 0 0 0-23.1 15 35.3 35.3 0 0 1 3.4-2.8c6-5 11.9-8.3 17.8-10a28.5 28.5 0 0 1 15.6-.6l-1.7-.8c-2-.8-3.8-1.3-5.7-1.5a21 21 0 0 0-6.3.6M176.5 212.4h2.2l.4-.4.3-.4-.7-.3a42 42 0 0 1-1-.5l-1.2 1.6"/><path fill="#b2b1b1" d="M226.7 178h-4a42.3 42.3 0 0 0-23.5 10.3 63.5 63.5 0 0 1 4.6-2.4 56.6 56.6 0 0 1 10.1-3.6c.1-.2 2-1 3-1.5 2.3-.9 4.7-1.4 8-1.6a84.1 84.1 0 0 1 7.2 0 17.2 17.2 0 0 0-5.4-1.2M167.1 227.4c-.3.6-.6 1-1.2 1.6-.8.8-1.7 1.3-2.8 1.5h-1v-.2l.5-.1c.5 0 1-.2 1.4-.4a5.7 5.7 0 0 0 2.8-2.7l.3-1c0-.4-.1-.6-.4-.8-.5-.3-1.4 0-2.6 1-.6.6-1.3 1.4-1.5 1.9l-.1.4.4.2c.4 0 1.3-.6 1.7-1 .1-.3.2-.3.3-.2.1.1.1.2 0 .4-.6.7-1.7 1.3-2.2 1.2a.7.7 0 0 1-.5-.4c-.2-.3-.1-.5 0-.8.5-1 1.8-2.3 2.9-2.8.6-.4 1.3-.5 1.7-.3.5.2.7.5.7 1s-.1 1-.4 1.5zm6.6-10.8-.1-.6-.7.7a41 41 0 0 1-7.3 7l-1.6 1a8.4 8.4 0 0 0-2.8 6.1v.2l.3.2c.5.1.8.2 1.4.1h.8c1-.3 1.8-.8 2.8-1.7 1.2-1.2 2.1-2.8 2.8-4.7l.5-1a56.7 56.7 0 0 1 4.2-6v-.4l-.3-1M195.7 196.4a16.3 16.3 0 0 0-6 2.4c2-1 4-1.6 5.8-1.5.7 0 1.1 0 1.7.3a7.2 7.2 0 0 1 3.5 2v-.2l-.3-.4c-.7-1.3-2-2.1-3.9-2.5-.4-.1-.5-.1-.8 0"/><path fill="#b2b1b1" d="M207 192.7a21.9 21.9 0 0 0-18.9 6.6l.5-.4a17.3 17.3 0 0 1 7.4-3l.6-.3a23 23 0 0 1 7-2 27 27 0 0 1 8.7.7l-1-.5c-1.2-.5-2.9-1-4.3-1.1"/><path fill="#b2b1b1" d="m203 190.3-2.3.6a29.2 29.2 0 0 0-9 5l.8-.4a22.2 22.2 0 0 1 18.7-2l.5.3c.2 0 .1 0-.2-.3a10.3 10.3 0 0 0-3.9-2.6c-1-.3-2-.5-4-.5l-.7-.1M189.5 190v-.8l-.2-.9-.8-2.2-.7-1v.1l-.1 5.4c-.2 3-.9 5.6-2 8.3-.7 1.4-1.8 3.4-2.6 4.6l-.1.2.3.2a2 2 0 0 1 .5.3l.2-.2c1-1 2.4-3 3.1-4.6 1.3-2.2 2.1-5.7 2.4-9.4M200 199.2c-.8-.6-1.6-1-2.4-1.3-2.8-1-6.1-.2-9.8 2.3-.8.5-1 .7-1.5 1.5l-2 2.6-.2.2v.2l.4.8.8-.7c1.5-1.8 2.9-3 4.3-4 3.2-2 6.3-2.6 9.2-1.5a13.2 13.2 0 0 1 2.2 1s-.5-.7-1-1.1"/><path fill="#b2b1b1" d="M224.8 187c-1-.8-2.1-1.4-3.4-1.8-3-1-6.3-1-10-.3a44.3 44.3 0 0 0-15.8 7.8 26.2 26.2 0 0 1 7.3-2.9l3.1-1.5a24.4 24.4 0 0 1 14.1-2.7c1.8.3 3.5 1 5.6 2.2.2 0-.4-.5-.9-.8"/><path fill="#b2b1b1" d="M212 183.3a52.5 52.5 0 0 0-16.4 7.9 57.2 57.2 0 0 0-4.5 4.4 48 48 0 0 1 22.8-11.3c4-.4 7.7.3 10.5 2.1a9.7 9.7 0 0 1 1.4 1.2l-.5-.9a8.4 8.4 0 0 0-6.1-4 18.8 18.8 0 0 0-7.1.6M192.7 183.4a39 39 0 0 1-2 9.3c1.2-2.5 3-7 4-9.5l.2-.6-.1-.8a17 17 0 0 0-2.2-5.7v.4c.3 2 .3 4.6.1 6.9M197 186l.6-.7a124 124 0 0 1 11.3-12.6l-1.5.6c-1.3.7-2.3 1.6-3.7 3.4a222 222 0 0 1-4.4 5.9L197 186M189.6 197.1c.2 0 .3-.2.3-.2l-.5.4.2-.2M191 194l-.6 1 1.6-2.2 8.5-12.9.7-1v-.7c0-1 0-1.9.2-3.3l-.8 1.6c-2.8 5.4-6.2 11.7-9.6 17.6"/><path fill="#b2b1b1" d="M195.1 188.9a61.7 61.7 0 0 0-1 1.8 353.3 353.3 0 0 1 11.3-12.7 130.7 130.7 0 0 1 3.8-5.3l-2.5 2.4A120 120 0 0 0 195 189M189 196a40.8 40.8 0 0 0 3.7-15.8c0-1.7-.1-2.8-.3-4-.1-.7-.1-.6-.2.6a57.6 57.6 0 0 1-2.3 13 31.2 31.2 0 0 1-.9 6.2M205.7 178.4l-8.5 9.3-.8 1 1-1 1.6-1.6a82.7 82.7 0 0 1 24-15.5 39.6 39.6 0 0 1 2.3-.9l-2.3.1c-3.7.5-7.8 2-12.1 4.8a49.2 49.2 0 0 0-5.2 3.8M190.1 195.1l.6-1a355.5 355.5 0 0 0 10.6-19.7l-1.9 1.6a19 19 0 0 0-3.6 5.8l-.4 1-.4.8A178.6 178.6 0 0 1 190 195M114.4 230.7h-.6a6 6 0 0 1-3.7-2.6c-.5-.7-.7-1.2-.7-1.8 0-.5 0-.8.3-1 .6-.8 1.8-.5 3.2.8 1 .8 1.9 2 1.9 2.5 0 .2-.3.5-.5.6h-.8c-.5-.2-1.2-.7-1.5-1.1-.2-.2-.2-.4 0-.4.1 0 .2 0 .3.2.4.5 1.4 1 1.8 1l.3-.3c0-.3-.9-1.4-1.7-2.1-1.2-1.2-2.3-1.5-2.8-1-.5.6 0 2 1 3.1 1 1 2 1.5 3.3 1.7l.6.1c0 .2 0 .3-.4.3zm-1-5.2a7.7 7.7 0 0 0-2-1.6c-.6-.2-1.1-.6-1.7-1a54.4 54.4 0 0 1-6.4-6.6l-.3 1.5-.1.4.5.6a67.5 67.5 0 0 1 4.2 6.2c.3.9.9 2.2 1.4 3 1 1.5 2 2.6 3.3 3.2a4.1 4.1 0 0 0 3.2.2h.3v-.3a8.7 8.7 0 0 0-2.3-5.6M93.5 204.2l-.4-.5a31.2 31.2 0 0 1-1.7-2.2 116.8 116.8 0 0 1-.4-3.6h-.6a16.6 16.6 0 0 0 .2 2s-.3.2-.4.1l-5.5-5.2.2-.7c0-.4.2-.7.2-.7h-.2l-.4-.1-.2-.1-.1.2-.2.3s-.1.2-.3.2l-3.2-2.2-3.3-2.2-.5-1-.3-1H76l-.2.1v.5l.2.6c0 .2-.1.3-.3.3l-6.4-2.3v-.6l-.2-.6H69l-.5.1h-.2v.6c0 .2-.2.2-.3.2l-1.7-1.7-1.5-1.7-.5.2.7.8.6.9c0 .2-.2.3-.3.3a18.3 18.3 0 0 1-5.9-4.4 47 47 0 0 1-3-5.6l-.4-1-.3.3-.4.4.5 1 1.7 3.7c.7 1.5 1.1 2.1 1.6 2.7l.4.4.3.1 1.3.6 1 1v.3l.9.5c2.3 1.4 2.3 1.4 6.2 2.7 4 1.5 5.2 1.9 6.7 2.6a122 122 0 0 1 8.7 6c.1 0 .1.2 0 .4l-1.4.4a143.6 143.6 0 0 0-1.5.5v.4l-.1.2 1.8-.4 2-.4 4.4 4v.3l-.9.4-.8.3.1.2.2.2.8-.3 1-.2 1.3 1.5 1 1.4.2-.3.5-.6.3-.3M86.2 202.4c-1.1.2-1.7 1.5-1.1 2.4.4.5 1 .8 1.7.6.7-.2 1.2-.9 1.1-1.7 0-.8-1-1.4-1.7-1.3M99.3 211l-.3.2-.9.4-.5.3.3.4c.2.1.2.2.2.3H100.5l-.6-.7-.6-.8"/><path fill="#b2b1b1" d="M76 186.9a35.7 35.7 0 0 0-3.7-9.1l.6 1a26 26 0 0 1 3.2 7.7c0 .4 0 .4.3.3 1-.7 1-3.2 0-5.7-.1-.6-.7-1.6-1-2a14 14 0 0 0-4.8-3.4l.4 3.2c.2 1.9.4 2.7.7 3.7.2.8.5 1.5.9 2 .8 1.5 2 2.3 3 2.3h.3M101.3 213.7s0 .2-.2.3l-.5.6-.4.4.1.1.4.5.4.4.2-.2a39.8 39.8 0 0 0 1-.9l-1-1.2M65 189.6c.8-.5 1.5-.7 2.8-1h.3-1.3c-1.6 0-2.8.3-4 1-1.3.7-2 1.7-2.5 3l-.4 1.8h.2a8.7 8.7 0 0 1 1.3-.6l.5-.2.2-.4a7.8 7.8 0 0 1 3-3.6"/><path fill="#b2b1b1" d="M71.7 189.5h-.5l-.4.1c-2.4.4-4.9 1.7-7 3.7-.3.3-.5.4-.5.2l1.4-1.2a15 15 0 0 1 6.1-3h-.3c-1.7-.2-3.4 0-4.4.4a7.4 7.4 0 0 0-4 7.2s.2 0 .3-.2l.6-.7c1.6-1.8 3.7-3 7.2-4.4 2-.7 2.5-1 2.8-1.2l.1-.1v-.1c-.2-.3-.7-.5-1.4-.7M74 177c.8.5 1.6 1.3 2 1.9.4.5.8 1.3 1 2.1l.3.5v-.3l-.1-.7c-.2-1.7-1-3.5-2-4.8-.2-.2-.2-.2-.1-.3h.1a8.3 8.3 0 0 1 1.7 2.9c.4 1.1.6 2.5.6 3.6v1c.2.6.3 1.3.2 1.9 0 .6 0 .6.4 0a8.2 8.2 0 0 0 1-5c-.2-1-.8-2.2-1.7-3.3a24.7 24.7 0 0 0-3-2.9v.7c0 .7-.1 1.2-.3 2l-.1.6M90.8 192c-1.1 1.7-1.7 4.1-1 4.8l.1.2v-.1l.7-1.5a12 12 0 0 1 4.4-5v.1l-.4.5a10 10 0 0 0-3.2 3.3l-1.3 2.8 1.1.3h.6a6 6 0 0 0 3.8-2c.5-.6.7-1.1 1-3 .5-2 .7-2.7 1.3-3.7l.1-.2h-.2c-1.7.3-3.6 1-4.8 1.5-1 .5-1.6 1-2.2 2M84.7 192.7h1c.6-.2 1.1-1 1-1.7-.1-.9-1-1.5-2-1.2-.3 0-.6.3-.8.5-.6.9-.2 2 .8 2.4"/><path fill="#b2b1b1" d="M87.3 191.2c0 .3 0 .7-.2 1v.5a5.9 5.9 0 0 0 1.8 3v-.2c0-.6.2-1.3.4-2l.2-.4-.2-.4-.5-2c-.2-1.4-.2-2.8.2-3.8.1-.6.5-1.1.6-1.1v.3c-.8 1-1 3.2-.4 5.5l.4 1.2.2-.4 1-1.4a5.5 5.5 0 0 1 1.7-1.4l-.3-1-.7-1.5c-.7-1.5-1-2.3-1.3-3.3v-.2H90c-.3.3-1 1-1.3 1.5a8.6 8.6 0 0 0-1.9 4v.8c.3.3.5 1 .5 1.3M79.4 178.6a6.3 6.3 0 0 1 .3 3.3l.4-1.1a21.2 21.2 0 0 0 .8-4.9v.2a16.9 16.9 0 0 1-1.2 6.2l-.3.9a9.1 9.1 0 0 1-.7 1.8l.4.1h.4c.6-.3 1.4-1 1.9-1.7.6-1 1-2 1.1-3.3v-2.6a8.7 8.7 0 0 0-1.5-3.8l-.2-.2c-.3 1-.9 1.8-1.7 3l-.5.6.1.2.7 1.3M80.8 199.3l-.4.5a15.1 15.1 0 0 1-5.7 4c-.5.2-.7.2-.7 0l.4-.1a15 15 0 0 0 6.2-4.5l-.5-.4c-.5-.2-.7-.2-1.3-.2h-1c-1 .4-1.8.8-2.6 1.7l-1.4 1.8a10.7 10.7 0 0 1-2.6 3l-.4.2h.2a9.8 9.8 0 0 0 3.4.3 8 8 0 0 0 3.3-1.1 15 15 0 0 0 2.8-2.6l.7-1.3c.1-.5 0-.9-.2-1.2l-.2-.1M72.6 202.7a48.2 48.2 0 0 0 1.9-2.9l-2 1c-1.2.4-2.4.6-3.3.5-.5 0-.7 0-.7-.2h.2l2.4-.1c1-.2 2.2-.7 3.2-1.3l.3-.2-.5-.2-1.2-.4-.8-.4H72l-.9.5a20.8 20.8 0 0 1-5.8 2.4l.6.2c2.1.7 4 1.1 5.7 1.3.8.1.7.1 1-.2"/><path fill="#b2b1b1" d="M70.3 196.2c0-.2 1.8-.5 2.9-.6.7-.1 2.3-.2 3-.1 1.6.1 3 .6 4.2 1.3l.7.5c0 .2-.1.1-.4 0-.6-.5-1.3-.9-2.1-1.1-2.1-.7-4.8-.7-7.6 0h-.7zm4 2.6.9.2.4.1.3-.2.7-.4c1.3-.7 2.7-.7 3.8-.2.4.2.4.2.6-.2.3-.7 0-1.5-.8-2.2-1-.8-2.5-1.4-4-1.6h-2.9a7.2 7.2 0 0 0-5 2.6h.4c1.2.2 2.2.4 3.6 1l2 .9M63.6 175l.2.2v-.3c.1-.8.4-1.8.7-2.7l.3-.5-.2.7c-.3 1-.6 2.1-.6 2.8v.3l.3.3c.4.5.7 1 1 1.9l.5 2.2v.2-.1l.3-.5c.4-.6.6-1.6.8-2.5.2-1.6.1-2.2-.6-4l-.8-2.5-.2-.8v-.1l-.5.4a8.1 8.1 0 0 0-2.5 3.4v.5l1.3 1.1M181.7 208.6l.1.1.8-.8v-.2l-.8-.6-.1.2c-.5.7-1.4 1.1-2.8 1.3l-.4.6c1.5-.8 2.6-1 3.2-.6M69 185l1-.7c.2-.4.2-.9.1-1.3 0-.3-.3-.6-.6-.8a1.5 1.5 0 1 0-.4 2.7M95.3 207.5l-.1-.1-.7.5-.2.1.4.5.4.5h.2c.2-.3.4-.3 1-.3.4 0 .7.1 1.4.4.3 0 .6.2 1 .4l-.5-.6c-.8 0-1.3-.2-1.9-.5-.4-.2-.9-.6-1-.9M127 91.3l-.3.2-.8.7H127.2l.3-.3a6.8 6.8 0 0 1 .5-.6h-1M129.4 90.1a.8.8 0 0 0-.4 1.6c.2.1.5.1.8 0 .3-.1.4-.4.5-.7 0-.2 0-.4-.2-.6a.8.8 0 0 0-.7-.3"/><path fill="#b2b1b1" d="m128.3 90.6-.5.3-.4.2h.5l.4-.1.1-.2v-.2M132.5 98.6l1 1c.4.2.7.3 1 .2.4-.2.7-.4.9-.9l.1-.4h-3.1l.1.1M130.5 93.7v.7l.1.3h5.4V94l.1-.4h-5.6M131.6 97.3l.5.8.1.1h3.4v-.1l.1-.4.1-.3v-.1h-4.2M131 96l.3.6.2.4h4.3V97l.1-.5V96H131M133.4 92.5h-3v1H136.1l.1-.6v-.4h-2.8M129.6 96.7c-.9-.2-1.5.8-1 1.4.3.3.7.4 1 .2.2 0 .4-.2.5-.4.2-.5 0-1-.5-1.2M126.3 95.8l-.1-.5v-.4h-1V95.8h1.1M125.6 92.6l-.3.6v.3h1.2v-.2l.5-.7v-.1h-1.3l-.1.1M129.2 94.4c0-.4-.2-.6-.5-.8a1 1 0 0 0-.7 0 1 1 0 0 0-.5.9c0 .5.7.9 1.2.7.3-.2.5-.5.5-.8M126.5 97v-.2l-.2-.5V96h-1l.4.9h.8M125.9 97.3l.5.7.2.2h.6l-.2-.3-.3-.5v-.1h-.8M126.8 98.5l.2.1 1.3 1-.2-.3-.6-.6-.2-.2h-.5M126.2 94.4l.1-.5.1-.2h-1.2v.6l-.1.4h1.1v-.3M140.5 96v1h4.4l.2-.4.3-.5h-4.9M145.9 92.2l-.3-.8v-.1H140a40.2 40.2 0 0 0 .1 1h5.8M140.8 98.5l.6 1c.4.4.8.4 1.3.2l.5-.3.8-.9h-3.2M140.4 95.2v.6h5l.2-.3V95l.1-.1h-5.3v.3M140.6 97.3l.2 1h3.4l.2-.3c0-.2.2-.4.3-.5v-.2h-4.1M146.9 90.1c-.5 0-.8.3-.9.7a.9.9 0 1 0 1.7.2c0-.2 0-.4-.2-.6a.8.8 0 0 0-.6-.3M130.7 91.5l-.1.5-.1.3h5.8v-1H131l-.2.2M140.3 93.7v1h5.5v-.4l.1-.5v-.2h-5.6M146 92.5H140l.1.9h5.8v-.9M145.4 91l-.7-.7-.2-.2h-4.6v1h5.5M138.2 96.1c-.3 0-.5.1-.7.3-.4.6-.1 1.4.6 1.5h.2c.3-.1.5-.3.6-.5a.8.8 0 0 0-.7-1.3M134.2 90h-2.3l-.4.4a4 4 0 0 0-.4.6h-.1 5.4l.1-.9h-2.3M136 88.8c-1.4.1-2.4.3-3.2.8-.7.3-.9.3 1.6.3h2.2v-1.1h-.6M144 89.8l-1-.5a11.2 11.2 0 0 0-3.3-.5l.1 1h4.2M148 95.2c.2 0 .4-.3.5-.4.2-.3.2-.6 0-.9a.8.8 0 0 0-1.5 0c-.1.4 0 .7.1 1 .3.3.6.4 1 .3M147.2 98.3c.6-.3.7-1.1 0-1.5-.3-.2-.6-.2-1 .1-.3.3-.3.7-.1 1 0 .2.3.4.4.4h.7M148.8 91l-.4-.1a5 5 0 0 0-.5-.2v.3h.9M138.2 94.8c.2 0 .3 0 .4-.2.4-.2.5-.7.3-1a.9.9 0 0 0-.6-.5c-.6-.1-1.2.5-1 1.1.2.4.5.6 1 .6M138.4 91.6c.3 0 .4-.2.5-.4a.8.8 0 1 0-1.6-.3c0 .5.6.9 1.1.7M130.7 94.9l.1.5.1.4h5v-.3l.1-.5v-.1H130.7M143 105.3a50.2 50.2 0 0 0-11.4.6 43.8 43.8 0 0 0 9 .3 42.5 42.5 0 0 0 5-.5l-.4-.1-2.2-.3M140 82.2c.2-1.2-.8-2.3-2-2.2-.7.1-1.2.6-1.5 1.2v1c0 .7.7 1.2 1.3 1.4h.8c.7-.2 1.3-.7 1.4-1.4M123.6 94.7a1 1 0 0 0-.5-.6.9.9 0 0 0-1.2 1 .9.9 0 1 0 1.7-.4M138.5 84.4h-.6l-.3 2.4H138.9l-.2-1.2-.2-1.2M124.8 91.7V91a1 1 0 0 0-.7-.5c-.6 0-1 .5-.9 1 .2.5.6.8 1.1.6.2 0 .5-.2.5-.4M124.1 97.4c-.5 0-.9.3-.9.8 0 .7.7 1 1.3.8.4-.2.5-.8.3-1.2a.8.8 0 0 0-.7-.4M149.1 98.5h-.2l-.2.2a12 12 0 0 1-.8 1l.4-.3c.3-.2 1-.8 1-1h-.2M149.8 93.7a4.1 4.1 0 0 1 .2 1h1.1v-1h-1.3M152.7 94.5c-.2.3-.1.7.2 1 .3.3.6.3 1 .2.6-.4.6-1.3-.1-1.6a.9.9 0 0 0-1 .4M150 95.3v.5h1v-.1a5 5 0 0 0 .1-.7v-.1h-1v.4M149.5 91.5l-.3-.2h-1l.1.1.5.5.2.4h.7c.6 0 .7 0 .6-.1a4 4 0 0 0-.8-.7M151.8 92c.2.2.4.2.6.1.2 0 .5-.3.6-.5.1-.4 0-.9-.5-1-.6-.3-1.3.2-1.2.9 0 .2.2.5.5.6M151.8 97.4a1 1 0 0 0-.5.8c0 .4.3.8.7.9h.4c.6-.2.8-1 .4-1.5a.9.9 0 0 0-1-.2"/><path fill="#b2b1b1" d="M151 96.7a7.2 7.2 0 0 1-3.4 3.5c-.7.4-1 .5-1.1.4v-.2l.3-.4 1.6-1.6c.7-.9 1-1.7 1.2-2.7 0-1 0-1.6-.4-2.3-.3-.6-.8-1.4-1.3-1.8l-.1-.1-.2.1a1 1 0 0 1-1.2.3c-.2-.1-.2-.1-.2 0 .2.4.2 1.5 0 2.2a10.3 10.3 0 0 1-2.7 5.4c-.5.6-1.1.8-1.6.7-.9-.3-1.4-1-1.6-2.3L140 95a129.7 129.7 0 0 0-.6-6.7c.1 0 1.7 0 2.6.2 1.6.4 2.9 1 3.6 2l.2.2.3-.6c.1-.1.1-.1 0-.2l-.2-.1c-.2-.2-.2-.3 0-.4l1 .3 2 .9c1.1.5 1.9 1.2 2.3 2 .5 1.1.4 2.7-.1 4zm-3.3-3.4a1 1 0 0 1 1.1 1.1c0 .4-.2.7-.6 1h-.8c-.2-.1-.5-.4-.6-.7a1 1 0 0 1 .9-1.4zm-2 4.2a1 1 0 0 1 1.8-.7 1 1 0 0 1-.9 1.8 1 1 0 0 1-.8-1.1zm-6.6 0c-.2.4-.8.7-1.2.5-.7-.2-1-.9-.7-1.5a1 1 0 0 1 1-.6c.4 0 .7.2.9.6v1zm-2-8.8-.7 6.4c-.2 2.4-.3 3.2-.7 4-.4 1-1.2 1.3-2 1-.8-.3-1.9-1.5-2.7-3.1-.3-.6-.5-1-.6-1.7a6.7 6.7 0 0 1-.2-3.6c-.4.3-.9.4-1.2.2l-.5-.4-.3.2c-.7.7-1.3 1.6-1.5 2.3v1c0 2 .7 3.3 2.8 5.1l.3.3c0 .3-.2.3-.7 0a7.5 7.5 0 0 1-4-3.6 5.4 5.4 0 0 1-.1-3.8c.3-1 1-1.7 2.3-2.3a21.5 21.5 0 0 1 3-1.2c.2.1.1.3-.2.5v.2c.3.2.3.4.4.7v.2l.2-.3.5-.6c1-1.1 2.8-1.7 5.3-1.8h.6v.3zm-9.2 6.6a1 1 0 0 1-.3-1.7 1 1 0 0 1 1.3-.1 1 1 0 0 1 0 1.8h-1zm1.2 3.3a1 1 0 0 1-.8-.7 1 1 0 0 1 .3-1.1 1 1 0 0 1 1.4 0c.3.2.4.5.4.8-.1.7-.6 1-1.3 1Zm8-5 .7-.7c.5-.2 1.1 0 1.3.6.1.2.1.5 0 .8 0 .2-.3.5-.5.6h-.8a1 1 0 0 1-.6-1.4zm.1-3.3.5-.5h.5c.3 0 .5 0 .7.3l.3.6c0 .4 0 .6-.3.8a1 1 0 0 1-.7.3 1 1 0 0 1-.4 0l-.6-.5v-1zm13.7.6-.5-.3a20.9 20.9 0 0 0-9.1-3l-3.2-.2c-1.5 0-2.3 0-3.6.2-3.8.4-7.1 1.4-9 3-.5.3-.5.3-.4.4v.3c0 .7-.5 1.1-1.1 1h-.3l-.1.4-.4 1v.3c.5.2.7.9.5 1.3 0 .2-.4.5-.5.6l.4 1 .2.3h.3a1 1 0 0 1 1 1.3v.1l.3.3c.9.7 2 1.3 3.3 1.9.4.2.6.3.7.7l.3.2.9-.2a35.5 35.5 0 0 1 15.7.2v-.2l.4-.5.6-.2c1.3-.5 2.5-1.2 3.6-2 .3-.2.3-.2.2-.3V98c.2-.5.7-.8 1.2-.7h.2l.1-.2c.2-.1.5-.8.6-1l-.2-.2a1 1 0 0 1-.3-1.6l.3-.2.2-.2-.5-1-.3-.4h-.2a1 1 0 0 1-.8-.3c-.2-.2-.3-.4-.3-.7 0-.3 0-.3-.2-.5"/><path fill="#b2b1b1" d="m149.2 92.5.5.8v.2h1.3l-.1-.3a3 3 0 0 0-.2-.5l-.2-.2h-1.3M149.9 96.4l-.2.4v.2h.8l.4-.8V96h-1v.3M144.3 102.6c-.3-.2-.7-.1-1 .2-.3.3-.4.6-.2 1 .2.3.5.4.8.4l.4-.1c.3-.2.4-.5.4-.8 0-.3-.1-.5-.4-.7M149.5 97.4l-.2.4-.2.4h.5l.3-.3.4-.6h-.8M132.3 102.5c-.3 0-.5 0-.8.3l-.2.4c-.1.4.1.8.5 1h.7c.7-.4.6-1.5-.2-1.7M138 102.2c-.5.1-.8.6-.7 1l.5.6h.7c.5-.2.6-.7.4-1.2a.8.8 0 0 0-1-.4"/><path fill="#b2b1b1" d="M144 104.4h-.3a1 1 0 0 1-.8-.6v-1a1 1 0 0 1 1.7-.2 1 1 0 0 1-.6 1.8zm-4.8-1a1 1 0 0 1-1.3.6 1 1 0 0 1-.7-.5c-.5-1 .8-2 1.7-1.3.3.3.4.7.3 1.2zm-6.3.7c-.2.2-.7.4-1 .3a1 1 0 0 1-.7-.6c-.2-.2-.1-.7 0-1 .5-.9 2-.5 2 .6 0 .3-.1.5-.3.7zm13.1 1a18.5 18.5 0 0 0 .3-2.7v-.1h-.3a38 38 0 0 0-16.2 0h-.1l.3 2.8h.2l.8-.2c1.7-.2 3.9-.4 7-.4a38.2 38.2 0 0 1 8 .6M177.2 210.3c1.2.6 4 2 4.6 1.7.6-.2.4-2.5-.3-3-.7-.6-2.6.2-4.3 1.3M175.4 212.6s2.4 3.4 3.5 3.7c1.1.3 2.3-1.8 1.2-3.2-.4-.6-2.7-.1-4.7-.5M184.1 205.6s-3.2-.4-3 .3c.5 1 1.8 1.2 2.3 2.6.3.9 1.1-1.3.7-3M99.7 210.6c-1.3.5-4 2-4.7 1.7-.5-.2-.4-2.6.3-3 .8-.6 2.6.1 4.4 1.3M101.5 212.9s-2.4 3.3-3.5 3.7c-1.1.3-2.3-1.8-1.2-3.2.4-.6 2.7-.1 4.7-.5M103.2 214.4s-.2 3.4-1 4.2c-.8.8-2.9-.2-3-.5 0-.3 2.2-1.7 4-3.7M92.8 205.8s3.2-.3 3 .4c-.5 1-1.8 1.2-2.3 2.6-.3.9-1-1.4-.7-3M173.7 214.1s.1 3.4 1 4.2c.8.8 2.8-.2 3-.5 0-.3-2.2-1.7-4-3.7M132.3 122.2v-1.6l-.3-.3c-.4-.4-1.8-.6-2.8-.5-1.3.2-2.5.6-4.3 1.7a6 6 0 0 1-1.8.7l.8.3 1.2.1c.8 0 1.5 0 2.5-.2l1-.2a7.8 7.8 0 0 1 3.7.7v-.7M120.5 118.3c.5-.5 1.3-1 2.4-1.2a13.8 13.8 0 0 1 8.3.7 31.7 31.7 0 0 0-3.5-4.7h-1.1c-2.3 0-3.5.2-4.6.7-1 .6-1.6 1.5-1.8 2.7v2l.3-.2"/><path fill="#231f20" d="M140.4 155a9 9 0 0 1-1.5 1.5 2 2 0 0 1-.3.2 7 7 0 0 1-1.3-1.8c-.5-.9-1-2-1.3-3h-.6c.5 1.8 1.7 4 2.6 5l.2.3v.3a10.6 10.6 0 0 1-3.5 5.6 5 5 0 0 1-.4.2h-.2l-.8-1.3a17 17 0 0 1-1.7-6.3v-.5l.3-.1c.8-.4 1.8-1.3 2.6-2.3l.2-.4v2.5a140.6 140.6 0 0 1 .2 0V152h-.7c0 .2-.2.4-.4.6-.5.7-1.3 1.4-2 1.8l-.3.2c-.1 0-.2 0-.3-.2a10.2 10.2 0 0 1-1.5-2.4h-.6a11 11 0 0 0 1.9 3.2l-.5 1.7c-.6 1.6-1.4 3.1-2.3 4-.4.3-.4.3-.6.2l-.5-.6a9.7 9.7 0 0 1-2-4.3v-1.1c0-.7.2-1.8.3-1.8l1.5-1.3h-.9l-.4.3v-.3h-.6a21.8 21.8 0 0 0-.3 1.7 12 12 0 0 1-4.4-1.7h-2c-2 1.3-4.1 2-6 2.2h-.6l-1-.1-.1-.2a4.3 4.3 0 0 1 .5-2h-.7c-.2.7-.4 1.3-.4 1.8v.4l-.6.2c-1.3.6-2.5 1-3.7 1.2h-2a8 8 0 0 1-2-.5c-1-.4-2-1.1-2-1.4 0-.3.3-1 .7-1.6h-.7l-.1.1-.2.4-1.2.3c-2.6.7-4.4 1.1-5.7 1.3h-2.7c-2.3-.1-4.5-.6-6.2-1.4l-1-.6v-.1H82v.4c.3.6 3 1.6 5.2 2 .6.1.6.1.5.2a7 7 0 0 0-2.2 2.4l-.2.7c0 .6 1 1.7 2.2 2.3l2 .5h.2l-.3.3-.4.5c-.5.6-.8 1.5-.7 2 0 .2.7.8 1.4 1l1.3.4c.5 0 .9 0 1.5-.2l.5-.2-.2.3-.6 2.4.1 1c.2.2.6.3 1.1.4h2.4l1-.2v.3a8.6 8.6 0 0 0-.5 4.1c.1.6.3.9.7 1a14 14 0 0 0 4.3-1l-.1.4a10.5 10.5 0 0 0-.1 3.7c0 .8.2 1 .7 1 .7 0 2.3-.6 3.5-1.2l.3-.1v.1l-.1.9c0 1 .1 2 .4 2.3l.1.1h.5l1.1-.1a12.8 12.8 0 0 0 2.3-.7v.7c0 .8 0 1.3.2 2 .3 1.1.8 2 1.3 2.4l.4.1.6-.2a16 16 0 0 0 4.2-3l.1.1a6.9 6.9 0 0 0 2 2.3c.2.3.7.5.8.5.5 0 2.1-1.3 2.8-2.2a5.5 5.5 0 0 0 .6-1l.4.4c1 1 2.1 1.8 2.7 1.8l.4-.1 1-1.1c.5-.7.8-1.3 1-1.9v-.3l.1.2c1 2.7 1.4 4 1.4 5s-.3 1.8-.9 2c-.1.1-.2.2-.7.2-.6 0-1-.1-2.6-.6-2.6-.8-3.7-1-5.1-1a7.9 7.9 0 0 0-8 6.7 17 17 0 0 0 0 3 32 32 0 0 0 2.5 8.2 230.3 230.3 0 0 0 1.8 4.1l-1 .4c-2.8.9-5.6 1.7-7.8 2.2l-.9.2v-.1l-.6-.6c-.4-.6-1.3-1.5-2-2-1.8-1.6-4-2.8-6.2-3.3-1.5-.4-3-.4-4-.2H94l-2-2.6a31.5 31.5 0 0 1-.4-3.3l.4-.1a6.7 6.7 0 0 0 3.7-1.8c.4-.5.7-.8.9-1.4l.6-2.3.6-2.4c.2-.5.6-1.2 1-1.6.1-.2.2-.3 0-.5h-1a21.3 21.3 0 0 0-4.7 1.3l-.1.1-.1-.4-1-2.2c-.7-1.5-1-2.3-1.3-3.4l-.2-.6h-.3a10.8 10.8 0 0 0-4 6.2v.4H86c-1-.5-2.2 0-2.7 1-.4.7-.3 1.7.3 2.3l.1.3v.1l-.1.1-3-2-3-2-.3-1-.4-1 .2-.1.2-.4.3-.4c.2 0 .4-.3.6-.5l.1-.2.2.1h1.1c.5-.1 1-.4 1.4-.8 1.1-1.1 1.8-2.6 2.1-4.5v-2.9a9.3 9.3 0 0 0-1.9-4.4l-.4-.4c-.2 0-.3 0-.5.6a9.7 9.7 0 0 1-1.8 3l-.3.3-.4-.4a26.9 26.9 0 0 0-3.8-3.5h-.2c-.2 0-.2.2-.2.6a6.6 6.6 0 0 1-.2 3.3s-.2 0-.3-.2l-3-1.6c-.2 0-.2 0-.3.2v.6c.3 1 .4 1.7.6 3.5.3 2.2.5 3.2.9 4.3.7 2.2 2.1 3.7 3.6 4.1l.3.1.1.4v.3l-5.4-2v-.9l.2-.3c.5-.5.7-1 .7-1.6l-.1-.6c-.3-.7-.8-1.2-1.5-1.4H68c-1 .2-1.8 1.3-1.6 2.4v.2l-.6-.7-.7-.8.1-.2.4-1.1.2-.3a8 8 0 0 0 1-8.2 20.8 20.8 0 0 1-1.3-3.9h-.2s-.2 0-.5.3l-2 2a7.8 7.8 0 0 0-1.2 2.2l-1.5-1.5-.7-.6c-.3 0-.3 0-.5 1.2a30.3 30.3 0 0 0-.5 5.3v.4l-.6-1.3-1-2.3-.6-1v-.9l.3-.1c.4-.1.6-.3 1-.7l1-1.2a10.5 10.5 0 0 0 .8-6.4c-.2-.9-.7-2-1.6-3a20.3 20.3 0 0 0-4-3.5h-.2l-.1.5a15.8 15.8 0 0 1-.7 3.1l-.6-.3a27 27 0 0 0-3.8-2c-.5-.3-.6-.3-.7-.2v.5l.2 1.6v2.1c0 2.4 0 3.4.5 4.5v.3h-.1l-.5-.1h-.6v.6c.3 1.5.8 3 1.5 4a7 7 0 0 0 4 3h1.8l.3-.1.3.7a90.8 90.8 0 0 0 1.5 3.9c-.9-.7-1.8-1-2.7-1.2a12 12 0 0 0-4.8.7c-.7.2-.8.3-.2 1l1 1.3 1.3 1.8 1 .9h.2l-.2.3a7.7 7.7 0 0 0-1.6 4.5l.1 1c.1 0 .3 0 1-.4.9-.5 1.5-.9 2-1 1-.5 2.6-.8 4.4-1 1.9-.2 2.4-.3 2.9-.6.6-.3 1-.8 1.1-1.4l.1-.3 1 .7c1.5.8 1.8 1 3.3 1.5l.8.3h-.7c-1.5.1-2.5.4-3.7 1a6.1 6.1 0 0 0-3.4 4.2 21.9 21.9 0 0 0-.3 2.2h.6a7.5 7.5 0 0 1 1.9-1v.5c-.2.4-.2.5-.2 1.5 0 1.2 0 1.7.2 1.8.3.2.4.1.7-.4 1.1-1.7 2.8-3 5-4.2 1-.5 1.9-.9 3.9-1.6l2-1 .4-.5v-.2l.7.3c1.3.6 1.8.8 3 1.6l5.2 3.6 1 .8-.8.3c-1 .2-1.1.2-1.1.1l-.4-.7c-.5-.9-2-1.7-3.5-2.2-1-.3-1.6-.4-2.7-.4a10.5 10.5 0 0 0-4.9 1c-1.1.5-2 1.3-2.5 2.2-.2.4-.2.5-.1.6l.7.2a8.8 8.8 0 0 1 3 .6l-1.5.8a22 22 0 0 1-5 1.9c-.8.2-1 .2-1 .5l.7.4a34.8 34.8 0 0 0 7.4 1.8 7.5 7.5 0 0 1-1.6 1.3l-.5.4c0 .2 0 .3.2.4l2 .5c2.3.3 4.7-.2 6.2-1.3.7-.5 1.8-1.5 2.4-2.2.4-.4.7-.8.9-1.3.4-.8.5-1.6 0-2.2v-.2l1.8-.4 1.9-.4 1.9 1.7 1.8 1.7-.7.3-.6.2h-.3c-.8-.5-1.8-.3-2.4.4a2 2 0 0 0-.6 1.5c0 .6.2 1 .6 1.5.4.4 1 .6 1.5.6.6 0 1.1-.2 1.5-.6.4-.5.6-1 .6-1.5v-.4l.2-.1a75.9 75.9 0 0 0 1.3-.4l1.2 1.6 1.2 1.5v.2l.2 1.5v.3l-.2.2a3.5 3.5 0 0 0-.8 2.5l.1 1c.3 1 1 1.5 2.1 1.6h.3l-.1.2-.5 1-.1.7c0 .5 0 .9.3 1.4.2.5.3.7.6 1 .4.4.7.6 1.2.7.4.2 1.2.2 1.8 0v.5a2.4 2.4 0 0 0 .7 1.8 2.8 2.8 0 0 0 2 .9l.7-.1a7 7 0 0 0 1.5-.8l.7-.6.5-.4.5.7a62.9 62.9 0 0 1 3.2 4.9 15 15 0 0 0 2 3.7c1.4 2 3 3 4.9 3.1.6 0 1.4 0 2-.3.4-.2.4-.2.4-.7a8.6 8.6 0 0 0-4.7-7.7l-2.1-1.5-3.7-3.8-.4-.4.6-.6 2.2-2.2.5-.5 5-1.6a619.3 619.3 0 0 1 5.1-1.4s0 .4.2.7c.3 1.6.9 3.1 1.4 3.7.3.3.5.4.8.3.3 0 .4 0 .7-.2a9 9 0 0 0 1.8-1.3c.8-.7 1-.9 1.2-.9h.2l.3.4a8 8 0 0 0 2 1.9l-.3 1c-.3 1-.7 2-2.3 5.3a62.2 62.2 0 0 0-3.8 9.6c-.2 1-.3 1.3-.3 2.1s0 .8.3 1.5c.6 1.4 1.9 2.9 3.3 4l.3.1v.6a4 4 0 0 0 1.2 3.1c.3.4.6.6 1.3 1 1.5.7 3.3 2.5 4.8 4.6 1 1.4 2.6 3 3.8 3.8.6.4 1.4.8 1.8.8h1.2c.5 0 1-.3 1.6-.6v-.7l-1.2.6a4 4 0 0 1-.4.1h-.3v-8.5l2 1v-.2l-2-1v-3.6l2 1v-.3l-2-1V237l2 .8v-.2l-2-.8v-3.6l2 .7v-.2l-2-.8.1-1.8v-1.8l1.8.7v-.2l-1.8-.7v-3.7h.2l1.6.7v-.2l-.1-.1-1.7-.6v-3.8l1.8.7v-.2l-.3-.1-1.4-.6v-3.7l1.4.6.3.1v-.2l-1.7-.7v-3.8l1.1.5.6.3v-.2l-.6-.3-1.1-.5v-3.7l1 .5.7.4v-.2l-.8-.4-.9-.5v-3.6l.8.4.7.4.2 1.8v.7-6.6a533.2 533.2 0 0 0 0-1.5v-1l-1.4 1.7-.6.4h-.3c-1.2-1-2.6-2.9-3.2-4.4l-.1-.3.2-.1c.8-.7 2-2.3 2.6-3.5l.3-.6v.7a53.1 53.1 0 0 1 .1 4.8l.1.1c.1 0 .1.2 0-1.6V193l.2.5a15 15 0 0 0 2.1 3v-.9c-1-1.2-1.7-2.5-2-3.5v-.3l.2-.3c.6-.5 1.3-1.5 1.8-2.4V188c0 .2 0 .3-.2.4-.5 1-1.4 2-2 2.7 0 .2-.2.3-.2.3l-.8-.7c-.9-1-1.7-2.5-2-3.9-.3-.7-.3-.5.2-1.1.7-.7 1.3-1.5 1.8-2.4l.2-.4v.5a400.3 400.3 0 0 1 .3-1l.1.4 1 1.7c.4.8 1.1 1.7 1.6 2.2v-.9a11.3 11.3 0 0 1-2.3-4.1c0-.1 0-.2.4-.4a11 11 0 0 0 2-2V178a13 13 0 0 1-2.6 2.9c-.3.2-.3.2-.7-.3a15.6 15.6 0 0 1-3.3-5.5l.2-.2a12.6 12.6 0 0 0 3-3 154.5 154.5 0 0 1 .2.2v-.5l.1-.3.2-.2.2.4a9.1 9.1 0 0 0 2.6 3.1v-.8a9 9 0 0 1-2.4-3.3l.3-.2a12 12 0 0 0 2.1-2v-1a11.7 11.7 0 0 1-2.3 2.4l-.4.2-.4-.2c-.8-1-2-2.7-2.4-3.9l-.4-1.8.1-.2a13 13 0 0 0 3.3-4l.1-.2v.4a84.3 84.3 0 0 1 .3 2V158.8l.2-.2a16.5 16.5 0 0 0 2 4.3v-1.2c-.7-1.3-1.3-2.8-1.5-4-.1-.6-.1-.5.1-.7.4-.2.9-.7 1.3-1.2v-.9zm-32-3a18.3 18.3 0 0 1-5.3.9h-.2l.6.1a18 18 0 0 0 5.6-1h-.6zm19 0a22.5 22.5 0 0 0 .4 4.8v.1c.2 0 .2 0 .1-.6-.2-1.5-.3-3.1-.2-4.3h-.2zm11.4 0v.3h.2v-.3h-.2zm-60.7 63.2v-2.4l-1.2 2.6-1.2 2.7 1.2 2 1.2 2V215.2zm1.4 4.9c1.1-2 1.1-2 1-2.2-.1-.5-2.2-5-2.2-5a124.1 124.1 0 0 0 0 9.2l1.2-2zm-2.8 0-1.2-2-5.6-.5a225.3 225.3 0 0 0 8 4.6l-1.2-2zm5.9-.2 4-2.3-5.8.6a49 49 0 0 0-2.3 4l4-2.3zm2.4.2 1.7-2.4-8 4.7h4.6l1.7-2.3zm-7.2 2.3-8.1-4.7 1.7 2.4 1.7 2.3h4.7zm8.8 4.8-3.3-4.5v-.1H78.6a825.6 825.6 0 0 0 8 4.6zM73.7 225l4-2.4H73l-3.2 4.5-.1.2 4-2.3zm12.9 2.5-8-4.7h-.2.1l1.2 2.1 1.1 2a857.2 857.2 0 0 0 5.8.6zm-13.8-.3 2.8-.3 2.3-4a766.3 766.3 0 0 0-8 4.6l2.9-.3zm5.3-2V223l-1.2 2a46 46 0 0 0-1.2 2l1.2 2.8 1.2 2.6v-7zm1.4 4.4 1.1-2.6-1-2-1.3-2v9.3l1.2-2.7zm-1.5 4a79.8 79.8 0 0 1-2.7-6 191.7 191.7 0 0 0-6.6.6.3.3 0 0 1-.2-.3l2-2.7 1.9-2.7-1.9-2.6a147.2 147.2 0 0 1-2-2.9l.4-.2a229.9 229.9 0 0 1 6.4.7l1.2-2.8c1.6-3.4 1.4-3.1 1.6-3.2h.3a103.1 103.1 0 0 1 2.7 6 168.8 168.8 0 0 0 6.4-.7c.2 0 .3.2.3.3 0 .2.2 0-2.3 3.3l-1.5 2.1a85.8 85.8 0 0 0 3.8 5.4c0 .1 0 .2-.2.3a49.4 49.4 0 0 1-6.5-.7 432 432 0 0 0-2.7 6c-.1.1-.3.1-.4 0zm12.6-73.7 1-.1a25.5 25.5 0 0 0 10-4.2l-.3-.1-.7-.4-.4-.2-.6.3a27.4 27.4 0 0 1-11 2v-.1l1.4-.1h2a27.6 27.6 0 0 0 8-2.2l-.3-.2-.6-.7v-.7a77.2 77.2 0 0 1-6.5 1.4c-.8.1-2.3.2-3 .1h-1c-1 .6-2.1 1.7-2.6 2.7l-.1.3v.2l1 1a5 5 0 0 0 3.7 1zm16.3 1.7c1 0 2-.4 2.8-.8 1.2-.6 2.3-1.3 3.5-2.3l.5-.4.1-.5a8.3 8.3 0 0 1 2-3.6c.2-.1.2-.1-.1 0l-2.2.6-.5.4c-2.6 2.4-5 4-6.7 4.6-.5.1-.7.2-.8.1l.2-.2c.3 0 1-.2 1.4-.5 1.5-.7 3.3-2 5.2-3.6.8-.7.8-.7.5-.7a9.2 9.2 0 0 1-2.1 0h-.4l-.5.1c-1.3.6-2.7 1-3.9 1.3h-.3l-.4.4c-.9 1-1.6 2-2 3-.4.6-.5 1-.6 1.3l.1.3 1.2.4c.8.1 2.1.2 3 .1zm14 1.5 3-1.7.4-.3v-1.5a35.3 35.3 0 0 1 .2-5l-.4-.2h-.4l-.8 4.7c-.2 1.1-.2 1-.3 1l.9-5.8-.7-.2-1.3-.5-.5-.3-.3.3a7 7 0 0 1-2.4 2.2l-1 .3h-.1c0-.1 0-.2.3-.2.8-.3 1.5-.7 2.2-1.4.6-.5 1.1-1.2 1-1.3l-.4-.3-.8-.5c-.4-.3-.4-.3-.5-.2l-.5.4c-2.5 1.6-4 3.8-4.2 6v1h.3a10.5 10.5 0 0 0 6.3-3.3c.2-.3.4-.4.6-.2v.6c-.8 1-1.3 2.5-1.4 4-.1 1 0 2.5.2 2.5l.5-.1zm-29.2 1 2.3-.8c3-1 5.6-2.2 8-3.8l.6-.4.2-.3a15.4 15.4 0 0 1 1.8-2.6h-1l-.5.3a29.8 29.8 0 0 1-11.5 5.7 25.8 25.8 0 0 0 9.8-4.6 27.5 27.5 0 0 0 1.8-1.5l-.4-.1-.5-.1-.5.4a27.2 27.2 0 0 1-10.6 4.2 3 3 0 0 0-1.4.8c-.4.4-.8 1.2-1 1.6 0 .2.1.3.5.5.7.5 1.6.8 2.4.6zm18 2.4c1-.2 2.2-.8 3.3-1.6a18.5 18.5 0 0 0 4-5.2l-.5.1c-.3.2-.7.3-1 .3h-.3l-.8 1a14.4 14.4 0 0 1-4 2.9c-.5.3-.7.3-.6.2l.3-.2 1.4-.9c1-.6 1.8-1.2 2.7-2.2l.7-.6h-.9c-.2-.2-.3-.5-.4-1v-.3l-.4.3c-1.6 1.2-3 2.1-4.3 2.5-.5.2-.5.2-.8.7a4 4 0 0 0-.3 1.5 9.6 9.6 0 0 0-.2 2.4l.5.2 1.6-.1zm21 1c1-.6 2.4-2.2 3-3.4l.1-.2-.1-.2c-.7-.7-1.5-2.5-2-4.3-.3-.8-.4-1.4-.5-2.3v-.1l-.1.1-.1 1.4c0 3.3-.2 5.5-.4 5.6v-.5l.1-2.3a101.3 101.3 0 0 0 0-3.2l-.8 1.6c-.5.8-1.3 1.7-1.7 2h-.2v.5a9.3 9.3 0 0 0 2 5.2l.3.2.4-.1zm-35 .3a28.4 28.4 0 0 0 9.6-5.1c.6-.5.6-.4 0-.5-.5 0-1.6-.1-2.1-.3h-.2l-.5.4a23.9 23.9 0 0 1-7.4 3.9v-.1l.5-.3a22.6 22.6 0 0 0 7-3.9l.2-.1-.3-.1-.4-.4v-1.1l-.5.3a36.3 36.3 0 0 1-7.8 3.6l-.6 1.1c-.2.6-.4 1.5-.4 2.2v.2h.2c.2.2.8.3 1.2.3h1.5zm18.4 1.2c1.3-.2 3-1 4.2-1.7.8-.5 1-.8 1.6-1.6.4-.6 1-1.9.9-2h-.2c-.2.2-.5.2-.6 0-.2 0-.4-.4-.4-.8l-.2-1.5-.3.5a23 23 0 0 1-3.4 4.3l.4-.6c1-1 2-2.3 2.8-3.7.5-1 .6-1 .6-1.5a11.8 11.8 0 0 1 .6-2.5l-.3.3-1.5.9-.3.2-.3.5a18.4 18.4 0 0 1-4 5.2c-.3.3-.4.3-.4.6-.1.3-.2 2-.1 2.6 0 .5 0 .7.2.8h.7zm-58.5.8c.3-.9.1-2.2-.5-4-.3-1-.8-2-1.2-2.6-.7-1-2.4-2-4.5-3.2l-1-.3v.5c.1.5.2 1.6.1 3.6 0 1.4 0 1.8.2 2.6 0 .6.4 1.5.5 1.5h1l2.7.5c.1 0 .1 0 0-.2v-.3a22.7 22.7 0 0 0-2.9-5.7c-.3-.5-.3-.6-.2-.6l.3.3a28.6 28.6 0 0 1 3.2 6.6l.9.4 1 1 .2.2.2-.3zm1 2c1-.5 1.8-2 2.2-4.2v-1.7c0-1.3 0-1.6-.2-2.1a8 8 0 0 0-1.3-2.3 19.3 19.3 0 0 0-3.2-3v.3l-.6 2.2-.2.7.5.5.7.9a14.7 14.7 0 0 1 1.6 4V166a17.7 17.7 0 0 0-1.3-5.1c0-.1 0-.1 0 0a15.7 15.7 0 0 1 1.5 7.7v1.3l-.5.8v.1l.1.3.3.6v.3h.3zm65.7.4a11.6 11.6 0 0 0 2.6-3.3l.2-.3-.2-1.1a47.2 47.2 0 0 1-.6-5.6l-.5.3-.4.3-.1.7a45 45 0 0 1-.2-.6l-.4.2-.8.4-.3.2-.2.5c-.4 1.1-1 2.2-1.7 3l-.3.3v.4a6.8 6.8 0 0 0 2.3 4.8c.2.2.2.2.6-.2zm-24 .6c1.1-.2 2.3-.6 3-.9a46 46 0 0 0 6.2-4.8c-.2 0-.4-.2-.5-.5v-.7a9.5 9.5 0 0 1 0-1.2l-.6.6a31.7 31.7 0 0 1-8.2 5.6l.5-.3a32.2 32.2 0 0 0 8.4-6.1l.1-.7.3-1.4.1-.3h-.5l-.3.1-.3.3a28.5 28.5 0 0 1-8.6 5.3h-.2l-.2.5-.5 1.5c-.2 1-.2 2.2 0 2.9v.2h.4l1-.1zm30.1.8c.8-1.1 1.4-3 1.5-4.8v-.7a9.4 9.4 0 0 1-2.4-5.9v-.5l-.3-.2a6.6 6.6 0 0 1-1-1v2a26 26 0 0 0 1 5.4v.6l-.3-1a26.8 26.8 0 0 1-.9-7v-.4l-.2-.4a12.6 12.6 0 0 1-.9-1.7v1.2c0 4 .4 7.8 1.3 11.4l.2.7.3.5 1.6 2 .1-.2zm5.6.7a12 12 0 0 0 3-3.4l.2-.4-.2-.2a12.7 12.7 0 0 1-3-5.4l-.3.3-.2.4.1 1.6.2 3.3-.1-.3a1205.6 1205.6 0 0 0-.4-4.3s-.2 0-.3.2c-.3.5-1 1.1-1.4 1.5l-1 .6.4 1.5c.6 1.5 1.5 3.3 2.2 4.4.3.3.3.4.5.4l.3-.2zm-79.9.4c.4 0 .8-.3 1.1-.6.2 0 .3-.2.3-.2l-.3-.1c-1.3-.4-3-1.4-4.8-2.9a13 13 0 0 1-1.4-1.4l.5.3c2 1.9 4.1 3.3 5.7 3.8.4 0 .4 0 .5-.3v-1c-.1-.8-.6-1.6-1.3-2.3-.8-.9-1.6-1.2-3.7-1.4a44 44 0 0 1-2.9-.3l.4 1.5a7.4 7.4 0 0 0 2.6 4l1.5.7c.6.2 1.3.3 1.8.2zm48.3 2.2a12 12 0 0 0 2.7-1 8 8 0 0 0 3-2.4 33 33 0 0 0 4.5-7.6l-.3.2c-.5.3-1.3.7-1.8.8h-.2l-.5.7a35 35 0 0 1-6 6.6 36 36 0 0 0 6.2-7.1h-1.1l-.5.1-.5.5a38.6 38.6 0 0 1-5.4 4.2l-.5.3v.2a11.2 11.2 0 0 0-.3 4.5h.7zm4.7 2.3c1.7-.3 3.5-1 4.4-2a43 43 0 0 0 4.6-8l.1-.2-.7.2-.7.3-.4.7c-1 1.5-1.8 2.7-3 4a11 11 0 0 1-2.6 2.2l.3-.4a20.8 20.8 0 0 0 5.4-6.5l-.4.1h-.9c-.4-.1-.6-.6-.6-1.5v-.4l-.4.7c-1.2 2.3-3 5-4.5 6.4l-1.2 1-.2.2-.1.3c-.2.8-.2 1.7 0 2.4 0 .5 0 .5.3.5h.6zm-41 .3c.4-.6.6-1.6.8-2.5.2-1.6.1-2.2-.6-4l-.8-2.5-.2-.8v-.1l-.5.4a8.1 8.1 0 0 0-2.5 3.4v.5a26.4 26.4 0 0 1 1.5 1.3v-.3c.1-.8.4-1.8.7-2.7l.3-.5-.2.7c-.3 1-.6 2.1-.6 2.8v.3l.3.3c.4.5.7 1 1 1.9l.5 2.2v.2-.1l.3-.5zm64.4.6c1.3-1.5 2.3-3.3 2.6-4.7v-.4l-.2-.2a23.5 23.5 0 0 1-2.5-5v.4l-.6 2-.2.6v.7c.1 1.6.3 3 .6 3.6.1.3.1.4 0 .4l-.2-.5a14 14 0 0 1-.6-3.5v-.3l-.2.4c-.4.6-.6 1-.9 1-.3 0-.6-.4-1.1-1l-.3-.4a58.4 58.4 0 0 0 2.6 6.7l.6.6.4-.4zm-4.3 2c.6-.5 1.4-1.8 1.6-2.5a4 4 0 0 0 0-1.7l-.4-1.1a61.1 61.1 0 0 1-1.8-6.2l-.2-.8-.1-.2c-.2.2-.6 1-.8 1.1l-.1.2.1.6a57.2 57.2 0 0 1-.3-.4l-1.5 1.7h-.2l.1.5c.5 2.6.7 5 .6 6.3v.7a9.6 9.6 0 0 0 2.8 2l.2-.1zm-62.4.6h.2l-.2-.2-1.2-1.2a12.1 12.1 0 0 1-1.7-4.5 23.1 23.1 0 0 1-.3-2.3l.1.6.8 3.3c.6 2 1.4 3.3 2.4 4l.3.2.4-.4c.4-.4.5-.9.6-1.6a7 7 0 0 0-.5-2.6 5.1 5.1 0 0 0-1.5-2.5l-1-1a30.9 30.9 0 0 1-2.6-2.3v.5c-.7 3-.6 5.4 0 6.7.1.4.8 1.3 1.1 1.7.7.8 1.4 1.4 2 1.6h1.1zm56 .4c.5-.3 1.3-1 1.7-1.5.6-.6.9-1 1-1.7v-3.2l-.5-3.1v-.4h-.2l-.6-.4-.2-.2-.2 1a111.5 111.5 0 0 1 0-1.1l-.2-.4a9.5 9.5 0 0 1-.9-1.3v.5a34.8 34.8 0 0 1-2.4 8.8l-.2.3.1.3a5.4 5.4 0 0 0 2.3 2.6l.3-.2zm-7.4.2c2-1 4-2.7 4.7-4a30 30 0 0 0 2-9V169a12.7 12.7 0 0 1-.3-1.1l-.1-.2-.1.1a11 11 0 0 1-1 .6l-.1.8a35.1 35.1 0 0 1-4.3 10.8l.2-.5a32.8 32.8 0 0 0 4-11h-.2l-.2.2-.2.4c-.6 1.8-2.3 5-3.7 7a6.7 6.7 0 0 1-2.2 2.3l-.3.2V180.8c.1 1 .4 2 .9 2.5l.2.3s.3 0 .7-.3zm-48.5.3-.4-.2.2.3.3.1-.1-.2zm-10.8 0a6.4 6.4 0 0 1 2.8-1l-.5-.4a11.5 11.5 0 0 0-4.2-1.7v-.2l1.6.4c1.1.4 2.2 1 3 1.6l.4.2h1.3c.8 0 .9 0 .8-.1l-.3-.5a7.3 7.3 0 0 0-3.9-2.6 10.7 10.7 0 0 0-4.8.5l.4.5.7 1.1a7.3 7.3 0 0 0 2.4 2.5l.3-.3zm16 1.3c.3 0 .6-.3.8-.6.3-.4.3-.9.2-1.3 0-.3-.3-.6-.6-.8a1.5 1.5 0 1 0-.4 2.7zm10.4.1c.6-.2 1.4-.9 1.9-1.6.6-1 1-2 1.1-3.3v-2.6a8.7 8.7 0 0 0-1.5-3.8l-.2-.2c-.3 1-.9 1.8-1.7 3l-.5.6.1.2.7 1.3a6.3 6.3 0 0 1 .3 3.3l.4-1.1a21.2 21.2 0 0 0 .8-4.9v.2a16.9 16.9 0 0 1-1.2 6.2l-.3.9a9.1 9.1 0 0 1-.7 1.8l.4.1h.4zm-1.4-.2a8.2 8.2 0 0 0 1-5c-.2-1-.8-2.2-1.7-3.3a25.3 25.3 0 0 0-3-2.9v.7c0 .7-.1 1.2-.3 2l-.1.6c.8.6 1.6 1.4 2 2 .4.5.8 1.3 1 2.1l.3.5v-.3l-.1-.7c-.2-1.7-1-3.5-2-4.8-.2-.2-.2-.2-.1-.3h.1l.8 1.2.9 1.7c.4 1.1.6 2.5.6 3.6v.9c.2.7.3 1.4.2 2 0 .6 0 .6.4 0zm56.8.5c.8-.7 1.7-2 2.2-3.1.2-.5.2-.5 0-.6l-2-2.4a14.4 14.4 0 0 1-1.6-3l-.1.4-.1.2v.5c.3 2 .7 4 1 4.7.1.1.1.2 0 .2l-.2-.2c-.3-.8-.6-2.4-.9-4v-.8l-.4.5c-.2.6-.7 1.3-1 1.7l-.2.3v.2a10.5 10.5 0 0 0 3 5.7l.3-.3zM76 187c0-.4-.2-1.4-.5-2.3a35.7 35.7 0 0 0-3.1-6.9l.6 1c1.7 3 2.9 5.9 3.2 7.8 0 .4 0 .4.3.3 1-.7 1-3.2 0-5.7-.1-.6-.7-1.6-1-2a14 14 0 0 0-4.8-3.4l.4 3.2c.2 1.9.4 2.7.7 3.7.2.8.5 1.5.9 2 .8 1.5 2 2.3 3 2.3h.3zM51.6 189c2-1.3 3.4-1.7 7.3-2.1 1.2-.2 1.6-.3 2-.6.4-.2.6-.6.7-1.2v-.3h-.3c-.9-.3-2-.4-3-.3-1.7.2-3.7 1-5.3 2.1-.3.3-.4.3-.4.2 0-.2 1-.8 1.9-1.3a9.6 9.6 0 0 1 7-1l-.3-.3c-.5-.5-1.4-1-2.5-1.2h-3l-1.6.6a5.8 5.8 0 0 0-2.8 4.6v1l.3-.2zm80 .9c.8-.7 2-2.3 2.5-3.5l.1-.3-.3-.4a11 11 0 0 1-2.8-5.4l-.2.1-.2.3a83.4 83.4 0 0 1 1 5.8c0 .2 0 .3-.2.2v-.4l-.5-3.2a42.6 42.6 0 0 0-.6-2.2h-.6l-.2-.2.2.6c.4 1.2.6 2.1.7 3 0 .6 0 1.4-.3 1.9v1.6c0 .4.3 1.1.5 1.5l.5.8.3-.2zm-46 2.7c.7-.2 1.2-1 1-1.7 0-.9-1-1.5-1.9-1.2-.3 0-.6.3-.8.5-.6.9-.2 2 .8 2.4h1zm-25 1.4.8-.3.5-.2.2-.4a7.8 7.8 0 0 1 3-3.6c.7-.5 1.4-.7 2.7-1h.3-1.3c-1.6 0-2.8.3-4 1-1.3.7-2 1.7-2.5 3l-.4 1.8h.2l.6-.3zm28.3 1.4c0-.6.2-1.3.4-2l.2-.4-.2-.4-.5-2c-.2-1.4-.2-2.8.2-3.8.1-.6.5-1.1.6-1.1v.3c-.8 1-1 3.2-.4 5.5l.4 1.2.2-.4 1-1.4c.4-.5.9-1 1.5-1.3l.2-.1-.3-1-.7-1.5c-.7-1.5-1-2.3-1.3-3.3v-.2H90c-.3.3-1 1-1.3 1.5a8.6 8.6 0 0 0-1.9 4v.8c.3.3.5 1 .5 1.3 0 .3 0 .7-.2 1v.5a5.9 5.9 0 0 0 1.8 3v-.2zm46 1a11 11 0 0 0 2.7-4.3v-.3l-.2-.1a11 11 0 0 1-2.8-4.2v-.6l-.3.5-.3.5v.9c.1 2 .3 3 .5 3.8v.3l-.2-.3a12 12 0 0 1-.4-3V188.3l-.3.3-1.3 1.5-.8.6v.5a19.6 19.6 0 0 0 3 5.6l.4-.3zm-72-.5c1.7-1.8 3.8-3 7.3-4.4 2-.7 2.5-1 2.8-1.2l.1-.1v-.1c-.2-.3-.7-.5-1.4-.7h-.5l-.4.1c-2.4.4-4.9 1.7-7 3.7-.3.3-.5.4-.5.2l1.4-1.2a15 15 0 0 1 6.1-3h-.3c-1.7-.2-3.4 0-4.4.4l-1.3.8a7.4 7.4 0 0 0-2.7 6.5l.3-.3.6-.7zm28.9 1.3a6 6 0 0 0 3.8-1.8c.5-.7.7-1.2 1-3.1.5-2 .7-2.7 1.3-3.7l.1-.2h-.2A18 18 0 0 0 93 190c-1 .5-1.6 1-2.2 2-1.1 1.7-1.7 4.1-1 4.8l.1.2v-.1l.7-1.5a12 12 0 0 1 4.4-5v.1l-.4.5a10 10 0 0 0-3.2 3.3l-1.3 2.8 1.1.3h.6zm-2 1.5v-1.2l-.3-.2c-.3-.2-.5-.6-.5-.8l-.2-.1c-.9-.5-1.7-1.7-2.1-3.1 0-.3-.2-.5-.2-.5l-.2.2-.4.2h-.2l-.3 1.3 2.2 2.2a129.9 129.9 0 0 0 2.3 2zm-9.1-1.6c-.6-.4-1.3-.8-2.1-1-2.1-.7-4.8-.7-7.6 0h-.7c0-.2 1.8-.5 2.9-.6.7-.1 2.3-.2 3-.1 1.6.1 3 .6 4.2 1.3l.7.5c0 .2-.1.1-.4 0zm-4.1 1.3c1.3-.7 2.7-.7 3.8-.2.4.2.4.2.6-.2.3-.7 0-1.5-.8-2.2-1-.8-2.5-1.4-4-1.6h-2.9a7.2 7.2 0 0 0-5 2.6h.4c1.2.2 2.2.4 3.6 1a20.2 20.2 0 0 0 2.9 1.1l.4.1.3-.2.7-.4zm37.7-5.2v-1.1l1-2.5 1.6-1.9c.2 0 .1.1-.1.4a9.2 9.2 0 0 0-2.3 4.1v.6c0 .4-.1.5-.2.4zm4.5 0s0-1 .2-1.4a9.2 9.2 0 0 1 3-4.7c.2 0 0 .2-.4.6a8.6 8.6 0 0 0-2.6 5.4l-.1.2h-.1zm6.7.2c0-.8.3-1.7.7-2.6.4-.7 1.1-1.5 1.8-2 .3-.3.5-.3.5-.2l-.3.3-1.2 1.1c-.8 1-1.3 2.2-1.3 3.4l-.1.3-.1-.3zm6.9 7c.7-.7 1.4-2.5 1.4-3.3l-.1-.4-1.5-2.4c-.2-.4-.2-.4-.3.1a28.7 28.7 0 0 0 0 3.2c-.2 0-.2-.2-.2-1.3l.1-2.4v-.3l-.2-.6c-.3-.7-.6-1.4-.7-2-.1-.5-.2-.6-.4-.8a5.7 5.7 0 0 1-1-2.7v-.3h-.2l-1 .2c-.7 0-1.2-.2-2.7-.6a17 17 0 0 0-5-1 7.3 7.3 0 0 0-7.3 5.7v2.4a13.5 13.5 0 0 0 1.3 3.5l.1-.5a28.4 28.4 0 0 1 3.3-8.4c.1-.2.4-.1.4 0v.7c-.3.7-.4 1.2-.5 1.8v3a8 8 0 0 0 1.8 4.2l.3.2.2-1.2c.3-2 .5-3.1.9-4.4.6-2.5 1.7-4 3-4.8h.5c.2.1.2.1 0 .8-.3 1.7-.4 3.5-.1 4.9.2 1.3.6 2.4 1.3 3.4l.8 1 .3-1c.8-2.6 1.5-4 2.6-5.2.3-.4.6-.6.8-.6l.2.2v.3a11 11 0 0 0-.5 4 7.8 7.8 0 0 0 2.2 4.8l.2-.2zm-59.8 2.2a48.2 48.2 0 0 0 1.9-2.9l-2 1c-1.2.4-2.4.6-3.3.5-.5 0-.7 0-.7-.2h.2l2.4-.1c1-.2 2.2-.7 3.2-1.3l.3-.2-.5-.2-1.2-.4-.8-.4H72l-.9.5a20.8 20.8 0 0 1-5.8 2.4l.6.2c2.1.7 4 1.1 5.7 1.3.8.1.7.1 1-.2zm20.6 1.8.3-.3-.4-.5a31.2 31.2 0 0 1-1.7-2.2 116.8 116.8 0 0 1-.4-3.6h-.6a16.6 16.6 0 0 0 .2 2s-.3.2-.4.1l-5.5-5.2.2-.7c0-.4.2-.7.2-.7h-.2l-.4-.1-.2-.1-.1.2-.2.3s-.1.2-.3.2l-3.2-2.2a240 240 0 0 1-3.3-2.2l-.5-1-.3-1H76l-.2.1v.5l.2.6c0 .2-.1.3-.3.3l-6.4-2.3v-.6l-.2-.6H69a2 2 0 0 1-.5.1h-.2v.6c0 .2-.2.2-.3.2l-1.7-1.7-1.5-1.7-.5.2.7.8.6.9c0 .2-.2.3-.3.3a18.2 18.2 0 0 1-5.9-4.4 46.8 46.8 0 0 1-3.4-6.6l-.3.3-.4.4.5 1 1.7 3.7c.7 1.5 1.1 2.1 1.6 2.7l.4.4.3.1 1.3.6 1 1v.3l.9.5c2.3 1.4 2.3 1.4 6.2 2.7 4 1.5 5.2 1.9 6.7 2.6a119.3 119.3 0 0 1 8.7 6c.1 0 .1.2 0 .4l-1.4.4a143.6 143.6 0 0 0-1.5.5v.4l-.1.2 1.8-.4 2-.4a164.5 164.5 0 0 1 4.4 4.3l-.9.4-.8.3.1.2.2.2.8-.3a8 8 0 0 1 1-.2l1.3 1.5 1 1.4.2-.3.5-.6zm-6.4 1c.7-.3 1.2-1 1.1-1.8 0-.8-1-1.4-1.7-1.3-1.1.2-1.7 1.5-1.1 2.4.4.5 1 .8 1.7.6zm45.2-2.2a92 92 0 0 0 .7-2.2l-.5.3c-.3 0-1-.8-1.6-1.6l-.1-.3v.1l-.1.7a14 14 0 0 0 .5 4.4l.3 1 .8-2.4zm-57.6 2.3a8 8 0 0 0 3.3-1.1 15 15 0 0 0 2.8-2.6l.7-1.3c.1-.5 0-.9-.2-1.2l-.2-.1-.4.5a15.1 15.1 0 0 1-5.7 4c-.5.2-.7.2-.7 0l.4-.1a15 15 0 0 0 6.2-4.5l-.5-.4c-.5-.2-.7-.2-1.3-.2h-1c-1 .4-1.8.8-2.6 1.7l-1.4 1.8a10.7 10.7 0 0 1-2.6 3l-.4.2h.2a10.3 10.3 0 0 0 3.4.3zm50.4-4.1.4-3.7v-.3l-.1-.2a9.7 9.7 0 0 1-1.3-5.7v-.7l-.5 1.5a19.8 19.8 0 0 0-.1 8.6c-.2.2-.2 0-.4-1.1a17 17 0 0 1-.2-3.1l.1-2.2a15.4 15.4 0 0 1 1.1-4.5 16.2 16.2 0 0 1 .2-1.2l-.3.3c-1.1 1-2 2.9-2.5 5.6a42.8 42.8 0 0 0-.8 4.4v.6c.5 1.8 1.4 3.4 2.7 4.8l1.3 1.2.3.2V204l.1-2.6zm12.6 4.3c.7-.3.7-.3.7-.5v-2.5l-.2-.1-.5-.5-.4-.2v.1a237.4 237.4 0 0 0-.3 4.1l.7-.4zm2.6-1.7-.3-2.3-.3.3a6 6 0 0 1-.5.5h-.2v3l.7.3.8.4-.2-2.2zm-6.7-1a25 25 0 0 0 1.2-4.8l-.2.2-2.8 8 .2.7c0 .4.2.6.2.6l1.4-4.6zm-39.8 5 1.4-1.3.6-.7h-.2c-.3-.2-2-.2-2.1 0v1.6c0 .4.1.6.2.6l.1-.2zm25.6.1c.4-.4.7-1.1.8-2.4V204l-.1-4v-.7l-.4-.4a8 8 0 0 1-2-4.8l-.1-.2a23 23 0 0 0 0 9l-.2-.8a17 17 0 0 1-.4-4c0-1.8.1-2.9.4-4.5l.2-1.3a17.7 17.7 0 0 1 0-1.4l-.6 1.5a30 30 0 0 0-1.2 4.1l-.5 2c-.4.2-.7-.1-1.2-1.1l-.2-.3.4 1.4a60.2 60.2 0 0 0 4.1 9.6c.2.3.4.4.7.4.2 0 .2 0 .3-.2zm14.5-4a316.5 316.5 0 0 1 1.2-5.2v-.2l-1.5 4.8-1.3 4.6.2.5.1.5 1.3-5zm-1.9 5.2-1.4-4.6c-.6-2.6-.7-4.6-.3-5.9v-.4c-.3-.5-.5-1.5-.6-2.3a13.6 13.6 0 0 1 0-2.4 23.2 23.2 0 0 0-.7 9.9v.6c-.1 0-.3-.9-.4-1.9v-4a28.6 28.6 0 0 1 1-5.3l-.7 1.2a16 16 0 0 0-1 3c-.5 1.2-.5 1.3-.7 1.4-.2.2-.4.2-.8-.2-.3-.2-.2-.2-.2.4a17 17 0 0 0 5.8 10.5zm6.4-1.9v-1.8l-.8.4-.7.4v.1l-.3 3.6.9-.4.9-.4v-1.9zM95.7 212l2.3-1 1-.3v-.1s0-.2-.3-.3c-1.1-.6-2-1-2.7-.9-.4 0-.6.2-.7.6-.2.5-.3 1.4-.2 1.8l.2.3.4-.1zm35.2-.8.4-1.2-.2-.2-.7-.6-.5-.6v.2a41.6 41.6 0 0 0 .7 3.6l.3-1.2zm-30.4 1.5-.6-.7-.6-.8-.3.1-.9.4-.5.3.3.4c.2.1.2.2.2.3H100.5zm31-.3a143.5 143.5 0 0 0 .5-2s-.2 0-.3-.2h-.2l-.4 1.3-.4 1.3v.5l.4 1 .5-2zm5.5 1.5 1-.6v-3.6l-1.7.9a311.2 311.2 0 0 0-.3 3.8l1-.5zm-15.4 1.8 1.8-1.4c.7-.6 1-.9 1.3-1h.1v-.2a17.6 17.6 0 0 1-2.1-7.5l-.1-.5-.2-.2-.2-.2v.2a24.9 24.9 0 0 0-1 5.6 8 8 0 0 0 .3 2.3v.4c-.1 0-.2-.2-.4-1v-2.8c0-1.4.4-3 .9-4.5v-.5a13.8 13.8 0 0 1-1.5-2.5v.7c.2 3.3-.1 5.3-.9 6.1l-.2.2v.8c0 .9 0 1.3.2 2 .2 1.6.9 3.4 1.4 3.9.2.2.3.2.6 0zm8.2.3c.3 0 .8-.3.9-.4l-.3-1.4a34 34 0 0 1-1.2-6.2l-.4-.7c-.8-1-1.5-2.2-2-3.4l-.3-.6v1.3l.1 3.4a15.5 15.5 0 0 0 1.2 4.6c-.1 0-.2 0-.3-.3-.5-1.1-.9-2.6-1-4.3a36 36 0 0 1-.3-4.6v-.7l-.2-.6a21 21 0 0 1-.5-1.8v1.5a57 57 0 0 0-.2 4.8l-.4.2c-.3 0-1-.5-1.5-1l-.2-.1V206.4c.4 2.6 1.1 5 2.4 6.8 1 1.5 1.9 2.3 2.9 2.6.5.1.8.2 1.3 0zm-28-.6.5-.4-1-1.2s0 .2-.2.3l-.5.6-.4.4.1.1.4.5.4.4.2-.2.6-.5zm-3.6.8c.5-.3 1-.8 1.7-1.6a34.6 34.6 0 0 0 1-1.3l-1.8.1c-1.7 0-1.8 0-2 .2-.2.2-.4 1-.4 1.3.1.5.2.8.5 1 .3.4.6.5 1 .3zm8 0c.7-.5 1.4-1.3 1.7-1.6l.6-.6 5.1-1.5 5.2-1.6V209h-.2c-.3 0-.6-.2-.8-.4l-.6-.7-.9.2a107.6 107.6 0 0 1-9.3 2.6l-.3-.3a18.2 18.2 0 0 0-4.2-3.8 13.5 13.5 0 0 0-6.2-2.2c-1.5-.1-2.5.2-3 .8v.1h.8c1.4 0 2 .2 2 .7l-.3.8-.1.2c.2.5.8 1 1.7 1.2a8 8 0 0 0 1.7.2c.3 0 .5 0 .5.2.1.1 0 .3 0 .4h-.8c-1 0-1.8-.2-2.5-.6a2.6 2.6 0 0 1-1.1-1l-.7.5-.2.1.4.5.4.5h.2c.2-.3.4-.3 1-.3.4 0 .7.1 1.4.4.7.2 1.9.9 2.2 1.2.2.1.2.3 0 .4v.1l.6.9.7.9h.6v.6l.4.6.5.6.2-.2c.2-.2.4-.2.5 0 .1 0 .1.2 0 .8v.4l.4.4 1.3 1.5 1.2-1.1zm30.6 1.7 1.2-.5v-3.8l-2 1a36.3 36.3 0 0 0-.4 3.8l1.2-.5zm-35 .7.5-.5.4-1.5v-1.1h-.2a30.3 30.3 0 0 0-1.8 1.7l-1 .9 1.1.4h1zm-1.4 2.5c.7-.2 1.5-.7 2.2-1.3l.4-.4-.2-.3c-.3-.3-.3-.3-.4-.2-.4.4-1.1.4-2 .2-.5-.2-1.2-.6-1.3-.8-.2-.3 0-.5 1-1.4l.5-.4-.7-.9-.4.3-1.1.9h-1.2c-.3-.2-.6-.6-.8-1-.2-.4-.3-.6-.3-1.1 0-.5.1-.8.3-1.2.2-.4.5-.6.9-.6h.2l-.3-.4-.3-.3-.4.2c-.8.3-1.4.3-1.6.1-.3-.1-.4-.6-.4-1.3 0-.5 0-1 .2-1.3v-.3l-.3-.4-.4-.5-.1.2-.4.4c-.2 0-.4 0-.5-.2l-.1-.1-.4.6c-.2.4-.3.8-.3 1.5l.1.9c.3.8.8 1 2.3 1h.6l.1.2c0 .2 0 .3-.2.5-1 .7-1.4 1.6-1 2.7.2.5.3.8.6 1 .5.6 1 .8 1.8.7.4 0 .6 0 1.2-.3h.2c.2.1.2.2.1.5v1.3a2 2 0 0 0 1.5 1.5h.9zm36.3.7c1.3-.4 1.3-.5 1.3-.6a48.9 48.9 0 0 0 0-3.6l-2.4 1-.2 1.8-.2 2 1.5-.5zm-.2 4 1.5-.5v-3.8l-1.4.6-1.4.6a188 188 0 0 0-.3 3.8l1.6-.6zm-.2 4 1.7-.7a27 27 0 0 0 0-3.6 350.3 350.3 0 0 1-3.2 1.3 73.6 73.6 0 0 0-.3 3.7l1.8-.6zm-22.5 1a6 6 0 0 1-3.7-2.6c-.5-.7-.7-1.2-.7-1.8 0-.5 0-.8.3-1 .6-.8 1.8-.5 3.2.8 1 .8 1.9 2 1.9 2.5 0 .2-.3.5-.5.6h-.8c-.5-.2-1.2-.7-1.5-1.1-.2-.2-.2-.4 0-.4.1 0 .2 0 .3.2.4.5 1.4 1 1.8 1l.3-.3c0-.3-.9-1.4-1.7-2.1-1.2-1.2-2.3-1.5-2.8-1-.5.6 0 2 1 3.1 1 1 2 1.5 3.3 1.7l.6.1c0 .2 0 .3-.4.3h-.6zm1 .9.7-.2h.3v-.3a8.6 8.6 0 0 0-2.3-5.6 7.7 7.7 0 0 0-2.2-1.6l-1.6-1a54.4 54.4 0 0 1-6.4-6.6l-.3 1.5-.1.4.5.6a66.9 66.9 0 0 1 4.2 6.2c.3.9.9 2.2 1.4 3 1 1.5 2 2.6 3.3 3.2.8.4 1.7.5 2.6.4zm21.3 2 1.9-.6v-3.7h-.1l-1.8.7-1.7.7v.1a340.8 340.8 0 0 0-.3 3.5l2-.6zm-.2 4.1 2-.8v-3.7l-2 .7-1.8.8a132.3 132.3 0 0 1-.3 3.9l2.1-.9zm-8.2-10a2677.3 2677.3 0 0 0 2.6-11.3l-.5.1h-.3l-.3 1a305.3 305.3 0 0 1 .1-.9h-.2l-.7-.2h-.3l-.6 1.6c-.4 1-.7 1.9-2.3 5.3a48.5 48.5 0 0 0-3.8 10.8c0 .7 0 .8.4 1.6.5.8 1 1.6 1.8 2.4l1.2 1 3-11.4zm8 14 2.2-1.1V237l-2 .9-2.2.8a27.3 27.3 0 0 0-.4 4l2.3-1zm-.2 4 2.4-1.3v-3.6l-.6.3-4 2a44 44 0 0 0-.3 4l2.5-1.4zm-1.1-21 2-23.4-.1-.2c-.2-.3-.3-.3-.3-.2a6004.2 6004.2 0 0 0-7 38.5l3.4-19.5 3.4-19.3-.2-.4-.3-.3a10903.3 10903.3 0 0 0-10 40.5c0 .7.2 1.5.6 2 .1.3.5.7.8 1l.6.3c.8.4 1.2.7 2 1.4a21.2 21.2 0 0 1 3 3l2-23.4zm3.5 28v-8a132.6 132.6 0 0 0-5 2.7v.8l-.2.8.2.2 1.3 1.4c1.2 1.2 2.3 2 3.2 2.3.5.2.5.2.5-.1"/><path fill="#231f20" d="M140.4 155c.8-.9 1.3-2 1.7-3h1.2a13 13 0 0 0 3 5.5l.3-.2a9.3 9.3 0 0 0 2.2-5.3h.6v1.5a25.3 25.3 0 0 1-.2 5.9l-.1-.1v-1c.2-1.3.2-3.2.1-4.3v-.3l-.2.6a9.8 9.8 0 0 1-2.2 3.6l-.2.3v2.3l.7 2.3c.2.7.7 1.5.8 1.5l.2-.2a8.5 8.5 0 0 0 3.2-4.6 25.1 25.1 0 0 0-.7-7.5h.7a18 18 0 0 0 .3 1.7l1.3-.2a11 11 0 0 0 3.4-1.5h2.5c1.7 1 3.5 1.7 5.2 2a8 8 0 0 0 1.6 0l.4-.1h.1v-.3c0-.5-.1-1-.4-1.6h.7l.1.5c.2.4.3 1 .3 1.3v.1l.5.2c1.4.6 2.8 1 4 1.2a10.1 10.1 0 0 0 2.2 0 8 8 0 0 0 3.4-1.6l.1-.4c0-.3-.2-.8-.5-1.3h.7l.1.3 1 .3a42.6 42.6 0 0 0 8 1.3h1.8c2.3-.4 4.6-1 5.9-1.8v-.1h.8v.2l-.9.6a17.3 17.3 0 0 1-5 1.5l.4.3c1 .8 2.1 2.2 2.1 2.9 0 .5-.7 1.3-1.6 2-.7.4-1.7.7-2.5.8h-.3l.3.3c.3.4.6.7.8 1.2.3.5.4 1 .3 1.2 0 .3-.5.7-1.2 1-1 .5-1.8.6-3 .3l-.4-.1v.2c.4.8.7 2.2.7 2.9 0 .5 0 .6-.6.8l-1.6.2c-.9 0-1.3 0-2-.2l-.4-.1v.2c.5 1 .7 2.9.5 4.1 0 .6-.2.9-.5 1-.5.1-2.7-.3-4-.8l-.4-.1v.7c.2.7.2 1.3.2 2.3 0 1.2-.1 1.8-.4 2-.4.2-2.3-.3-3.8-1l-.4-.2c.1.4.2 1.2.1 1.7 0 1-.2 1.5-.5 1.6-.3.3-2.3 0-3.6-.6l-.3-.2v1c0 .8 0 1.2-.2 1.9-.4 1.2-1 2.3-1.5 2.4-.6.1-3.3-1.6-4.7-3a3 3 0 0 0-.3-.3l-.2.3a6 6 0 0 1-2.3 2.5c-.4.2-.6.2-1.1-.1-1-.7-2.1-1.8-2.5-2.6l-.2-.3-.3.4c-1 1-2.3 1.8-2.8 1.8-.2 0-.4-.1-.7-.4a6.6 6.6 0 0 1-1.7-2.8v-.3l-.4 1c-.6 1.7-.9 2.5-1 3.4v2c.3 1 .6 1.3 1.6 1.3.5 0 1-.2 2.6-.6 2.5-.8 3.6-1 5-1a8.1 8.1 0 0 1 6.8 3.6c.6.9 1 2 1.1 3.1v2.9a38.2 38.2 0 0 1-4 12.1l1 .4a107.8 107.8 0 0 0 8.5 2.4l.4-.4a18.6 18.6 0 0 1 6.8-5 13.4 13.4 0 0 1 4.2-.9h1.2l.4-.5a25.4 25.4 0 0 0 4.5-16.2 84.1 84.1 0 0 0 0-2.8c.2-.2.3-.1.7.2.6.6 1 1.3 1.3 2a17.7 17.7 0 0 1 .6 1.7l.5-1.7a64 64 0 0 0 1.5-11.5l.2-.1c.2 0 .7.6 1.2 1.4a14.2 14.2 0 0 1 2.1 5.4l.1-.3a45.6 45.6 0 0 1 2.7-4.6 15.9 15.9 0 0 1 3.4-3c.4-.2.5-.2.7 0v.8c-.3 1.4-.4 2.4-.4 3.2v.6l.3-.3a60 60 0 0 0 2.7-3.4 8.9 8.9 0 0 1 5-2.6h.4c.1.1.2.3.1.4a37.1 37.1 0 0 1-3 4.2l.7-.5a34 34 0 0 1 15.5-6.7 23.8 23.8 0 0 1 3.7.1v.2c0 .2 0 .3-2.8 1.9a46.4 46.4 0 0 0-5.3 3.5 7 7 0 0 0-1 1.2h.3a19.3 19.3 0 0 1 5-.4 22.8 22.8 0 0 1 10.3 4s0 .2-.2.3h-.6c-2.4-.3-5-.3-7-.3-4.1.2-7.1.9-10 2.2l-.3.1h1.4c1.5 0 2 0 2.9.3 3.1.6 5.4 2.5 7 5.9.2.6.2.7 0 .8l-.1.1-.8-.4a15.6 15.6 0 0 0-10.4-2.7 34.8 34.8 0 0 0-11.3 3.8h.6a10 10 0 0 1 6.8 3l1.8 2v.2l-.2.1-1-.1c-2.6-.6-4-.8-5.6-.9a18.7 18.7 0 0 0-9.5 1.9l.4.1c2 .7 3.2 1.9 3.8 3.7l.4 1.3s0 .2-.2.2c-.1.2-.2.2-.7-.2a9.1 9.1 0 0 0-4.2-1.7h-2c-1.8.2-3.6 1-5.5 2.5-1.3 1-2.2 1.8-3.9 3.7l-.7.8v.5l-.2.8v.3l.1.2a3.6 3.6 0 0 1 .8 2.5c0 .8 0 1-.2 1.5-.2.3-.5.6-.9.8l-1 .2c-.4 0-.4 0-.2.3.3.3.6.9.6 1.4 0 .8-.3 2-.8 2.5a3 3 0 0 1-2.8 1 6 6 0 0 1-.3-.2v.5c0 .5-.1.8-.3 1.2-.4.8-1 1.2-1.9 1.4l-.6.1c-1 0-2.2-.8-3-1.6l-.3-.3a71.5 71.5 0 0 0-3.7 5.6 14.4 14.4 0 0 1-2.9 4.7 6.5 6.5 0 0 1-3.5 2.1h-1.9a3 3 0 0 1-1-.5v-1.8a9.1 9.1 0 0 1 2.6-4.9c.6-.6 1.2-1 2-1.5l1-.5c1-.8 2.8-2.4 4.7-4.6l.5-.6-.5-.5-2-2-.8-.8-5-1.6-5.2-1.5v.5c-.3 1.8-1 3.5-1.5 4.2-.6.8-1.5.6-2.8-.5l-.7-.7c-.5-.4-.8-.6-1.2-.7a1 1 0 0 0-.2 0l-.3.4c-.5.6-1.3 1.4-1.8 1.7a59 59 0 0 0 2.4 6.2 203 203 0 0 1 2 4.5c1.5 3.5 2.2 5.8 2.3 7.2 0 .8 0 1.2-.5 2a9.1 9.1 0 0 1-3 3.3l-.3.3V240.4a6 6 0 0 1-.5 2l-.8 1-1.1.8c-1.6.9-3.3 2.4-4.8 4.4-.6.8-.7 1-1.5 1.7-1.2 1.2-2.2 2.1-3.2 2.7v-.7l1.5-1.2 2.1-2 .1-.2v-.7l-.1-.8-2.7-1.5-.9-.4v-.2l.8.4a214.1 214.1 0 0 0 2.7 1.2 162 162 0 0 1-.3-3.7L141 242l-.7-.3v-.2l.6.3a358.6 358.6 0 0 0 2.6 1 527 527 0 0 1-.5-3.8l-2.3-1h-.4v-.3l.4.2a185.5 185.5 0 0 0 2.4.9l-.4-3.8a13 13 0 0 0-2.4-1v-.2h.3l2 .9v-1.9a118.2 118.2 0 0 1-.3-2l-2-.7v-.2h.1a99.2 99.2 0 0 0 2 .6 421.6 421.6 0 0 1-.4-3.7 17.6 17.6 0 0 0-1.7-.6v-.2a47.9 47.9 0 0 0 1.6.4 151.3 151.3 0 0 1-.3-3.8l-1.3-.4v-.2a32 32 0 0 0 1.2.3 152.7 152.7 0 0 1-.3-3.6l-.9-.4v-.2l.9.3-.2-1.9c0-1-.2-1.8-.2-1.8l-.5-.3v-.2l.5.2v-.2c0-.1 0-1-.2-1.9l-.1-1.6-.2-.1v-.2h.1v-7.8a93470.5 93470.5 0 0 1 4.3 45.6s.2-.4.5-.6c1.3-1.7 2.8-3 4.2-3.7a3.7 3.7 0 0 0 2.2-3.5v-.5l-5.2-20a11823.9 11823.9 0 0 0-5.3-20l-.2.5-.3.4 3.7 19.3 3.8 19.5v.1h-.2l-3.7-19.4-3.8-19.3v-1a10.2 10.2 0 0 0 1-2v-.1l-.5-.5-.6-.7v-.9a17.3 17.3 0 0 0 1.4 1.5l.3-.2c1-1.3 1.8-3.3 2-5 .2-.6.2-.6 0-.7a7 7 0 0 1-1.8-1.7 10 10 0 0 1-1-1.8l-.2.2v1.4a47 47 0 0 1-.2-.8l-.2.2-.3.4V188l.5-.9-.3-.2-.2-.2v-.9l.8.8.5-.3a10.8 10.8 0 0 0 2.9-4v-.4l-.1-.3c-1-1-2-3-2.4-4.5l-.2-.5-.1.3c0 .2-.2.4-.3.5v2.6a112.8 112.8 0 0 1-.3-2l-.2.4-.6.8v-1c.5-.7.8-1.5 1-2.2.3-.5.3-.5 0-.6l-1-.7v-.8a9.2 9.2 0 0 0 1.7 1.1l.2-.1c.4-.3 1-1.2 1.4-2.2.5-1 .8-1.7 1-2.6.1-.7.1-.7-.2-1-.7-.6-1.6-1.8-2.1-2.8l-.3-.6v.2l-.3.5-.2.5a263 263 0 0 1-.1.2l-.2.3-.9 1v-1a7 7 0 0 0 1.3-2.4v-.3l-.1-.2a8 8 0 0 1-1.2-1.5v-1.2l1 1.6.7.8h.2l.9-1a16 16 0 0 0 2.7-4.8l.1-.4-.2-.3a14.4 14.4 0 0 1-3-5.3l-.2 3.4-.2 3.8-.1.6.1-4.6a667.8 667.8 0 0 0 0-2.6l-.7 1.3-1.3 1.6v-.9zm5.6-3a40.3 40.3 0 0 1 .3 1.6V152h-.3zm22.4 0a19.6 19.6 0 0 0 5.6.8v-.1h-.5l-1-.1c-1.2-.1-2.3-.3-3.4-.6h-.7zm29.3 65.5v-4.7l-2.4 5.3a254.2 254.2 0 0 0 2.3 4v-4.6zm1.4 2.5 1-1.9s-2-5-2.2-5.2v9.1l1.2-2zm-1.7 2-1.2-2a15 15 0 0 0-1.2-1.9 289.1 289.1 0 0 1-5.6-.5 574.4 574.4 0 0 0 8 4.5zm4.9-2.2 3.8-2.2-5.7.6a300.6 300.6 0 0 0-2.2 4l4-2.4zm.6 2.5a300.4 300.4 0 0 1 3.3-4.5h-.1l-4 2.3-3.8 2.2c-.1.1-.1.1 2.2.1h2.4zm-5.5.1-8.2-4.7 1.7 2.4 1.7 2.3H197.4zm8.8 4.8-1.7-2.3-1.7-2.3h-4.6a1250.3 1250.3 0 0 0 8 4.6zm-12.8-2.3 3.9-2.3H192.6L191 225l-1.6 2.4 4-2.4zm12.7 2.5-8-4.6 2.3 4a317 317 0 0 0 5.7.6zm-13.8-.2 2.8-.3 2.3-4a1134.7 1134.7 0 0 0-8 4.6l3-.3zm6.7 2.4 1.2-2.7-2.3-4a358.5 358.5 0 0 0 0 9.4l1.1-2.7zm-1.4-4.3v-2.4l-1.1 2-1.2 2.1 2.3 5.2v-6.9zm0 8.2a71.8 71.8 0 0 1-2.7-6 83.6 83.6 0 0 0-6.7.7l-.1-.3 2-2.7 1.8-2.7a199.4 199.4 0 0 0-3.8-5.4c0-.1.1-.3.3-.3a206.6 206.6 0 0 1 6.5.7 157 157 0 0 0 2.6-6h.4l1.4 3 1.3 3a156.2 156.2 0 0 0 6.7-.6s.1.2 0 .4l-3.7 5.1a82.2 82.2 0 0 1 3.8 5.4c0 .2 0 .3-.2.4l-3.3-.3-3.3-.4a198 198 0 0 0-2.7 6c0 .1-.3.1-.4 0zm-10-73.8c1.1-.2 2-.6 2.8-1.3.2-.3.6-.8.6-1l-.5-.8a6 6 0 0 0-2.1-2l-.4-.2h-.3c-.7.1-2.4.1-3.2 0a40.6 40.6 0 0 1-6.7-1.4v.3c0 .4 0 .6-.6 1l-.3.3 2 .8a28.4 28.4 0 0 0 8 1.6c-2.8 0-6.1-.7-9.5-2l-.7-.3h-.1l-.7.4-.6.3v.1a25 25 0 0 0 12.4 4.2zm-15.2 1.7c1-.2 1.8-.4 1.9-.6 0-.2-.2-1-.6-1.8a15 15 0 0 0-2-2.7l-.4-.4h-.5c-1.2-.3-2.5-.7-3.9-1.3-.3-.2-.3-.2-.5-.1-.4 0-.9.1-1.6 0h-.9l.2.2.7.7a18.3 18.3 0 0 0 6.6 4c0 .2 0 .2-.4 0-1.7-.3-4.4-2.1-7.1-4.6l-.4-.3-.4-.1-2.1-.7.1.2a8.6 8.6 0 0 1 2.1 4c1.7 1.4 3.5 2.6 4.8 3a10 10 0 0 0 4.4.5zm-15.7 1.4c.3-.8.2-2.6-.2-4.1-.3-.8-.5-1.4-1-2.2l-.2-.4.1-.2h.5a10.4 10.4 0 0 0 6.5 3.5h.2v-.1a5.9 5.9 0 0 0-1-3.7c-.7-1.3-1.8-2.3-3.3-3.3l-.5-.3-.3.3-.7.5-.4.2.2.3a10 10 0 0 0 2.8 2.3c.3.2.4.2.3.3h-.3a10 10 0 0 1-3.1-2.7l-.6.2a10.8 10.8 0 0 1-2.4.9l.2 2c.2 1.2.5 2.5.8 3.3v.4c-.2 0-.7-1.7-1-3a23.7 23.7 0 0 1-.2-2.7 9.2 9.2 0 0 0-1 .2l-.2.1a38.6 38.6 0 0 1 .2 4.1v1.9l.4.2c1 .8 2.6 1.7 3.6 2 .5.3.5.3.6 0zm29.6 1c.6-.1 1.2-.4 1.5-.7l.2-.3c0-.3-.2-.8-.5-1.2-.3-.5-.7-.8-1.2-1.1l-.7-.3c-3.4-.5-7.2-2-10.3-4l-.8-.5h-.4l-.4.2.5.5a29.7 29.7 0 0 0 11 5.6l-2-.5c-3.5-1.1-6.9-3-9.5-5.3l-.4-.3h-.5l-.6.1.3.3c.5.6 1.2 1.5 1.6 2.3l.2.3.6.4a35.3 35.3 0 0 0 10.8 4.5h.6zm-17.3 2.5c.3 0 .3 0 .3-.5l-.4-3.2c0-.3-.3-.6-.4-.8l-.6-.2c-.7-.3-1.9-.8-2.8-1.5a30.2 30.2 0 0 1-1.8-1.3v.3c0 .3-.1.7-.3.8l-.7.2h-.3l.3.2a15.7 15.7 0 0 0 4.9 3.6v.1c-.2.2-1.7-.7-2.8-1.5-.7-.5-1.3-1-2-1.8l-.7-.7-.4-.1a12 12 0 0 1-1.5-.4l.3.5a18 18 0 0 0 4 4.8c1 .8 2.3 1.4 3.5 1.6h1.4zm14.4 1.3.5-.1h.2v-.2a9 9 0 0 0-.4-2.2c-.2-.6-.6-1.3-.7-1.3a35.8 35.8 0 0 1-8.2-3.7v.9c0 .2-.2.4-.4.5l-.3.1.3.2a27 27 0 0 0 6.7 4 23.7 23.7 0 0 1-6.7-3.7l-.5-.4h-.3c-.5.2-1.3.3-2.4.4h-.1l.5.4c2.4 2 5.7 3.9 8.4 4.8 1 .3 1.4.4 2.4.4l1-.1zm-38 1c1-.5 1.9-2 2.3-3.3l.1-.4-.1-.1-.7-1c-.5-1-.8-2.3-1-3.4 0-.6 0-.6-.3 0l-.3.5v2.1a51.9 51.9 0 0 1-.2-1.5v-.2l-.3.5a12.1 12.1 0 0 1-2.3 2.8c-.2.1-.2.1 0 .6a9.7 9.7 0 0 0 2.6 3.6l.3-.1zm18.2.1.1-1.9v-1.4l-.4-.5a19 19 0 0 1-4.1-5.4l-.3-.5h-.2a11.7 11.7 0 0 1-1.9-1.3l.6 2.5a24.3 24.3 0 0 0 3.8 5.7l-.4-.2a23.1 23.1 0 0 1-3.3-4.5v.3l-.2 1.5c-.2.6-.5.8-1 .6h-.2l.2.5c.4 1 1.1 2 1.6 2.4l1.6 1.1a12 12 0 0 0 3.8 1.3c.2 0 .2 0 .3-.2zm-8.4 3.5c.4-.3 1.1-1.3 1.5-2a6 6 0 0 0 .7-2.8v-.5l-.3-.3c-.6-.7-1.2-1.9-1.6-2.9l-.2-.5-.4-.2a44 44 0 0 1-1.1-.6 75.2 75.2 0 0 0-.2 0l-.3-.3-.7-.4-.4-.3v.4a64 64 0 0 1-.5 5l-.2 1 .1.1a12.7 12.7 0 0 0 2.3 3.5l1 1 .3-.2zm24.7.4.2-1.4a7 7 0 0 0-.7-3.2l-.2-.3-.6-.3c-2.9-1.2-5.8-3-8-5l-.5-.4h-.8v.2c.2.3.3.4.4 1.2l.2.9.6.6a32 32 0 0 0 8.2 5.8l-.7-.2a31.7 31.7 0 0 1-7.6-5.4l-.6-.6v.2l.1.8c0 1 0 1.2-.4 1.3l-.2.1.3.4c.8.7 1.7 1.5 2.9 2.3l2.9 2c.9.5 3.2 1 4.3 1.1h.2v-.1zm-32 1.7 1.2-1.2 1-1.6.1-.3a38.1 38.1 0 0 0 1.3-9.6v-.3l-.1.2-1.5 2-.4.5v.6c0 1.9-.2 3.3-.8 5.2-.2.6-.3.7-.4.6l.2-.7c.5-1.7.8-3 .8-4.7v-.9l-.3.3-.4.3-.2.2a7.9 7.9 0 0 1-2.7 4.3c-.2.2-.3.2-.2.3v.4a11.3 11.3 0 0 0 2.2 4.5l.2-.1zm27.3 2.2c.1-.4.2-1.7.1-2.4 0-.9-.3-2-.4-2.1a177.8 177.8 0 0 1-6-4.5l-.4-.5h-.4a9.3 9.3 0 0 1-1.2-.1l.4.5a36.4 36.4 0 0 0 6 7l-1.6-1.4a35.8 35.8 0 0 1-5.2-6.3 8.3 8.3 0 0 1-2.2-1l.3 1a31 31 0 0 0 5.3 7.7c1 1 3.2 2 4.9 2.4.4 0 .4 0 .4-.3zm-4.5 2.4v-.5c.2-.9 0-2.5-.1-2.7l-1.4-1.1a33.1 33.1 0 0 1-4.7-6.8l-.2-.3v.5c0 .7-.2 1-.5 1.3-.1.2-.1.2-.4.2h-.6l-.4-.1 1 1.7a21 21 0 0 0 4.8 5c0 .2-.2.1-.5-.1a21.2 21.2 0 0 1-5.3-6.3l-.3-.4-.7-.2-.7-.3 1 2.3c1 2 2.2 4 3.1 5.2.8 1 2 1.8 3.7 2.3l1.6.4h.6zm-25.3 2.4c.4-.2 1.2-.9 1.6-1.4a10.7 10.7 0 0 0 1.5-2.8l.5-1.4a35.7 35.7 0 0 0 .5-2.1 9 9 0 0 1-1.1 1l-.9.5c-.3-.1-.9-.9-1.5-2a3 3 0 0 0-.4-.7l-.1 2.7c-.1 2.8-.2 2.9-.3 2.7l.1-3 .2-3-.2-.4-.2-.6-.2.6c-.4 1.3-1 2.6-1.8 3.5l-.7.6v.8c.4 1.4 1.2 3.1 2 4.4l.8.7h.2zm5.8.7c.7-.4 1.8-1.3 2.4-2l.2-.2V176.6c0-1 .3-2.7.5-3.7v-.2l-.1-.2a14.2 14.2 0 0 1-1.5-1.6l-.6 2.4a59.7 59.7 0 0 0 .3-2l.1-.6-.2-.3-.8-1.3-.1-.2-.1.3-.2 1c-.4 2-.8 3.5-1.4 5.5a9.2 9.2 0 0 0-.6 3.7c.2.8.8 1.8 1.5 2.4l.3.3.3-.1zm6.3 1a5.7 5.7 0 0 0 2.2-2.7l.1-.1-.2-.4c-.4-.5-.5-.8-.8-1.7a33 33 0 0 1-1.6-7.4v-.2.1l-.8 1.2-.3.4v.8a131.5 131.5 0 0 0-.2-.6l-.3.2c-.2.2-.4.4-.6.4l-.2.7a15 15 0 0 0-.2 6.6c.3.7 1 1.5 2 2.2l.8.6.1-.1zm7.9.2c.4-.5.8-1.5 1-2.5v-2.2l-.3-.2c-.6-.4-1.2-.9-1.6-1.4a39.5 39.5 0 0 1-4.8-8.5l-.2-.1.4 1.8a32.4 32.4 0 0 0 3.8 9.7 37.2 37.2 0 0 1-4.5-11.7l-1-.6-.3.9a22.5 22.5 0 0 0 2 11c.6.8 1.7 1.8 3 2.7.9.6 2 1.3 2.2 1.3 0 0 .2 0 .3-.2zm32.2 2a123.8 123.8 0 0 1 11.3-12.5l-1.5.6c-1.3.7-2.3 1.6-3.7 3.4a278.8 278.8 0 0 1-4.4 5.9 301.3 301.3 0 0 0-1.7 2.7zm.8 2a71.2 71.2 0 0 1 18-10.5l.5-.2.2-.3c.8-1 1.8-2 2.8-2.8a36.2 36.2 0 0 1 5.7-3.4l-1.9.6a83.2 83.2 0 0 0-26.2 17.3l1-.7zm2 .4a65.8 65.8 0 0 1 12.6-5l.9-.3c.1-.2 2-1 3-1.5 2.3-.9 4.7-1.4 8-1.6a84.1 84.1 0 0 1 7.2 0l-2-.6a23 23 0 0 0-7.3-.6 42.3 42.3 0 0 0-23.6 10.3l1.1-.7zM199 186a82.7 82.7 0 0 1 24-15.5 39.6 39.6 0 0 1 2.3-.9l-2.3.1c-3.7.5-7.8 2-12.1 4.8a49.6 49.6 0 0 0-5.2 3.8l-8.5 9.3-.8 1 1-1 1.6-1.6zm-54.3 4.6c.4-.3 1-1 1.2-1.6a6.1 6.1 0 0 0 .5-3.6v-1c0-1 .2-1.8.7-3.4l.2-.6-.4.4-.7.6-.9.5-.2.4-.3.9-.2.3v2a36.3 36.3 0 0 1-.1 2.2v-1.9l-.1-1.8-.2.3a11 11 0 0 1-2.5 2.7v.3a9 9 0 0 0 2 2.9l.8.6.2-.2zm49.3 0a353.3 353.3 0 0 1 11.4-12.7 130.7 130.7 0 0 1 3.8-5.3l-2.5 2.4a119.9 119.9 0 0 0-12.7 15.6zm0 1.2a35.5 35.5 0 0 1 3.5-2.7c6-5 11.9-8.3 17.8-10a28.5 28.5 0 0 1 15.6-.6 23.3 23.3 0 0 0-7.4-2.3 21 21 0 0 0-6.3.6 66 66 0 0 0-23.1 15zm1.6.8a26.2 26.2 0 0 1 7.3-2.9l3.1-1.5a24.4 24.4 0 0 1 14.1-2.7c1.8.3 3.5 1 5.6 2.2a12.1 12.1 0 0 0-4.3-2.6c-3-1-6.3-1-10-.3a44.3 44.3 0 0 0-15.8 7.8zm-4.8 0 4-9.5.1-.6-.1-.8a17 17 0 0 0-2.2-5.7v.4a39 39 0 0 1-1.9 16.2zm1.2 0 8.5-12.8.7-1v-.7c0-1 0-1.9.2-3.3l-.8 1.6a358.3 358.3 0 0 1-8.6 16.3zm-1.3 1.3a355.5 355.5 0 0 0 10.6-19.6l-1.9 1.6c-1.3 1.3-2.4 3-3.6 5.8l-.4 1-.4.8a178.6 178.6 0 0 1-4.3 10.4zm.4 1.6a48 48 0 0 1 22.8-11.3c4-.4 7.7.3 10.5 2.1a9.7 9.7 0 0 1 1.4 1.2l-.5-.9a8.4 8.4 0 0 0-6.1-4 18.8 18.8 0 0 0-7.1.6 52.6 52.6 0 0 0-16.5 7.9 58.6 58.6 0 0 0-4.5 4.4zm1.4-.1a22.2 22.2 0 0 1 18.7-2l.5.3c.2 0 .1 0-.2-.3a10.4 10.4 0 0 0-3.9-2.6c-1-.3-2-.5-4-.5l-.7-.1-2.2.6a29.2 29.2 0 0 0-9 5l.8-.4zm-3.5.5a40.8 40.8 0 0 0 3.7-15.8c0-1.7-.1-2.8-.3-4-.1-.7-.1-.6-.2.6a57.5 57.5 0 0 1-2.3 13 31.2 31.2 0 0 1-.9 6.2zm.9.9-.5.4.2-.2c.2 0 .3-.2.3-.2zm-1.3 2a17.3 17.3 0 0 1 7.4-3l.6-.3a23 23 0 0 1 7-2 27 27 0 0 1 8.7.7l-1-.5a19.6 19.6 0 0 0-9.9-1.2 21.9 21.9 0 0 0-13.3 6.7l.5-.4zm12 .5-.2-.4c-.7-1.3-2-2.1-3.9-2.5-.4-.1-.5-.1-.8 0a16.3 16.3 0 0 0-6 2.3c2-1 4-1.6 5.8-1.5.7 0 1.1 0 1.7.3a7.2 7.2 0 0 1 3.5 2v-.2zm-38.3-6.4v-.4c0-1-.5-2-1.3-3.3l-1.1-1.4c-.2-.2-.3-.3-.2-.4l.8.8c1.2 1.5 2 3 2 4.3l-.1.4h-.1zm-4.6 0v-.3a8.4 8.4 0 0 0-2.6-5.1l-.5-.5c0-.2.1-.1.4 0l1.6 2a8 8 0 0 1 1.3 3.8v.3l-.2-.1zm-6.6.5v-.3a6 6 0 0 0-2-4l-.6-.5-.3-.3c.1 0 .4.1.9.5.9.8 1.6 2 2 3 .1.8.2 1.7 0 1.7zm-6.2 7a7.6 7.6 0 0 0 2-5.4c0-1-.1-1.8-.4-3-.2-.5-.2-.6 0-.7.1-.1.2 0 .6.2 1.2 1.2 2 2.8 2.7 5.2l.3 1 .2.4v-.1c.4-.4 1-1.2 1.3-1.9 1-2 1.2-4.6.6-7.4v-.7h.5c1.5.7 2.6 2.6 3.3 5.6a40 40 0 0 1 .9 4.9l.2-.2c.9-1 1.6-2.5 1.8-4.2l.1-1.4a12 12 0 0 0-.4-3.3c-.2-.7-.2-.8 0-1h.3a19 19 0 0 1 1.7 3.4 31 31 0 0 1 1.4 4.5c.3 1.3.2 1.2.4 1 .5-1 1-2.4 1.1-3.5.2-.7.2-1.8 0-2.3a7 7 0 0 0-3.1-4.5c-.9-.5-1.7-.9-2.8-1-.6-.2-2-.2-2.8 0-1 0-1.7.3-3.3.7-2 .6-2.2.7-3 .7l-.8-.1a2 2 0 0 1-.4-.2c-.2-.2-.2-.2-.2 0v.5a6.4 6.4 0 0 1-2.2 3.7v.3l-.2.8v.7a11.5 11.5 0 0 1 .2 4.2c-.1.1-.1 0-.1-1V194l-.3-.7v.3c-.3.9-1 2.3-1.4 3l-.3.4v.3a7.6 7.6 0 0 0 1.9 3.4l.2-.2zm39 3.5c1-1 2.5-3 3.2-4.6a25.2 25.2 0 0 0 2.4-10.2l-.2-.9-.8-2.2-.7-1v.1l-.1 5.4c-.2 3-.9 5.6-2 8.3-.7 1.4-1.8 3.4-2.6 4.6l-.1.2.3.2a2 2 0 0 1 .5.3l.2-.2zm1.4.8c1.5-1.8 2.9-3 4.3-4 3.2-2 6.3-2.6 9.2-1.5a13.2 13.2 0 0 1 2.2 1s-.5-.7-1-1.1c-.8-.6-1.6-1-2.4-1.3-2.8-1-6.1-.2-9.8 2.3-.8.5-1 .7-1.5 1.5l-2 2.6-.2.2v.2l.4.8.8-.7zm-32.6.8.7-.6c1.5-1.4 2.6-3.4 3-5.3v-.5l-.3-1.6-.3-1.9c-.5-3.2-1.4-5.3-2.5-6.4l-.4-.4v.3l.1.8.2.8c.7 1.6 1 4.3.9 6.6 0 1.2-.3 3-.4 3.3 0 .1-.1.2-.2 0v-.5a20 20 0 0 0-.4-9.3v.6a9.3 9.3 0 0 1-1.3 5.7l-.2.3.1.7a36.2 36.2 0 0 1 .4 7.7h.2l.4-.3zm-6.8-.3c.5-1.8.7-3.4.6-4.6v-1.1s-.2 0-.3.2c-.5.9-1.2 1.6-1.5 1.6l-.7-.4a8.7 8.7 0 0 1-.7-1l2.3 6.2.3-.9zm37.8 2.6c.2-.5.2-.9.2-1.5v-.5a7 7 0 0 0-2.4 0l.9.8a4.1 4.1 0 0 1 1.2 1.4l.1-.2zm-38.5-.2.1-.5a1293.1 1293.1 0 0 1-3.4-8.9l1.4 4.6a2212.4 2212.4 0 0 1 1.8 5.3l.1-.5zm13.1.7c.4-.2.7-.6 1-1.3a104 104 0 0 0 4-10s-.2.1-.3.4c-.4.7-.6 1-.9 1l-.3-.3-.3-1.3a30 30 0 0 0-2-5.7l.1 1.4v1.4a26.8 26.8 0 0 1-.2 8.6h-.1v-.7a28.1 28.1 0 0 0 .2-7.4l-.4 1.6a7.2 7.2 0 0 1-2 3.1v1.2c-.3 3.2-.2 4.9 0 6.1.1.9.3 1.4.7 1.7l.3.3.2-.1zm-12.5.7.7-.7a17.7 17.7 0 0 0 4.5-10l-.3.1c-.4.5-.7.5-1 0l-.3-1a16.2 16.2 0 0 0-2-4.5l.2.6c.9 3.2 1.1 6.7.6 9.6l-.2.8v-.6a23 23 0 0 0-.3-8.3c-.2-1-.2-1-.2 0a7.8 7.8 0 0 1-.6 3.3v.6a11.2 11.2 0 0 1 0 4.5 37.3 37.3 0 0 1-1.5 5.9l.4-.3zm36 2.5V209.9c-.2-.4-.3-.7-.5-.8-.4-.2-1.4 0-2.5.6l-1 .5a33.2 33.2 0 0 0 3.8 1.5l.2-.1zm-35.3-.7.3-1.3v-.6l-.3.2-.8.8.5 1.9v.2l.1-.2.2-1zm32.6 1.1.3-.4-.7-.3a42 42 0 0 1-1-.5l-1.2 1.6h2.2l.4-.4zm-33.2 1.4.3-.9-.4-1.1a52.3 52.3 0 0 0-.5-1.2c-.3.2-.6 0-.6-.2s0-.6.2-1v-.4l-1.5-4.9a289.7 289.7 0 0 0-1.7-4.7l2 7.7 2 7.6.2-.9zm30.4 1.8.4-.4-.4-.5a23.4 23.4 0 0 1-.7-.8l-.9 1.1a15.8 15.8 0 0 0 1.2 1l.4-.4zm-20.4.3a13.4 13.4 0 0 0 1.5-5.8v-1l-.1-.1c-.5-.6-.8-1.5-1-3a44.3 44.3 0 0 1 0-3.8s0 .3-.3.6a12 12 0 0 1-1 1.7l-.3.4.2.6c.8 2.9 1 5.6.5 7.5 0 .3-.1.3-.2.2v-.4c.2-.6.2-1.1.3-2a17 17 0 0 0-1-5.8l-.1.3-.2.1v.7a16.5 16.5 0 0 1-2.3 7.6l.3.1 1.1.8c.8.7 1 1 1.4 1.1.3.3.6.4.8.4l.4-.2zm23.5.4c.3-.2.6-.6.8-1 .2-.7 0-1.6-.5-1.8l-2.4-.1h-1.2l.1.2c1 1.2 1.9 2.2 2.4 2.5.4.3.5.3.8.2zm-31.2 0c.9-.3 1.8-1 2.6-2.1 1.5-2 2.5-4.9 2.8-7.8v-.3h-.2c-.8.8-1.4 1-1.7.9-.2-.2-.2-.2-.2-2.5l-.1-3.7-.2.6-.4 1.3-.2.6v1.4c-.1 3-.6 5.7-1.4 7.6-.2.4-.2.5-.3.4v-.3c.4-.8.8-2 1-3.3a28.2 28.2 0 0 0 .4-5.2 20.5 20.5 0 0 1-2.7 4.7 25.6 25.6 0 0 1-1.2 6l-.3 1v.3c.5.4 1.3.5 2 .3zm24 .7c1-1 1.3-1.5 1.3-1.6v-.5l.1-.7.5.2.2.1 1-1.2-.2-.1v-.5H175.8l.7-.9.7-.9c-.2-.1-.2-.3-.1-.4l1.5-1c1.4-.7 2.6-.9 3.2-.5l.1.1.8-.8v-.2l-.8-.6-.1.2c-.6.8-1.9 1.4-3.7 1.4h-.6c-.1-.1-.1-.2 0-.4l.6-.2c1.6 0 2.8-.5 3.2-1.2l.1-.2-.1-.2-.3-.4c-.2-.5 0-.8.8-1a10.8 10.8 0 0 1 2 0l-.3-.4c-.6-.6-2-.8-3.8-.5a15.9 15.9 0 0 0-9.6 6.2h-.8a80.1 80.1 0 0 1-9.3-2.8l-.3.3c-.2.4-.5.8-.8 1l-.7.2h-.1V210.4l5.2 1.7 5.3 1.6.7.7 2.6 2.6.4-.4zm3.8 1.6c.5 0 1.2-.4 1.2-.5l-.8-.8-2-1.6c-.4-.5-.3-.5-.2.3 0 1 .3 1.8.5 2.2.2.4.7.5 1.3.4zm1.3 2.6c.9-.2 1.5-.8 1.7-1.6V218c-.2-.3-.2-.4 0-.5h.5c1 .4 2 .3 2.7-.3a3 3 0 0 0 .7-2.6c0-.5-.4-1-1-1.3-.3-.2-.3-.3-.3-.5.1-.1.2-.2.9-.2 1 0 1.5-.1 1.9-.5.2-.3.4-.8.3-1.6 0-.7-.2-1.3-.5-1.7l-.1-.2-.1.1c-.2.2-.4.3-.5.2-.2 0-.3 0-.4-.4l-.1-.2-.8 1v.2c.3.8.4 1.7.2 2.3-.1.2-.3.4-.5.4-.2.2-1 0-1.8-.3l-.3.2-.2.4h.2c.4.1.7.4 1 1.1v.7c0 .5 0 .8-.2 1.2-.3.5-.7.9-1.1 1-.6.2-1.1 0-2-1l-.4-.3-.7.9.4.4c1 .8 1.2 1 1.1 1.3 0 .2-.3.4-.7.6-.7.3-1 .4-1.6.4h-.7l-.4-.3-.3.2-.2.3.9.8a5.1 5.1 0 0 0 2 1h.4zm-15.2 9.8v-.3l.5-.1c.5 0 1-.2 1.4-.4a5.7 5.7 0 0 0 2.8-2.7l.3-1c0-.4-.1-.6-.4-.8-.5-.3-1.4 0-2.6 1-.6.6-1.3 1.4-1.5 1.9l-.1.4.4.2c.4 0 1.3-.6 1.7-1 .1-.3.2-.3.3-.2.1.1.1.2 0 .4-.6.7-1.7 1.3-2.2 1.2a.7.7 0 0 1-.5-.4c-.2-.3-.1-.5 0-.8.5-1 1.8-2.3 2.9-2.8.6-.4 1.3-.5 1.7-.3.5.2.7.5.7 1s-.1 1-.4 1.5c-.3.6-.6 1-1.2 1.6-.8.8-1.7 1.3-2.8 1.5h-1zm1.6.6c1-.2 1.8-.7 2.8-1.6 1.2-1.2 2.1-2.8 2.8-4.7l.5-1a56.7 56.7 0 0 1 4.2-6v-.4a8.8 8.8 0 0 1-.4-1.5l-.7.7a41 41 0 0 1-7.3 7l-1.6 1a8.4 8.4 0 0 0-2.8 6.1v.2l.3.1c.5.2.8.3 1.4.2h.8zm-11 7.3c1-.8 1.8-1.8 2.4-2.9.3-.7.4-.8.4-1.5l-.3-1.9c-.5-2-1.5-4.2-4-9.7a38.3 38.3 0 0 1-2.5-6.2l-.8.2c-.2 0-.2 0 0 .7a2091.4 2091.4 0 0 1 .5 2.1l-.9-2.8h-.1l-1-.1c-.2-.1-.2-.1-.2 0l2.9 11.1 3 11.2v.2-.1l.5-.3"/><path fill="#231f20" d="M82 152c0-.6.7-1.5 1.4-2.2a8.2 8.2 0 0 1 1.9-1.4l-.5-.1c-1.7-.3-3.1-1-4.4-2.2-.6-.6-1-1.5-1.1-1.8l.1-.5a6.7 6.7 0 0 1 3.7-3l-.4-.2c-1.2-1-2.3-2.4-2.4-3 0-.5.9-1.5 2-2 .5-.3 1-.5 1.6-.5h.3l-.4-.4a30.2 30.2 0 0 1-6-6c-1.1-1.9-2.1-5.4-1.8-6.1.2-.5 1.5-1 2.5-1.2h.4l-.3-.3a26 26 0 0 1-6-12l-.6-3.5c-.2-2 0-4.3.6-6 .3-1 .6-1.4 1-1.5.3 0 .7.1 1.2.6l.3.2a48.2 48.2 0 0 1-1-6.3c-.1-1.2 0-2.2.2-3.1.4-1.5 1-2.7 1.6-3.3.5-.5 1-.3 1.8.8l.1.2v-.3c0-.8.2-2 .4-2.8.4-2 1.4-4.2 2.3-5.2.4-.3.5-.4.8-.3.2 0 .5.3.6.5l.2.2V79a11 11 0 0 1 2.6-6.5c1-1.4 2.6-2.6 3.2-2.7.2 0 .4 0 .4.2.1.2.1.5 0 1.6a43.7 43.7 0 0 0 2 19.7 67 67 0 0 0 6 12.8c0-.2.1-.3.3-.3a355 355 0 0 1 1.4 2.3 39.5 39.5 0 0 0 9.6 12.6v-.4c-.3-.8-.2-1 .2-1s.9.3 2.2 1.5l1.7 1.6a15 15 0 0 0 4.2 3l2.3 1.4a9.3 9.3 0 0 1 3 3c1 1.7 1.5 3 1.7 4.8 0 1.3-.1 3.2-.5 4.3-.4 1-.7 1.5-2.2 2.9-.5.4-.8.8-1 1.1-.3.7-.5 1.6-.4 2.4a6 6 0 0 0 3 4.7c1 .4 2.4.8 3.6.9h.4l.2-.4a42 42 0 0 1 2.2-5l1.4-2.8a26.8 26.8 0 0 0 2.6-11.2l.2-4.3v-1.6l-.2-.1c-.3-.3-1-.5-1.7-.7H128c-2.6.5-4.3.4-5.7-.5l-.6-.3c-.3 0-.8-.3-1.1-.5l-1-1c0-.1-.1-.2 0-.2 0-.2 0-.2.5 0 .5.3.8.4 1.4.4.9 0 1.5-.2 3.2-1.1 1.9-1 2.6-1.4 3.8-1.4a6.3 6.3 0 0 1 3.5.8l-.7-.6c-.8-.5-2-.9-3.6-1-.7-.2-2.8-.2-3.4 0-2 .2-3.3.8-3.8 1.8-.1.3-.4.4-.5.1l-.3-1.2V116c.3-.9.6-1.4 1.2-2 .7-.8 1.7-1.2 3.3-1.4h3.4v-.3c0-.3 0-.5.3-.8a16.8 16.8 0 0 1 9-2.7c1.3 0 2.4 0 4 .3 1.3.2 2.1.4 5 1.3 1.3.3 2.1.4 3.4.4h1v.3l-.3 1c-.2.4-.6.8-1 1h-.2l.3.2c.5 0 .5.2.3.6-.4 1-1.2 1.5-2.5 1.7h-.4l.3.7a32.3 32.3 0 0 1 2.8 12.8l-.2.1-.6-.3-.6-.3v.2a18.3 18.3 0 0 1-.4 6.6l-.4 2.8a15.7 15.7 0 0 0 0 3l.8 2.5a70 70 0 0 0 2.1 4.4l.3.7h.2l1.6-.1c.9-.1 2-.4 2.6-.7 1.6-.8 3-2.6 3.3-4.5a5 5 0 0 0-.1-1.7l-.7-1.4-1-1a6 6 0 0 1-1.6-2c-.4-.7-.6-1.6-.7-2.9v-2.8a11.4 11.4 0 0 1 3-5.8c1-.9 1.8-1.5 4-2.6l2.5-1.5 3.3-3c1.2-1.3 1.7-1.6 2-1.7.4 0 .6.2.6.5l-.2 1a35.9 35.9 0 0 0 9.7-12.7c1-2 1-2.2 1.3-2.2.1 0 .3.1.3.3l.1.1.5-.8c2.3-4 3.7-7 5.1-11.1a43.1 43.1 0 0 0 2.3-22.3c.2-.5 1-.2 2.1.9 1.4 1.2 2.7 3 3.4 4.7a9.6 9.6 0 0 1 .7 3.4v.1l.2-.2c.3-.3.8-.5 1-.4.3.1.7.6 1 1a13.3 13.3 0 0 1 2 6.3V87l.4-.3.5-.5c.5-.5.8-.5 1.2 0 .7.7 1.3 2.2 1.6 3.7.2 1.2.2 2.7 0 4a49.6 49.6 0 0 1-.6 4.7c.5-.5 1-.7 1.4-.5.5.2 1 1.7 1.3 3.7.2 1.3.2 3 0 4.1a42.6 42.6 0 0 1-3 9.9 21.6 21.6 0 0 1-3.8 5.5h.4c.6.1 1.4.4 2 .7l.5.5c.4.8-.8 4.4-2 6.3a26.8 26.8 0 0 1-6.2 6.1h.4c1 .2 2.2.8 3 1.7.5.4.6.7.4 1.1a8.7 8.7 0 0 1-2.7 3l.4.2a6.7 6.7 0 0 1 3.4 3v.4c-.3.8-1.3 2-2.4 2.7a7.4 7.4 0 0 1-3.4 1.2h-.2l.4.3.8.5c1.2 1 2.2 2.4 2.2 3h-.7v-.4a7 7 0 0 0-2-2.2c-.7-.5-1.2-.8-2-1h-1.2c-2.5 0-6-.1-9.6-.5h-.2l-.5.2a14.8 14.8 0 0 1-2.1 1.2 45.3 45.3 0 0 0 .3.3l-.7-.2-.4.2a7 7 0 0 1-.6.1l.2.2a7.4 7.4 0 0 1 1.8 2.1h-.6l-.3-.3a6 6 0 0 0-1.3-1.3l-.6-.3a1 1 0 0 0-.5-.1h-2.3c-2-.2-4.7-.7-6.1-1.2h-2l.3.1 1.8 1.7c.2.2.2.3.6.5l2.8 1H168.2a20 20 0 0 1-2.1-1v.3c.2.1.3.4.5.7h-.7a7 7 0 0 0-1.3-1.7 8.6 8.6 0 0 0-2.8-2l-.4-.1c-.2-.1-.1-.5 0-.5h.8c1.5.4 2.9.4 4.2 0a7 7 0 0 0 2.2-.9c.7-.4 1-.7 1-1-.1-.4-1-1.3-2-2-1.2-.7-3-1.3-4.6-1.7-.4 0-.5-.1-.5-.3v-.2l.6-.2c1.7-.5 3.3-1.3 4.5-2.2.4-.2.8-.7.9-.8v-.4c-.2-.3-.9-.8-1.6-1.1-1.3-.8-2.9-1.1-4.5-1.2h-.8v-.1c-.2-.1-.2-.3-.1-.4l.4-.2c1.4-.6 3-1.6 4-2.7.5-.5.8-.8.8-1l-.6-.4a9 9 0 0 0-6-1.3h-.4c-.2 0-.2 0-.2-.2s0-.2.7-.6a22.8 22.8 0 0 0 8.3-9.8 6 6 0 0 0 .3-1.2l-1.4 1.3-2.7 2.6c-1 .8-1.8 1.4-3 2l-2.4 1.3c-1 .6-1.8 1.3-2.3 1.9-.5.6-1.3 1.9-1.6 2.7a8.7 8.7 0 0 0-.8 4 9 9 0 0 0 .8 3.7c.3.6.6 1 1.7 2 .9.8 1.4 1.5 1.6 2.4.5 2.1-.6 4.8-2.6 6.3a11 11 0 0 1-4.9 1.4h-.3l.2.6a21.1 21.1 0 0 1 .4 2h-.7l-.5-1.9-.2-.5v.3a2 2 0 0 1-.5.6l-.1.2v1.3h-.7a8.7 8.7 0 0 0 0-1.1s0-.2-.2-.2c-.4-.3-1-1.3-1.6-2.2l-.8-1.7-.3-.6v.1l-.1.3v.2a137 137 0 0 1 .4 5.2h-.2a105.9 105.9 0 0 0-.6-4.4c-.3.8-.8 1.6-1.3 2.2a6 6 0 0 1-1 .9v.2c0 .2 0 .7.2 1H142l.2-.8v-.3l-.2-.2c-1-.8-2-2.6-2.7-4.5l-.2-.6v1.1l-.2 5.4h-.2v-.6l.2-5.4-.3.4c-.8 1.4-2 3-2.9 3.7l-.2.1v.3l.4 1.5h-.6v-.2l-.1-.3-.2.3-.1.2h-.8l.7-1.4.1-.3v-.1l-1-1a12.8 12.8 0 0 1-2-4.3l-.2.2v.3a34.5 34.5 0 0 1-.2 4.8c-.1 0-.1 0 0-.4v-4.2l-.2.4-1 1.6-1.2 1.2h-.2v.5c0 .8.3 1.7.7 2.7h-.6a10.4 10.4 0 0 1-.6-2l-.2.2-.3.5-.3.7v.6h-.2v-.6l-.3.3-.3.3h-.9c1-.9 1.8-1.9 2.2-2.8l.2-.4-.2-.2c-.3-.3-.5-1-.7-1.6v-.4l-.4.7c-.6 1.5-1 2.9-1.4 4.4v.3h-.7a30 30 0 0 1 .6-2.4h-.2c-.8 0-2.3-.3-3.3-.7a6 6 0 0 1-2.8-2.3 6 6 0 0 1-.7-5.6c.2-.6.4-.9 1-1.5l1-1c1-1 1.3-1.6 1.6-3.5v-2.7c-.2-1.5-.7-2.7-1.6-4.2-.6-1-1-1.4-1.7-2-.8-.6-1.6-1.1-3.4-2-1.8-1-2.3-1.3-4.2-3.1a82.4 82.4 0 0 1-3.2-2.9s.1.6.4 1.1l1.2 2.4a21.8 21.8 0 0 0 7 7.3l.7.6v.2l-.2.2h-.5c-1-.2-2.1-.1-3.2 0-1.3.4-2.9 1-3.2 1.6h-.1l.1.3a13.8 13.8 0 0 0 5 3.6c.2.1.2.3 0 .4l-.7.1c-1.5 0-2.8.3-4.1 1-1.1.4-2.2 1.2-2.1 1.5 0 .2.3.6.6.8 1.1 1 3.2 2 4.9 2.4.4 0 .6.2.6.4 0 .1-.2.3-.4.3l-2 .5c-1.5.5-2.6 1.1-3.6 1.8-.6.6-1.2 1.3-1.2 1.5l.2.3c.5.6 2 1.3 3.2 1.6 1.2.3 2.7.3 4 0h.9v.4l-.4.2c-.8.3-1.8.9-2.4 1.3-.7.7-1.3 1.3-1.7 2h-.7a5.6 5.6 0 0 1 .4-.6l-.4.2-1.3.5h-.6l2.2-.9c.3-.1.4-.2.5-.4.5-.6 1.2-1.3 1.9-1.7l.2-.2h-1.8l-.4.1a35.7 35.7 0 0 1-7.2 1.2h-1.3l-.3.1-1.2.9a6 6 0 0 0-.7.9h-.7a6 6 0 0 1 1.7-2l.2-.1h-.1l-.6-.3h-.7a47.6 47.6 0 0 1-14.8 1.9v-.1h1.5l4-.1c2.8-.3 5.7-.8 8.4-1.6l.9-.3-.5-.3-1.7-1-.4-.1H97a103 103 0 0 1-8.1.5h-2.2l-.3.1a6.7 6.7 0 0 0-3.8 3.4H82zm36.3 0 .3-.3-.3-.3-1.1-1.3-.2-.2v.2l-1.7 1.3c-.5.3-1 .4-1.4.4h-.4l.4-.2h.6l1.6-1 .8-.9-.1-.2a11 11 0 0 1-1.6-4.2l-.3.1c-1.2.5-2.8.7-4 .4-.6-.1-.7-.1-.6-.2h.5c1.3.3 2.8.1 4-.4l.4-.1v-2.6c.2-1.5.7-2.6 1.5-3.6v-.2c-.9.2-2.2.2-3.1 0a8.2 8.2 0 0 1-2.7-.6h.5a11.2 11.2 0 0 0 5.3.4h.3l.3-.4a8.3 8.3 0 0 0 1.7-2.2c.3-.5.3-.8.3-1.4v-.6h-.4l-2.1-.6a29.4 29.4 0 0 1-3.3-1.2l.8.2c2 .7 3.9 1.3 4.7 1.4h.2v-.2l-.6-1.3-.2-.5c0-.2.2-.3.4-.3s.3 0 .6.7c1 1.8 1 3.2.2 4.6l-1.4 1.7c-.7.7-1 1-1.2 1.4-.5.8-.8 1.7-1 2.9v2.3c.4 3 2 5.4 4.3 7h-2zm38.2 0a10 10 0 0 0 3.2-3.9c1-2.3 1.4-5 .8-7.1-.3-1.2-.6-1.7-1.8-3l-.8-.9c-.7-.8-1-1.5-1-2.3-.2-.9 0-2 .7-3 .2-.6.4-.7.6-.6.2 0 .3.1.3.3l-.3.7-.5 1.3 1.6-.3a36 36 0 0 0 4-1.2l-.1.1c-2.5.9-4 1.4-5.1 1.5-.5.1-.5 0-.5.8 0 .5 0 .8.3 1.2.2.5.6 1 1.4 2l.6.6c.2.1 1.3.3 2.4.3 1 0 2.2-.3 3.2-.6l.5-.1-.3.2-2.2.6a14.6 14.6 0 0 1-3.3 0l.2.2c.6.8 1 2 1.1 3.2a14.7 14.7 0 0 1 0 2.8l.4.1a9.9 9.9 0 0 0 4.2.5h.6c0 .1-.8.2-1.8.2a8.2 8.2 0 0 1-3.4-.6l-.1.4a13.1 13.1 0 0 1-1.2 3.6l-.3.6.2.2c.7.6 1.7 1.1 2.8 1.5l.5.2v.1a8.3 8.3 0 0 1-3.6-1.9l-.2.3a12.2 12.2 0 0 1-1.3 1.6 20 20 0 0 0 .7.4h-2.5zm-16.7-93 1.1-2-2.3-5.3a181.5 181.5 0 0 0 0 9.2l1.2-2zm-1.4-5v-2.4l-1.2 2.6A134 134 0 0 0 136 57l1.2 2 1.2 2v-7zm4.4 4.8a691.7 691.7 0 0 0 4-2.4 401 401 0 0 1-5.7.6 125.8 125.8 0 0 0-2.3 4l4-2.2zm-4.7 2.1L136 57a80.1 80.1 0 0 0-5.7-.6 1223.7 1223.7 0 0 0 8 4.5zm7.2-2 1.7-2.3-8 4.6h4.6l1.7-2.3zm-7.2 2.3-8.1-4.6a112.2 112.2 0 0 0 3.3 4.6h4.8zm8.8 4.8-1.7-2.4-1.6-2.2H138.9a971.2 971.2 0 0 0 8 4.6zM134 63.8l4-2.3h-4.6a252.9 252.9 0 0 1-3.4 4.6l4-2.3zm12.8 2.5a13164.1 13164.1 0 0 0-8-4.7 77.5 77.5 0 0 0 2.4 4.1 458.2 458.2 0 0 0 5.6.6zM133 66l2.8-.3 1.2-2a4504.6 4504.6 0 0 0 1.1-2 1236.2 1236.2 0 0 1-8 4.6l2.9-.3zm5.4.4v-4.6l-2.4 4 1.1 2.6 1.2 2.6v.1-4.7zm1.3 2.1L141 66v-.2l-1.1-2-1.2-2a225.3 225.3 0 0 0 0 9.2l1.1-2.5zm-1.4 3.9a68.6 68.6 0 0 1-2.7-6 72 72 0 0 0-6.5.6.3.3 0 0 1-.3-.3l2-2.7 1.8-2.6s0-.3-1.8-2.7l-2-2.6c0-.2 0-.3.2-.4l3.3.3 3.3.3a411.2 411.2 0 0 0 2.7-5.9c.1-.1.2-.1.4 0a44.5 44.5 0 0 1 2.7 6 95.7 95.7 0 0 0 6.6-.7 728.4 728.4 0 0 1-3.6 5.5l-.1.1L146 64a233 233 0 0 1 2 2.9s-.1.2-.3.2a240.6 240.6 0 0 1-6.4-.6 834.1 834.1 0 0 0-2.7 6h-.4zm.3 11.2c.7-.2 1.3-.7 1.4-1.4.2-1.2-.8-2.3-2-2.2-.7.1-1.2.6-1.5 1.2v1c0 .7.7 1.2 1.3 1.4h.8zm0 2-.1-1.2h-.6l-.3 2.4H138.9l-.2-1.2zm13.8 6.5c.2 0 .5-.3.6-.5.1-.4 0-.9-.5-1-.6-.3-1.3.2-1.2.9 0 .2.2.5.5.6h.6zm-28 0c.1 0 .4-.2.4-.4V91a1 1 0 0 0-.7-.5c-.6 0-1 .5-.9 1 .2.5.6.8 1.1.6zm29.5 3.6c.6-.4.6-1.3-.1-1.6a.9.9 0 0 0-1 .4c-.3.3-.2.7 0 1 .4.3.7.3 1 .2zm-30.7 0c.3-.3.5-.7.4-1a1 1 0 0 0-.5-.6.9.9 0 0 0-1.2 1c0 .5.8.9 1.3.5zm29.2 3.3c.6-.1.8-1 .4-1.4a.9.9 0 0 0-1-.2 1 1 0 0 0-.5.8c0 .4.3.8.7.9h.4zm-28 0c.5-.2.6-.8.4-1.2a.8.8 0 0 0-.7-.4c-.5 0-.9.3-.9.8 0 .7.7 1 1.3.8zm14-7.4c.3 0 .4-.2.5-.4a.8.8 0 1 0-1.6-.3c0 .5.6.9 1.1.7zm-.6.2-.6-.5v-1l.5-.5h.5c.3 0 .5 0 .7.3l.3.6c0 .4 0 .6-.3.8a1 1 0 0 1-.7.3 1 1 0 0 1-.4 0zm.8 2.8c.4-.2.5-.7.3-1a.9.9 0 0 0-.6-.5c-.6-.1-1.2.5-1 1.1.2.4.5.6 1 .6.1 0 .2 0 .3-.2zm-.8.3a1 1 0 0 1-.6-1.4c0-.2.4-.5.6-.6.5-.2 1.1 0 1.3.6.1.2.1.5 0 .8 0 .2-.3.5-.5.6h-.8zm10.3.3.4-.4c.2-.3.2-.6 0-.9a.8.8 0 0 0-1.5 0c-.1.4 0 .7.1 1 .3.3.6.4 1 .3zm-.7.1c-.2 0-.5-.3-.6-.6a1 1 0 0 1 .9-1.4 1 1 0 0 1 1.1 1.1c0 .4-.2.7-.6 1h-.8zm-18.7-.1c.3-.2.5-.5.5-.8 0-.4-.2-.6-.5-.8a1 1 0 0 0-.7 0 1 1 0 0 0-.5.9c0 .5.7.9 1.2.7zm-.8.1a1 1 0 0 1-.3-1.7 1 1 0 0 1 1.3-.1 1 1 0 0 1 0 1.8h-1zm10.4 2.5c.3 0 .5-.2.6-.4a.8.8 0 0 0-.7-1.3c-.3 0-.5.1-.7.3-.4.6-.1 1.4.6 1.5h.2zm-.4.2c-.7-.2-1-.9-.7-1.5a1 1 0 0 1 1-.6c.4 0 .7.2.9.6v1c-.2.4-.8.7-1.2.5zm9.3.3c.6-.3.7-1.1 0-1.5-.3-.2-.6-.2-1 .1-.3.3-.3.7-.1 1 0 .2.3.4.4.4h.7zm-.6.3a1 1 0 0 1-.8-1.1 1 1 0 0 1 1.7-.7 1 1 0 0 1-.9 1.8zm-17-.3c.2 0 .4-.2.5-.4.2-.5 0-1-.5-1.2-.9-.2-1.5.8-1 1.4.3.3.7.4 1 .2zm-.5.3a1 1 0 0 1-.8-.7 1 1 0 0 1 .3-1.1 1 1 0 0 1 1.4 0c.3.2.4.5.4.8-.1.7-.6 1-1.3 1zm15-8.8-1-.5a11.2 11.2 0 0 0-3.4-.5l.1 1h4.2zm4.3 1a5 5 0 0 0-.5-.1v.3h.9l-.4-.1zm-3 .2-.7-.7-.2-.2h-4.6v1h5.5zm1.8.7c.3-.1.5-.4.5-.7 0-.2 0-.4-.2-.6a.8.8 0 0 0-.6-.3c-.5 0-.8.3-.9.7a.9.9 0 0 0 1.2.9zm3.1.5a4 4 0 0 0-.8-.7l-.3-.2h-1l.1.1.5.5.2.4h.7c.6 0 .7 0 .6-.1zm-4.4 0-.3-.8v-.1H140a40.2 40.2 0 0 0 .1 1h5.8zm5 1a3 3 0 0 0-.2-.5l-.2-.2h-1.3l.5.8v.2h1.3l-.1-.3zm-5-.2v-.5h-5.8l.1.9h5.8V93zm5.2 1.3v-.6h-1.3a4.1 4.1 0 0 1 .2 1h1.1v-.4zm-5.3 0 .1-.5v-.2h-5.6v1.1h5.5v-.4zm5.2 1.4a5 5 0 0 0 .1-.7v-.1h-1v.4l-.1.5h1v-.1zm-5.4-.2V95l.1-.1h-5.3v.9h5l.2-.3zm5 1.5.3-.8V96h-1v.3l-.2.4v.2h.8zm-5.5-.4.3-.5h-4.9v.9h4.4l.2-.4zm4.8 1.3.4-.6h-.8l-.2.5-.2.4h.5l.3-.3zm-5.5 0 .3-.4v-.2h-4.1l.2 1h3.4l.2-.3zm3.9 1.5c.3-.2 1-.8 1-1h-.4l-.2.3a12 12 0 0 1-.8 1l.4-.3zm-5.6.3.5-.3.8-.9h-3.2l.6 1c.4.4.8.4 1.3.2zm3.8.9v-.2l.3-.4 1.6-1.6c.7-.9 1-1.7 1.2-2.7 0-1 0-1.6-.4-2.3-.3-.6-.8-1.4-1.3-1.8l-.1-.1-.2.1a1 1 0 0 1-1.2.3c-.2-.1-.2-.1-.2 0 .2.4.2 1.5 0 2.2a10.3 10.3 0 0 1-2.7 5.4c-.5.6-1.1.8-1.6.7-.9-.3-1.4-1-1.6-2.3L140 95a129.7 129.7 0 0 0-.6-6.7c.1 0 1.7 0 2.6.2 1.6.4 2.9 1 3.6 2l.2.2.3-.6c.1-.1.1-.1 0-.2l-.2-.1c-.2-.2-.2-.3 0-.4l1 .3 2 .9c1.1.5 1.9 1.2 2.3 2 .5 1.1.4 2.7-.1 4a7.2 7.2 0 0 1-3.5 3.5c-.7.4-1 .5-1.1.4zm-10-10.8.1-.5v-.5h-.6c-1.4.1-2.4.3-3.2.8-.7.3-.9.3 1.6.3h2.2zm0 1.1v-.8H132l-.4.3a4 4 0 0 0-.4.6h-.1 5.4zm-8.2 0 .1-.1v-.2l-.6.3-.4.2h.4l.5-.1zm1.5.8c.3-.1.4-.4.5-.7 0-.2 0-.4-.2-.6a.8.8 0 0 0-.7-.3.8.8 0 0 0-.4 1.6c.2.1.5.1.8 0zm6.5.1v-.5H131l-.2.2-.1.5-.1.3h5.8v-.5zm-8.8.1a6.8 6.8 0 0 1 .5-.6h-1l-.3.2a4 4 0 0 0-.8.7H127.2l.3-.3zm8.6 1.5.1-.5v-.4h-5.8v1H136.1zm-9.5 0 .4-.8v-.1h-1.3l-.1.1-.3.6v.3h1.2v-.2zm9.4 1.1V94l.1-.4h-5.6v.8l.1.3h5.4v-.2zm-9.8 0 .1-.6.1-.2h-1.2v.6l-.1.4h1.1v-.3zm9.8 1v-.6H130.7l.1.5.1.4h5v-.3zm-9.8.2V95H125v.2a7.4 7.4 0 0 0 .1.7h1.1zM136 97V96H131l.3.5.2.4h4.3V97zm-9.4-.1-.2-.5V96h-1l.4.9h.8v-.2zm9.2 1.3v-.4l.1-.3v-.1h-4.2l.5.8.1.1h3.4v-.1zm-8.5.1-.2-.3-.3-.5v-.1h-.8l.5.7.2.2h.6zm.9 1c-.2 0-.4-.3-.6-.5l-.2-.2h-.5l.2.1 1.3 1-.2-.3zm6.5.6c.3-.2.6-.4.8-.9l.1-.4h-3.1l.1.1 1 1c.4.2.7.3 1 .2zm-5.5.7a7.5 7.5 0 0 1-4-3.7 5.4 5.4 0 0 1-.1-3.8c.3-1 1-1.7 2.3-2.3a21.5 21.5 0 0 1 3-1.2c.2.1.1.3-.2.5v.2c.3.2.3.4.4.7v.2l.2-.3.5-.6c1-1.1 2.8-1.7 5.3-1.8h.6v.3l-.7 6.4c-.2 2.4-.3 3.2-.7 4-.4 1-1.2 1.3-2 1-.8-.3-1.9-1.5-2.7-3.1-.3-.6-.5-1-.6-1.7a6.7 6.7 0 0 1-.2-3.6c-.4.3-.9.4-1.2.2l-.5-.4-.3.2c-.7.7-1.3 1.6-1.5 2.3v1c0 2 .7 3.3 2.8 5.1l.3.3c0 .3-.2.3-.7 0zm1.5 1a35.5 35.5 0 0 1 15.7.2v-.2l.4-.5.6-.2c1.3-.5 2.5-1.2 3.6-2 .3-.2.3-.2.2-.3V98c.2-.5.7-.8 1.2-.7h.2l.1-.2c.2-.1.5-.8.6-1l-.2-.2a1 1 0 0 1-.3-1.6l.3-.2.2-.2-.5-1-.3-.4h-.2a1 1 0 0 1-.8-.3c-.2-.2-.3-.4-.3-.7 0-.3 0-.3-.2-.5l-.5-.3a20.9 20.9 0 0 0-9.1-3l-3.2-.2c-1.5 0-2.3 0-3.6.2-3.8.4-7.1 1.4-9 3-.5.3-.5.3-.4.4v.3c0 .7-.5 1.1-1.1 1h-.3l-.1.4-.4 1v.3c.5.2.7.9.5 1.3 0 .2-.4.5-.5.6l.4 1 .2.3h.3a1 1 0 0 1 1 1.3v.1l.3.3c.9.7 2 1.3 3.3 1.9.4.2.6.3.7.7l.3.2.9-.2zm7.9 2.3c.5-.2.6-.7.4-1.2a.8.8 0 0 0-1-.4c-.4.1-.7.6-.6 1l.5.6h.7zm-.6.2a1 1 0 0 1-.7-.5c-.5-1 .8-2 1.7-1.3.3.3.4.7.2 1.2a1 1 0 0 1-1.2.6zm6.4 0c.3 0 .4-.4.4-.7 0-.3-.1-.5-.4-.7-.3-.2-.7-.1-1 .2-.3.3-.4.6-.2 1 .2.3.5.4.8.4l.4-.1zm-.6.4a1 1 0 0 1-.8-.6v-1a1 1 0 0 1 1.7-.2 1 1 0 0 1-1 1.8zm-11.2-.3a.9.9 0 0 0-.2-1.6c-.3 0-.5 0-.8.3l-.2.4c-.1.4.1.8.5 1h.7zm-.6.3a1 1 0 0 1-.7-.6c-.2-.2-.1-.7 0-1 .5-.9 2-.5 2 .6 0 .3-.1.5-.3.7-.2.2-.7.4-1 .3zm-.9.5c1.7-.2 3.9-.4 7-.4a38.2 38.2 0 0 1 8 .6 18.5 18.5 0 0 0 .3-2.7v-.1h-.3a38 38 0 0 0-16.2 0h-.1l.3 2.8h.2l.8-.2zm9.5 1.3a42.5 42.5 0 0 0 5.1-.5l-.4-.1-2.2-.3a50.2 50.2 0 0 0-11.4.6 43.8 43.8 0 0 0 9 .3zm-5.4.6c-2.8-.1-5-.4-5.4-.7-.2-.2-.2-.2-.5-2.4-.2-1.8-.2-2-.4-2.2l-.7-.3a15.8 15.8 0 0 1-3.4-2c0-.1 0 0-.2 0-.4.2-1 0-1.3-.4a1 1 0 0 1 0-1.1v-.2l-.1-.4-.4-.8-.1-.4h-.2c-.4-.1-.7-.6-.7-1s.3-.9.7-1h.1l.1-.4.5-1.3.1-.2v-.2c-.2-.2-.2-.2-.2-.5s.1-.6.4-.8a1 1 0 0 1 1-.1h.2l.5-.3a20.9 20.9 0 0 1 11.8-3.3l.5-2.7-.3-.1c-.4-.3-.8-.6-1-1-.2-.5-.3-.8-.3-1.3l.1-.7.6-1a2.4 2.4 0 0 1 2.2-.6c.8.2 1.6.8 1.8 1.7.1.3.2 1 0 1.3-.1.7-.6 1.3-1.3 1.6l-.1.1a119.7 119.7 0 0 0 .6 2.8l3 .3c3.2.5 6.4 1.6 8.4 3l.3.3h.2a1 1 0 0 1 1.3 0c.3.4.4 1 .1 1.4v.1l.2.3.6 1.3c0 .3.1.3.2.4.1 0 .4.3.4.5a1 1 0 0 1-.4 1.3l-.3.3a6 6 0 0 1-.5 1.2l-.2.3v.1c.2.2.2.7.1.9 0 .2-.2.4-.5.6h-.9c-.1-.1-.2-.1-.2 0l-.5.3a16 16 0 0 1-3.8 2c-.2 0-.3.1-.2.4v.2l-.3 1.9c0 1-.2 1.8-.2 1.9l-.2.2c-.5.3-2.5.6-5.5.7h-5.7zm83.3 11.8V114l-1.3 2.7-1.1 2.5v.2l1.3 2 1 1.9v-4.7zm1.3 2.7 1.2-2.2-2.3-5a100.6 100.6 0 0 0 0 9.2l1.1-2zm-1.6 2-1.1-2-1.2-2-5.6-.6a460.8 460.8 0 0 0 8 4.6zm5.4-2.6 3.2-2-5.6.7-2.3 4 .6-.4 4-2.3zm.1 2.8a137.1 137.1 0 0 1 3.3-4.6l-8 4.7a65.8 65.8 0 0 0 4.7 0zm-5.5 0-8.2-4.6 1.7 2.3 1.7 2.4h4.8zm8.8 4.9-1.7-2.4-1.7-2.2H219a1784 1784 0 0 0 7.9 4.6zM214 126l4-2.3H213.3a228 228 0 0 1-3.3 4.7l4-2.4zm-1 2.3 2.8-.3 2.3-4-8 4.5 2.9-.2zm13.9.3-8.2-4.7a77.8 77.8 0 0 0 2.5 4 943.8 943.8 0 0 1 5.7.7zm-8.5 0v-4.6l-2.4 4a394.9 394.9 0 0 0 2.3 5.3v-4.6zm1.3 2.1 1.2-2.7-2.3-4v9.4l1.1-2.7zm-1.4 4a68 68 0 0 1-2.7-6 87.3 87.3 0 0 0-6.7.5c-.2-.2-.2-.2 1.8-3l2-2.6-2-2.6-1.9-2.8c0-.1 0-.2.2-.3a45.4 45.4 0 0 1 6.6.7 225.6 225.6 0 0 0 2.7-6h.4l1.3 3 1.3 3a285.4 285.4 0 0 0 6.6-.7l.2.4a75.6 75.6 0 0 1-3.7 5l-.2.3 2 2.6 1.9 2.7c0 .1 0 .3-.2.3l-3.3-.3-3.3-.3a629.8 629.8 0 0 0-2.6 6c-.1 0-.3.1-.4 0zM58.8 118.5v-2.3L58 118l-1.2 2.6-.4.9 1 1.7 1.2 2 .2.3v-7zm1.4 5 1.2-2-2.4-5.3a152.5 152.5 0 0 0 0 9.3l1.2-2zm3-.2 4-2.3a126.2 126.2 0 0 0-5.5.5c-.1 0-.2.1-1.2 2l-1.2 2v.1l4-2.3zm-5.8.3-1.2-2a195.2 195.2 0 0 1-5.6-.6l8 4.6-1.2-2zm8.3 0a144 144 0 0 0 1.4-2.3 3817.5 3817.5 0 0 0-7.7 4.5H64l1.7-2.3zm-7.2 2.2-8.1-4.7 1.7 2.4 1.7 2.3H58.5zm8.8 4.8a421.3 421.3 0 0 0-3.3-4.5H59.3l4 2.3a1126 1126 0 0 0 4 2.2zm-12.9-2.2 4-2.4h-4.6l-1.7 2.3-1.7 2.4 4-2.3zm13 2.5-8.2-4.7 2.4 4a282.4 282.4 0 0 0 5.7.7zm-14-.3 2.7-.3h.2l1.1-2 1.2-2-8 4.5-.1.1h.2l2.7-.3zm6.8 2.4 1.2-2.6-2.4-4a116.4 116.4 0 0 0 0 9.2l1.2-2.6zm-1.4-4.4v-2.3l-1.2 2-1.1 2 2.2 5.3.1-2.3v-4.7zm0 8.4-.2-.2A297.1 297.1 0 0 1 56 131l-3.2.4-3.3.3a.3.3 0 0 1-.1-.4A95 95 0 0 1 53 126a85.7 85.7 0 0 0-3.8-5.4c0-.1.1-.3.3-.3l3.3.4 3.1.3.4-.7 1.3-3a47 47 0 0 1 1-2.3h.4l1.4 3 1.4 3a202.3 202.3 0 0 0 6.6-.6v.2a108.4 108.4 0 0 0-3.8 5.4 135.2 135.2 0 0 0 3.8 5.5l-.2.2-3.2-.3-3.2-.4h-.1l-1.3 3-1.4 3h-.3zm122-25.7a43.5 43.5 0 0 0 9.3-14 38.8 38.8 0 0 0 4-19.4c-.2-1.8-1-3.5-2.4-5.3a14.7 14.7 0 0 0-2.6-2.3v.4a33.7 33.7 0 0 1 .5 9.8 66.8 66.8 0 0 1-8.2 23.7l-.5.9v.6a24.4 24.4 0 0 1 0 2l1.2-1.5a45.8 45.8 0 0 0 9.6-29.6l.1.3v2.6a48.6 48.6 0 0 1-11 28.9 24.1 24.1 0 0 1-.7 3.6l.7-.7zm-84.1.6a26.2 26.2 0 0 1-.7-3.7l-.6-.8A39.9 39.9 0 0 1 88.5 96a49.4 49.4 0 0 1-1.5-5.3c1.7 6.4 4.7 12 8.7 17l.3.3v-2.7l-.2-.4a74 74 0 0 1-6.6-14.7 42 42 0 0 1-1.4-19.6l-.8.5a12.8 12.8 0 0 0-4.2 7A39.7 39.7 0 0 0 87 98.2a44.9 44.9 0 0 0 9.6 13.8zm87 3.5a42.6 42.6 0 0 0 11.7-16.7 51 51 0 0 0 3-10v-3.4c-.2-1.4-.6-2.8-1-4-.4-.9-1-1.8-1.4-2.2l-.2-.2h-.1c-.3.2-.7 1-.9 2v1a41.1 41.1 0 0 1-5 17.6 42.5 42.5 0 0 1-8.8 12.5l-1.3 1.4-.3.6a16.9 16.9 0 0 1-.6 1.2h.3c.3-.2 1-.3 1.3-.4h.4l.4-.4a40.2 40.2 0 0 0 15-26.7 38.3 38.3 0 0 1-5.7 16.2c-2.2 3.7-5 7-8.6 10.1l-.7.7h.5c1 0 1.3.1 1.2.8a7 7 0 0 1-.2.9l1-1zm-89.6.8-.1-.7.1-.4c.2-.2.4-.2 1-.2h.7l-.6-.5A41.8 41.8 0 0 1 81.7 93a31.7 31.7 0 0 1-.9-8v1a34.8 34.8 0 0 0 5.9 18.3 44.8 44.8 0 0 0 9.7 10.8 12.9 12.9 0 0 1 1.7.4l-.2-.5a14 14 0 0 1-.5-.9l-.2-.4-1.3-1.4c-1.8-2-2.5-2.7-3.4-3.9-2-2.4-3.5-4.7-5.2-8.1A44.2 44.2 0 0 1 82 80.8c-.2-.9-.5-1.4-.8-1.5l-.1-.1-.2.2-.4.5c-1.4 2-2.1 5-2 7.8a55.3 55.3 0 0 0 6 17.2 65.6 65.6 0 0 0 9.6 11.4zm33.2-1.7c-.1 0 0-.2 0-.2l.2-.2c0-.1-.3-.3-.5-.3s-.5 0-.9.2h-.3a2 2 0 0 1 1.1-.4c.4 0 .8.3.8.5s0 .2-.2.3c-.2.1-.2.1-.2 0zm-6.8 3.7c.5-.5 1.3-1 2.4-1.2a13.8 13.8 0 0 1 8.3.7 31.7 31.7 0 0 0-3.5-4.7h-1.1c-2.3 0-3.5.2-4.6.7-1 .6-1.6 1.5-1.8 2.7v2l.3-.2zm2.3 3.5c.7 0 1-.2 2-.8 1.3-.7 2-1 3-1.3 1.3-.4 2.7-.4 4 0l.3.1-.2-.1c-.5-.5-1.5-.9-2.5-1h-1.8c-.7.2-1.5.6-2.7 1.3-1.7 1-2.6 1.3-3.6 1.2h-.6c-.3-.1-.3-.1 0 0a3.2 3.2 0 0 0 1.7.7h.4zm9.5.4v-1.6l-.3-.3c-.4-.4-1.8-.6-2.8-.5-1.3.2-2.5.6-4.3 1.7a6 6 0 0 1-1.8.7l.8.3 1.2.1c.8 0 1.5 0 2.5-.2l1-.2a7.8 7.8 0 0 1 3.7.7v-.7zm48.8-.2A44.7 44.7 0 0 0 198 99.8a45.6 45.6 0 0 0 2.2-6.6c-.9 4.1-2.5 8.7-4.6 12.6a46.1 46.1 0 0 1-13.6 16.1c1.3-.5 2.9-.8 3.4-.7.2 0 .4 0 .4.2v.5l1-.9c3.2-3.3 6.3-6.9 8.3-9.5a36.5 36.5 0 0 0 7.3-19.8l-.1-1.3A8.5 8.5 0 0 0 201 87l-.6-.6-1 1c-.5.6-.5.6-.5 1-.3 2.6-1.9 7.8-3.7 12a38 38 0 0 1-6.9 10.7 131.7 131.7 0 0 1-6.5 7.3 24.9 24.9 0 0 1-2.7 4.6l.7-.3c.5-.2.9-.4 1.2-.7zm-83.5 1.2-.2-.4c-.9-1.1-1.8-2.7-2.4-4.1l-.2-.5-1.2-1.2a79.1 79.1 0 0 1-9.5-11.4A55 55 0 0 1 78 88.4a7 7 0 0 0-1.3-1.7l-.2-.2-.1.2c-.6.5-1 1.6-1.4 2.7-.4 1.8-.4 3.4 0 6 1.1 6.1 3.2 11.1 6.6 15.8 2 2.7 5.3 6.5 8.9 10.2l.8.7v-.2c0-.2 0-.4.2-.5.4-.1 1.9.1 3.4.6l.6.2-.3-.2a46.3 46.3 0 0 1-17.5-25.6 41.8 41.8 0 0 1-.2-1.4 50 50 0 0 0 17.3 26.4 12.8 12.8 0 0 0 3 1.8zm68.3 1.6a25.3 25.3 0 0 0 12.9-10.8c.7-1.4 1.2-3.6 1.4-6.1v-3.1l-.3.6a35 35 0 0 1-10.6 14l-.5.3-.3.6a30.4 30.4 0 0 1-.7 1.4l1.1-.7c2-1.2 4.3-3.3 6.2-5.6a37.2 37.2 0 0 0 3.5-4.6l-1.1 1.8a30.9 30.9 0 0 1-9.6 9.3c-.3 0-.3.1-.7.7a24.5 24.5 0 0 1-1.7 2.4l.4-.2zm-54.5.4s0-.2-.2-.3l-1.7-2.3-.4-.5c-.6-.3-1.8-1-2.7-1.7a33.1 33.1 0 0 1-8-9.5l.4.5 1.8 2.7a29.1 29.1 0 0 0 8.4 7.7l-.2-.5-.5-1-.2-.4-.5-.3a34.8 34.8 0 0 1-10.1-13 18 18 0 0 0-.8-1.6v2.5c.1 2.6.6 4.9 1.3 6.5l1 1.8a25.1 25.1 0 0 0 11.7 9.1l.7.3zm56.2 5.1c3.2-1.2 6.5-3.1 8.5-4.8a22 22 0 0 0 5.4-7.7c.5-1 .9-2.3.8-2.4H181c-.8.1-1.8.4-2.5.7l-.3.1-.5.6c-1.7 2.4-3.9 4.4-6.2 6a26.5 26.5 0 0 1-6.3 3h-.5l-.7.7c-.8.8-1.6 1.5-2.5 2.1l-.4.3h.6l.8.1 1.3-.3c3.6-1.2 6.7-2.8 9.4-4.8a21.8 21.8 0 0 0 5.6-5.5l-.2.5c-1 1.5-2.7 3.3-4.6 4.7a32.7 32.7 0 0 1-10.6 5.4c-.3 0-.3 0 .3.2a8.7 8.7 0 0 1 3.2 1.4l.7-.3zm-57.4.4a9 9 0 0 1 3.5-1.4l-.9-.3a34.3 34.3 0 0 1-9.2-4.7c-2.1-1.5-4.1-3.5-5.2-5.1l-.3-.6.4.4c1.4 2 3.6 4.1 6.2 5.9a35 35 0 0 0 8.5 4l1.3.3h1.3l-.4-.4a22 22 0 0 1-2.5-2.1l-.7-.7h-.3a23.5 23.5 0 0 1-12.8-9l-.6-.7a10.1 10.1 0 0 0-3.7-.7l-.2.1.4 1.3a23.6 23.6 0 0 0 6 8.8 33.6 33.6 0 0 0 9.2 4.9zm73 2L194 124a25.9 25.9 0 0 0 9.6-15.2l.6-2.9c.3-2 .1-4.7-.5-6.5l-.5-1c-.2-.1-1 .7-1.5 1.3a36 36 0 0 1-6.6 12.5c-2 2.8-5 6.2-8.6 9.7l-1.3 1.3-.3.7a20.7 20.7 0 0 1-3.3 4.8h.4c.4 0 .4 0 1.5-.7a41.9 41.9 0 0 0 18.6-23.8v.5a44.3 44.3 0 0 1-18.5 23.5l-.8.5h.5c.6 0 .8.1 1 .2v.8a13.3 13.3 0 0 1-1.8 3.3l.7-.5zm-89 .1a9.5 9.5 0 0 1-1.6-3.2c0-.4.2-.6 1.2-.6h.2l-.7-.5a41.6 41.6 0 0 1 1 .4l.6.1h.5l-.3-.3a20.3 20.3 0 0 1-3-4.5l-.4-.7-1.2-1.2c-3.7-3.7-6.6-7-8.8-9.9a36 36 0 0 1-6.3-12c-.5-1-1.4-1.7-1.7-1.7-.2 0-.6 1.2-.9 2.4a15.8 15.8 0 0 0 .5 7.9 24.8 24.8 0 0 0 8.2 14.1 274.7 274.7 0 0 0 13 10.2l-.4-.5zm70.8 2.5a31.8 31.8 0 0 0 15.1-6 16 16 0 0 0 3.6-4.4c.6-1 1.3-2.6 1.4-3v-.1h-.3c-.6 0-1.7.3-2.7.7-2 .7-3.6 1.6-4.7 2.6-.6.6-1 1-1.7 1.4a36.4 36.4 0 0 1-8 4.4l-.5.2v.1c.1.3 0 .6-.4 1l-.2.4.5-.1a27.6 27.6 0 0 0 13.5-7.1c.4-.5.6-.5.6-.4l-1.6 1.5a28.7 28.7 0 0 1-12.5 6.2l-.8.1-.3.3c-.8.7-1.6 1.3-2.9 2h.2l1 .2h.7zm-52.1.2a7.8 7.8 0 0 1 .9-.2l-.6-.3c-.9-.5-1.6-1-2.3-1.7l-.3-.3h-.6a27.9 27.9 0 0 1-13.9-7.6 29.7 29.7 0 0 0 14.2 7.4l-.2-.3-.4-.6V131.3l-.4-.1a38.4 38.4 0 0 1-9.8-5.9 10 10 0 0 0-2.5-1.7 17.5 17.5 0 0 0-5.2-1.6l.5 1.3c.9 2 2.4 4.3 3.8 5.6 2 1.9 5.5 3.7 10 5.2a29.2 29.2 0 0 0 6.8 1.4zm21.7-21.2a4 4 0 0 0 1.5-1l-1.5-.2h-.4V114l-.4.3h-.1c.3.2.6.2.9.1zm-.9.6c-.6-.1-1.3-.6-1.6-1.3l-.1-.1h-.6c-.5 0-1-.1-1.3-.3-.4-.2-.5-.4-.3-.6h.5c.3.2.6.2 1.4.2.7 0 1 0 1.9-.2h1c.8 0 1.5 0 3.3.6l2.4.6h2l.1.2c0 .2-.1.3-.5.4h-1c-.8 0-1.4-.1-3.2-.7l-.8-.2-.3.3c-1 1-2 1.3-2.9 1.1zm-.1.7c-.6-.1-1.1-.5-1.6-1l-.3-.3v-.1l.4.3c.8.7 1.4 1 2.2 1 1 0 2-.4 2.4-1 .3-.1.3-.1.4 0 0 .2-.8.7-1.6 1-.7.2-1.5.2-2 .1zm11.4 19.6c1.4-1.2 2.6-3.2 2.7-4.3 0-.4 0-1.7-.3-2.6v-.5l.2-.2.7.4.6.3s0-1.6-.2-2.7a30.7 30.7 0 0 0-3-10.3v-.1l.5-.2c.9 0 1.4-.2 1.9-.5l.6-.7h-.2a1 1 0 0 1-.6-.8c0-.2.1-.3.4-.4.4 0 .7-.3 1-.6l.2-.6h-1c-1.4 0-1.6 0-3.6-.7-2.7-.8-4-1-6.2-1.3h-3.3a16.5 16.5 0 0 0-7.2 2.6v.6c0 .3.4.6 1.2 1.7 1.4 1.7 2.6 3.5 2.9 4 .3.8.5 2 .6 4a96.3 96.3 0 0 1-.7 13.2c.6-.2 1.9-1.9 3-4l.3-.4h.4v.5c0 1.4.2 2.6.5 3.4.2.3.2.3.7 0 2-1 3.7-2.6 4.5-4.2.3-.5.3-.5.5-.5s.3 0 .3.7a10 10 0 0 0 1.3 4.5l.3.4c.1 0 .5-.2 1-.7zm39.8 2.4a21.9 21.9 0 0 0 9.9-5l3.3-3.6c.6-.8 1.2-2 1.7-3.5.4-1 .7-2.2.7-2.7 0-.1 0-.2-.2-.3-.4-.2-1-.5-1.6-.6h-1.2l-.6.5-4.7 4a176 176 0 0 1-11.6 9l-.6.7h.5l.5.1.8-.3a31.7 31.7 0 0 0 11.8-6.7c1.4-1.2 3-2.9 3.8-4.1.3-.3.4-.4.4-.2l-1.6 2-2.2 2.3a34.2 34.2 0 0 1-12.4 7l.3.1c.7.2 1.2.3 1.3.5l.1.6v.6l.5-.2 1-.2zm-91 .5-.1-.5v-.5c.2-.3.4-.4 1.3-.5l.5-.1-.4-.2A33.5 33.5 0 0 1 79.2 125s.2 0 .3.2a28.2 28.2 0 0 0 5 5.1c3.2 2.6 7 4.7 11.1 6l.4.1h1c.1 0 0-.2-.6-.7l-1.3-1.1A172 172 0 0 1 79.5 122c-.6-.2-1.8 0-2.7.6l-.3.1v.3c0 1 1 4 2 5.4a24.5 24.5 0 0 0 7.6 7 27 27 0 0 0 7.6 2.6zm74 2.1c4-.7 8.1-2.2 10.5-3.8a15 15 0 0 0 5.4-7l-2.9.1-.4.4a33.8 33.8 0 0 1-14.4 5.9h.3l1.4.8.6.2c1.2 0 2.8-.4 4.4-1a31.3 31.3 0 0 0 7.2-3.8l-1.3 1c-2.7 1.7-5.4 3-7.8 3.6l-2.3.4h-.2l.3.3c.5.5.6.8.4 1.3-.2.4-.8 1-1.5 1.5l-.3.2h.7zm-58 .3-.4-.3c-.8-.5-1.3-1-1.5-1.4l-.1-.4c0-.3.1-.5.5-.9l.3-.3h-.5c-2.5-.3-5.5-1.4-8.6-3.3l-2.5-1.7v-.1l.7.4c2 1.5 4.6 2.8 6.8 3.6 1.3.5 2.8.8 4 .9h.4l.3-.2 1.3-.7.4-.1-.7-.2c-1.6-.3-4.4-1-6.6-2a28 28 0 0 1-7.1-3.8c-.5-.3-.4-.3-1.4-.3h-1.9l.4 1c1 2 2.6 4.1 4.1 5.3 1.7 1.4 4.3 2.6 7.6 3.5l4 1h.5zm22.8 2.2c.9-1 1.9-2.5 2.6-4.1a13 13 0 0 0 1-2.9 6 6 0 0 1-.9-2.8v-.3.2l-.6.8-.5.7-.2.8a93.3 93.3 0 0 1-.2-.2c0-.2.1-.2-.3.3-.5.5-1 .9-1.4 1h-.2l-.1.5-.8 2.3a2 2 0 0 0-.2 1c0 1 .3 1.9.9 2.8.1.3.2.3.3.3.1 0 .2 0 .6-.4zm47.3.7a48 48 0 0 0 11.5-2c1-.5 2.2-1.3 3.1-2.1.6-.6 1.2-1.4 1.4-1.9l.1-.1-.1-.2a5 5 0 0 0-2.7-1.6h-1.3c-.3 0-.4.1-.8.3-1.7 1-4 1.8-7 2.6l-1 .2-.2.4c-.3.8-.7 1.4-1.1 2l-.1.2a35.2 35.2 0 0 0 11.6-3.7c.2 0-.3.4-1.5 1a28.6 28.6 0 0 1-9.6 2.8l-.8.1-.3.3a9.7 9.7 0 0 1-2.4 1.7h1.2zm-81.8.2h.1l-.4-.2-2-1.4-.3-.4H95a34.6 34.6 0 0 1-11.3-3.7v-.2l.5.2c2.3 1.4 6.1 2.7 10.2 3.3l.9.2h.1l-.2-.3a7.2 7.2 0 0 1-1.2-2.2l-1-.3a33.5 33.5 0 0 1-7.4-2.7c-.3-.2-1-.3-1.6-.2-.9 0-1.8.5-2.5 1.2-.3.3-.5.5-.5.7a6 6 0 0 0 1.3 1.7c1.2 1.2 2.7 2 4.3 2.6a55.7 55.7 0 0 0 11.6 1.7zm41.7 0a14.4 14.4 0 0 0 3.7-6.7l.1-.6-.1-.1a8.8 8.8 0 0 1-1.5-4l-.2-.5v.1l-.3 1a664.3 664.3 0 0 1-.6 1.8l.5-2.2-.2.2a12.3 12.3 0 0 1-4.3 3.2v2.5c.3 2.3 1 4 1.8 5.2.2.4.4.6.5.6l.6-.5zm6.3.8c.5-.8.8-2.1.6-3.3v-1.5c0-1.4 0-2 .5-4.3a40.7 40.7 0 0 0 .2-2l-1.5 1.9-.3.3v.8c-.1 1.5-.2 2.9-.1 3.6v1a34.5 34.5 0 0 1 0-4.8v-.4l-.4.2-.6.5h-.2v2.8c.1 1.4.5 3 1 4 .1.6.5 1.4.6 1.4l.2-.2zm24.8.4c2.9-.3 5.8-1.1 7.6-2 2.1-1 3.5-2.6 4-4.6l.1-.7v-.3c-.5-.2-1.6-.4-2.8-.5h-.8l-.4.3a35 35 0 0 1-13.5 4.3 30.2 30.2 0 0 1-1 .5l.5.1 1.7.6.3.2h.6a34 34 0 0 0 12.7-3.7l-.6.4c-3.5 1.7-7.7 3-11.3 3.3-1.1.1-1 .1-.6.4a8 8 0 0 1 2 1.5l.4.4h.2l.9-.2zm-63.4 0a7.9 7.9 0 0 1 2-1.6l.4-.2h-.3a31.2 31.2 0 0 1-12-3.7 36 36 0 0 0 12 3.5h1a16.2 16.2 0 0 1 2.2-.8l-.2-.2a57 57 0 0 1-1.7-.5 34.3 34.3 0 0 1-12.6-4.1l-.4-.3h-.7c-1 0-1.8.2-2.5.3-.5.2-.4.1-.4.6.2 2 1.5 3.7 3.5 4.9a23 23 0 0 0 9.1 2.4h.2l.4-.3zm82.6 2.8c2.2 0 3.4-.3 4.4-1 1-.6 2-1.5 2.4-2.3l.1-.3v-.1a6 6 0 0 0-3.7-2.7h-.2l-.7.3-1.2.5a40.4 40.4 0 0 1-10.9 2l.3.2c1 .5 1.3.9 1.2 1.2l.5.1a23.4 23.4 0 0 0 11.7-1.7l-.3.3a24 24 0 0 1-11.6 1.7l-.5-.2-.2.3a13.6 13.6 0 0 1-1.4 1.3 75.3 75.3 0 0 0 10 .4zm-99.5.3a93.5 93.5 0 0 0 6.3-.5l-.3-.3-1.1-1-.2-.2h-.6a23.7 23.7 0 0 1-11.4-1.5c-.4-.2-.5-.3-.4-.4l.7.3a21.5 21.5 0 0 0 10.8 1.5c.8-.1.8-.1.7-.3l.2-.4 1-.7c.2 0 .3-.2.3-.2h-.8a46.6 46.6 0 0 1-12.1-2.8A6.4 6.4 0 0 0 80 144v.3a6.6 6.6 0 0 0 4.3 3.3c1.4.3 3.6.4 6.3.3zm38.4.3c1-.8 2.1-2.6 2.5-4.2l.1-.3-.1-.1a5 5 0 0 1-.8-1.2c0-.3-.2-.5-.2-.5a42.8 42.8 0 0 0-.6 1l.5-1.3v-.4l-.2-.3-.3.7-1.1 2.2-.8 1.5v.7c0 .6 0 .6.2 1 0 .5.3 1 .4 1.2l.1.1.3-.1zm45.3 1a11.7 11.7 0 0 0 6.8-4l-1.2-.7a7 7 0 0 0-2-.7c-.2 0-.4 0-.7.2a27.7 27.7 0 0 1-7 1.5v.2c0 .3 0 .6-.3.8l-.1.2h.1a19.7 19.7 0 0 0 6.2-.6c.8-.1.9-.1.8 0l-.5.2a25 25 0 0 1-6.2.6h-.6l-.2.1a7 7 0 0 1-2.2 1.2c-.3 0-.5.2-.5.2l.6.1a33 33 0 0 0 7 .7zm-69.2.3c1.4-.2 3.5-.5 4.8-.9h.4l-.5-.2a7 7 0 0 1-2.2-1.1l-.3-.2h-.4a20.9 20.9 0 0 1-6.4-.6l-.5-.2h.5a39 39 0 0 0 6.6.6l-.1-.2c-.2-.3-.3-.5-.2-.7v-.3h-.7a30 30 0 0 1-6.5-1.5l-.5-.2-.5.1a11 11 0 0 0-2.7 1.3h-.1l.2.4.7.6c2 1.7 4 2.8 6 3h2.4zm30.5 0c1-1 2.6-3.1 3.1-4.5l.2-.4-.3-.3c-1.1-1-2-3.3-2.2-6v-.4a80 80 0 0 1-.2.3c-.1 0-.2 0-.3.3-.4 1-1.2 2.4-1.7 3.1-.5.8-1.2 1.6-1.7 2-.2.1-.2 0 0 .7.2 1.5 1 3.2 2 4.5l.8.9.3-.2zm13.8.2c.2-.3.2-.6.2-1v-.5l-.3-.6a63.9 63.9 0 0 0-2-4.1v-.3.1c-.2.3-.2.3 0 1a26 26 0 0 0 1 3.2c.2.2.2.3 0 .3 0 0-.6-1.4-1-3l-.3-.8-.6 1-.2.2v.1l.8 2a12 12 0 0 0 1.8 2.7l.2.2.2-.1.2-.4zm-6.5.4c.5-.4 1.2-1.3 1.7-2.3.4-.7.6-1.4.8-2.2v-.6l-.5-1a17 17 0 0 1-1.3-5.4l-.1.3-.4.8-.2.5v.7a78.9 78.9 0 0 0-.2-.2l-.4.5a14 14 0 0 1-2.6 3.3h-.1v.5c.5 1.7 1.4 3.5 2.5 4.7l.6.6.2-.2"/><g fill="#393536"><path d="M20.3 236a333 333 0 0 0 19.7-5c.2-.1.4-.4.4-.7l-.6-1.1c-.1-.2-.2-.3 0-.4 0-.1.2 0 .5.4.8 1 1.5 2.4 1.8 2.7l1.5 2c.2.3.2.4.1.5-.1.1-.3 0-.4-.1-.1-.2-.5-.8-1.2-1-.5-.3-1.2-.3-3.5.2l-9.2 2-10.3 2.2c-2.1.4-2.6.5-2.8.3-.2-.3 0-.7 1-2.1l11.6-17.7c1-1.6 1-2.2.7-3.3a5 5 0 0 0-.6-1.1v-.3c.2-.2.4 0 .7.5.9 1.3 1.9 2.8 2 3.2.3.2 1.2 1.3 1.9 2.3.3.5.4.8.3.9-.1 0-.3 0-.4-.2l-.8-.9a.6.6 0 0 0-.8 0l-1.7 2.3-10 14.5M43 252.3h.2l4-8.4c.2-.4 0-.5-.4-.3l-8.1 4.1c-.2 0-.2.2 0 .2l4.2 4.4zm6.7-11.5c1-.4 1.2-.5 1.4-.3l-.4 1.3-8.4 19c-1.2 2.8-.9 3.8-.5 4.4.2.5.5.8.7 1 .2.2.2.3.1.4-.1.2-.4 0-.6-.2l-3.5-3.7c-.4-.4-.7-.7-.6-.8h.4c.1 0 .5 0 .7-.5l3.5-7.7v-.3l-5-4.9c0-.1-.2-.1-.4 0l-5.3 2.6c-.8.4-1.5.8-1.9 1.2-.4.5-.2 1.2.2 1.5l.2.3c.2.1.2.2.1.3-.1.2-.3 0-.5-.1l-1.7-1.9-2.6-2.5c-.3-.3-.4-.4-.3-.6h.4c.1.3.5.5.7.7 1.2 1 2.5.5 4-.2l19.3-9M60 264.6v.4c.3.5 1.4 1.5 2.5 2.3.7.4 1.5.9 2.4.8 1.3 0 3-1 4.4-3 2.2-3.3 1.8-6.5-1-8.4-.9-.5-1.6-1-2-1l-.4.1-5.8 8.8zm-.5-3.8 3.8-5.8c.6-1 .6-1.5-.1-2.3l-.9-.7s-.2-.2 0-.3l.5.1 3 2.1 3.1 2a9.9 9.9 0 0 1 4.1 4.5c.4 1 .7 3-.6 4.9-1.3 2-3.4 3.3-7.3 4 .3 4.2.5 7.8 1 10.5.4 2.5 1.3 3.5 1.9 4l1 .9c.1 0 .2.2.1.3 0 .2-.3.1-.8-.2l-1.9-1.3c-1.5-1-2-1.6-2.5-2.4-.7-1.4-.8-3.3-1-6.4l-.2-5.9c0-.1 0-.2-.2-.3l-3.3-2.3H59l-.4.7a78.6 78.6 0 0 0-3.8 5.9c-.4.8-.7 1.5 0 2.2l1.2.9c.2 0 .2.2.1.3h-.6l-3.2-2.4-2.6-1.6c-.2-.2-.3-.3-.2-.5h.3c.2.2.6.3.9.4.6.3 1-.2 1.7-1 .9-1 2.3-3 4-5.6l3.2-4.7M75.1 287.1c-.3-.4-.3-.5 0-1.3l1.6-3c.2-.4.3-.5.4-.4.2 0 .2.2 0 .4l-.3 1.1c-.5 2.4 1 4 3 5 2.9 1.2 5.1-.2 6-2.1.8-2 .5-3.6-1.1-6.8l-.9-1.7c-2-3.9-1.9-6-1-8 1.4-3.2 4.7-4.3 8.4-2.7 1.2.5 2 1 2.6 1.5l1 .6c.2.1.3.2.2.4l-1.5 3c-.2.5-.3.7-.5.6-.2 0-.1-.2 0-.5l.2-1.6c0-.4-.3-2-3-3.2-2-.9-4.2-.3-5.1 1.9-.7 1.6-.4 3 1.4 6.5l.6 1c2.2 4.2 2.3 6.4 1.2 8.8-.5 1.2-2 3.2-4.6 3.8-1.7.3-3.4 0-5-.8a9.7 9.7 0 0 1-3.6-2.5M109.4 298.3c2.8.6 9 .3 11-8.9 1.6-7.5-2.1-12.5-7-13.6-5.3-1.1-10 1.5-11.5 8.3-1.5 7.4 1.8 13 7.5 14.2Zm4.4-23.5c7 1.5 11.3 7 9.8 14.4-1.5 7-7.8 11.8-15.3 10.1-8.6-1.8-10.8-9.3-9.5-15 1-5 6.3-11.4 15-9.5M141.8 298.4a336 336 0 0 0 6.9-19.2c0-.2-.1-.6-.5-.7a4 4 0 0 0-1.2-.1c-.2 0-.3 0-.3-.2s.1-.3.7-.3h5.6c.4 0 .6 0 .6.2l-.4.2c-.2 0-1 0-1.6.4-.4.3-.8.8-1.7 3l-3.4 8.8-4 9.8c-.9 2-1 2.5-1.3 2.5-.4 0-.6-.5-1.2-2l-8.2-19.6c-.7-1.8-1.2-2.1-2.3-2.4l-1.3-.1c-.2 0-.2-.1-.2-.2 0-.2.3-.3.8-.3h6.8l.8.1c0 .2 0 .3-.3.3l-1.2.1c-.4.2-.4.5-.4.7 0 .4.4 1.4.9 2.6l6.4 16.4M165.4 290.8l1.3 6.9c.3.9.6 1.5 1.6 1.5l1.4-.1.3.1c0 .2-.1.3-.5.4l-3.9.5-3 .6c-.4.1-.6 0-.6-.1s0-.2.2-.3l1-.2c.5-.3.6-1 .6-2l-1-6.8-1-5.6-1.2-6.8c-.2-1.1-.6-1.6-1.4-1.6h-1l-.3-.1c0-.2.2-.3.5-.4l3.2-.4 3.1-.6c.4-.1.5 0 .6.1 0 .2-.1.2-.3.3-.2 0-.4 0-.7.2-.9.3-1 .9-1 2l1.2 6.8 1 5.6M178.8 282l-2.2-6.6c-.4-1-.8-1.5-1.9-1.4l-1 .3-.4-.1c0-.2.1-.3.4-.4l2.2-.7 1.3-.3a612.4 612.4 0 0 0 8.3-3l.3-.2c.1 0 .2 0 .2.2.1.2 0 .6.3 1.5l.5 2-.1.5c-.2 0-.3 0-.4-.3l-.5-1c-.4-.5-.8-.8-2.5-.4l-4.3 1.3v.3l2.7 8.5c0 .2.1.3.3.2l4.8-1.6c.7-.3 1.1-.5 1.3-1l.3-.5c.1 0 .2 0 .3.2a35.4 35.4 0 0 0 .8 3.8c0 .2.2.6 0 .6s-.3 0-.3-.2l-.5-1c-.2-.3-.7-.7-2-.5a81.7 81.7 0 0 0-4.5 1.6l1 2.7 1.6 5.2c.8 2 1.4 2.3 4.4 1.3.8-.2 2.1-.7 2.8-1.3.7-.6.8-1.3.7-2.6v-.6c.3 0 .3.2.4.4l.6 3.1c0 .9-.2 1-1.4 1.4L187 295l-2.4.6-1.2.5-1.8.6h-.5l.1-.3 1-.5c.5-.3.4-1 .3-2-.3-1.3-1-3.7-2-6.6l-1.8-5.4M206.2 282.7c1.4 2.2 2.1 2.8 3 2.6a7 7 0 0 0 1.5-.7h.3c0 .2 0 .4-.4.6l-3 1.6-2.6 1.6c-.3.2-.5.2-.6 0 0 0 0-.2.2-.2l1-.9c.6-.6.3-1.4-1.2-4l-9.2-16c-.6-1-.7-1.4-.5-1.5.2-.1 1 .2 1.5.3l14.3 4.5 11 3.4-8.6-14c-1-1.8-1.6-2.3-2.6-2l-1.4.7-.3-.1c-.1-.2 0-.3.4-.5l3-1.6 2.2-1.5c.4-.1.6-.2.7 0 0 0 0 .2-.2.3-.2 0-.4.2-.7.5-.8.7-.5 1.4.4 3l9.4 16.4 1 2c-.3.2-.8.1-3.2-.5a379.3 379.3 0 0 1-23.4-7.1l8 13M236.3 267.6c-.5 0-.6 0-1.2-.6l-2.1-2.7c-.2-.3-.3-.4-.2-.5.2-.2.2-.1.4 0l.9.9c2 1.5 4.1.7 5.7-.7 2.3-2 2-4.7.6-6.3-1.5-1.6-3-2-6.6-1.8h-1.9c-4.4.2-6.3-.7-7.7-2.4-2.3-2.5-2-6 1.1-8.7l2.4-1.8 1-.6c.2-.2.3-.1.4 0l2.1 2.6c.4.4.5.6.4.7-.2.1-.3 0-.5-.1l-1.4-1c-.4-.1-1.9-.5-4.1 1.4-1.7 1.5-2 3.7-.5 5.4 1.2 1.4 2.6 1.7 6.5 1.5l1.2-.1c4.8-.3 6.8.6 8.5 2.5.9 1 2.1 3.2 1.5 5.8-.4 1.7-1.4 3-2.7 4.2a9.7 9.7 0 0 1-3.8 2.3M249.5 241.7l5.4 4.4c.8.5 1.5.8 2.2.1l1-1h.3c.2 0 .1.2 0 .5l-2.7 3-2 2.4c-.2.3-.3.4-.5.2v-.3l.5-.8c.4-.6 0-1.1-.7-1.8l-5.2-4.7-4.3-3.6-5.4-4.4c-.9-.7-1.5-.8-2-.4l-.8.7c0 .1-.2.2-.3.1-.2-.1-.1-.3.1-.6l2.2-2.4 2-2.4c.2-.3.3-.4.5-.3v.3l-.5.7c-.4.8-.2 1.3.6 2.1l5.3 4.5 4.3 3.7M265.2 235.7c-.4.3-.5.2-1.3-.2l-2.8-2c-.3-.2-.4-.3-.3-.5.1-.1.2 0 .4 0l1.1.6c2.3.8 4.2-.5 5.3-2.3 1.6-2.6.5-5-1.2-6.2-1.9-1.1-3.5-1-6.8.1l-1.8.6c-4.2 1.4-6.3 1-8.1-.1-3-1.9-3.6-5.3-1.4-8.7.6-1.1 1.2-1.8 1.8-2.4l.8-.9c.1-.2.2-.2.3-.1.2 0 1 .7 2.8 1.9.5.3.6.4.6.6h-.5c-.4-.2-1.2-.5-1.6-.5-.4 0-2 0-3.6 2.5-1.2 1.8-1 4 1 5.3 1.6 1 3 .9 6.7-.5l1.1-.4c4.5-1.6 6.7-1.3 8.9 0 1.1.8 2.9 2.5 3 5.2.1 1.7-.5 3.4-1.4 4.8a9.7 9.7 0 0 1-3 3.2"/></g><g fill="#393536"><path d="m10 98.2-6.2-2.9c-1-.4-1.6-.4-2.2.5a6 6 0 0 0-.6 1H.7c-.2 0-.1-.2 0-.5L2.4 93l1.2-2.9c.2-.3.3-.4.5-.4.1.1.1.2 0 .4l-.2.7c-.3.9.2 1.3 1.1 1.9l6.3 3 4 2c4.2 1.9 6.5 1.8 8.2 1.1 2-.8 3-2 3.7-3.6.8-1.8.8-4 0-5.5-1-2.2-3.3-3.7-6.2-5l-3.7-1.8L11 80c-1-.4-1.6-.4-2.2.5l-.6 1H8V81l1.6-3c0-.3.6-1.7 1-2.5.2-.3.3-.5.5-.4v.3l-.2.8c-.2.9.2 1.3 1.1 1.9l6.3 3 3 1.4c3.2 1.5 6.5 3.5 7.5 6.8.9 3 .1 5.3-.7 7-.4 1-2 3.9-4.8 5-2 .8-4.6 1-8.9-1l-4.2-2M39.1 70.8c2 1.7 2.9 2 3.7 1.5a7 7 0 0 0 1.2-1c0-.1.2-.2.3 0l-.2.5-2.3 2.5-2 2.4c-.2.2-.4.3-.6.2v-.3c.2-.2.6-.7.8-1.2.4-.7-.2-1.4-2.4-3.4L23.9 59.8c-1-.8-1.2-1.2-1-1.3.2-.2 1-.2 1.5-.2l15-.3 11.4-.2-12.4-10.6c-1.6-1.4-2.3-1.7-3.1-1l-1.2 1c-.2.2-.2.1-.3 0-.2 0 0-.3.2-.6l2.3-2.4L38 42c.3-.3.4-.4.6-.3v.4l-.5.6c-.5 1-.1 1.5 1.3 2.8l14 12.6c1.6 1.4 1.7 1.5 1.6 1.7-.2.2-.7.2-3.1.4a374 374 0 0 1-24.5.6L39 71M65.7 39.4a78 78 0 0 0 4.2 5.7c.6.7 1.1 1.1 2 .7L73 45c.2-.1.3-.1.4 0 0 .1 0 .3-.3.5-1.5 1-3.2 2-3.3 2.2l-2.5 1.8c-.3.2-.5.3-.6.1l.1-.3.7-.6c.5-.5.2-1.2-.2-2a77 77 0 0 0-3.9-5.8l-3.2-4.7-4-5.6c-.7-.9-1.3-1.1-2-.9l-.8.5c-.1 0-.3.1-.4 0 0-.2 0-.3.3-.5l2.7-1.8c.2 0 1.8-1.3 2.5-1.9.3-.2.5-.2.6 0v.3c-.3 0-.4.2-.7.5-.6.6-.5 1.2 0 2.2l4 5.7 3.2 4.6M92 31.4a332.8 332.8 0 0 0-.8-20.3c0-.3-.3-.5-.7-.6-.4 0-.8.3-1.1.4-.2 0-.4.1-.4 0-.1-.2 0-.4.5-.6 1.2-.5 2.6-1 3-1 .1-.2 1.4-.8 2.2-1.1.4-.2.6-.2.6 0 0 .1 0 .2-.2.3-.3.1-.9.4-1.3 1-.3.4-.5 1-.5 3.4v20c0 2.1 0 2.7-.3 2.8-.3.1-.7-.2-1.8-1.4L76.3 19.2c-1.3-1.4-2-1.5-3-1.4-.6 0-1 .3-1.2.3-.2.1-.3 0-.4 0 0-.2.2-.4.7-.6l3.5-1.3 2.7-1.3c.6-.2.9-.3 1-.1 0 .1 0 .2-.3.3l-1 .6c-.3.3-.3.6-.2.8.2.4 1 1.1 1.8 2.1l12 12.8M113.9 13.3l-1.2-6.9c-.2-1-.6-1.5-1.7-1.5a6 6 0 0 0-1 0l-.3-.1a54 54 0 0 1 2.8-.7l1.2-.1 7.3-1.3c.6 0 1-.2 1.3-.3l.4-.3c.1 0 .2.1.2.3v1.5L123 6c0 .2 0 .4-.2.4s-.3 0-.3-.4l-.4-1c-.3-.5-.7-.9-2.4-.8l-4.4.7-.1.3 1.4 8.7c0 .3.1.4.3.3l5-.9c.7-.2 1.2-.3 1.4-.7l.4-.4c.1 0 .2 0 .2.2v1.8l.3 2c0 .3 0 .7-.2.7-.1 0-.2-.1-.2-.3l-.3-1c-.2-.4-.6-.9-1.9-.8a80.8 80.8 0 0 0-4.7.8l.5 2.8.8 5.4c.5 2.2 1 2.5 4.2 2 .8-.1 2.2-.3 3-.8.7-.5 1-1.2 1-2.5 0-.4 0-.5.2-.6.2 0 .2.3.3.5v3.1c0 .9-.3 1-1.5 1.1l-5.4.8-2.5.3-1.2.3c-.7 0-1.4.2-1.9.3l-.5-.1c0-.1 0-.2.2-.3l1-.3c.6-.2.6-1 .6-1.9 0-1.3-.5-3.8-1-6.9l-1-5.5M146.2 13.6c0 .2 0 .3.2.4.5.4 2 .7 3.3.8.8 0 1.7 0 2.5-.4 1.2-.7 2.1-2.4 2.3-4.8.3-4-1.7-6.6-5.1-6.8h-2.2l-.3.4-.7 10.4zm-2.4-3 .5-6.8c0-1.1-.2-1.7-1.3-2a6 6 0 0 0-1-.1c-.2 0-.3-.1-.3-.2 0-.2.2-.3.5-.3l3.6.4c.4 0 2.8 0 3.8.2 2 .1 4.2.4 5.8 1.8.7.6 2 2.3 1.9 4.5-.2 2.4-1.3 4.7-4.4 7.1 2.4 3.6 4.4 6.6 6 8.7 1.7 2 3 2.4 3.8 2.6l1.3.1.2.2c0 .2-.2.3-.7.3l-2.3-.2c-1.8-.1-2.6-.4-3.4-.9-1.3-.8-2.3-2.4-4-5l-3.2-5-.4-.2-3.9-.3c-.2 0-.2 0-.2.2v.8c-.3 3-.5 5.6-.4 7 0 .9.2 1.6 1.1 1.8l1.4.2c.2 0 .3.1.3.2 0 .2-.2.3-.5.3l-4-.4-3-.1c-.3 0-.5-.1-.5-.3 0-.1 0-.2.3-.2h1c.6-.1.8-.8 1-1.7.3-1.4.4-4 .6-7l.4-5.6M171.5 29.1c-.4-.3-.4-.5-.1-1.3l1.1-3.2c.2-.3.3-.5.4-.4.2 0 .2.2.1.4l-.2 1.2c-.3 2.4 1.5 3.9 3.6 4.5 3 .9 5-.8 5.6-2.8.7-2 .1-3.6-1.8-6.6l-1-1.5c-2.5-3.7-2.7-5.8-2-7.9 1-3.3 4.1-4.8 8-3.6 1.2.4 2 .8 2.8 1.2l1 .5c.3 0 .3.1.3.3L188 13c-.1.5-.2.7-.4.6-.2 0-.2-.2-.1-.4v-1.7c0-.4-.5-2-3.3-2.8-2-.6-4.2.2-4.8 2.4-.6 1.8-.1 3.1 2.1 6.3l.7 1c2.7 4 3 6 2.2 8.5a6.6 6.6 0 0 1-4.1 4.3 9.7 9.7 0 0 1-8.9-2.2M203.8 32.5l-3.1 6.2c-.4.9-.5 1.6.3 2.2l1.2.8c.1 0 .2.2.1.3h-.6l-3.4-2-2.8-1.4c-.3-.1-.5-.3-.4-.4 0-.1.2-.2.4-.1l.9.3c.6.2 1-.3 1.6-1a78 78 0 0 0 3.4-6.2l2.7-5a127 127 0 0 0 3.2-6.1c.4-1 .4-1.6-.1-2.1l-.9-.6s-.2-.2-.1-.3h.6l2.8 1.6 2.8 1.4c.3.2.4.3.3.5h-.3l-.7-.2c-.9-.3-1.3 0-2 1l-3.2 6.1-2.7 5M226.3 48c-2 2.3-3.5 4.3-4.3 5.4-.5.8-.8 1.5-.1 2.2l1 1v.3c0 .2-.2.1-.5-.1l-3-2.6-2.5-2c-.2-.2-.3-.3-.2-.5h.3l.9.6c.5.3 1.1-.2 1.8-.8l4.6-5.2 8.7-10.5-3.7-3c-1.6-1.2-2.3-1.6-3.2-1.3l-1 .4c-.3.2-.4.2-.5 0v-.3c.2-.2 2.5-2 2.7-2 .2-.2.6-.4.7-.3.1.1.2.6.8 1.2l1.8 1.7L240 40c.8.7 1.4 1 1.9 1.3l.8.5-.2.4-2.3 2.7c-.2.2-.3.2-.4.1-.2 0-.2-.2.1-.6l.2-.2c.6-.9.4-2-1.9-4l-3-2.6-8.8 10.5M248.5 69.8h.3l5-7.7c.3-.4.2-.6-.3-.4l-8.6 3c-.2 0-.2.2-.1.2l3.7 5zm8.2-10.4c1-.4 1.3-.4 1.4-.2.1.1 0 .3-.5 1.2l-10.8 17.7c-1.6 2.7-1.4 3.7-1.2 4.4l.6 1.1c.2.2.2.3 0 .4 0 .1-.3 0-.5-.4l-3-4c-.4-.5-.6-.8-.4-1l.3.1c.2.1.5.1.8-.3l4.5-7.2v-.3l-4.2-5.5c-.1-.2-.3-.2-.4-.1l-5.7 1.9c-.8.2-1.6.6-2 1-.5.3-.3 1 0 1.5l.2.2c.1.2.1.3 0 .4-.1.1-.3 0-.5-.2l-1.4-2-2.3-3c-.2-.2-.3-.4-.2-.5.1-.1.3 0 .4 0l.6.8c1 1 2.4.8 4 .3l20.3-6.3M252.3 92.8c0-.5.1-.6.9-1l3.2-1.2h.5c.1.2 0 .2-.2.3l-1 .6c-2 1.5-2 3.8-1 5.7 1.2 2.8 3.9 3.3 5.7 2.4 2-.9 2.8-2.3 3.8-5.7l.5-1.8c1-4.3 2.6-5.8 4.6-6.7 3-1.5 6.3 0 8 3.6.5 1.2.8 2 1 2.9 0 .6.1.8.2 1 .1.3.1.4 0 .4l-3.2 1.3c-.5.3-.7.3-.7.1-.1-.1 0-.2.2-.4l1.3-1c.3-.3 1.1-1.7-.1-4.4-1-2-2.9-3-5-2-1.7.7-2.4 2-3.3 5.8l-.3 1c-1.1 4.8-2.6 6.4-5 7.5-1.1.5-3.5 1-5.9-.3a8.5 8.5 0 0 1-3.2-3.8c-.6-1.4-1-2.9-1-4.3"/></g></g></svg>