<svg xmlns="http://www.w3.org/2000/svg" xmlns:xlink="http://www.w3.org/1999/xlink" xml:space="preserve" fill="#3e3e3b" viewBox="0 0 212.6 61.5"><path d="M207.8 53.3h1.1c.5 0 .9.1 1.2.2.5.2.9.8.9 1.3 0 .6-.2 1-.5 1.3-.3.3-.8.4-1.7.4h-1zm1.1-.8h-2.1v8.7h1.1v-3.9c.5 0 .7.1 1 .6 1.2 1.5 2.1 2.8 2.3 3.4h1.4s-1.7-2.5-2.1-3c-.2-.2-.5-.6-.9-1h.1c1.5 0 2.4-1 2.4-2.4 0-.9-.5-1.5-.9-1.8-.5-.4-1.1-.6-2.3-.6m-6.1 0h-5v8.7h5.2v-.9h-4v-3.2h3.2v-.9h-3.3v-2.9h3.8zm-8.5 0h-6.1v.9h2.5v7.9h1.1v-7.9h2.5zm-15.2 7.3-.5.8c.9.5 1.8.8 2.9.8.8 0 1.5-.2 2.1-.5.8-.5 1.3-1.3 1.3-2.1 0-.5-.2-1.1-.6-1.5-.4-.4-.8-.6-1.6-.9l-1.1-.3c-1.1-.3-1.5-.7-1.5-1.4 0-.9.7-1.4 1.8-1.4.8 0 1.4.2 2.2.7l.5-.8c-.9-.6-1.8-.8-2.8-.8-1.8 0-3 1-3 2.5 0 .6.2 1 .6 1.4.4.4.8.5 1.6.8l.9.3c1.1.3 1.6.9 1.6 1.6 0 .5-.2.9-.7 1.2-.4.3-.8.4-1.5.4-.7-.1-1.4-.3-2.2-.8m-20-7.3H158v6.3c0 .4 0 .9.3 1.4.5.9 1.3 1.3 2.7 1.3 1.1 0 1.9-.2 2.4-.7.5-.4.7-.9.7-2v-6.2H163v6.1c0 .6 0 1-.3 1.4-.3.4-.9.5-1.6.5-1.1 0-1.6-.5-1.8-.9-.1-.3-.2-.8-.2-1.3zm4-1.2c0-.4-.3-.6-.7-.6-.4 0-.7.3-.7.6 0 .4.3.7.7.7.4 0 .7-.4.7-.7m-3.5.6c.4 0 .7-.3.7-.7 0-.4-.3-.6-.7-.6-.4 0-.7.3-.7.6 0 .4.4.7.7.7m-13.7.6-.8 8.7h1.1l.5-6.2c0-.5.1-1.5.1-1.7 0 .2.2.8.5 1.7l1.8 6.2h.9l2-6.5c.2-.5.3-1.3.4-1.4 0 .1 0 .9.1 1.5l.5 6.4h1.1l-.8-8.7h-1.6l-1.7 5.8c-.2.7-.3 1.3-.3 1.4 0-.1-.1-.7-.4-1.5l-1.7-5.7zm23.9 0h-1.3v8.7h1.1l-.1-5.1c0-1.1-.1-2.4-.1-2.4s.5 1 1 2.1l3 5.3h1.2v-8.7h-1.1v4.8c0 1.2.1 2.6.1 2.7 0-.1-.4-1-.9-1.8zm42.8-13.4V24.8h-4.3v13.6c0 1.1 0 1.4-.1 1.9-.2 1.6-1.4 2.5-3.2 2.5-1.4 0-2.4-.5-2.9-1.5-.2-.5-.4-1.2-.4-2.5v-14h-4.4v14.8c0 2 .2 2.9.9 4 1.2 1.9 3.6 2.8 6.8 2.8 4.6 0 6.7-2.3 7.2-4 .4-.9.4-1.3.4-3.3"/><path id="a" d="m162.3 46.2 5.1-21.5h-4.5l-1.7 8.1c-.5 2.1-1.1 6.4-1.2 7.1 0 0-.5-3.6-.9-5.6l-2-9.5h-4.7l-1.9 8.6c-.6 2.9-1 6-1.1 6.8 0 0-.3-3-1.1-7l-1.8-8.4H142l5.1 21.5h4.9l1.8-8.7c.6-2.8.9-5.5 1-6 .1.8.4 3.4 1 6.1l1.9 8.7h4.6z"/><use xlink:href="#a" transform="translate(27.2)"/><path d="M63.7 0h2v4.6h-2zM60.4 6.4h8.7v2.2h-8.7zM57.4 15.8h14.7v4.6H57.4z"/><path id="b" d="M0 24.8h50.3v4.6H0z"/><use xlink:href="#b" transform="translate(79.2)"/><path d="M0 37.6h129.6v2.2H0zM0 56.6h129.6v4.6H0z"/></svg>